<?xml version="1.0" encoding="UTF-8" standalone="no"?>
<svg
   width="9.9141569mm"
   height="9.9141569mm"
   viewBox="0 0 37.470829 37.470829"
   version="1.1"
   id="svg12"
   sodipodi:docname="uroboros.svg"
   inkscape:version="1.1.1 (3bf5ae0d25, 2021-09-20)"
   xmlns:inkscape="http://www.inkscape.org/namespaces/inkscape"
   xmlns:sodipodi="http://sodipodi.sourceforge.net/DTD/sodipodi-0.dtd"
   xmlns="http://www.w3.org/2000/svg"
   xmlns:svg="http://www.w3.org/2000/svg"
   xmlns:rdf="http://www.w3.org/1999/02/22-rdf-syntax-ns#"
   xmlns:cc="http://creativecommons.org/ns#"
   xmlns:dc="http://purl.org/dc/elements/1.1/">
  <defs
     id="defs16" />
  <sodipodi:namedview
     id="namedview14"
     pagecolor="#ffffff"
     bordercolor="#666666"
     borderopacity="1.0"
     inkscape:pageshadow="2"
     inkscape:pageopacity="0.0"
     inkscape:pagecheckerboard="0"
     showgrid="false"
     units="mm"
     fit-margin-top="0"
     fit-margin-left="0"
     fit-margin-right="0"
     fit-margin-bottom="0"
     inkscape:zoom="1.1170905"
     inkscape:cx="90.861035"
     inkscape:cy="144.57199"
     inkscape:window-width="1360"
     inkscape:window-height="708"
     inkscape:window-x="0"
     inkscape:window-y="0"
     inkscape:window-maximized="1"
     inkscape:current-layer="svg12"
     inkscape:document-units="mm" />
  <title
     id="title2">Simple ouroboros depiction (glyph &quot;oroboros&quot; from toa267 public domain Fnord-Podge font)</title>
  <g
     transform="matrix(0.03747083,0,0,-0.03747083,0,37.47083)"
     id="g10">
    <path
       fill="#ebebeb"
       d="m 604,24 c 231,47 396,246 396,476 0,276 -224,500 -500,500 C 224,1000 0,776 0,500 0,283 146,92 358,30 c 5,-1 7,-2 12,-2 18,0 33,-13 53,-13 10,0 35,3 45,3 30,0 74,-18 104,-18 13,0 28,10 32,24 z M 342,136 C 192,198 95,341 95,500 95,724 276,905 500,905 724,905 905,724 905,500 905,328 795,176 632,120 c 1,18 -22,29 -48,29 -14,0 -27,-5 -34,-5 -10,0 -28,11 -46,11 -20,0 -54,-8 -84,-13 -30,-5 -63,-12 -78,-6 z"
       id="path4" />
    <path
       d="m 604,24 c 231,47 396,246 396,476 0,276 -224,500 -500,500 C 224,1000 0,776 0,500 0,283 146,92 358,30 c 5,-1 7,-2 12,-2 18,0 33,-13 53,-13 10,0 35,3 45,3 30,0 74,-18 104,-18 13,0 28,10 32,24 z M 357,43 C 152,104 12,290 12,500 12,770 230,988 500,988 770,988 988,770 988,500 988,269 818,72 585,32 c -36,-6 -86,16 -86,23 0,5 21,12 25,14 C 763,81 950,270 950,500 950,749 749,950 500,950 251,950 50,749 50,500 50,346 133,202 268,123 c 13,-6 37,-7 47,-7 10,0 46,2 56,7 10,5 49,10 69,15 20,5 47,9 62,9 25,0 48,-15 56,-14 v 2 c 0,3 9,5 27,5 20,0 41,-7 39,-23 l -24,-9 C 580,102 571,103 561,99 536,91 530,80 507,70 484,60 450,60 450,55 c 0,-3 15,-4 25,-5 25,-3 50,-23 80,-26 20,-2 25,-1 39,0 -1,-5 -9,-15 -22,-15 -32,0 -72,19 -99,19 -15,0 -26,-6 -41,-6 -22,0 -47,18 -67,30 -5,3 -10,6 -15,6 -5,0 -5,-1 -5,-2 0,-4 20,-10 20,-13 0,-2 -3,-1 -8,0 z M 572,92 C 772,127 917,299 917,500 917,730 730,917 500,917 270,917 83,730 83,500 83,337 183,189 337,125 313,122 285,124 272,130 139,208 58,348 58,500 58,744 256,942 500,942 744,942 942,744 942,500 942,280 767,97 539,78 c 5,2 13,12 33,14 z M 342,136 C 192,198 95,341 95,500 95,724 276,905 500,905 724,905 905,724 905,500 905,328 795,176 632,120 c 1,18 -22,29 -48,29 -14,0 -27,-5 -34,-5 -10,0 -28,11 -46,11 -20,0 -54,-8 -84,-13 -30,-5 -63,-12 -78,-6 z m 104,-16 c 0,-2 4,-3 14,-3 15,-1 18,-13 30,-13 21,0 30,9 37,9 l 10,-2 1,2 c -10,7 -25,17 -35,17 -5,0 -10,-1 -20,-4 -15,-4 -37,-4 -37,-6 z m 134,7 c 18,-3 17,-9 27,-9 3,0 5,2 5,5 0,3 -12,6 -31,7 z"
       id="path6" />
    <path
       fill="#ffffff"
       d="m 472,119 15,3 c 0,-5 3,-10 5,-13 -9,0 -15,8 -20,10 z m 50,-2 -17,-7 c 1,5 1,10 0,15 8,-2 12,-5 17,-8 z"
       id="path8" />
  </g>
  <metadata
     id="metadata20">
    <rdf:RDF>
      <cc:Work
         rdf:about="">
        <dc:title>Simple ouroboros depiction (glyph &quot;oroboros&quot; from toa267 public domain Fnord-Podge font)</dc:title>
      </cc:Work>
    </rdf:RDF>
  </metadata>
</svg>
