<svg xmlns="http://www.w3.org/2000/svg" xmlns:xlink="http://www.w3.org/1999/xlink" version="1.2" width="210.00mm" height="297.00mm" viewBox="0 0 119.5016 169.0094">
<style text="style/css">
<![CDATA[
tspan { white-space: pre; }
]]>
</style>
<!-- Page: 1/1 -->
<text transform="translate(5.6906, 2.8453)" font-family="serif" font-size="2.2001" text-anchor="start" fill="currentColor">
<tspan/>
</text>
<g isstaff="true">
<line transform="translate(14.2264, 9.6213)" stroke-linejoin="round" stroke-linecap="round" stroke-width="0.1138" stroke="currentColor" x1="0.0569" y1="-0.0000" x2="89.4170" y2="-0.0000"/>
<line transform="translate(14.2264, 8.6213)" stroke-linejoin="round" stroke-linecap="round" stroke-width="0.1138" stroke="currentColor" x1="0.0569" y1="-0.0000" x2="89.4170" y2="-0.0000"/>
<line transform="translate(14.2264, 7.6213)" stroke-linejoin="round" stroke-linecap="round" stroke-width="0.1138" stroke="currentColor" x1="0.0569" y1="-0.0000" x2="89.4170" y2="-0.0000"/>
<line transform="translate(14.2264, 6.6213)" stroke-linejoin="round" stroke-linecap="round" stroke-width="0.1138" stroke="currentColor" x1="0.0569" y1="-0.0000" x2="89.4170" y2="-0.0000"/>
<line transform="translate(14.2264, 5.6213)" stroke-linejoin="round" stroke-linecap="round" stroke-width="0.1138" stroke="currentColor" x1="0.0569" y1="-0.0000" x2="89.4170" y2="-0.0000"/>
</g>
<rect transform="translate(64.5425, 3.8453)" x="0.0000" y="5.8329" width="0.2162" height="4.9431" ry="0.0000" fill="currentColor"/>
<rect transform="translate(103.4841, 7.6213)" x="0.0000" y="-2.0000" width="0.2162" height="4.0569" ry="0.0000" fill="currentColor"/>
<rect transform="translate(83.5687, 7.6213)" x="0.0000" y="-2.0000" width="0.2162" height="4.0569" ry="0.0000" fill="currentColor"/>
<rect transform="translate(103.4841, 16.6213)" x="0.0000" y="-2.0569" width="0.2162" height="4.0569" ry="0.0000" fill="currentColor"/>
<rect transform="translate(64.5425, 16.6213)" x="0.0000" y="-2.0569" width="0.2162" height="4.0569" ry="0.0000" fill="currentColor"/>
<rect transform="translate(43.6787, 16.6213)" x="0.0000" y="-2.0569" width="0.2162" height="4.0569" ry="0.0000" fill="currentColor"/>
<rect transform="translate(103.4841, 3.8453)" x="0.0000" y="5.8329" width="0.2162" height="4.9431" ry="0.0000" fill="currentColor"/>
<rect transform="translate(43.6787, 3.8453)" x="0.0000" y="5.8329" width="0.2162" height="4.9431" ry="0.0000" fill="currentColor"/>
<rect transform="translate(43.6787, 7.6213)" x="0.0000" y="-2.0000" width="0.2162" height="4.0569" ry="0.0000" fill="currentColor"/>
<rect transform="translate(83.5687, 16.6213)" x="0.0000" y="-2.0569" width="0.2162" height="4.0569" ry="0.0000" fill="currentColor"/>
<rect transform="translate(83.5687, 3.8453)" x="0.0000" y="5.8329" width="0.2162" height="4.9431" ry="0.0000" fill="currentColor"/>
<rect transform="translate(64.5425, 7.6213)" x="0.0000" y="-2.0000" width="0.2162" height="4.0569" ry="0.0000" fill="currentColor"/>
<rect transform="translate(5.6906, 10.6213)" x="85.9726" y="-0.1069" width="1.9563" height="0.2138" ry="0.1069" fill="currentColor"/>
<rect transform="translate(5.6906, 10.6213)" x="82.3726" y="-0.1069" width="1.9563" height="0.2138" ry="0.1069" fill="currentColor"/>
<rect transform="translate(5.6906, 10.6213)" x="78.6683" y="-0.1069" width="1.9563" height="0.2138" ry="0.1069" fill="currentColor"/>
<rect transform="translate(5.6906, 10.6213)" x="73.6680" y="-0.1069" width="1.9563" height="0.2138" ry="0.1069" fill="currentColor"/>
<rect transform="translate(5.6906, 10.6213)" x="69.2478" y="-0.1069" width="1.9563" height="0.2138" ry="0.1069" fill="currentColor"/>
<rect transform="translate(5.6906, 10.6213)" x="64.8304" y="-0.1069" width="1.9563" height="0.2138" ry="0.1069" fill="currentColor"/>
<rect transform="translate(5.6906, 10.6213)" x="62.4304" y="-0.1069" width="1.9563" height="0.2138" ry="0.1069" fill="currentColor"/>
<rect transform="translate(5.6906, 10.6213)" x="48.5868" y="-0.1069" width="1.9563" height="0.2138" ry="0.1069" fill="currentColor"/>
<rect transform="translate(5.6906, 10.6213)" x="46.1868" y="-0.1069" width="1.9563" height="0.2138" ry="0.1069" fill="currentColor"/>
<rect transform="translate(5.6906, 10.6213)" x="43.6826" y="-0.1069" width="1.9563" height="0.2138" ry="0.1069" fill="currentColor"/>
<rect transform="translate(5.6906, 10.6213)" x="41.2826" y="-0.1069" width="1.9563" height="0.2138" ry="0.1069" fill="currentColor"/>
<rect transform="translate(5.6906, 10.6213)" x="27.8745" y="-0.1069" width="1.9563" height="0.2138" ry="0.1069" fill="currentColor"/>
<rect transform="translate(5.6906, 10.6213)" x="25.4745" y="-0.1069" width="1.9563" height="0.2138" ry="0.1069" fill="currentColor"/>
<rect transform="translate(5.6906, 10.6213)" x="22.9703" y="-0.1069" width="1.9563" height="0.2138" ry="0.1069" fill="currentColor"/>
<rect transform="translate(5.6906, 10.6213)" x="18.8661" y="-0.1069" width="1.9563" height="0.2138" ry="0.1069" fill="currentColor"/>
<rect transform="translate(5.6906, 19.6213)" x="85.9726" y="-0.1069" width="1.9563" height="0.2138" ry="0.1069" fill="currentColor"/>
<rect transform="translate(5.6906, 19.6213)" x="82.3726" y="-0.1069" width="1.9563" height="0.2138" ry="0.1069" fill="currentColor"/>
<rect transform="translate(5.6906, 19.6213)" x="78.6683" y="-0.1069" width="1.9563" height="0.2138" ry="0.1069" fill="currentColor"/>
<rect transform="translate(5.6906, 19.6213)" x="73.6680" y="-0.1069" width="1.9563" height="0.2138" ry="0.1069" fill="currentColor"/>
<rect transform="translate(5.6906, 19.6213)" x="71.2652" y="-0.1069" width="1.9563" height="0.2138" ry="0.1069" fill="currentColor"/>
<rect transform="translate(5.6906, 19.6213)" x="66.8478" y="-0.1069" width="1.9563" height="0.2138" ry="0.1069" fill="currentColor"/>
<rect transform="translate(5.6906, 19.6213)" x="55.8431" y="-0.1069" width="1.9563" height="0.2138" ry="0.1069" fill="currentColor"/>
<rect transform="translate(5.6906, 19.6213)" x="53.3389" y="-0.1069" width="1.9563" height="0.2138" ry="0.1069" fill="currentColor"/>
<rect transform="translate(5.6906, 19.6213)" x="50.9389" y="-0.1069" width="1.9563" height="0.2138" ry="0.1069" fill="currentColor"/>
<rect transform="translate(5.6906, 19.6213)" x="38.7784" y="-0.1069" width="1.9563" height="0.2138" ry="0.1069" fill="currentColor"/>
<rect transform="translate(5.6906, 19.6213)" x="35.1579" y="-0.1069" width="1.9563" height="0.2138" ry="0.1069" fill="currentColor"/>
<rect transform="translate(5.6906, 19.6213)" x="32.6537" y="-0.1069" width="1.9563" height="0.2138" ry="0.1069" fill="currentColor"/>
<rect transform="translate(5.6906, 19.6213)" x="30.2537" y="-0.1069" width="1.9563" height="0.2138" ry="0.1069" fill="currentColor"/>
<rect transform="translate(5.6906, 19.6213)" x="18.9161" y="-0.1069" width="1.9063" height="0.2138" ry="0.1069" fill="currentColor"/>
<rect transform="translate(5.6906, 19.6213)" x="16.9098" y="-0.1069" width="1.9063" height="0.2138" ry="0.1069" fill="currentColor"/>
<g isstaff="true">
<line transform="translate(14.2264, 18.6213)" stroke-linejoin="round" stroke-linecap="round" stroke-width="0.1138" stroke="currentColor" x1="0.0569" y1="-0.0000" x2="89.4170" y2="-0.0000"/>
<line transform="translate(14.2264, 17.6213)" stroke-linejoin="round" stroke-linecap="round" stroke-width="0.1138" stroke="currentColor" x1="0.0569" y1="-0.0000" x2="89.4170" y2="-0.0000"/>
<line transform="translate(14.2264, 16.6213)" stroke-linejoin="round" stroke-linecap="round" stroke-width="0.1138" stroke="currentColor" x1="0.0569" y1="-0.0000" x2="89.4170" y2="-0.0000"/>
<line transform="translate(14.2264, 15.6213)" stroke-linejoin="round" stroke-linecap="round" stroke-width="0.1138" stroke="currentColor" x1="0.0569" y1="-0.0000" x2="89.4170" y2="-0.0000"/>
<line transform="translate(14.2264, 14.6213)" stroke-linejoin="round" stroke-linecap="round" stroke-width="0.1138" stroke="currentColor" x1="0.0569" y1="-0.0000" x2="89.4170" y2="-0.0000"/>
</g>
<rect transform="translate(74.0946, 16.6213)" x="-0.0740" y="-1.0334" width="0.1480" height="3.8473" ry="0.0400" fill="currentColor"/>
<a style="color:inherit;" xlink:href="textedit:///home/paolo/programmi/nuove-composizioni/Spontini-test/examples/easy-cross-staff-example-2.ly:72:13:14">
<path transform="translate(72.8644, 19.6213) scale(0.0040, -0.0040)" d="M218 136c55 0 108 -28 108 -89c0 -71 -55 -121 -102 -149c-35 -21 -75 -34 -116 -34c-55 0 -108 28 -108 89c0 71 55 121 102 149c35 21 75 34 116 34z" fill="currentColor"/>
</a>
<a style="color:inherit;" xlink:href="textedit:///home/paolo/programmi/nuove-composizioni/Spontini-test/examples/easy-cross-staff-example-2.ly:72:13:14">
<path transform="translate(72.8644, 19.6213) scale(0.0040, -0.0040)" d="M218 136c55 0 108 -28 108 -89c0 -71 -55 -121 -102 -149c-35 -21 -75 -34 -116 -34c-55 0 -108 28 -108 89c0 71 55 121 102 149c35 21 75 34 116 34z" fill="currentColor"/>
</a>
<a style="color:inherit;" xlink:href="textedit:///home/paolo/programmi/nuove-composizioni/Spontini-test/examples/easy-cross-staff-example-2.ly:77:13:14">
<path transform="translate(77.2818, 19.6213) scale(0.0040, -0.0040)" d="M218 136c55 0 108 -28 108 -89c0 -71 -55 -121 -102 -149c-35 -21 -75 -34 -116 -34c-55 0 -108 28 -108 89c0 71 55 121 102 149c35 21 75 34 116 34z" fill="currentColor"/>
</a>
<a style="color:inherit;" xlink:href="textedit:///home/paolo/programmi/nuove-composizioni/Spontini-test/examples/easy-cross-staff-example-2.ly:77:13:14">
<path transform="translate(77.2818, 19.6213) scale(0.0040, -0.0040)" d="M218 136c55 0 108 -28 108 -89c0 -71 -55 -121 -102 -149c-35 -21 -75 -34 -116 -34c-55 0 -108 28 -108 89c0 71 55 121 102 149c35 21 75 34 116 34z" fill="currentColor"/>
</a>
<rect transform="translate(75.3384, 7.6213)" x="-0.0740" y="3.1861" width="0.1480" height="3.3473" ry="0.0400" fill="currentColor"/>
<a style="color:inherit;" xlink:href="textedit:///home/paolo/programmi/nuove-composizioni/Spontini-test/examples/easy-cross-staff-example-2.ly:76:4:5">
<path transform="translate(75.2644, 10.6213) scale(0.0040, -0.0040)" d="M218 136c55 0 108 -28 108 -89c0 -71 -55 -121 -102 -149c-35 -21 -75 -34 -116 -34c-55 0 -108 28 -108 89c0 71 55 121 102 149c35 21 75 34 116 34z" fill="currentColor"/>
</a>
<a style="color:inherit;" xlink:href="textedit:///home/paolo/programmi/nuove-composizioni/Spontini-test/examples/easy-cross-staff-example-2.ly:76:4:5">
<path transform="translate(75.2644, 10.6213) scale(0.0040, -0.0040)" d="M218 136c55 0 108 -28 108 -89c0 -71 -55 -121 -102 -149c-35 -21 -75 -34 -116 -34c-55 0 -108 28 -108 89c0 71 55 121 102 149c35 21 75 34 116 34z" fill="currentColor"/>
</a>
<rect transform="translate(66.8890, 16.6213)" x="-0.0740" y="-3.9660" width="0.1480" height="3.2799" ry="0.0400" fill="currentColor"/>
<a style="color:inherit;" xlink:href="textedit:///home/paolo/programmi/nuove-composizioni/Spontini-test/examples/easy-cross-staff-example-2.ly:67:9:10">
<path transform="translate(65.6588, 15.1213) scale(0.0040, -0.0040)" d="M218 136c55 0 108 -28 108 -89c0 -71 -55 -121 -102 -149c-35 -21 -75 -34 -116 -34c-55 0 -108 28 -108 89c0 71 55 121 102 149c35 21 75 34 116 34z" fill="currentColor"/>
</a>
<a style="color:inherit;" xlink:href="textedit:///home/paolo/programmi/nuove-composizioni/Spontini-test/examples/easy-cross-staff-example-2.ly:67:5:6">
<path transform="translate(65.6588, 16.1213) scale(0.0040, -0.0040)" d="M218 136c55 0 108 -28 108 -89c0 -71 -55 -121 -102 -149c-35 -21 -75 -34 -116 -34c-55 0 -108 28 -108 89c0 71 55 121 102 149c35 21 75 34 116 34z" fill="currentColor"/>
</a>
<a style="color:inherit;" xlink:href="textedit:///home/paolo/programmi/nuove-composizioni/Spontini-test/examples/easy-cross-staff-example-2.ly:67:9:10">
<path transform="translate(65.6588, 15.1213) scale(0.0040, -0.0040)" d="M218 136c55 0 108 -28 108 -89c0 -71 -55 -121 -102 -149c-35 -21 -75 -34 -116 -34c-55 0 -108 28 -108 89c0 71 55 121 102 149c35 21 75 34 116 34z" fill="currentColor"/>
</a>
<a style="color:inherit;" xlink:href="textedit:///home/paolo/programmi/nuove-composizioni/Spontini-test/examples/easy-cross-staff-example-2.ly:67:5:6">
<path transform="translate(65.6588, 16.1213) scale(0.0040, -0.0040)" d="M218 136c55 0 108 -28 108 -89c0 -71 -55 -121 -102 -149c-35 -21 -75 -34 -116 -34c-55 0 -108 28 -108 89c0 71 55 121 102 149c35 21 75 34 116 34z" fill="currentColor"/>
</a>
<a style="color:inherit;" xlink:href="textedit:///home/paolo/programmi/nuove-composizioni/Spontini-test/examples/easy-cross-staff-example-2.ly:71:4:5">
<path transform="translate(70.8470, 10.6213) scale(0.0040, -0.0040)" d="M218 136c55 0 108 -28 108 -89c0 -71 -55 -121 -102 -149c-35 -21 -75 -34 -116 -34c-55 0 -108 28 -108 89c0 71 55 121 102 149c35 21 75 34 116 34z" fill="currentColor"/>
</a>
<a style="color:inherit;" xlink:href="textedit:///home/paolo/programmi/nuove-composizioni/Spontini-test/examples/easy-cross-staff-example-2.ly:71:4:5">
<path transform="translate(70.8470, 10.6213) scale(0.0040, -0.0040)" d="M218 136c55 0 108 -28 108 -89c0 -71 -55 -121 -102 -149c-35 -21 -75 -34 -116 -34c-55 0 -108 28 -108 89c0 71 55 121 102 149c35 21 75 34 116 34z" fill="currentColor"/>
</a>
<rect transform="translate(70.9210, 7.6213)" x="-0.0740" y="3.1861" width="0.1480" height="3.3473" ry="0.0400" fill="currentColor"/>
<rect transform="translate(68.5210, 7.6213)" x="-0.0740" y="3.1861" width="0.1480" height="2.5968" ry="0.0400" fill="currentColor"/>
<a style="color:inherit;" xlink:href="textedit:///home/paolo/programmi/nuove-composizioni/Spontini-test/examples/easy-cross-staff-example-2.ly:66:20:21">
<path transform="translate(68.4470, 10.6213) scale(0.0040, -0.0040)" d="M218 136c55 0 108 -28 108 -89c0 -71 -55 -121 -102 -149c-35 -21 -75 -34 -116 -34c-55 0 -108 28 -108 89c0 71 55 121 102 149c35 21 75 34 116 34z" fill="currentColor"/>
</a>
<a style="color:inherit;" xlink:href="textedit:///home/paolo/programmi/nuove-composizioni/Spontini-test/examples/easy-cross-staff-example-2.ly:66:20:21">
<path transform="translate(68.4470, 10.6213) scale(0.0040, -0.0040)" d="M218 136c55 0 108 -28 108 -89c0 -71 -55 -121 -102 -149c-35 -21 -75 -34 -116 -34c-55 0 -108 28 -108 89c0 71 55 121 102 149c35 21 75 34 116 34z" fill="currentColor"/>
</a>
<a style="color:inherit;" xlink:href="textedit:///home/paolo/programmi/nuove-composizioni/Spontini-test/examples/easy-cross-staff-example-2.ly:94:16:17">
<path transform="translate(97.9137, 16.6213) scale(0.0040, -0.0040)" d="M-23 -116c0 28 11 42 40 42c33 0 78 -13 119 -31l-132 158c-7 9 -10 17 -10 25c0 34 50 66 87 99c25 22 37 52 37 83c0 24 -8 49 -25 69l-35 42c-3 3 -4 7 -4 10c0 9 9 15 17 15c4 0 8 -1 11 -5l151 -180c7 -9 10 -17 10 -25c0 -34 -50 -66 -87 -99
c-25 -22 -37 -52 -37 -83c0 -24 7 -49 24 -69l84 -99c3 -3 4 -7 4 -10c0 -9 -8 -16 -16 -16c-4 0 -9 2 -12 6c-18 21 -63 38 -97 38c-41 0 -53 -26 -53 -67c0 -35 11 -74 28 -94c5 -6 0 -13 -6 -13c-2 0 -4 0 -6 2c-45 54 -92 148 -92 202z" fill="currentColor"/>
</a>
<rect transform="translate(92.0631, 3.8453)" x="-0.0740" y="6.9621" width="0.1480" height="11.3139" ry="0.0400" fill="currentColor"/>
<rect transform="translate(92.0631, 7.6213)" x="-0.0740" y="3.1861" width="0.1480" height="2.3139" ry="0.0400" fill="currentColor"/>
<a style="color:inherit;" xlink:href="textedit:///home/paolo/programmi/nuove-composizioni/Spontini-test/examples/easy-cross-staff-example-2.ly:86:1:2">
<text transform="translate(89.9918, 29.3071)" font-family="monospace" font-weight="bold" font-size="2.2001" text-anchor="start" fill="currentColor">
<tspan>Ped</tspan>
</text>
</a>
<a style="color:inherit;" xlink:href="textedit:///home/paolo/programmi/nuove-composizioni/Spontini-test/examples/easy-cross-staff-example-2.ly:86:1:2">
<g transform="translate(91.1390, 23.9484)" >
<path transform="scale(0.0040, -0.0040)" d="M-41 146c26 76 82 153 149 153c22 0 36 -20 41 -45c22 26 51 45 81 45c23 0 38 -21 44 -46c22 27 51 46 80 46c33 0 59 -35 59 -69c0 -5 -1 -10 -2 -15l-35 -149c0 -2 -1 -4 -1 -5c0 -5 2 -8 7 -8c9 0 27 11 48 31c4 4 9 6 13 6c6 0 11 -4 11 -10c0 -4 -3 -8 -7 -12
c-40 -38 -85 -75 -131 -75c-20 0 -32 13 -32 32c0 4 0 7 1 11l39 165c1 5 2 9 2 14c0 10 -4 18 -14 18c-16 0 -33 -16 -39 -32l-53 -183c-3 -10 -12 -18 -22 -18h-41c-10 0 -16 8 -13 18l52 183c2 6 3 11 3 16c0 9 -4 16 -13 16c-16 0 -35 -15 -41 -32l-62 -183
c-3 -10 -14 -18 -24 -18h-41c-10 0 -15 8 -12 18l63 183c2 5 2 10 2 15c0 10 -3 17 -13 17c-29 0 -54 -53 -66 -87c-4 -11 -15 -17 -23 -17c-7 0 -12 4 -12 11c0 2 1 4 2 6z" fill="currentColor"/>

<path transform="translate(1.7413, 0.0000) scale(0.0040, -0.0040)" d="M253 245l-50 -163c-30 -99 -121 -255 -218 -255c-45 0 -87 27 -87 69c0 39 17 77 52 77c24 0 44 -20 44 -44c0 -30 -38 -24 -38 -54c0 -10 11 -11 23 -11h6c48 0 61 58 73 108l68 273h-49c-11 0 -19 8 -19 19s8 19 19 19h60c32 96 118 191 213 191c45 0 87 -27 87 -69
c0 -39 -17 -77 -52 -77c-24 0 -44 19 -44 43c0 30 38 25 38 55c0 10 -10 11 -22 11h-7c-62 0 -70 -88 -86 -154h55c11 0 19 -8 19 -19s-8 -19 -19 -19h-66z" fill="currentColor"/>
</g>
</a>
<a style="color:inherit;" xlink:href="textedit:///home/paolo/programmi/nuove-composizioni/Spontini-test/examples/easy-cross-staff-example-2.ly:86:1:2">
<text transform="translate(91.9892, 26.7302)" font-family="serif" font-size="2.2001" text-anchor="start" fill="currentColor">
<tspan>espressivo</tspan>
</text>
</a>
<a style="color:inherit;" xlink:href="textedit:///home/paolo/programmi/nuove-composizioni/Spontini-test/examples/easy-cross-staff-example-2.ly:94:4:5">
<path transform="translate(91.9892, 19.6213) scale(0.0040, -0.0040)" d="M218 136c55 0 108 -28 108 -89c0 -71 -55 -121 -102 -149c-35 -21 -75 -34 -116 -34c-55 0 -108 28 -108 89c0 71 55 121 102 149c35 21 75 34 116 34z" fill="currentColor"/>
</a>
<a style="color:inherit;" xlink:href="textedit:///home/paolo/programmi/nuove-composizioni/Spontini-test/examples/easy-cross-staff-example-2.ly:93:4:5">
<path transform="translate(91.9892, 10.6213) scale(0.0040, -0.0040)" d="M218 136c55 0 108 -28 108 -89c0 -71 -55 -121 -102 -149c-35 -21 -75 -34 -116 -34c-55 0 -108 28 -108 89c0 71 55 121 102 149c35 21 75 34 116 34z" fill="currentColor"/>
</a>
<a style="color:inherit;" xlink:href="textedit:///home/paolo/programmi/nuove-composizioni/Spontini-test/examples/easy-cross-staff-example-2.ly:71:7:8">
<polygon transform="translate(70.8470, 14.1213)" stroke-linejoin="round" stroke-linecap="round" stroke-width="0.0800" fill="currentColor" stroke="currentColor" points="3.2816 1.3000 3.2816 1.7000 0.0400 0.2000 0.0400 -0.2000"/>
</a>
<a style="color:inherit;" xlink:href="textedit:///home/paolo/programmi/nuove-composizioni/Spontini-test/examples/easy-cross-staff-example-2.ly:27:25:26">
<polygon transform="translate(22.9264, 22.1213)" stroke-linejoin="round" stroke-linecap="round" stroke-width="0.0800" fill="currentColor" stroke="currentColor" points="4.1685 -0.5169 4.1685 -0.1169 0.0400 0.2000 0.0400 -0.2000"/>
</a>
<a style="color:inherit;" xlink:href="textedit:///home/paolo/programmi/nuove-composizioni/Spontini-test/examples/easy-cross-staff-example-2.ly:27:4:5">
<line transform="translate(22.9264, 23.4611)" stroke-linejoin="round" stroke-linecap="round" stroke-width="0.1821" stroke="currentColor" x1="4.4080" y1="-0.3203" x2="4.4080" y2="-1.0203"/>
<line transform="translate(22.9264, 23.4611)" stroke-linejoin="round" stroke-linecap="round" stroke-width="0.1821" stroke="currentColor" x1="-0.1995" y1="0.0145" x2="-0.1995" y2="-0.6855"/>
<line transform="translate(22.9264, 23.4611)" stroke-linejoin="round" stroke-linecap="round" stroke-width="0.1821" stroke="currentColor" x1="4.4080" y1="-0.3203" x2="3.2645" y2="-0.2372"/>
<line transform="translate(22.9264, 23.4611)" stroke-linejoin="round" stroke-linecap="round" stroke-width="0.1821" stroke="currentColor" x1="-0.1995" y1="0.0145" x2="1.1434" y2="-0.0831"/>
</a>
<a style="color:inherit;" xlink:href="textedit:///home/paolo/programmi/nuove-composizioni/Spontini-test/examples/easy-cross-staff-example-2.ly:27:4:5">
<text transform="translate(24.4672, 23.9398)" font-family="serif" font-style="italic" font-size="1.7461" text-anchor="start" fill="currentColor">
<tspan>3</tspan>
</text>
</a>
<a style="color:inherit;" xlink:href="textedit:///home/paolo/programmi/nuove-composizioni/Spontini-test/examples/easy-cross-staff-example-2.ly:31:7:8">
<polygon transform="translate(30.1432, 7.6213)" stroke-linejoin="round" stroke-linecap="round" stroke-width="0.0800" fill="currentColor" stroke="currentColor" points="2.6122 -0.2000 2.6122 0.2000 0.0400 0.2000 0.0400 -0.2000"/>
</a>
<a style="color:inherit;" xlink:href="textedit:///home/paolo/programmi/nuove-composizioni/Spontini-test/examples/easy-cross-staff-example-2.ly:37:6:7">
<polygon transform="translate(33.8911, 20.6213)" stroke-linejoin="round" stroke-linecap="round" stroke-width="0.0800" fill="currentColor" stroke="currentColor" points="2.4872 1.3000 2.4872 1.7000 0.0400 0.2000 0.0400 -0.2000"/>
</a>
<a style="color:inherit;" xlink:href="textedit:///home/paolo/programmi/nuove-composizioni/Spontini-test/examples/easy-cross-staff-example-2.ly:42:7:8">
<polygon transform="translate(38.6703, 22.1213)" stroke-linejoin="round" stroke-linecap="round" stroke-width="0.0800" fill="currentColor" stroke="currentColor" points="2.6122 -0.2000 2.6122 0.2000 0.0400 0.2000 0.0400 -0.2000"/>
</a>
<a style="color:inherit;" xlink:href="textedit:///home/paolo/programmi/nuove-composizioni/Spontini-test/examples/easy-cross-staff-example-2.ly:46:6:7">
<polygon transform="translate(45.9512, 7.4382)" stroke-linejoin="round" stroke-linecap="round" stroke-width="0.0800" fill="currentColor" stroke="currentColor" points="2.6122 -0.0169 2.6122 0.3831 0.0400 0.2000 0.0400 -0.2000"/>
</a>
<a style="color:inherit;" xlink:href="textedit:///home/paolo/programmi/nuove-composizioni/Spontini-test/examples/easy-cross-staff-example-2.ly:51:7:8">
<polygon transform="translate(50.8555, 7.6213)" stroke-linejoin="round" stroke-linecap="round" stroke-width="0.0800" fill="currentColor" stroke="currentColor" points="2.6122 -0.2000 2.6122 0.2000 0.0400 0.2000 0.0400 -0.2000"/>
</a>
<a style="color:inherit;" xlink:href="textedit:///home/paolo/programmi/nuove-composizioni/Spontini-test/examples/easy-cross-staff-example-2.ly:56:7:8">
<polygon transform="translate(55.7597, 7.6213)" stroke-linejoin="round" stroke-linecap="round" stroke-width="0.0800" fill="currentColor" stroke="currentColor" points="2.4601 -0.3831 2.4601 0.0169 0.0400 0.2000 0.0400 -0.2000"/>
</a>
<a style="color:inherit;" xlink:href="textedit:///home/paolo/programmi/nuove-composizioni/Spontini-test/examples/easy-cross-staff-example-2.ly:62:7:8">
<polygon transform="translate(60.5118, 16.6213)" stroke-linejoin="round" stroke-linecap="round" stroke-width="0.0800" fill="currentColor" stroke="currentColor" points="2.6122 -0.2000 2.6122 0.2000 0.0400 0.2000 0.0400 -0.2000"/>
</a>
<a style="color:inherit;" xlink:href="textedit:///home/paolo/programmi/nuove-composizioni/Spontini-test/examples/easy-cross-staff-example-2.ly:67:14:15">
<polygon transform="translate(66.8150, 12.6213)" stroke-linejoin="round" stroke-linecap="round" stroke-width="0.0800" fill="currentColor" stroke="currentColor" points="1.7399 0.6169 1.7399 1.0169 0.0400 0.2000 0.0400 -0.2000"/>
</a>
<a style="color:inherit;" xlink:href="textedit:///home/paolo/programmi/nuove-composizioni/Spontini-test/examples/easy-cross-staff-example-2.ly:93:4:5">
<path transform="translate(91.9892, 10.6213) scale(0.0040, -0.0040)" d="M218 136c55 0 108 -28 108 -89c0 -71 -55 -121 -102 -149c-35 -21 -75 -34 -116 -34c-55 0 -108 28 -108 89c0 71 55 121 102 149c35 21 75 34 116 34z" fill="currentColor"/>
</a>
<a style="color:inherit;" xlink:href="textedit:///home/paolo/programmi/nuove-composizioni/Spontini-test/examples/easy-cross-staff-example-2.ly:76:7:8">
<polygon transform="translate(75.2644, 14.1213)" stroke-linejoin="round" stroke-linecap="round" stroke-width="0.0800" fill="currentColor" stroke="currentColor" points="3.2816 1.3000 3.2816 1.7000 0.0400 0.2000 0.0400 -0.2000"/>
</a>
<a style="color:inherit;" xlink:href="textedit:///home/paolo/programmi/nuove-composizioni/Spontini-test/examples/easy-cross-staff-example-2.ly:86:1:2">
<line transform="translate(94.9865, 29.3071)" stroke-linejoin="round" stroke-linecap="round" stroke-width="0.1138" stroke="currentColor" x1="2.9272" y1="-0.0000" x2="2.9272" y2="-1.0000"/>
<line transform="translate(94.9865, 29.3071)" stroke-linejoin="round" stroke-linecap="round" stroke-width="0.1138" stroke="currentColor" x1="0.0000" y1="-0.0000" x2="0.0000" y2="-0.0000"/>
<line transform="translate(94.9865, 29.3071)" stroke-linejoin="round" stroke-linecap="round" stroke-width="0.1138" stroke="currentColor" x1="0.0000" y1="-0.0000" x2="2.9272" y2="-0.0000"/>
</a>
<rect transform="translate(84.7589, 7.6213)" x="-0.0740" y="3.1861" width="0.1480" height="2.3139" ry="0.0400" fill="currentColor"/>
<a style="color:inherit;" xlink:href="textedit:///home/paolo/programmi/nuove-composizioni/Spontini-test/examples/easy-cross-staff-example-2.ly:77:29:30">
<path transform="translate(84.6849, 19.6213) scale(0.0040, -0.0040)" d="M218 136c55 0 108 -28 108 -89c0 -71 -55 -121 -102 -149c-35 -21 -75 -34 -116 -34c-55 0 -108 28 -108 89c0 71 55 121 102 149c35 21 75 34 116 34z" fill="currentColor"/>
</a>
<a style="color:inherit;" xlink:href="textedit:///home/paolo/programmi/nuove-composizioni/Spontini-test/examples/easy-cross-staff-example-2.ly:76:29:30">
<path transform="translate(84.6849, 10.6213) scale(0.0040, -0.0040)" d="M218 136c55 0 108 -28 108 -89c0 -71 -55 -121 -102 -149c-35 -21 -75 -34 -116 -34c-55 0 -108 28 -108 89c0 71 55 121 102 149c35 21 75 34 116 34z" fill="currentColor"/>
</a>
<a style="color:inherit;" xlink:href="textedit:///home/paolo/programmi/nuove-composizioni/Spontini-test/examples/easy-cross-staff-example-2.ly:76:29:30">
<path transform="translate(84.6849, 10.6213) scale(0.0040, -0.0040)" d="M218 136c55 0 108 -28 108 -89c0 -71 -55 -121 -102 -149c-35 -21 -75 -34 -116 -34c-55 0 -108 28 -108 89c0 71 55 121 102 149c35 21 75 34 116 34z" fill="currentColor"/>
</a>
<rect transform="translate(80.9148, 3.8453)" x="-0.0740" y="3.2760" width="0.1480" height="12.3139" ry="0.0400" fill="currentColor"/>
<rect transform="translate(80.9148, 16.6213)" x="-0.0740" y="-0.5000" width="0.1480" height="3.3139" ry="0.0400" fill="currentColor"/>
<a style="color:inherit;" xlink:href="textedit:///home/paolo/programmi/nuove-composizioni/Spontini-test/examples/easy-cross-staff-example-2.ly:77:21:22">
<path transform="translate(79.6846, 19.6213) scale(0.0040, -0.0040)" d="M218 136c55 0 108 -28 108 -89c0 -71 -55 -121 -102 -149c-35 -21 -75 -34 -116 -34c-55 0 -108 28 -108 89c0 71 55 121 102 149c35 21 75 34 116 34z" fill="currentColor"/>
</a>
<a style="color:inherit;" xlink:href="textedit:///home/paolo/programmi/nuove-composizioni/Spontini-test/examples/easy-cross-staff-example-2.ly:77:21:22">
<path transform="translate(79.6846, 19.6213) scale(0.0040, -0.0040)" d="M218 136c55 0 108 -28 108 -89c0 -71 -55 -121 -102 -149c-35 -21 -75 -34 -116 -34c-55 0 -108 28 -108 89c0 71 55 121 102 149c35 21 75 34 116 34z" fill="currentColor"/>
</a>
<a style="color:inherit;" xlink:href="textedit:///home/paolo/programmi/nuove-composizioni/Spontini-test/examples/easy-cross-staff-example-2.ly:76:21:22">
<path transform="translate(79.6846, 10.6213) scale(0.0040, -0.0040)" d="M218 136c55 0 108 -28 108 -89c0 -71 -55 -121 -102 -149c-35 -21 -75 -34 -116 -34c-55 0 -108 28 -108 89c0 71 55 121 102 149c35 21 75 34 116 34z" fill="currentColor"/>
</a>
<rect transform="translate(89.6194, 16.6213)" x="-0.0740" y="-0.5000" width="0.1480" height="3.3139" ry="0.0400" fill="currentColor"/>
<rect transform="translate(89.6194, 7.6213)" x="-0.0740" y="-0.5000" width="0.1480" height="3.3139" ry="0.0400" fill="currentColor"/>
<a style="color:inherit;" xlink:href="textedit:///home/paolo/programmi/nuove-composizioni/Spontini-test/examples/easy-cross-staff-example-2.ly:77:36:37">
<path transform="translate(88.3892, 19.6213) scale(0.0040, -0.0040)" d="M218 136c55 0 108 -28 108 -89c0 -71 -55 -121 -102 -149c-35 -21 -75 -34 -116 -34c-55 0 -108 28 -108 89c0 71 55 121 102 149c35 21 75 34 116 34z" fill="currentColor"/>
</a>
<a style="color:inherit;" xlink:href="textedit:///home/paolo/programmi/nuove-composizioni/Spontini-test/examples/easy-cross-staff-example-2.ly:76:36:37">
<path transform="translate(88.3892, 10.6213) scale(0.0040, -0.0040)" d="M218 136c55 0 108 -28 108 -89c0 -71 -55 -121 -102 -149c-35 -21 -75 -34 -116 -34c-55 0 -108 28 -108 89c0 71 55 121 102 149c35 21 75 34 116 34z" fill="currentColor"/>
</a>
<rect transform="translate(78.5120, 16.6213)" x="-0.0740" y="-1.0334" width="0.1480" height="3.8473" ry="0.0400" fill="currentColor"/>
<rect transform="translate(84.7589, 3.8453)" x="-0.0740" y="6.9621" width="0.1480" height="11.3139" ry="0.0400" fill="currentColor"/>
<g color="rgb(100.0000%, 0.0000%, 0.0000%)">
</g>
<rect transform="translate(33.9651, 7.6213)" x="-0.0740" y="3.1861" width="0.1480" height="2.8139" ry="0.0400" fill="currentColor"/>
<g color="rgb(100.0000%, 0.0000%, 0.0000%)">
</g>
<a style="color:inherit;" xlink:href="textedit:///home/paolo/programmi/nuove-composizioni/Spontini-test/examples/easy-cross-staff-example-2.ly:36:4:5">
<path transform="translate(33.8911, 10.6213) scale(0.0040, -0.0040)" d="M218 136c55 0 108 -28 108 -89c0 -71 -55 -121 -102 -149c-35 -21 -75 -34 -116 -34c-55 0 -108 28 -108 89c0 71 55 121 102 149c35 21 75 34 116 34z" fill="currentColor"/>
</a>
<a style="color:inherit;" xlink:href="textedit:///home/paolo/programmi/nuove-composizioni/Spontini-test/examples/easy-cross-staff-example-2.ly:36:4:5">
<path transform="translate(33.8911, 10.6213) scale(0.0040, -0.0040)" d="M218 136c55 0 108 -28 108 -89c0 -71 -55 -121 -102 -149c-35 -21 -75 -34 -116 -34c-55 0 -108 28 -108 89c0 71 55 121 102 149c35 21 75 34 116 34z" fill="currentColor"/>
</a>
<rect transform="translate(32.7213, 7.6213)" x="-0.0740" y="0.0000" width="0.1480" height="2.8139" ry="0.0400" fill="currentColor"/>
<a style="color:inherit;" xlink:href="textedit:///home/paolo/programmi/nuove-composizioni/Spontini-test/examples/easy-cross-staff-example-2.ly:31:13:14">
<path transform="translate(31.4911, 10.6213) scale(0.0040, -0.0040)" d="M218 136c55 0 108 -28 108 -89c0 -71 -55 -121 -102 -149c-35 -21 -75 -34 -116 -34c-55 0 -108 28 -108 89c0 71 55 121 102 149c35 21 75 34 116 34z" fill="currentColor"/>
</a>
<rect transform="translate(30.2171, 7.6213)" x="-0.0740" y="0.0000" width="0.1480" height="2.8139" ry="0.0400" fill="currentColor"/>
<a style="color:inherit;" xlink:href="textedit:///home/paolo/programmi/nuove-composizioni/Spontini-test/examples/easy-cross-staff-example-2.ly:31:4:5">
<path transform="translate(28.9869, 10.6213) scale(0.0040, -0.0040)" d="M218 136c55 0 108 -28 108 -89c0 -71 -55 -121 -102 -149c-35 -21 -75 -34 -116 -34c-55 0 -108 28 -108 89c0 71 55 121 102 149c35 21 75 34 116 34z" fill="currentColor"/>
</a>
<rect transform="translate(41.2485, 16.6213)" x="-0.0740" y="3.1861" width="0.1480" height="2.3139" ry="0.0400" fill="currentColor"/>
<a style="color:inherit;" xlink:href="textedit:///home/paolo/programmi/nuove-composizioni/Spontini-test/examples/easy-cross-staff-example-2.ly:42:14:15">
<path transform="translate(41.1745, 19.6213) scale(0.0040, -0.0040)" d="M218 136c55 0 108 -28 108 -89c0 -71 -55 -121 -102 -149c-35 -21 -75 -34 -116 -34c-55 0 -108 28 -108 89c0 71 55 121 102 149c35 21 75 34 116 34z" fill="currentColor"/>
</a>
<rect transform="translate(38.7443, 16.6213)" x="-0.0740" y="3.1861" width="0.1480" height="2.3139" ry="0.0400" fill="currentColor"/>
<a style="color:inherit;" xlink:href="textedit:///home/paolo/programmi/nuove-composizioni/Spontini-test/examples/easy-cross-staff-example-2.ly:42:4:5">
<path transform="translate(38.6703, 19.6213) scale(0.0040, -0.0040)" d="M218 136c55 0 108 -28 108 -89c0 -71 -55 -121 -102 -149c-35 -21 -75 -34 -116 -34c-55 0 -108 28 -108 89c0 71 55 121 102 149c35 21 75 34 116 34z" fill="currentColor"/>
</a>
<rect transform="translate(36.3443, 16.6213)" x="-0.0740" y="3.1861" width="0.1480" height="2.2700" ry="0.0400" fill="currentColor"/>
<a style="color:inherit;" xlink:href="textedit:///home/paolo/programmi/nuove-composizioni/Spontini-test/examples/easy-cross-staff-example-2.ly:37:12:13">
<path transform="translate(36.2703, 19.6213) scale(0.0040, -0.0040)" d="M218 136c55 0 108 -28 108 -89c0 -71 -55 -121 -102 -149c-35 -21 -75 -34 -116 -34c-55 0 -108 28 -108 89c0 71 55 121 102 149c35 21 75 34 116 34z" fill="currentColor"/>
</a>
<rect transform="translate(33.9651, 3.8453)" x="-0.0740" y="6.9621" width="0.1480" height="10.0978" ry="0.0400" fill="currentColor"/>
<path transform="translate(19.2264, 16.6213) scale(0.0040, -0.0040)" d="M359 27c-49 0 -75 42 -75 75c0 38 27 77 72 77c4 0 9 0 14 -1c-28 37 -72 59 -120 59c-106 0 -113 -73 -113 -186v-51v-51c0 -113 7 -187 113 -187c80 0 139 70 158 151c2 7 7 10 12 10c6 0 13 -4 13 -12c0 -94 -105 -174 -183 -174c-68 0 -137 21 -184 70
c-49 51 -66 122 -66 193s17 142 66 193c47 49 116 69 184 69c87 0 160 -64 175 -150c1 -5 1 -9 1 -13c0 -40 -30 -72 -67 -72z" fill="currentColor"/>
<rect transform="translate(23.0003, 16.6213)" x="-0.0740" y="3.1861" width="0.1480" height="2.3083" ry="0.0400" fill="currentColor"/>
<path transform="translate(15.0264, 17.6213) scale(0.0040, -0.0040)" d="M376 262c4 0 9 1 13 1c155 0 256 -128 256 -261c0 -76 -33 -154 -107 -210c-22 -17 -47 -28 -73 -36c3 -35 5 -70 5 -105c0 -19 -1 -39 -2 -58c-7 -120 -90 -228 -208 -228c-108 0 -195 88 -195 197c0 58 53 103 112 103c54 0 95 -47 95 -103c0 -52 -43 -95 -95 -95
c-11 0 -21 2 -31 6c26 -39 68 -65 117 -65c96 0 157 92 163 191c1 18 2 37 2 55c0 31 -1 61 -4 92c-29 -5 -58 -8 -89 -8c-188 0 -333 172 -333 374c0 177 131 306 248 441c-19 62 -37 125 -45 190c-6 52 -7 104 -7 156c0 115 55 224 149 292c3 2 7 3 10 3c4 0 7 0 10 -3
c71 -84 133 -245 133 -358c0 -143 -86 -255 -180 -364c21 -68 39 -138 56 -207zM461 -203c68 24 113 95 113 164c0 90 -66 179 -173 190c24 -116 46 -231 60 -354zM74 28c0 -135 129 -247 264 -247c28 0 55 2 82 6c-14 127 -37 245 -63 364c-79 -8 -124 -61 -124 -119
c0 -44 25 -91 81 -123c5 -5 7 -10 7 -15c0 -11 -10 -22 -22 -22c-3 0 -6 1 -9 2c-80 43 -117 115 -117 185c0 88 58 174 160 197c-14 58 -29 117 -46 175c-107 -121 -213 -243 -213 -403zM408 1045c-99 -48 -162 -149 -162 -259c0 -74 18 -133 36 -194
c80 97 146 198 146 324c0 55 -4 79 -20 129z" fill="currentColor"/>
<a style="color:inherit;" xlink:href="textedit:///home/paolo/programmi/nuove-composizioni/Spontini-test/examples/easy-cross-staff-example-2.ly:27:22:23">
<path transform="translate(22.9264, 19.6213) scale(0.0040, -0.0040)" d="M218 136c55 0 108 -28 108 -89c0 -71 -55 -121 -102 -149c-35 -21 -75 -34 -116 -34c-55 0 -108 28 -108 89c0 71 55 121 102 149c35 21 75 34 116 34z" fill="currentColor"/>
</a>
<path transform="translate(19.2264, 7.6213) scale(0.0040, -0.0040)" d="M359 27c-49 0 -75 42 -75 75c0 38 27 77 72 77c4 0 9 0 14 -1c-28 37 -72 59 -120 59c-106 0 -113 -73 -113 -186v-51v-51c0 -113 7 -187 113 -187c80 0 139 70 158 151c2 7 7 10 12 10c6 0 13 -4 13 -12c0 -94 -105 -174 -183 -174c-68 0 -137 21 -184 70
c-49 51 -66 122 -66 193s17 142 66 193c47 49 116 69 184 69c87 0 160 -64 175 -150c1 -5 1 -9 1 -13c0 -40 -30 -72 -67 -72z" fill="currentColor"/>
<path transform="translate(15.0264, 8.6213) scale(0.0040, -0.0040)" d="M376 262c4 0 9 1 13 1c155 0 256 -128 256 -261c0 -76 -33 -154 -107 -210c-22 -17 -47 -28 -73 -36c3 -35 5 -70 5 -105c0 -19 -1 -39 -2 -58c-7 -120 -90 -228 -208 -228c-108 0 -195 88 -195 197c0 58 53 103 112 103c54 0 95 -47 95 -103c0 -52 -43 -95 -95 -95
c-11 0 -21 2 -31 6c26 -39 68 -65 117 -65c96 0 157 92 163 191c1 18 2 37 2 55c0 31 -1 61 -4 92c-29 -5 -58 -8 -89 -8c-188 0 -333 172 -333 374c0 177 131 306 248 441c-19 62 -37 125 -45 190c-6 52 -7 104 -7 156c0 115 55 224 149 292c3 2 7 3 10 3c4 0 7 0 10 -3
c71 -84 133 -245 133 -358c0 -143 -86 -255 -180 -364c21 -68 39 -138 56 -207zM461 -203c68 24 113 95 113 164c0 90 -66 179 -173 190c24 -116 46 -231 60 -354zM74 28c0 -135 129 -247 264 -247c28 0 55 2 82 6c-14 127 -37 245 -63 364c-79 -8 -124 -61 -124 -119
c0 -44 25 -91 81 -123c5 -5 7 -10 7 -15c0 -11 -10 -22 -22 -22c-3 0 -6 1 -9 2c-80 43 -117 115 -117 185c0 88 58 174 160 197c-14 58 -29 117 -46 175c-107 -121 -213 -243 -213 -403zM408 1045c-99 -48 -162 -149 -162 -259c0 -74 18 -133 36 -194
c80 97 146 198 146 324c0 55 -4 79 -20 129z" fill="currentColor"/>
<rect transform="translate(14.1443, 12.1213)" x="0.0000" y="-6.5569" width="0.1821" height="13.1138" ry="0.0569" fill="currentColor"/>
<path transform="translate(13.8443, 12.1213) scale(0.0040, -0.0040)" d="M-15 -498c0 -261 -102 -516 -102 -765c0 -135 30 -261 129 -360c3 -3 3 -9 3 -12c0 -9 -6 -18 -15 -18c-3 0 -9 3 -12 6c-132 135 -177 312 -177 501c0 267 108 528 108 780c0 135 -33 261 -129 360c-3 3 -3 3 -3 6s0 3 3 6c96 99 129 225 129 360
c0 252 -108 513 -108 780c0 189 45 366 177 501c3 3 9 6 12 6c9 0 15 -9 15 -18c0 -3 0 -9 -3 -12c-99 -99 -129 -225 -129 -360c0 -249 102 -504 102 -765c0 -186 -45 -363 -174 -498c129 -135 174 -312 174 -498z" fill="currentColor"/>
<text transform="translate(4.5570, 12.9066)" font-family="serif" font-size="2.2001" text-anchor="start" fill="currentColor">
<tspan>Piano  </tspan>
</text>
<rect transform="translate(27.0609, 16.6213)" x="-0.0740" y="2.6861" width="0.1480" height="2.5026" ry="0.0400" fill="currentColor"/>
<a style="color:inherit;" xlink:href="textedit:///home/paolo/programmi/nuove-composizioni/Spontini-test/examples/easy-cross-staff-example-2.ly:27:38:39">
<path transform="translate(26.9869, 19.1213) scale(0.0040, -0.0040)" d="M218 136c55 0 108 -28 108 -89c0 -71 -55 -121 -102 -149c-35 -21 -75 -34 -116 -34c-55 0 -108 28 -108 89c0 71 55 121 102 149c35 21 75 34 116 34z" fill="currentColor"/>
</a>
<rect transform="translate(24.9567, 3.8453)" x="-0.0740" y="6.9621" width="0.1480" height="11.4010" ry="0.0400" fill="currentColor"/>
<rect transform="translate(63.0900, 16.6213)" x="-0.0740" y="0.0000" width="0.1480" height="2.8139" ry="0.0400" fill="currentColor"/>
<rect transform="translate(24.9567, 7.6213)" x="-0.0740" y="3.1861" width="0.1480" height="2.8139" ry="0.0400" fill="currentColor"/>
<a style="color:inherit;" xlink:href="textedit:///home/paolo/programmi/nuove-composizioni/Spontini-test/examples/easy-cross-staff-example-2.ly:27:31:32">
<path transform="translate(24.8827, 19.6213) scale(0.0040, -0.0040)" d="M218 136c55 0 108 -28 108 -89c0 -71 -55 -121 -102 -149c-35 -21 -75 -34 -116 -34c-55 0 -108 28 -108 89c0 71 55 121 102 149c35 21 75 34 116 34z" fill="currentColor"/>
</a>
<a style="color:inherit;" xlink:href="textedit:///home/paolo/programmi/nuove-composizioni/Spontini-test/examples/easy-cross-staff-example-2.ly:26:31:32">
<path transform="translate(24.8827, 10.6213) scale(0.0040, -0.0040)" d="M218 136c55 0 108 -28 108 -89c0 -71 -55 -121 -102 -149c-35 -21 -75 -34 -116 -34c-55 0 -108 28 -108 89c0 71 55 121 102 149c35 21 75 34 116 34z" fill="currentColor"/>
</a>
<a style="color:inherit;" xlink:href="textedit:///home/paolo/programmi/nuove-composizioni/Spontini-test/examples/easy-cross-staff-example-2.ly:26:31:32">
<path transform="translate(24.8827, 10.6213) scale(0.0040, -0.0040)" d="M218 136c55 0 108 -28 108 -89c0 -71 -55 -121 -102 -149c-35 -21 -75 -34 -116 -34c-55 0 -108 28 -108 89c0 71 55 121 102 149c35 21 75 34 116 34z" fill="currentColor"/>
</a>
<a style="color:inherit;" xlink:href="textedit:///home/paolo/programmi/nuove-composizioni/Spontini-test/examples/easy-cross-staff-example-2.ly:56:4:5">
<path transform="translate(54.6034, 10.6213) scale(0.0040, -0.0040)" d="M218 136c55 0 108 -28 108 -89c0 -71 -55 -121 -102 -149c-35 -21 -75 -34 -116 -34c-55 0 -108 28 -108 89c0 71 55 121 102 149c35 21 75 34 116 34z" fill="currentColor"/>
</a>
<rect transform="translate(53.4336, 7.6213)" x="-0.0740" y="0.0000" width="0.1480" height="2.8139" ry="0.0400" fill="currentColor"/>
<a style="color:inherit;" xlink:href="textedit:///home/paolo/programmi/nuove-composizioni/Spontini-test/examples/easy-cross-staff-example-2.ly:51:13:14">
<path transform="translate(52.2034, 10.6213) scale(0.0040, -0.0040)" d="M218 136c55 0 108 -28 108 -89c0 -71 -55 -121 -102 -149c-35 -21 -75 -34 -116 -34c-55 0 -108 28 -108 89c0 71 55 121 102 149c35 21 75 34 116 34z" fill="currentColor"/>
</a>
<rect transform="translate(55.8336, 7.6213)" x="-0.0740" y="-0.0054" width="0.1480" height="2.8193" ry="0.0400" fill="currentColor"/>
<rect transform="translate(50.9294, 7.6213)" x="-0.0740" y="0.0000" width="0.1480" height="2.8139" ry="0.0400" fill="currentColor"/>
<a style="color:inherit;" xlink:href="textedit:///home/paolo/programmi/nuove-composizioni/Spontini-test/examples/easy-cross-staff-example-2.ly:51:4:5">
<path transform="translate(49.6992, 10.6213) scale(0.0040, -0.0040)" d="M218 136c55 0 108 -28 108 -89c0 -71 -55 -121 -102 -149c-35 -21 -75 -34 -116 -34c-55 0 -108 28 -108 89c0 71 55 121 102 149c35 21 75 34 116 34z" fill="currentColor"/>
</a>
<rect transform="translate(58.1858, 3.8453)" x="-0.0740" y="3.3583" width="0.1480" height="12.2316" ry="0.0400" fill="currentColor"/>
<a style="color:inherit;" xlink:href="textedit:///home/paolo/programmi/nuove-composizioni/Spontini-test/examples/easy-cross-staff-example-2.ly:62:4:5">
<path transform="translate(59.3555, 19.6213) scale(0.0040, -0.0040)" d="M218 136c55 0 108 -28 108 -89c0 -71 -55 -121 -102 -149c-35 -21 -75 -34 -116 -34c-55 0 -108 28 -108 89c0 71 55 121 102 149c35 21 75 34 116 34z" fill="currentColor"/>
</a>
<g color="rgb(100.0000%, 0.0000%, 0.0000%)">
</g>
<rect transform="translate(58.1858, 16.6213)" x="-0.0740" y="-0.5000" width="0.1480" height="3.3139" ry="0.0400" fill="currentColor"/>
<a style="color:inherit;" xlink:href="textedit:///home/paolo/programmi/nuove-composizioni/Spontini-test/examples/easy-cross-staff-example-2.ly:57:13:14">
<path transform="translate(56.9555, 19.6213) scale(0.0040, -0.0040)" d="M218 136c55 0 108 -28 108 -89c0 -71 -55 -121 -102 -149c-35 -21 -75 -34 -116 -34c-55 0 -108 28 -108 89c0 71 55 121 102 149c35 21 75 34 116 34z" fill="currentColor"/>
</a>
<a style="color:inherit;" xlink:href="textedit:///home/paolo/programmi/nuove-composizioni/Spontini-test/examples/easy-cross-staff-example-2.ly:57:13:14">
<path transform="translate(56.9555, 19.6213) scale(0.0040, -0.0040)" d="M218 136c55 0 108 -28 108 -89c0 -71 -55 -121 -102 -149c-35 -21 -75 -34 -116 -34c-55 0 -108 28 -108 89c0 71 55 121 102 149c35 21 75 34 116 34z" fill="currentColor"/>
</a>
<g color="rgb(100.0000%, 0.0000%, 0.0000%)">
</g>
<rect transform="translate(46.0252, 16.6213)" x="-0.0740" y="-0.5000" width="0.1480" height="3.3139" ry="0.0400" fill="currentColor"/>
<a style="color:inherit;" xlink:href="textedit:///home/paolo/programmi/nuove-composizioni/Spontini-test/examples/easy-cross-staff-example-2.ly:62:13:14">
<path transform="translate(61.8597, 19.6213) scale(0.0040, -0.0040)" d="M218 136c55 0 108 -28 108 -89c0 -71 -55 -121 -102 -149c-35 -21 -75 -34 -116 -34c-55 0 -108 28 -108 89c0 71 55 121 102 149c35 21 75 34 116 34z" fill="currentColor"/>
</a>
<a style="color:inherit;" xlink:href="textedit:///home/paolo/programmi/nuove-composizioni/Spontini-test/examples/easy-cross-staff-example-2.ly:47:4:5">
<path transform="translate(44.7950, 19.6213) scale(0.0040, -0.0040)" d="M218 136c55 0 108 -28 108 -89c0 -71 -55 -121 -102 -149c-35 -21 -75 -34 -116 -34c-55 0 -108 28 -108 89c0 71 55 121 102 149c35 21 75 34 116 34z" fill="currentColor"/>
</a>
<a style="color:inherit;" xlink:href="textedit:///home/paolo/programmi/nuove-composizioni/Spontini-test/examples/easy-cross-staff-example-2.ly:47:4:5">
<path transform="translate(44.7950, 19.6213) scale(0.0040, -0.0040)" d="M218 136c55 0 108 -28 108 -89c0 -71 -55 -121 -102 -149c-35 -21 -75 -34 -116 -34c-55 0 -108 28 -108 89c0 71 55 121 102 149c35 21 75 34 116 34z" fill="currentColor"/>
</a>
<g color="rgb(100.0000%, 0.0000%, 0.0000%)">
</g>
<g color="rgb(100.0000%, 0.0000%, 0.0000%)">
</g>
<rect transform="translate(60.5858, 16.6213)" x="-0.0740" y="0.0000" width="0.1480" height="2.8139" ry="0.0400" fill="currentColor"/>
<rect transform="translate(48.5294, 7.6213)" x="-0.0740" y="-0.0051" width="0.1480" height="2.8190" ry="0.0400" fill="currentColor"/>
<a style="color:inherit;" xlink:href="textedit:///home/paolo/programmi/nuove-composizioni/Spontini-test/examples/easy-cross-staff-example-2.ly:46:12:13">
<path transform="translate(47.2992, 10.6213) scale(0.0040, -0.0040)" d="M218 136c55 0 108 -28 108 -89c0 -71 -55 -121 -102 -149c-35 -21 -75 -34 -116 -34c-55 0 -108 28 -108 89c0 71 55 121 102 149c35 21 75 34 116 34z" fill="currentColor"/>
</a>
<rect transform="translate(46.0252, 3.8453)" x="-0.0740" y="3.3580" width="0.1480" height="12.2319" ry="0.0400" fill="currentColor"/>
<a transform="translate(28.9194, 165.1170)" xlink:href="http://lilypond.org/">
<rect x="0.0000" y="-0.4780" width="61.6628" height="2.1510" fill="none" stroke="none" stroke-width="0.0"/>
</a>
<text transform="translate(28.9194, 165.1170)" font-family="serif" font-size="2.2001" text-anchor="start" fill="currentColor">
<tspan>Music engraving by LilyPond 2.20.0—www.lilypond.org</tspan>
</text>
</svg>
