<svg xmlns="http://www.w3.org/2000/svg" xmlns:xlink="http://www.w3.org/1999/xlink" version="1.2" width="210.00mm" height="297.00mm" viewBox="0 0 119.5016 169.0094">
<style text="style/css">
<![CDATA[
tspan { white-space: pre; }
]]>
</style>
<!-- Page: 1/1 -->
<text transform="translate(5.6906, 2.8453)" font-family="serif" font-size="2.2001" text-anchor="start" fill="currentColor">
<tspan/>
</text>
<g isstaff="true">
<line transform="translate(14.2264, 9.9022)" stroke-linejoin="round" stroke-linecap="round" stroke-width="0.1138" stroke="currentColor" x1="0.0569" y1="-0.0000" x2="16.1892" y2="-0.0000"/>
<line transform="translate(14.2264, 8.9022)" stroke-linejoin="round" stroke-linecap="round" stroke-width="0.1138" stroke="currentColor" x1="0.0569" y1="-0.0000" x2="16.1892" y2="-0.0000"/>
<line transform="translate(14.2264, 7.9022)" stroke-linejoin="round" stroke-linecap="round" stroke-width="0.1138" stroke="currentColor" x1="0.0569" y1="-0.0000" x2="16.1892" y2="-0.0000"/>
<line transform="translate(14.2264, 6.9022)" stroke-linejoin="round" stroke-linecap="round" stroke-width="0.1138" stroke="currentColor" x1="0.0569" y1="-0.0000" x2="16.1892" y2="-0.0000"/>
<line transform="translate(14.2264, 5.9022)" stroke-linejoin="round" stroke-linecap="round" stroke-width="0.1138" stroke="currentColor" x1="0.0569" y1="-0.0000" x2="16.1892" y2="-0.0000"/>
</g>
<g isstaff="true">
<line transform="translate(14.2264, 18.9022)" stroke-linejoin="round" stroke-linecap="round" stroke-width="0.1138" stroke="currentColor" x1="0.0569" y1="-0.0000" x2="16.1892" y2="-0.0000"/>
<line transform="translate(14.2264, 17.9022)" stroke-linejoin="round" stroke-linecap="round" stroke-width="0.1138" stroke="currentColor" x1="0.0569" y1="-0.0000" x2="16.1892" y2="-0.0000"/>
<line transform="translate(14.2264, 16.9022)" stroke-linejoin="round" stroke-linecap="round" stroke-width="0.1138" stroke="currentColor" x1="0.0569" y1="-0.0000" x2="16.1892" y2="-0.0000"/>
<line transform="translate(14.2264, 15.9022)" stroke-linejoin="round" stroke-linecap="round" stroke-width="0.1138" stroke="currentColor" x1="0.0569" y1="-0.0000" x2="16.1892" y2="-0.0000"/>
<line transform="translate(14.2264, 14.9022)" stroke-linejoin="round" stroke-linecap="round" stroke-width="0.1138" stroke="currentColor" x1="0.0569" y1="-0.0000" x2="16.1892" y2="-0.0000"/>
</g>
<g color="rgb(0.0000%, 0.0000%, 100.0000%)">
<rect transform="translate(26.6000, 16.9022)" x="-0.0740" y="-4.6941" width="0.1480" height="2.5080" ry="0.0400" fill="currentColor"/>
</g>
<g color="rgb(0.0000%, 0.0000%, 100.0000%)">
</g>
<g color="rgb(0.0000%, 100.0000%, 0.0000%)">
<rect transform="translate(25.4437, 16.9022)" x="-0.0740" y="0.6861" width="0.1480" height="2.1308" ry="0.0400" fill="currentColor"/>
</g>
<g color="rgb(0.0000%, 0.0000%, 100.0000%)">
<a style="color:inherit;" xlink:href="textedit:///home/paolo/programmi/nuove-composizioni/SPONTINI/Spontini-master/examples/../examples/../examples/easy-cross-staff-example-4.ly:29:27:28">
<path transform="translate(28.0444, 8.9022) scale(0.0040, -0.0040)" d="M218 136c55 0 108 -28 108 -89c0 -71 -55 -121 -102 -149c-35 -21 -75 -34 -116 -34c-55 0 -108 28 -108 89c0 71 55 121 102 149c35 21 75 34 116 34z" fill="currentColor"/>
</a>
</g>
<g color="rgb(100.0000%, 0.0000%, 0.0000%)">
<a style="color:inherit;" xlink:href="textedit:///home/paolo/programmi/nuove-composizioni/SPONTINI/Spontini-master/examples/../examples/../examples/easy-cross-staff-example-4.ly:36:20:21">
<path transform="translate(28.0444, 6.4022) scale(0.0040, -0.0040)" d="M218 136c55 0 108 -28 108 -89c0 -71 -55 -121 -102 -149c-35 -21 -75 -34 -116 -34c-55 0 -108 28 -108 89c0 71 55 121 102 149c35 21 75 34 116 34z" fill="currentColor"/>
</a>
</g>
<g color="rgb(0.0000%, 0.0000%, 100.0000%)">
<a style="color:inherit;" xlink:href="textedit:///home/paolo/programmi/nuove-composizioni/SPONTINI/Spontini-master/examples/../examples/../examples/easy-cross-staff-example-4.ly:29:27:28">
<path transform="translate(28.0444, 8.9022) scale(0.0040, -0.0040)" d="M218 136c55 0 108 -28 108 -89c0 -71 -55 -121 -102 -149c-35 -21 -75 -34 -116 -34c-55 0 -108 28 -108 89c0 71 55 121 102 149c35 21 75 34 116 34z" fill="currentColor"/>
</a>
</g>
<g color="rgb(100.0000%, 0.0000%, 0.0000%)">
<rect transform="translate(26.6000, 7.9022)" x="-0.0740" y="-3.8169" width="0.1480" height="2.1308" ry="0.0400" fill="currentColor"/>
</g>
<g color="rgb(100.0000%, 0.0000%, 0.0000%)">
<a style="color:inherit;" xlink:href="textedit:///home/paolo/programmi/nuove-composizioni/SPONTINI/Spontini-master/examples/../examples/../examples/easy-cross-staff-example-4.ly:36:14:15">
<polygon transform="translate(24.0826, 4.0853)" stroke-linejoin="round" stroke-linecap="round" stroke-width="0.0800" fill="currentColor" stroke="currentColor" points="5.2259 -0.2000 5.2259 0.2000 0.0400 0.2000 0.0400 -0.2000"/>
</a>
</g>
<g color="rgb(0.0000%, 0.0000%, 100.0000%)">
<a style="color:inherit;" xlink:href="textedit:///home/paolo/programmi/nuove-composizioni/SPONTINI/Spontini-master/examples/../examples/../examples/easy-cross-staff-example-4.ly:30:12:13">
<polygon transform="translate(24.0826, 12.4022)" stroke-linejoin="round" stroke-linecap="round" stroke-width="0.0800" fill="currentColor" stroke="currentColor" points="4.0697 -0.5169 4.0697 -0.1169 0.0400 0.2000 0.0400 -0.2000"/>
</a>
</g>
<g color="rgb(0.0000%, 100.0000%, 0.0000%)">
<a style="color:inherit;" xlink:href="textedit:///home/paolo/programmi/nuove-composizioni/SPONTINI/Spontini-master/examples/../examples/../examples/easy-cross-staff-example-4.ly:41:15:16">
<polygon transform="translate(22.9264, 19.7191)" stroke-linejoin="round" stroke-linecap="round" stroke-width="0.0800" fill="currentColor" stroke="currentColor" points="5.2259 -0.2000 5.2259 0.2000 0.0400 0.2000 0.0400 -0.2000"/>
</a>
</g>
<g color="rgb(0.0000%, 100.0000%, 0.0000%)">
<rect transform="translate(28.1183, 16.9022)" x="-0.0740" y="0.6861" width="0.1480" height="2.1308" ry="0.0400" fill="currentColor"/>
</g>
<g color="rgb(0.0000%, 100.0000%, 0.0000%)">
<a style="color:inherit;" xlink:href="textedit:///home/paolo/programmi/nuove-composizioni/SPONTINI/Spontini-master/examples/../examples/../examples/easy-cross-staff-example-4.ly:41:20:21">
<path transform="translate(28.0444, 17.4022) scale(0.0040, -0.0040)" d="M218 136c55 0 108 -28 108 -89c0 -71 -55 -121 -102 -149c-35 -21 -75 -34 -116 -34c-55 0 -108 28 -108 89c0 71 55 121 102 149c35 21 75 34 116 34z" fill="currentColor"/>
</a>
</g>
<g color="rgb(0.0000%, 0.0000%, 100.0000%)">
<rect transform="translate(28.1183, 7.9022)" x="-0.0740" y="1.1861" width="0.1480" height="3.0027" ry="0.0400" fill="currentColor"/>
</g>
<g color="rgb(100.0000%, 0.0000%, 0.0000%)">
<rect transform="translate(29.2746, 7.9022)" x="-0.0740" y="-3.8169" width="0.1480" height="2.1308" ry="0.0400" fill="currentColor"/>
</g>
<g color="rgb(0.0000%, 0.0000%, 100.0000%)">
<a style="color:inherit;" xlink:href="textedit:///home/paolo/programmi/nuove-composizioni/SPONTINI/Spontini-master/examples/../examples/../examples/easy-cross-staff-example-4.ly:30:8:9">
<path transform="translate(22.9264, 15.4022) scale(0.0040, -0.0040)" d="M218 136c55 0 108 -28 108 -89c0 -71 -55 -121 -102 -149c-35 -21 -75 -34 -116 -34c-55 0 -108 28 -108 89c0 71 55 121 102 149c35 21 75 34 116 34z" fill="currentColor"/>
</a>
</g>
<g color="rgb(100.0000%, 0.0000%, 0.0000%)">
<rect transform="translate(24.1566, 7.9022)" x="-0.0740" y="-3.8169" width="0.1480" height="2.1308" ry="0.0400" fill="currentColor"/>
</g>
<path transform="translate(19.2264, 16.9022) scale(0.0040, -0.0040)" d="M359 27c-49 0 -75 42 -75 75c0 38 27 77 72 77c4 0 9 0 14 -1c-28 37 -72 59 -120 59c-106 0 -113 -73 -113 -186v-51v-51c0 -113 7 -187 113 -187c80 0 139 70 158 151c2 7 7 10 12 10c6 0 13 -4 13 -12c0 -94 -105 -174 -183 -174c-68 0 -137 21 -184 70
c-49 51 -66 122 -66 193s17 142 66 193c47 49 116 69 184 69c87 0 160 -64 175 -150c1 -5 1 -9 1 -13c0 -40 -30 -72 -67 -72z" fill="currentColor"/>
<path transform="translate(15.0264, 17.9022) scale(0.0040, -0.0040)" d="M376 262c4 0 9 1 13 1c155 0 256 -128 256 -261c0 -76 -33 -154 -107 -210c-22 -17 -47 -28 -73 -36c3 -35 5 -70 5 -105c0 -19 -1 -39 -2 -58c-7 -120 -90 -228 -208 -228c-108 0 -195 88 -195 197c0 58 53 103 112 103c54 0 95 -47 95 -103c0 -52 -43 -95 -95 -95
c-11 0 -21 2 -31 6c26 -39 68 -65 117 -65c96 0 157 92 163 191c1 18 2 37 2 55c0 31 -1 61 -4 92c-29 -5 -58 -8 -89 -8c-188 0 -333 172 -333 374c0 177 131 306 248 441c-19 62 -37 125 -45 190c-6 52 -7 104 -7 156c0 115 55 224 149 292c3 2 7 3 10 3c4 0 7 0 10 -3
c71 -84 133 -245 133 -358c0 -143 -86 -255 -180 -364c21 -68 39 -138 56 -207zM461 -203c68 24 113 95 113 164c0 90 -66 179 -173 190c24 -116 46 -231 60 -354zM74 28c0 -135 129 -247 264 -247c28 0 55 2 82 6c-14 127 -37 245 -63 364c-79 -8 -124 -61 -124 -119
c0 -44 25 -91 81 -123c5 -5 7 -10 7 -15c0 -11 -10 -22 -22 -22c-3 0 -6 1 -9 2c-80 43 -117 115 -117 185c0 88 58 174 160 197c-14 58 -29 117 -46 175c-107 -121 -213 -243 -213 -403zM408 1045c-99 -48 -162 -149 -162 -259c0 -74 18 -133 36 -194
c80 97 146 198 146 324c0 55 -4 79 -20 129z" fill="currentColor"/>
<g color="rgb(0.0000%, 100.0000%, 0.0000%)">
<a style="color:inherit;" xlink:href="textedit:///home/paolo/programmi/nuove-composizioni/SPONTINI/Spontini-master/examples/../examples/../examples/easy-cross-staff-example-4.ly:41:12:13">
<path transform="translate(22.9264, 17.4022) scale(0.0040, -0.0040)" d="M218 136c55 0 108 -28 108 -89c0 -71 -55 -121 -102 -149c-35 -21 -75 -34 -116 -34c-55 0 -108 28 -108 89c0 71 55 121 102 149c35 21 75 34 116 34z" fill="currentColor"/>
</a>
</g>
<g color="rgb(0.0000%, 0.0000%, 100.0000%)">
<a style="color:inherit;" xlink:href="textedit:///home/paolo/programmi/nuove-composizioni/SPONTINI/Spontini-master/examples/../examples/../examples/easy-cross-staff-example-4.ly:30:8:9">
<path transform="translate(22.9264, 15.4022) scale(0.0040, -0.0040)" d="M218 136c55 0 108 -28 108 -89c0 -71 -55 -121 -102 -149c-35 -21 -75 -34 -116 -34c-55 0 -108 28 -108 89c0 71 55 121 102 149c35 21 75 34 116 34z" fill="currentColor"/>
</a>
</g>
<path transform="translate(19.2264, 7.9022) scale(0.0040, -0.0040)" d="M359 27c-49 0 -75 42 -75 75c0 38 27 77 72 77c4 0 9 0 14 -1c-28 37 -72 59 -120 59c-106 0 -113 -73 -113 -186v-51v-51c0 -113 7 -187 113 -187c80 0 139 70 158 151c2 7 7 10 12 10c6 0 13 -4 13 -12c0 -94 -105 -174 -183 -174c-68 0 -137 21 -184 70
c-49 51 -66 122 -66 193s17 142 66 193c47 49 116 69 184 69c87 0 160 -64 175 -150c1 -5 1 -9 1 -13c0 -40 -30 -72 -67 -72z" fill="currentColor"/>
<path transform="translate(15.0264, 8.9022) scale(0.0040, -0.0040)" d="M376 262c4 0 9 1 13 1c155 0 256 -128 256 -261c0 -76 -33 -154 -107 -210c-22 -17 -47 -28 -73 -36c3 -35 5 -70 5 -105c0 -19 -1 -39 -2 -58c-7 -120 -90 -228 -208 -228c-108 0 -195 88 -195 197c0 58 53 103 112 103c54 0 95 -47 95 -103c0 -52 -43 -95 -95 -95
c-11 0 -21 2 -31 6c26 -39 68 -65 117 -65c96 0 157 92 163 191c1 18 2 37 2 55c0 31 -1 61 -4 92c-29 -5 -58 -8 -89 -8c-188 0 -333 172 -333 374c0 177 131 306 248 441c-19 62 -37 125 -45 190c-6 52 -7 104 -7 156c0 115 55 224 149 292c3 2 7 3 10 3c4 0 7 0 10 -3
c71 -84 133 -245 133 -358c0 -143 -86 -255 -180 -364c21 -68 39 -138 56 -207zM461 -203c68 24 113 95 113 164c0 90 -66 179 -173 190c24 -116 46 -231 60 -354zM74 28c0 -135 129 -247 264 -247c28 0 55 2 82 6c-14 127 -37 245 -63 364c-79 -8 -124 -61 -124 -119
c0 -44 25 -91 81 -123c5 -5 7 -10 7 -15c0 -11 -10 -22 -22 -22c-3 0 -6 1 -9 2c-80 43 -117 115 -117 185c0 88 58 174 160 197c-14 58 -29 117 -46 175c-107 -121 -213 -243 -213 -403zM408 1045c-99 -48 -162 -149 -162 -259c0 -74 18 -133 36 -194
c80 97 146 198 146 324c0 55 -4 79 -20 129z" fill="currentColor"/>
<g color="rgb(100.0000%, 0.0000%, 0.0000%)">
<a style="color:inherit;" xlink:href="textedit:///home/paolo/programmi/nuove-composizioni/SPONTINI/Spontini-master/examples/../examples/../examples/easy-cross-staff-example-4.ly:36:10:11">
<path transform="translate(22.9264, 6.4022) scale(0.0040, -0.0040)" d="M218 136c55 0 108 -28 108 -89c0 -71 -55 -121 -102 -149c-35 -21 -75 -34 -116 -34c-55 0 -108 28 -108 89c0 71 55 121 102 149c35 21 75 34 116 34z" fill="currentColor"/>
</a>
</g>
<g color="rgb(0.0000%, 0.0000%, 100.0000%)">
</g>
<rect transform="translate(14.1443, 12.4022)" x="0.0000" y="-6.5569" width="0.1821" height="13.1138" ry="0.0569" fill="currentColor"/>
<path transform="translate(13.8443, 12.4022) scale(0.0040, -0.0040)" d="M-15 -498c0 -261 -102 -516 -102 -765c0 -135 30 -261 129 -360c3 -3 3 -9 3 -12c0 -9 -6 -18 -15 -18c-3 0 -9 3 -12 6c-132 135 -177 312 -177 501c0 267 108 528 108 780c0 135 -33 261 -129 360c-3 3 -3 3 -3 6s0 3 3 6c96 99 129 225 129 360
c0 252 -108 513 -108 780c0 189 45 366 177 501c3 3 9 6 12 6c9 0 15 -9 15 -18c0 -3 0 -9 -3 -12c-99 -99 -129 -225 -129 -360c0 -249 102 -504 102 -765c0 -186 -45 -363 -174 -498c129 -135 174 -312 174 -498z" fill="currentColor"/>
<g color="rgb(0.0000%, 100.0000%, 0.0000%)">
<a style="color:inherit;" xlink:href="textedit:///home/paolo/programmi/nuove-composizioni/SPONTINI/Spontini-master/examples/../examples/../examples/easy-cross-staff-example-4.ly:41:17:18">
<path transform="translate(25.3697, 17.4022) scale(0.0040, -0.0040)" d="M218 136c55 0 108 -28 108 -89c0 -71 -55 -121 -102 -149c-35 -21 -75 -34 -116 -34c-55 0 -108 28 -108 89c0 71 55 121 102 149c35 21 75 34 116 34z" fill="currentColor"/>
</a>
</g>
<g color="rgb(0.0000%, 0.0000%, 100.0000%)">
<a style="color:inherit;" xlink:href="textedit:///home/paolo/programmi/nuove-composizioni/SPONTINI/Spontini-master/examples/../examples/../examples/easy-cross-staff-example-4.ly:30:19:20">
<path transform="translate(25.3697, 14.9022) scale(0.0040, -0.0040)" d="M218 136c55 0 108 -28 108 -89c0 -71 -55 -121 -102 -149c-35 -21 -75 -34 -116 -34c-55 0 -108 28 -108 89c0 71 55 121 102 149c35 21 75 34 116 34z" fill="currentColor"/>
</a>
</g>
<g color="rgb(0.0000%, 0.0000%, 100.0000%)">
<a style="color:inherit;" xlink:href="textedit:///home/paolo/programmi/nuove-composizioni/SPONTINI/Spontini-master/examples/../examples/../examples/easy-cross-staff-example-4.ly:30:19:20">
<path transform="translate(25.3697, 14.9022) scale(0.0040, -0.0040)" d="M218 136c55 0 108 -28 108 -89c0 -71 -55 -121 -102 -149c-35 -21 -75 -34 -116 -34c-55 0 -108 28 -108 89c0 71 55 121 102 149c35 21 75 34 116 34z" fill="currentColor"/>
</a>
</g>
<g color="rgb(100.0000%, 0.0000%, 0.0000%)">
<a style="color:inherit;" xlink:href="textedit:///home/paolo/programmi/nuove-composizioni/SPONTINI/Spontini-master/examples/../examples/../examples/easy-cross-staff-example-4.ly:36:16:17">
<path transform="translate(25.3697, 6.4022) scale(0.0040, -0.0040)" d="M218 136c55 0 108 -28 108 -89c0 -71 -55 -121 -102 -149c-35 -21 -75 -34 -116 -34c-55 0 -108 28 -108 89c0 71 55 121 102 149c35 21 75 34 116 34z" fill="currentColor"/>
</a>
</g>
<g color="rgb(0.0000%, 0.0000%, 100.0000%)">
</g>
<g color="rgb(0.0000%, 0.0000%, 100.0000%)">
<rect transform="translate(24.1566, 16.9022)" x="-0.0740" y="-4.5057" width="0.1480" height="2.8196" ry="0.0400" fill="currentColor"/>
</g>
<g color="rgb(0.0000%, 100.0000%, 0.0000%)">
<rect transform="translate(23.0003, 16.9022)" x="-0.0740" y="0.6861" width="0.1480" height="2.1308" ry="0.0400" fill="currentColor"/>
</g>
<a transform="translate(28.9194, 165.1170)" xlink:href="http://lilypond.org/">
<rect x="0.0000" y="-0.4780" width="61.6628" height="2.1510" fill="none" stroke="none" stroke-width="0.0"/>
</a>
<text transform="translate(28.9194, 165.1170)" font-family="serif" font-size="2.2001" text-anchor="start" fill="currentColor">
<tspan>Music engraving by LilyPond 2.20.0—www.lilypond.org</tspan>
</text>
</svg>
