<svg xmlns="http://www.w3.org/2000/svg" xmlns:xlink="http://www.w3.org/1999/xlink" version="1.2" width="210.00mm" height="297.00mm" viewBox="0 0 119.5016 169.0094">
<style text="style/css">
<![CDATA[
tspan { white-space: pre; }
]]>
</style>
<!-- Page: 1/1 -->
<text transform="translate(5.6906, 2.8453)" font-family="serif" font-size="2.2001" text-anchor="start" fill="currentColor">
<tspan/>
</text>
<g pads-propid="82" thickness="0.20000000" spontinieditable="true" y-direction="1">
<g color="rgb(91.2000%, 93.4000%, 95.6000%)">
<rect transform="translate(23.2334, 4.0453)" x="-1.0000" y="-0.2000" width="20.1712" height="0.2000" ry="0.0000" fill="currentColor"/>
<rect transform="translate(42.2046, 4.8818)" x="0" y="-0.8365" width="0.2000" height="1.6850" ry="0.0000" fill="currentColor"/>
<rect transform="translate(23.2334, 5.9303)" x="-1.0000" y="-0.2000" width="20.1712" height="0.2000" ry="0.0000" fill="currentColor"/>
<rect transform="translate(22.2334, 4.8818)" x="0" y="-0.8365" width="0.2000" height="1.6850" ry="0.0000" fill="currentColor"/>
</g>
<text transform="translate(22.4334, 5.6842)" font-family="serif" font-style="italic" font-size="2.2001" text-anchor="start" fill="currentColor">
<tspan>8va</tspan>
</text>
<line transform="translate(42.1477, 4.8818)" stroke-linejoin="round" stroke-linecap="round" stroke-width="0.1138" stroke="currentColor" x1="0" y1="0" x2="0.0000" y2="0.8000" stroke-dasharray="0.85,0.0"/>
<line transform="translate(26.6599, 4.8818)" stroke-linejoin="round" stroke-linecap="round" stroke-width="0.1138" stroke="currentColor" x1="0" y1="0" x2="0.0000" y2="-0.0000" stroke-dasharray="0.85,0.0"/>
<line transform="translate(26.6599, 4.8818)" stroke-linejoin="round" stroke-linecap="round" stroke-width="0.1138" stroke="currentColor" x1="0" y1="0" x2="15.4878" y2="-0.0000" stroke-dasharray="0.253898564114533,0.592429982933911"/>
</g>
<g thickness="0.20000000" spontinieditable="true" y-direction="-1" pads-propid="96">
<a style="color:inherit;" xlink:href="textedit:///home/paolo/programmi/nuove-composizioni/Spontini-master/examples/EasyCrossStaffExample3.ly:52:1:2">
<g color="rgb(91.2000%, 93.4000%, 95.6000%)">
<rect transform="translate(23.2334, 37.2215)" x="-0.2000" y="-0.2000" width="28.3634" height="0.2000" ry="0.0000" fill="currentColor"/>
<rect transform="translate(51.1968, 38.8945)" x="0" y="-1.6730" width="0.2000" height="2.1169" ry="0.0000" fill="currentColor"/>
<rect transform="translate(23.2334, 39.5384)" x="-0.2000" y="-0.2000" width="28.3634" height="0.2000" ry="0.0000" fill="currentColor"/>
<rect transform="translate(23.0334, 38.8945)" x="0" y="-1.6730" width="0.2000" height="2.1169" ry="0.0000" fill="currentColor"/>
</g>
<text transform="translate(23.2334, 38.8945)" font-family="monospace" font-size="2.2001" text-anchor="start" fill="currentColor">
<tspan>Use pedals with care!</tspan>
</text>
</a>
</g>
<g thickness="0.20000000" spontinieditable="true" y-direction="-1" pads-propid="102">
<a style="color:inherit;" xlink:href="textedit:///home/paolo/programmi/nuove-composizioni/Spontini-master/examples/EasyCrossStaffExample3.ly:85:1:2">
<g color="rgb(91.2000%, 93.4000%, 95.6000%)">
<rect transform="translate(69.1695, 37.1025)" x="-0.2000" y="-0.2000" width="28.3634" height="0.2000" ry="0.0000" fill="currentColor"/>
<rect transform="translate(97.1328, 38.7755)" x="0" y="-1.6730" width="0.2000" height="2.1689" ry="0.0000" fill="currentColor"/>
<rect transform="translate(69.1695, 39.4714)" x="-0.2000" y="-0.2000" width="28.3634" height="0.2000" ry="0.0000" fill="currentColor"/>
<rect transform="translate(68.9695, 38.7755)" x="0" y="-1.6730" width="0.2000" height="2.1689" ry="0.0000" fill="currentColor"/>
</g>
<text transform="translate(69.1695, 38.7755)" font-family="monospace" font-size="2.2001" text-anchor="start" fill="currentColor">
<tspan>Use pedals with care!</tspan>
</text>
</a>
</g>
<g y-direction="-1" thickness="0.20000000" spontinieditable="true" pads-propid="99">
<a style="color:inherit;" xlink:href="textedit:///home/paolo/programmi/nuove-composizioni/Spontini-master/examples/EasyCrossStaffExample3.ly:85:1:2">
<g color="rgb(91.2000%, 93.4000%, 95.6000%)">
<rect transform="translate(68.3193, 29.8591)" x="-0.2000" y="-0.2000" width="3.4046" height="0.2000" ry="0.0000" fill="currentColor"/>
<rect transform="translate(71.3239, 31.7711)" x="0" y="-1.9120" width="0.2000" height="2.6290" ry="0.0000" fill="currentColor"/>
<rect transform="translate(68.3193, 32.6881)" x="-0.2000" y="-0.2000" width="3.4046" height="0.2000" ry="0.0000" fill="currentColor"/>
<rect transform="translate(68.1193, 31.7711)" x="0" y="-1.9120" width="0.2000" height="2.6290" ry="0.0000" fill="currentColor"/>
</g>
<g transform="translate(68.3193, 31.7711)" >
<path transform="scale(0.0040, -0.0040)" d="M-41 146c26 76 82 153 149 153c22 0 36 -20 41 -45c22 26 51 45 81 45c23 0 38 -21 44 -46c22 27 51 46 80 46c33 0 59 -35 59 -69c0 -5 -1 -10 -2 -15l-35 -149c0 -2 -1 -4 -1 -5c0 -5 2 -8 7 -8c9 0 27 11 48 31c4 4 9 6 13 6c6 0 11 -4 11 -10c0 -4 -3 -8 -7 -12
c-40 -38 -85 -75 -131 -75c-20 0 -32 13 -32 32c0 4 0 7 1 11l39 165c1 5 2 9 2 14c0 10 -4 18 -14 18c-16 0 -33 -16 -39 -32l-53 -183c-3 -10 -12 -18 -22 -18h-41c-10 0 -16 8 -13 18l52 183c2 6 3 11 3 16c0 9 -4 16 -13 16c-16 0 -35 -15 -41 -32l-62 -183
c-3 -10 -14 -18 -24 -18h-41c-10 0 -15 8 -12 18l63 183c2 5 2 10 2 15c0 10 -3 17 -13 17c-29 0 -54 -53 -66 -87c-4 -11 -15 -17 -23 -17c-7 0 -12 4 -12 11c0 2 1 4 2 6z" fill="currentColor"/>

<path transform="translate(1.7413, 0.0000) scale(0.0040, -0.0040)" d="M253 245l-50 -163c-30 -99 -121 -255 -218 -255c-45 0 -87 27 -87 69c0 39 17 77 52 77c24 0 44 -20 44 -44c0 -30 -38 -24 -38 -54c0 -10 11 -11 23 -11h6c48 0 61 58 73 108l68 273h-49c-11 0 -19 8 -19 19s8 19 19 19h60c32 96 118 191 213 191c45 0 87 -27 87 -69
c0 -39 -17 -77 -52 -77c-24 0 -44 19 -44 43c0 30 38 25 38 55c0 10 -10 11 -22 11h-7c-62 0 -70 -88 -86 -154h55c11 0 19 -8 19 -19s-8 -19 -19 -19h-66z" fill="currentColor"/>
</g>
</a>
</g>
<g y-direction="-1" thickness="0.20000000" spontinieditable="true" pads-propid="93">
<a style="color:inherit;" xlink:href="textedit:///home/paolo/programmi/nuove-composizioni/Spontini-master/examples/EasyCrossStaffExample3.ly:52:1:2">
<g color="rgb(91.2000%, 93.4000%, 95.6000%)">
<rect transform="translate(22.2311, 29.8591)" x="-0.2000" y="-0.2000" width="3.4046" height="0.2000" ry="0.0000" fill="currentColor"/>
<rect transform="translate(25.2357, 31.8781)" x="0" y="-2.0190" width="0.2000" height="2.7360" ry="0.0000" fill="currentColor"/>
<rect transform="translate(22.2311, 32.7951)" x="-0.2000" y="-0.2000" width="3.4046" height="0.2000" ry="0.0000" fill="currentColor"/>
<rect transform="translate(22.0311, 31.8781)" x="0" y="-2.0190" width="0.2000" height="2.7360" ry="0.0000" fill="currentColor"/>
</g>
<g transform="translate(22.2311, 31.8781)" >
<path transform="scale(0.0040, -0.0040)" d="M-41 146c26 76 82 153 149 153c22 0 36 -20 41 -45c22 26 51 45 81 45c23 0 38 -21 44 -46c22 27 51 46 80 46c33 0 59 -35 59 -69c0 -5 -1 -10 -2 -15l-35 -149c0 -2 -1 -4 -1 -5c0 -5 2 -8 7 -8c9 0 27 11 48 31c4 4 9 6 13 6c6 0 11 -4 11 -10c0 -4 -3 -8 -7 -12
c-40 -38 -85 -75 -131 -75c-20 0 -32 13 -32 32c0 4 0 7 1 11l39 165c1 5 2 9 2 14c0 10 -4 18 -14 18c-16 0 -33 -16 -39 -32l-53 -183c-3 -10 -12 -18 -22 -18h-41c-10 0 -16 8 -13 18l52 183c2 6 3 11 3 16c0 9 -4 16 -13 16c-16 0 -35 -15 -41 -32l-62 -183
c-3 -10 -14 -18 -24 -18h-41c-10 0 -15 8 -12 18l63 183c2 5 2 10 2 15c0 10 -3 17 -13 17c-29 0 -54 -53 -66 -87c-4 -11 -15 -17 -23 -17c-7 0 -12 4 -12 11c0 2 1 4 2 6z" fill="currentColor"/>

<path transform="translate(1.7413, 0.0000) scale(0.0040, -0.0040)" d="M253 245l-50 -163c-30 -99 -121 -255 -218 -255c-45 0 -87 27 -87 69c0 39 17 77 52 77c24 0 44 -20 44 -44c0 -30 -38 -24 -38 -54c0 -10 11 -11 23 -11h6c48 0 61 58 73 108l68 273h-49c-11 0 -19 8 -19 19s8 19 19 19h60c32 96 118 191 213 191c45 0 87 -27 87 -69
c0 -39 -17 -77 -52 -77c-24 0 -44 19 -44 43c0 30 38 25 38 55c0 10 -10 11 -22 11h-7c-62 0 -70 -88 -86 -154h55c11 0 19 -8 19 -19s-8 -19 -19 -19h-66z" fill="currentColor"/>
</g>
</a>
</g>
<g thickness="0.20000000" spontinieditable="true" y-direction="1" pads-propid="84">
<a style="color:inherit;" xlink:href="textedit:///home/paolo/programmi/nuove-composizioni/Spontini-master/examples/EasyCrossStaffExample3.ly:60:53:54">
<g color="rgb(91.2000%, 93.4000%, 95.6000%)">
<rect transform="translate(23.2334, 11.8262)" x="-0.2000" y="-0.2000" width="4.3948" height="0.2000" ry="0.0000" fill="currentColor"/>
<rect transform="translate(27.2282, 13.3972)" x="0" y="-1.5710" width="0.2000" height="1.5710" ry="0.0000" fill="currentColor"/>
<rect transform="translate(23.2334, 13.5972)" x="-0.2000" y="-0.2000" width="4.3948" height="0.2000" ry="0.0000" fill="currentColor"/>
<rect transform="translate(23.0334, 13.3972)" x="0" y="-1.5710" width="0.2000" height="1.5710" ry="0.0000" fill="currentColor"/>
</g>
<text transform="translate(23.2334, 13.3972)" font-family="monospace" font-size="2.2001" text-anchor="start" fill="currentColor">
<tspan>   </tspan>
</text>
</a>
</g>
<g y-direction="-1" thickness="0.20000000" spontinieditable="true" pads-propid="100">
<a style="color:inherit;" xlink:href="textedit:///home/paolo/programmi/nuove-composizioni/Spontini-master/examples/EasyCrossStaffExample3.ly:85:1:2">
<g color="rgb(91.2000%, 93.4000%, 95.6000%)">
<rect transform="translate(65.8405, 32.8881)" x="-0.2000" y="-0.2000" width="7.0579" height="0.2000" ry="0.0000" fill="currentColor"/>
<rect transform="translate(72.4984, 34.5612)" x="0" y="-1.6730" width="0.2000" height="1.7072" ry="0.0000" fill="currentColor"/>
<rect transform="translate(65.8405, 34.7953)" x="-0.2000" y="-0.2000" width="7.0579" height="0.2000" ry="0.0000" fill="currentColor"/>
<rect transform="translate(65.6405, 34.5612)" x="0" y="-1.6730" width="0.2000" height="1.7072" ry="0.0000" fill="currentColor"/>
</g>
<text transform="translate(65.8405, 34.5612)" font-family="monospace" font-weight="bold" font-style="italic" font-size="2.2001" text-anchor="start" fill="currentColor">
<tspan>S Ped</tspan>
</text>
</a>
</g>
<g y-direction="-1" thickness="0.20000000" spontinieditable="true" pads-propid="101">
<a style="color:inherit;" xlink:href="textedit:///home/paolo/programmi/nuove-composizioni/Spontini-master/examples/EasyCrossStaffExample3.ly:85:1:2">
<g color="rgb(91.2000%, 93.4000%, 95.6000%)">
<rect transform="translate(67.1721, 34.9953)" x="-0.2000" y="-0.2000" width="4.3948" height="0.2000" ry="0.0000" fill="currentColor"/>
<rect transform="translate(71.1668, 36.6683)" x="0" y="-1.6730" width="0.2000" height="1.7072" ry="0.0000" fill="currentColor"/>
<rect transform="translate(67.1721, 36.9025)" x="-0.2000" y="-0.2000" width="4.3948" height="0.2000" ry="0.0000" fill="currentColor"/>
<rect transform="translate(66.9721, 36.6683)" x="0" y="-1.6730" width="0.2000" height="1.7072" ry="0.0000" fill="currentColor"/>
</g>
<text transform="translate(67.1721, 36.6683)" font-family="monospace" font-weight="bold" font-size="2.2001" text-anchor="start" fill="currentColor">
<tspan>Ped</tspan>
</text>
</a>
</g>
<g pads-propid="97" thickness="0.20000000" spontinieditable="true" y-direction="1">
<a style="color:inherit;" xlink:href="textedit:///home/paolo/programmi/nuove-composizioni/Spontini-master/examples/EasyCrossStaffExample3.ly:93:9:10">
<g color="rgb(91.2000%, 93.4000%, 95.6000%)">
<rect transform="translate(69.1695, 7.3473)" x="0.6915" y="-0.2000" width="19.5414" height="0.2000" ry="0.0000" fill="currentColor"/>
<rect transform="translate(89.2024, 9.4661)" x="0" y="-2.1187" width="0.2000" height="2.8325" ry="0.0000" fill="currentColor"/>
<rect transform="translate(69.1695, 10.3798)" x="0.6915" y="-0.2000" width="19.5414" height="0.2000" ry="0.0000" fill="currentColor"/>
<rect transform="translate(69.8609, 9.4661)" x="0" y="-2.1187" width="0.2000" height="2.8325" ry="0.0000" fill="currentColor"/>
</g>
<line transform="translate(70.3257, 9.4661)" stroke-linejoin="round" stroke-linecap="round" stroke-width="0.1821" stroke="currentColor" x1="12.2806" y1="-2.0277" x2="12.2806" y2="-1.4327"/>
<line transform="translate(70.3257, 9.4661)" stroke-linejoin="round" stroke-linecap="round" stroke-width="0.1821" stroke="currentColor" x1="-0.1677" y1="0.0277" x2="-0.1677" y2="0.6227"/>
<line transform="translate(70.3257, 9.4661)" stroke-linejoin="round" stroke-linecap="round" stroke-width="0.1821" stroke="currentColor" x1="12.2806" y1="-2.0277" x2="7.2043" y2="-1.1895"/>
<line transform="translate(70.3257, 9.4661)" stroke-linejoin="round" stroke-linecap="round" stroke-width="0.1821" stroke="currentColor" x1="-0.1677" y1="0.0277" x2="5.1059" y2="-0.8431"/>
</a>
</g>
<g thickness="0.20000000" spontinieditable="true" y-direction="1" pads-propid="103">
<a style="color:inherit;" xlink:href="textedit:///home/paolo/programmi/nuove-composizioni/Spontini-master/examples/EasyCrossStaffExample3.ly:76:1:2">
<g color="rgb(91.2000%, 93.4000%, 95.6000%)">
<rect transform="translate(69.1695, 10.5798)" x="-0.2000" y="-0.2000" width="14.5668" height="0.2000" ry="0.0000" fill="currentColor"/>
<rect transform="translate(83.3362, 12.7418)" x="0" y="-2.1620" width="0.2000" height="2.1620" ry="0.0000" fill="currentColor"/>
<rect transform="translate(69.1695, 12.9418)" x="-0.2000" y="-0.2000" width="14.5668" height="0.2000" ry="0.0000" fill="currentColor"/>
<rect transform="translate(68.9695, 12.7418)" x="0" y="-2.1620" width="0.2000" height="2.1620" ry="0.0000" fill="currentColor"/>
</g>
<text transform="translate(69.1695, 12.7418)" font-family="monospace" font-size="2.2001" text-anchor="start" fill="currentColor">
<tspan>   </tspan>
</text>
</a>
</g>
<g y-direction="-1" thickness="0.20000000" spontinieditable="true" pads-propid="95">
<a style="color:inherit;" xlink:href="textedit:///home/paolo/programmi/nuove-composizioni/Spontini-master/examples/EasyCrossStaffExample3.ly:52:1:2">
<g color="rgb(91.2000%, 93.4000%, 95.6000%)">
<rect transform="translate(19.9044, 35.1023)" x="-0.2000" y="-0.2000" width="7.0579" height="0.2000" ry="0.0000" fill="currentColor"/>
<rect transform="translate(26.5624, 36.7753)" x="0" y="-1.6730" width="0.2000" height="1.7192" ry="0.0000" fill="currentColor"/>
<rect transform="translate(19.9044, 37.0215)" x="-0.2000" y="-0.2000" width="7.0579" height="0.2000" ry="0.0000" fill="currentColor"/>
<rect transform="translate(19.7044, 36.7753)" x="0" y="-1.6730" width="0.2000" height="1.7192" ry="0.0000" fill="currentColor"/>
</g>
<text transform="translate(19.9044, 36.7753)" font-family="monospace" font-weight="bold" font-style="italic" font-size="2.2001" text-anchor="start" fill="currentColor">
<tspan>S Ped</tspan>
</text>
</a>
</g>
<g y-direction="-1" thickness="0.20000000" spontinieditable="true" pads-propid="94">
<a style="color:inherit;" xlink:href="textedit:///home/paolo/programmi/nuove-composizioni/Spontini-master/examples/EasyCrossStaffExample3.ly:52:1:2">
<g color="rgb(91.2000%, 93.4000%, 95.6000%)">
<rect transform="translate(21.2360, 32.9951)" x="-0.2000" y="-0.2000" width="4.3948" height="0.2000" ry="0.0000" fill="currentColor"/>
<rect transform="translate(25.2308, 34.6682)" x="0" y="-1.6730" width="0.2000" height="1.7072" ry="0.0000" fill="currentColor"/>
<rect transform="translate(21.2360, 34.9023)" x="-0.2000" y="-0.2000" width="4.3948" height="0.2000" ry="0.0000" fill="currentColor"/>
<rect transform="translate(21.0360, 34.6682)" x="0" y="-1.6730" width="0.2000" height="1.7072" ry="0.0000" fill="currentColor"/>
</g>
<text transform="translate(21.2360, 34.6682)" font-family="monospace" font-weight="bold" font-size="2.2001" text-anchor="start" fill="currentColor">
<tspan>Ped</tspan>
</text>
</a>
</g>
<g pads-propid="98" thickness="0.20000000" spontinieditable="true" y-direction="1">
<g color="rgb(91.2000%, 93.4000%, 95.6000%)">
<rect transform="translate(69.1695, 5.2743)" x="-1.0000" y="-0.2000" width="21.3614" height="0.2000" ry="0.0000" fill="currentColor"/>
<rect transform="translate(89.3309, 6.1108)" x="0" y="-0.8365" width="0.2000" height="1.6730" ry="0.0000" fill="currentColor"/>
<rect transform="translate(69.1695, 7.1473)" x="-1.0000" y="-0.2000" width="21.3614" height="0.2000" ry="0.0000" fill="currentColor"/>
<rect transform="translate(68.1695, 6.1108)" x="0" y="-0.8365" width="0.2000" height="1.6730" ry="0.0000" fill="currentColor"/>
</g>
<text transform="translate(68.3695, 6.9132)" font-family="serif" font-style="italic" font-size="2.2001" text-anchor="start" fill="currentColor">
<tspan>8va</tspan>
</text>
<line transform="translate(89.2740, 6.1108)" stroke-linejoin="round" stroke-linecap="round" stroke-width="0.1138" stroke="currentColor" x1="0" y1="0" x2="0.0000" y2="0.8000" stroke-dasharray="0.85,0.0"/>
<line transform="translate(72.5959, 6.1108)" stroke-linejoin="round" stroke-linecap="round" stroke-width="0.1138" stroke="currentColor" x1="0" y1="0" x2="0.0000" y2="-0.0000" stroke-dasharray="0.85,0.0"/>
<line transform="translate(72.5959, 6.1108)" stroke-linejoin="round" stroke-linecap="round" stroke-width="0.1138" stroke="currentColor" x1="0" y1="0" x2="16.6780" y2="-0.0000" stroke-dasharray="0.259244245280962,0.604903238988912"/>
</g>
<g pads-propid="106" thickness="0.20000000" spontinieditable="true" y-direction="1">
<a style="color:inherit;" xlink:href="textedit:///home/paolo/programmi/nuove-composizioni/Spontini-master/examples/EasyCrossStaffExample3.ly:60:9:10">
<g color="rgb(91.2000%, 93.4000%, 95.6000%)">
<rect transform="translate(23.2334, 6.1303)" x="-0.4588" y="-0.2000" width="13.1315" height="0.2000" ry="0.0000" fill="currentColor"/>
<rect transform="translate(35.7061, 8.2489)" x="0" y="-2.1186" width="0.2000" height="2.8792" ry="0.0000" fill="currentColor"/>
<rect transform="translate(23.2334, 9.2095)" x="-0.4588" y="-0.2000" width="13.1315" height="0.2000" ry="0.0000" fill="currentColor"/>
<rect transform="translate(22.7746, 8.2489)" x="0" y="-2.1186" width="0.2000" height="2.8792" ry="0.0000" fill="currentColor"/>
</g>
<line transform="translate(23.2334, 6.2489)" stroke-linejoin="round" stroke-linecap="round" stroke-width="0.1821" stroke="currentColor" x1="12.3416" y1="2.0276" x2="12.3416" y2="2.6226"/>
<line transform="translate(23.2334, 6.2489)" stroke-linejoin="round" stroke-linecap="round" stroke-width="0.1821" stroke="currentColor" x1="-0.1678" y1="-0.0276" x2="-0.1678" y2="0.5674"/>
<line transform="translate(23.2334, 6.2489)" stroke-linejoin="round" stroke-linecap="round" stroke-width="0.1821" stroke="currentColor" x1="12.3416" y1="2.0276" x2="7.2349" y2="1.1886"/>
<line transform="translate(23.2334, 6.2489)" stroke-linejoin="round" stroke-linecap="round" stroke-width="0.1821" stroke="currentColor" x1="-0.1678" y1="-0.0276" x2="5.1363" y2="0.8438"/>
</a>
</g>
<g gridcolor="#f0eee9" gridstep="1" gridify="true" isstaff="true">
<line transform="translate(14.2264, 20.0922)" stroke-linejoin="round" stroke-linecap="round" stroke-width="0.1138" stroke="currentColor" x1="0.0569" y1="-0.0000" x2="99.5277" y2="-0.0000"/>
<line transform="translate(14.2264, 19.2422)" stroke-linejoin="round" stroke-linecap="round" stroke-width="0.1138" stroke="currentColor" x1="0.0569" y1="-0.0000" x2="99.5277" y2="-0.0000"/>
<line transform="translate(14.2264, 18.3922)" stroke-linejoin="round" stroke-linecap="round" stroke-width="0.1138" stroke="currentColor" x1="0.0569" y1="-0.0000" x2="99.5277" y2="-0.0000"/>
<line transform="translate(14.2264, 17.5422)" stroke-linejoin="round" stroke-linecap="round" stroke-width="0.1138" stroke="currentColor" x1="0.0569" y1="-0.0000" x2="99.5277" y2="-0.0000"/>
<line transform="translate(14.2264, 16.6922)" stroke-linejoin="round" stroke-linecap="round" stroke-width="0.1138" stroke="currentColor" x1="0.0569" y1="-0.0000" x2="99.5277" y2="-0.0000"/>
</g>
<rect transform="translate(66.1143, 27.3922)" x="0.0000" y="-1.7569" width="0.2162" height="3.4569" ry="0.0000" fill="currentColor"/>
<rect transform="translate(66.1143, 3.8453)" x="0.0000" y="16.3038" width="0.2162" height="5.5431" ry="0.0000" fill="currentColor"/>
<rect transform="translate(113.5948, 3.8453)" x="0.0000" y="16.3038" width="0.2162" height="5.5431" ry="0.0000" fill="currentColor"/>
<rect transform="translate(113.5948, 27.3922)" x="0.0000" y="-1.7569" width="0.2162" height="3.4569" ry="0.0000" fill="currentColor"/>
<rect transform="translate(113.5948, 18.3922)" x="0.0000" y="-1.7000" width="0.2162" height="3.4569" ry="0.0000" fill="currentColor"/>
<rect transform="translate(5.6906, 14.1422)" x="81.3532" y="-0.0994" width="1.9563" height="0.1988" ry="0.0994" fill="currentColor"/>
<rect transform="translate(5.6906, 14.9922)" x="81.3532" y="-0.0994" width="1.9563" height="0.1988" ry="0.0994" fill="currentColor"/>
<rect transform="translate(5.6906, 15.8422)" x="81.3532" y="-0.0994" width="1.9563" height="0.1988" ry="0.0994" fill="currentColor"/>
<rect transform="translate(5.6906, 14.1422)" x="34.2269" y="-0.0994" width="1.9563" height="0.1988" ry="0.0994" fill="currentColor"/>
<rect transform="translate(5.6906, 14.9922)" x="34.2269" y="-0.0994" width="1.9563" height="0.1988" ry="0.0994" fill="currentColor"/>
<rect transform="translate(5.6906, 15.8422)" x="34.2269" y="-0.0994" width="1.9563" height="0.1988" ry="0.0994" fill="currentColor"/>
<rect transform="translate(5.6906, 14.1422)" x="17.2168" y="-0.0994" width="1.9563" height="0.1988" ry="0.0994" fill="currentColor"/>
<rect transform="translate(5.6906, 14.9922)" x="17.2168" y="-0.0994" width="1.9563" height="0.1988" ry="0.0994" fill="currentColor"/>
<rect transform="translate(5.6906, 15.8422)" x="17.2168" y="-0.0994" width="1.9563" height="0.1988" ry="0.0994" fill="currentColor"/>
<rect transform="translate(5.6906, 23.9922)" x="63.1529" y="-0.0994" width="1.9563" height="0.1988" ry="0.0994" fill="currentColor"/>
<rect transform="translate(5.6906, 24.8422)" x="63.1529" y="-0.0994" width="1.9563" height="0.1988" ry="0.0994" fill="currentColor"/>
<rect transform="translate(66.1143, 18.3922)" x="0.0000" y="-1.7000" width="0.2162" height="3.4569" ry="0.0000" fill="currentColor"/>
<g gridcolor="#f0eee9" gridstep="1" gridify="true" isstaff="true">
<line transform="translate(14.2264, 29.0922)" stroke-linejoin="round" stroke-linecap="round" stroke-width="0.1138" stroke="currentColor" x1="0.0569" y1="-0.0000" x2="99.5277" y2="-0.0000"/>
<line transform="translate(14.2264, 28.2422)" stroke-linejoin="round" stroke-linecap="round" stroke-width="0.1138" stroke="currentColor" x1="0.0569" y1="-0.0000" x2="99.5277" y2="-0.0000"/>
<line transform="translate(14.2264, 27.3922)" stroke-linejoin="round" stroke-linecap="round" stroke-width="0.1138" stroke="currentColor" x1="0.0569" y1="-0.0000" x2="99.5277" y2="-0.0000"/>
<line transform="translate(14.2264, 26.5422)" stroke-linejoin="round" stroke-linecap="round" stroke-width="0.1138" stroke="currentColor" x1="0.0569" y1="-0.0000" x2="99.5277" y2="-0.0000"/>
<line transform="translate(14.2264, 25.6922)" stroke-linejoin="round" stroke-linecap="round" stroke-width="0.1138" stroke="currentColor" x1="0.0569" y1="-0.0000" x2="99.5277" y2="-0.0000"/>
</g>
<a style="color:inherit;" xlink:href="textedit:///home/paolo/programmi/nuove-composizioni/Spontini-master/examples/EasyCrossStaffExample3.ly:93:50:51">
<path transform="translate(75.1936, 16.2672) scale(0.0040, -0.0040)" d="M218 136c55 0 108 -28 108 -89c0 -71 -55 -121 -102 -149c-35 -21 -75 -34 -116 -34c-55 0 -108 28 -108 89c0 71 55 121 102 149c35 21 75 34 116 34z" fill="currentColor"/>
</a>
<a style="color:inherit;" xlink:href="textedit:///home/paolo/programmi/nuove-composizioni/Spontini-master/examples/EasyCrossStaffExample3.ly:94:50:51">
<path transform="translate(75.1936, 26.9672) scale(0.0040, -0.0040)" d="M218 136c55 0 108 -28 108 -89c0 -71 -55 -121 -102 -149c-35 -21 -75 -34 -116 -34c-55 0 -108 28 -108 89c0 71 55 121 102 149c35 21 75 34 116 34z" fill="currentColor"/>
</a>
<a style="color:inherit;" xlink:href="textedit:///home/paolo/programmi/nuove-composizioni/Spontini-master/examples/EasyCrossStaffExample3.ly:94:50:51">
<path transform="translate(75.1936, 26.9672) scale(0.0040, -0.0040)" d="M218 136c55 0 108 -28 108 -89c0 -71 -55 -121 -102 -149c-35 -21 -75 -34 -116 -34c-55 0 -108 28 -108 89c0 71 55 121 102 149c35 21 75 34 116 34z" fill="currentColor"/>
</a>
<rect transform="translate(76.4238, 27.3922)" x="-0.0740" y="-3.1875" width="0.1480" height="2.5764" ry="0.0400" fill="currentColor"/>
<rect transform="translate(76.4238, 3.8453)" x="-0.0740" y="10.2241" width="0.1480" height="12.7118" ry="0.0400" fill="currentColor"/>
<a style="color:inherit;" xlink:href="textedit:///home/paolo/programmi/nuove-composizioni/Spontini-master/examples/EasyCrossStaffExample3.ly:93:59:60">
<path transform="translate(81.1344, 16.2672) scale(0.0040, -0.0040)" d="M218 136c55 0 108 -28 108 -89c0 -71 -55 -121 -102 -149c-35 -21 -75 -34 -116 -34c-55 0 -108 28 -108 89c0 71 55 121 102 149c35 21 75 34 116 34z" fill="currentColor"/>
</a>
<rect transform="translate(82.3646, 18.3922)" x="-0.0740" y="-5.2332" width="0.1480" height="2.9221" ry="0.0400" fill="currentColor"/>
<rect transform="translate(70.3997, 27.3922)" x="-0.0740" y="-5.9500" width="0.1480" height="2.3639" ry="0.0400" fill="currentColor"/>
<a style="color:inherit;" xlink:href="textedit:///home/paolo/programmi/nuove-composizioni/Spontini-master/examples/EasyCrossStaffExample3.ly:60:51:52">
<path transform="translate(23.2334, 16.6612)" stroke-width="0.0910" stroke-linejoin="round" stroke-linecap="round" stroke="currentColor" fill="currentColor" d="M0.4854 -5.4950C2.5169 -7.0837 15.3090 -7.6429 17.4712 -6.2375L17.4712 -6.2375C15.3149 -7.5064 2.5228 -6.9472 0.4854 -5.4950z"/>
</a>
<rect transform="translate(70.3997, 3.8453)" x="-0.0740" y="11.3540" width="0.1480" height="8.6068" ry="0.0400" fill="currentColor"/>
<g cpts-propid="108" editcommand="Shape" editableclass="Dummy" spontinieditable="true" staffspace="0.85000000">
<a style="color:inherit;" xlink:href="textedit:///home/paolo/programmi/nuove-composizioni/Spontini-master/examples/EasyCrossStaffExample3.ly:76:1:2">
<g color="rgb(100%, 50.0000%, 0%)">
<line transform="translate(69.8340, 25.8622)" stroke-linejoin="round" stroke-linecap="round" stroke-width="0.1366" stroke="currentColor" x1="0" y1="0" x2="8.8521" y2="8.3225"/>
</g>
<g color="rgb(100%, 50.0000%, 0%)">
<line transform="translate(78.6861, 34.1847)" stroke-linejoin="round" stroke-linecap="round" stroke-width="0.1366" stroke="currentColor" x1="0" y1="0" x2="7.9447" y2="-9.4576"/>
</g>
<g color="rgb(100%, 50.0000%, 0%)">
<line transform="translate(86.6307, 24.7272)" stroke-linejoin="round" stroke-linecap="round" stroke-width="0.1366" stroke="currentColor" x1="0" y1="0" x2="0.8320" y2="-5.3720"/>
</g>
<g color="rgb(81.1000%, 46.6000%, 43.9000%)">
<circle transform="translate(69.8340, 25.8622)" stroke-linejoin="round" stroke-linecap="round" fill="currentColor" stroke="currentColor" stroke-width="0" r="0.6000"/>
</g>
<g color="rgb(81.1000%, 46.6000%, 43.9000%)">
<circle transform="translate(78.6861, 34.1847)" stroke-linejoin="round" stroke-linecap="round" fill="currentColor" stroke="currentColor" stroke-width="0" r="0.6000"/>
</g>
<g color="rgb(81.1000%, 46.6000%, 43.9000%)">
<circle transform="translate(86.6307, 24.7272)" stroke-linejoin="round" stroke-linecap="round" fill="currentColor" stroke="currentColor" stroke-width="0" r="0.6000"/>
</g>
<g color="rgb(81.1000%, 46.6000%, 43.9000%)">
<circle transform="translate(87.4628, 19.3552)" stroke-linejoin="round" stroke-linecap="round" fill="currentColor" stroke="currentColor" stroke-width="0" r="0.6000"/>
</g>
<path transform="translate(69.1695, 18.3922)" stroke-width="0.0910" stroke-linejoin="round" stroke-linecap="round" stroke="currentColor" fill="currentColor" d="M0.6645 7.4700C9.5403 15.8566 17.4849 6.3990 18.2933 0.9630L18.2933 0.9630C17.4376 6.2709 9.4930 15.7285 0.6645 7.4700z"/>
</a>
</g>
<a style="color:inherit;" xlink:href="textedit:///home/paolo/programmi/nuove-composizioni/Spontini-master/examples/EasyCrossStaffExample3.ly:85:1:2">
<line transform="translate(72.3668, 36.6683)" stroke-linejoin="round" stroke-linecap="round" stroke-width="0.1138" stroke="currentColor" x1="15.0029" y1="-0.0000" x2="15.0029" y2="-1.0000"/>
<line transform="translate(72.3668, 36.6683)" stroke-linejoin="round" stroke-linecap="round" stroke-width="0.1138" stroke="currentColor" x1="0.0000" y1="-0.0000" x2="0.0000" y2="-0.0000"/>
<line transform="translate(72.3668, 36.6683)" stroke-linejoin="round" stroke-linecap="round" stroke-width="0.1138" stroke="currentColor" x1="0.0000" y1="-0.0000" x2="15.0029" y2="-0.0000"/>
</a>
<a style="color:inherit;" xlink:href="textedit:///home/paolo/programmi/nuove-composizioni/Spontini-master/examples/EasyCrossStaffExample3.ly:85:1:2">
<line transform="translate(73.6984, 34.5612)" stroke-linejoin="round" stroke-linecap="round" stroke-width="0.1138" stroke="currentColor" x1="13.6713" y1="-0.0000" x2="13.6713" y2="-1.0000"/>
<line transform="translate(73.6984, 34.5612)" stroke-linejoin="round" stroke-linecap="round" stroke-width="0.1138" stroke="currentColor" x1="0.0000" y1="-0.0000" x2="0.0000" y2="-0.0000"/>
<line transform="translate(73.6984, 34.5612)" stroke-linejoin="round" stroke-linecap="round" stroke-width="0.1138" stroke="currentColor" x1="0.0000" y1="-0.0000" x2="13.6713" y2="-0.0000"/>
</a>
<a style="color:inherit;" xlink:href="textedit:///home/paolo/programmi/nuove-composizioni/Spontini-master/examples/EasyCrossStaffExample3.ly:85:1:2">
<line transform="translate(72.5239, 31.1711)" stroke-linejoin="round" stroke-linecap="round" stroke-width="0.1138" stroke="currentColor" x1="0.0000" y1="0.0000" x2="13.2347" y2="0.5666"/>
<line transform="translate(72.5239, 31.1711)" stroke-linejoin="round" stroke-linecap="round" stroke-width="0.1138" stroke="currentColor" x1="0.0000" y1="-0.0000" x2="13.2347" y2="-0.5666"/>
</a>
<a style="color:inherit;" xlink:href="textedit:///home/paolo/programmi/nuove-composizioni/Spontini-master/examples/EasyCrossStaffExample3.ly:93:9:10">
<text transform="translate(75.8188, 9.0977)" font-family="serif" font-style="italic" font-size="1.7461" text-anchor="start" fill="currentColor">
<tspan>3</tspan>
</text>
</a>
<a style="color:inherit;" xlink:href="textedit:///home/paolo/programmi/nuove-composizioni/Spontini-master/examples/EasyCrossStaffExample3.ly:93:39:40">
<polygon transform="translate(70.3257, 15.4172)" stroke-linejoin="round" stroke-linecap="round" stroke-width="0.0800" fill="currentColor" stroke="currentColor" points="12.0729 -2.4361 12.0729 -2.1081 0.0400 0.1640 0.0400 -0.1640"/>
</a>
<a style="color:inherit;" xlink:href="textedit:///home/paolo/programmi/nuove-composizioni/Spontini-master/examples/EasyCrossStaffExample3.ly:52:1:2">
<line transform="translate(26.4308, 34.6682)" stroke-linejoin="round" stroke-linecap="round" stroke-width="0.1138" stroke="currentColor" x1="13.8127" y1="-0.0000" x2="13.8127" y2="-1.0000"/>
<line transform="translate(26.4308, 34.6682)" stroke-linejoin="round" stroke-linecap="round" stroke-width="0.1138" stroke="currentColor" x1="0.0000" y1="-0.0000" x2="0.0000" y2="-0.0000"/>
<line transform="translate(26.4308, 34.6682)" stroke-linejoin="round" stroke-linecap="round" stroke-width="0.1138" stroke="currentColor" x1="0.0000" y1="-0.0000" x2="13.8127" y2="-0.0000"/>
</a>
<a style="color:inherit;" xlink:href="textedit:///home/paolo/programmi/nuove-composizioni/Spontini-master/examples/EasyCrossStaffExample3.ly:52:1:2">
<line transform="translate(27.7624, 36.7753)" stroke-linejoin="round" stroke-linecap="round" stroke-width="0.1138" stroke="currentColor" x1="12.4811" y1="-0.0000" x2="12.4811" y2="-1.0000"/>
<line transform="translate(27.7624, 36.7753)" stroke-linejoin="round" stroke-linecap="round" stroke-width="0.1138" stroke="currentColor" x1="0.0000" y1="-0.0000" x2="0.0000" y2="-0.0000"/>
<line transform="translate(27.7624, 36.7753)" stroke-linejoin="round" stroke-linecap="round" stroke-width="0.1138" stroke="currentColor" x1="0.0000" y1="-0.0000" x2="12.4811" y2="-0.0000"/>
</a>
<a style="color:inherit;" xlink:href="textedit:///home/paolo/programmi/nuove-composizioni/Spontini-master/examples/EasyCrossStaffExample3.ly:52:1:2">
<line transform="translate(26.4357, 31.2781)" stroke-linejoin="round" stroke-linecap="round" stroke-width="0.1138" stroke="currentColor" x1="0.0000" y1="0.0000" x2="12.0195" y2="0.5666"/>
<line transform="translate(26.4357, 31.2781)" stroke-linejoin="round" stroke-linecap="round" stroke-width="0.1138" stroke="currentColor" x1="0.0000" y1="-0.0000" x2="12.0195" y2="-0.5666"/>
</a>
<a style="color:inherit;" xlink:href="textedit:///home/paolo/programmi/nuove-composizioni/Spontini-master/examples/EasyCrossStaffExample3.ly:60:50:51">
<polygon transform="translate(23.2334, 19.0951)" stroke-linejoin="round" stroke-linecap="round" stroke-width="0.0800" fill="currentColor" stroke="currentColor" points="12.4381 2.1081 12.4381 2.4361 0.0400 0.1640 0.0400 -0.1640"/>
</a>
<a style="color:inherit;" xlink:href="textedit:///home/paolo/programmi/nuove-composizioni/Spontini-master/examples/EasyCrossStaffExample3.ly:60:9:10">
<text transform="translate(28.7570, 7.8806)" font-family="serif" font-style="italic" font-size="1.7461" text-anchor="start" fill="currentColor">
<tspan>3</tspan>
</text>
</a>
<a style="color:inherit;" xlink:href="textedit:///home/paolo/programmi/nuove-composizioni/Spontini-master/examples/EasyCrossStaffExample3.ly:93:71:72">
<path transform="translate(87.3698, 14.1422) scale(0.0040, -0.0040)" d="M218 136c55 0 108 -28 108 -89c0 -71 -55 -121 -102 -149c-35 -21 -75 -34 -116 -34c-55 0 -108 28 -108 89c0 71 55 121 102 149c35 21 75 34 116 34z" fill="currentColor"/>
</a>
<a style="color:inherit;" xlink:href="textedit:///home/paolo/programmi/nuove-composizioni/Spontini-master/examples/EasyCrossStaffExample3.ly:94:73:74">
<g transform="translate(86.7586, 31.7711)" >
<path transform="scale(0.0040, -0.0040)" d="M253 245l-50 -163c-30 -99 -121 -255 -218 -255c-45 0 -87 27 -87 69c0 39 17 77 52 77c24 0 44 -20 44 -44c0 -30 -38 -24 -38 -54c0 -10 11 -11 23 -11h6c48 0 61 58 73 108l68 273h-49c-11 0 -19 8 -19 19s8 19 19 19h60c32 96 118 191 213 191c45 0 87 -27 87 -69
c0 -39 -17 -77 -52 -77c-24 0 -44 19 -44 43c0 30 38 25 38 55c0 10 -10 11 -22 11h-7c-62 0 -70 -88 -86 -154h55c11 0 19 -8 19 -19s-8 -19 -19 -19h-66z" fill="currentColor"/>

<path transform="translate(1.2633, 0.0000) scale(0.0040, -0.0040)" d="M253 245l-50 -163c-30 -99 -121 -255 -218 -255c-45 0 -87 27 -87 69c0 39 17 77 52 77c24 0 44 -20 44 -44c0 -30 -38 -24 -38 -54c0 -10 11 -11 23 -11h6c48 0 61 58 73 108l68 273h-49c-11 0 -19 8 -19 19s8 19 19 19h60c32 96 118 191 213 191c45 0 87 -27 87 -69
c0 -39 -17 -77 -52 -77c-24 0 -44 19 -44 43c0 30 38 25 38 55c0 10 -10 11 -22 11h-7c-62 0 -70 -88 -86 -154h55c11 0 19 -8 19 -19s-8 -19 -19 -19h-66z" fill="currentColor"/>
</g>
</a>
<rect transform="translate(87.4437, 18.3922)" x="-0.0740" y="-4.0639" width="0.1480" height="4.0639" ry="0.0400" fill="currentColor"/>
<a style="color:inherit;" xlink:href="textedit:///home/paolo/programmi/nuove-composizioni/Spontini-master/examples/EasyCrossStaffExample3.ly:93:105:106">
<path transform="translate(100.6594, 18.3922) scale(0.0040, -0.0040)" d="M-23 -116c0 28 11 42 40 42c33 0 78 -13 119 -31l-132 158c-7 9 -10 17 -10 25c0 34 50 66 87 99c25 22 37 52 37 83c0 24 -8 49 -25 69l-35 42c-3 3 -4 7 -4 10c0 9 9 15 17 15c4 0 8 -1 11 -5l151 -180c7 -9 10 -17 10 -25c0 -34 -50 -66 -87 -99
c-25 -22 -37 -52 -37 -83c0 -24 7 -49 24 -69l84 -99c3 -3 4 -7 4 -10c0 -9 -8 -16 -16 -16c-4 0 -9 2 -12 6c-18 21 -63 38 -97 38c-41 0 -53 -26 -53 -67c0 -35 11 -74 28 -94c5 -6 0 -13 -6 -13c-2 0 -4 0 -6 2c-45 54 -92 148 -92 202z" fill="currentColor"/>
</a>
<a style="color:inherit;" xlink:href="textedit:///home/paolo/programmi/nuove-composizioni/Spontini-master/examples/EasyCrossStaffExample3.ly:61:62:63">
<path transform="translate(28.5860, 26.9672) scale(0.0040, -0.0040)" d="M218 136c55 0 108 -28 108 -89c0 -71 -55 -121 -102 -149c-35 -21 -75 -34 -116 -34c-55 0 -108 28 -108 89c0 71 55 121 102 149c35 21 75 34 116 34z" fill="currentColor"/>
</a>
<rect transform="translate(29.8162, 27.3922)" x="-0.0740" y="-7.0985" width="0.1480" height="6.4873" ry="0.0400" fill="currentColor"/>
<a style="color:inherit;" xlink:href="textedit:///home/paolo/programmi/nuove-composizioni/Spontini-master/examples/EasyCrossStaffExample3.ly:61:70:71">
<path transform="translate(34.4073, 25.2672) scale(0.0040, -0.0040)" d="M218 136c55 0 108 -28 108 -89c0 -71 -55 -121 -102 -149c-35 -21 -75 -34 -116 -34c-55 0 -108 28 -108 89c0 71 55 121 102 149c35 21 75 34 116 34z" fill="currentColor"/>
</a>
<text transform="translate(4.5771, 23.6775)" font-family="serif" font-size="2.2001" text-anchor="start" fill="currentColor">
<tspan>Piano  </tspan>
</text>
<path transform="translate(13.8443, 22.8922) scale(0.0040, -0.0040)" d="M-18 -474c0 -249 -96 -495 -96 -729c0 -129 30 -249 126 -342c3 -3 3 -6 3 -9c0 -9 -6 -18 -15 -18c-3 0 -9 3 -12 6c-129 126 -171 297 -171 477c0 255 102 501 102 741c0 129 -30 249 -123 342c-3 3 -6 3 -6 6s3 3 6 6c93 93 123 213 123 342c0 240 -102 486 -102 741
c0 180 42 351 171 477c3 3 9 6 12 6c9 0 15 -9 15 -18c0 -3 0 -6 -3 -9c-96 -93 -126 -213 -126 -342c0 -234 96 -480 96 -729c0 -177 -42 -348 -165 -474c123 -126 165 -297 165 -474z" fill="currentColor"/>
<rect transform="translate(14.1443, 22.8922)" x="0.0000" y="-6.2569" width="0.1821" height="12.5138" ry="0.0569" fill="currentColor"/>
<a style="color:inherit;" xlink:href="textedit:///home/paolo/programmi/nuove-composizioni/Spontini-master/examples/EasyCrossStaffExample3.ly:60:37:38">
<path transform="translate(23.2334, 14.9922) scale(0.0040, -0.0040)" d="M218 136c55 0 108 -28 108 -89c0 -71 -55 -121 -102 -149c-35 -21 -75 -34 -116 -34c-55 0 -108 28 -108 89c0 71 55 121 102 149c35 21 75 34 116 34z" fill="currentColor"/>
</a>
<a style="color:inherit;" xlink:href="textedit:///home/paolo/programmi/nuove-composizioni/Spontini-master/examples/EasyCrossStaffExample3.ly:60:43:44">
<path transform="translate(23.2334, 14.1422) scale(0.0040, -0.0040)" d="M218 136c55 0 108 -28 108 -89c0 -71 -55 -121 -102 -149c-35 -21 -75 -34 -116 -34c-55 0 -108 28 -108 89c0 71 55 121 102 149c35 21 75 34 116 34z" fill="currentColor"/>
</a>
<path transform="translate(15.0264, 19.2422) scale(0.0040, -0.0040)" d="M376 262c4 0 9 1 13 1c155 0 256 -128 256 -261c0 -76 -33 -154 -107 -210c-22 -17 -47 -28 -73 -36c3 -35 5 -70 5 -105c0 -19 -1 -39 -2 -58c-7 -120 -90 -228 -208 -228c-108 0 -195 88 -195 197c0 58 53 103 112 103c54 0 95 -47 95 -103c0 -52 -43 -95 -95 -95
c-11 0 -21 2 -31 6c26 -39 68 -65 117 -65c96 0 157 92 163 191c1 18 2 37 2 55c0 31 -1 61 -4 92c-29 -5 -58 -8 -89 -8c-188 0 -333 172 -333 374c0 177 131 306 248 441c-19 62 -37 125 -45 190c-6 52 -7 104 -7 156c0 115 55 224 149 292c3 2 7 3 10 3c4 0 7 0 10 -3
c71 -84 133 -245 133 -358c0 -143 -86 -255 -180 -364c21 -68 39 -138 56 -207zM461 -203c68 24 113 95 113 164c0 90 -66 179 -173 190c24 -116 46 -231 60 -354zM74 28c0 -135 129 -247 264 -247c28 0 55 2 82 6c-14 127 -37 245 -63 364c-79 -8 -124 -61 -124 -119
c0 -44 25 -91 81 -123c5 -5 7 -10 7 -15c0 -11 -10 -22 -22 -22c-3 0 -6 1 -9 2c-80 43 -117 115 -117 185c0 88 58 174 160 197c-14 58 -29 117 -46 175c-107 -121 -213 -243 -213 -403zM408 1045c-99 -48 -162 -149 -162 -259c0 -74 18 -133 36 -194
c80 97 146 198 146 324c0 55 -4 79 -20 129z" fill="currentColor"/>
<a style="color:inherit;" xlink:href="textedit:///home/paolo/programmi/nuove-composizioni/Spontini-master/examples/EasyCrossStaffExample3.ly:26:0:1">
<path transform="translate(19.3630, 18.3922) scale(0.0040, -0.0040)" d="M150 477c-29 0 -59 -8 -59 -33c0 -22 36 -25 36 -47c0 -32 -26 -58 -58 -58s-57 26 -57 58c0 65 67 103 138 103c91 0 169 -33 169 -114c0 -43 -4 -82 -42 -100c-9 -4 -14 -12 -14 -21s5 -18 14 -22c41 -19 56 -57 56 -103c0 -92 -79 -140 -179 -140
c-79 0 -154 42 -154 113c0 36 30 66 66 66s65 -30 65 -66c0 -25 -40 -28 -40 -53c0 -27 32 -37 63 -37c49 0 63 61 63 117v16c0 54 -2 94 -50 94h-80c-10 0 -14 8 -14 15s4 14 14 14h80c49 0 50 43 50 99v8c0 54 -18 91 -67 91z" fill="currentColor"/>
<path transform="translate(19.2264, 20.4408) scale(0.0040, -0.0040)" d="M204 307c22 14 44 29 60 50c11 15 19 33 27 50c2 4 5 6 9 6c6 0 13 -5 13 -14v-245h72c10 0 15 -7 15 -14s-5 -15 -15 -15h-72v-8c0 -48 27 -94 72 -94c8 0 12 -5 12 -11s-4 -12 -12 -12c-44 0 -87 13 -131 13s-87 -13 -131 -13c-8 0 -12 6 -12 12s4 11 12 11
c45 0 73 46 73 94v8h-167c-23 0 -31 14 -31 23c0 3 1 5 2 6c80 93 138 207 138 330c0 9 6 16 13 16h3c23 -7 47 -13 71 -13s48 6 71 13c2 1 3 1 5 1c11 0 18 -10 12 -17l-284 -330h167v131c0 8 1 17 8 22z" fill="currentColor"/>
</a>
<path transform="translate(15.0264, 28.2422) scale(0.0040, -0.0040)" d="M376 262c4 0 9 1 13 1c155 0 256 -128 256 -261c0 -76 -33 -154 -107 -210c-22 -17 -47 -28 -73 -36c3 -35 5 -70 5 -105c0 -19 -1 -39 -2 -58c-7 -120 -90 -228 -208 -228c-108 0 -195 88 -195 197c0 58 53 103 112 103c54 0 95 -47 95 -103c0 -52 -43 -95 -95 -95
c-11 0 -21 2 -31 6c26 -39 68 -65 117 -65c96 0 157 92 163 191c1 18 2 37 2 55c0 31 -1 61 -4 92c-29 -5 -58 -8 -89 -8c-188 0 -333 172 -333 374c0 177 131 306 248 441c-19 62 -37 125 -45 190c-6 52 -7 104 -7 156c0 115 55 224 149 292c3 2 7 3 10 3c4 0 7 0 10 -3
c71 -84 133 -245 133 -358c0 -143 -86 -255 -180 -364c21 -68 39 -138 56 -207zM461 -203c68 24 113 95 113 164c0 90 -66 179 -173 190c24 -116 46 -231 60 -354zM74 28c0 -135 129 -247 264 -247c28 0 55 2 82 6c-14 127 -37 245 -63 364c-79 -8 -124 -61 -124 -119
c0 -44 25 -91 81 -123c5 -5 7 -10 7 -15c0 -11 -10 -22 -22 -22c-3 0 -6 1 -9 2c-80 43 -117 115 -117 185c0 88 58 174 160 197c-14 58 -29 117 -46 175c-107 -121 -213 -243 -213 -403zM408 1045c-99 -48 -162 -149 -162 -259c0 -74 18 -133 36 -194
c80 97 146 198 146 324c0 55 -4 79 -20 129z" fill="currentColor"/>
<path transform="translate(19.3630, 27.3922) scale(0.0040, -0.0040)" d="M150 477c-29 0 -59 -8 -59 -33c0 -22 36 -25 36 -47c0 -32 -26 -58 -58 -58s-57 26 -57 58c0 65 67 103 138 103c91 0 169 -33 169 -114c0 -43 -4 -82 -42 -100c-9 -4 -14 -12 -14 -21s5 -18 14 -22c41 -19 56 -57 56 -103c0 -92 -79 -140 -179 -140
c-79 0 -154 42 -154 113c0 36 30 66 66 66s65 -30 65 -66c0 -25 -40 -28 -40 -53c0 -27 32 -37 63 -37c49 0 63 61 63 117v16c0 54 -2 94 -50 94h-80c-10 0 -14 8 -14 15s4 14 14 14h80c49 0 50 43 50 99v8c0 54 -18 91 -67 91z" fill="currentColor"/>
<path transform="translate(19.2264, 29.4408) scale(0.0040, -0.0040)" d="M204 307c22 14 44 29 60 50c11 15 19 33 27 50c2 4 5 6 9 6c6 0 13 -5 13 -14v-245h72c10 0 15 -7 15 -14s-5 -15 -15 -15h-72v-8c0 -48 27 -94 72 -94c8 0 12 -5 12 -11s-4 -12 -12 -12c-44 0 -87 13 -131 13s-87 -13 -131 -13c-8 0 -12 6 -12 12s4 11 12 11
c45 0 73 46 73 94v8h-167c-23 0 -31 14 -31 23c0 3 1 5 2 6c80 93 138 207 138 330c0 9 6 16 13 16h3c23 -7 47 -13 71 -13s48 6 71 13c2 1 3 1 5 1c11 0 18 -10 12 -17l-284 -330h167v131c0 8 1 17 8 22z" fill="currentColor"/>
<rect transform="translate(23.3074, 18.3922)" x="-0.0740" y="-4.0639" width="0.1480" height="4.7803" ry="0.0400" fill="currentColor"/>
<a style="color:inherit;" xlink:href="textedit:///home/paolo/programmi/nuove-composizioni/Spontini-master/examples/EasyCrossStaffExample3.ly:60:115:116">
<path transform="translate(53.1789, 18.3922) scale(0.0040, -0.0040)" d="M-23 -116c0 28 11 42 40 42c33 0 78 -13 119 -31l-132 158c-7 9 -10 17 -10 25c0 34 50 66 87 99c25 22 37 52 37 83c0 24 -8 49 -25 69l-35 42c-3 3 -4 7 -4 10c0 9 9 15 17 15c4 0 8 -1 11 -5l151 -180c7 -9 10 -17 10 -25c0 -34 -50 -66 -87 -99
c-25 -22 -37 -52 -37 -83c0 -24 7 -49 24 -69l84 -99c3 -3 4 -7 4 -10c0 -9 -8 -16 -16 -16c-4 0 -9 2 -12 6c-18 21 -63 38 -97 38c-41 0 -53 -26 -53 -67c0 -35 11 -74 28 -94c5 -6 0 -13 -6 -13c-2 0 -4 0 -6 2c-45 54 -92 148 -92 202z" fill="currentColor"/>
</a>
<g color="rgb(100.0000%, 0.0000%, 0.0000%)">
</g>
<g color="rgb(100.0000%, 0.0000%, 0.0000%)">
</g>
<a style="color:inherit;" xlink:href="textedit:///home/paolo/programmi/nuove-composizioni/Spontini-master/examples/EasyCrossStaffExample3.ly:94:29:30">
<path transform="translate(69.1695, 23.9922) scale(0.0040, -0.0040)" d="M218 136c55 0 108 -28 108 -89c0 -71 -55 -121 -102 -149c-35 -21 -75 -34 -116 -34c-55 0 -108 28 -108 89c0 71 55 121 102 149c35 21 75 34 116 34z" fill="currentColor"/>
</a>
<a style="color:inherit;" xlink:href="textedit:///home/paolo/programmi/nuove-composizioni/Spontini-master/examples/EasyCrossStaffExample3.ly:94:29:30">
<path transform="translate(69.1695, 23.9922) scale(0.0040, -0.0040)" d="M218 136c55 0 108 -28 108 -89c0 -71 -55 -121 -102 -149c-35 -21 -75 -34 -116 -34c-55 0 -108 28 -108 89c0 71 55 121 102 149c35 21 75 34 116 34z" fill="currentColor"/>
</a>
<rect transform="translate(35.6375, 27.3922)" x="-0.0740" y="-6.0385" width="0.1480" height="3.7274" ry="0.0400" fill="currentColor"/>
<rect transform="translate(40.3175, 18.3922)" x="-0.0740" y="-4.0639" width="0.1480" height="4.0639" ry="0.0400" fill="currentColor"/>
<a style="color:inherit;" xlink:href="textedit:///home/paolo/programmi/nuove-composizioni/Spontini-master/examples/EasyCrossStaffExample3.ly:60:81:82">
<path transform="translate(40.2435, 14.1422) scale(0.0040, -0.0040)" d="M218 136c55 0 108 -28 108 -89c0 -71 -55 -121 -102 -149c-35 -21 -75 -34 -116 -34c-55 0 -108 28 -108 89c0 71 55 121 102 149c35 21 75 34 116 34z" fill="currentColor"/>
</a>
<a style="color:inherit;" xlink:href="textedit:///home/paolo/programmi/nuove-composizioni/Spontini-master/examples/EasyCrossStaffExample3.ly:61:83:84">
<g transform="translate(39.4552, 31.8781)" >
<path transform="scale(0.0040, -0.0040)" d="M253 245l-50 -163c-30 -99 -121 -255 -218 -255c-45 0 -87 27 -87 69c0 39 17 77 52 77c24 0 44 -20 44 -44c0 -30 -38 -24 -38 -54c0 -10 11 -11 23 -11h6c48 0 61 58 73 108l68 273h-49c-11 0 -19 8 -19 19s8 19 19 19h60c32 96 118 191 213 191c45 0 87 -27 87 -69
c0 -39 -17 -77 -52 -77c-24 0 -44 19 -44 43c0 30 38 25 38 55c0 10 -10 11 -22 11h-7c-62 0 -70 -88 -86 -154h55c11 0 19 -8 19 -19s-8 -19 -19 -19h-66z" fill="currentColor"/>

<path transform="translate(1.2633, 0.0000) scale(0.0040, -0.0040)" d="M253 245l-50 -163c-30 -99 -121 -255 -218 -255c-45 0 -87 27 -87 69c0 39 17 77 52 77c24 0 44 -20 44 -44c0 -30 -38 -24 -38 -54c0 -10 11 -11 23 -11h6c48 0 61 58 73 108l68 273h-49c-11 0 -19 8 -19 19s8 19 19 19h60c32 96 118 191 213 191c45 0 87 -27 87 -69
c0 -39 -17 -77 -52 -77c-24 0 -44 19 -44 43c0 30 38 25 38 55c0 10 -10 11 -22 11h-7c-62 0 -70 -88 -86 -154h55c11 0 19 -8 19 -19s-8 -19 -19 -19h-66z" fill="currentColor"/>
</g>
</a>
<g thickness="0.20000000" spontinieditable="true" y-direction="-1" pads-propid="115">
<a style="color:inherit;" xlink:href="textedit:///home/paolo/programmi/nuove-composizioni/Spontini-master/examples/EasyCrossStaffExample3.ly:120:1:2">
<g color="rgb(91.2000%, 93.4000%, 95.6000%)">
<rect transform="translate(11.4906, 91.4005)" x="-0.2000" y="-0.2000" width="28.3634" height="0.2000" ry="0.0000" fill="currentColor"/>
<rect transform="translate(39.4539, 93.0735)" x="0" y="-1.6730" width="0.2000" height="2.1169" ry="0.0000" fill="currentColor"/>
<rect transform="translate(11.4906, 93.7174)" x="-0.2000" y="-0.2000" width="28.3634" height="0.2000" ry="0.0000" fill="currentColor"/>
<rect transform="translate(11.2906, 93.0735)" x="0" y="-1.6730" width="0.2000" height="2.1169" ry="0.0000" fill="currentColor"/>
</g>
<text transform="translate(11.4906, 93.0735)" font-family="monospace" font-size="2.2001" text-anchor="start" fill="currentColor">
<tspan>Use pedals with care!</tspan>
</text>
</a>
</g>
<g thickness="0.20000000" spontinieditable="true" y-direction="1" pads-propid="118">
<a style="color:inherit;" xlink:href="textedit:///home/paolo/programmi/nuove-composizioni/Spontini-master/examples/EasyCrossStaffExample3.ly:146:1:2">
<g color="rgb(91.2000%, 93.4000%, 95.6000%)">
<rect transform="translate(64.1478, 66.4312)" x="-0.2000" y="-0.2000" width="22.1668" height="0.2000" ry="0.0000" fill="currentColor"/>
<rect transform="translate(85.9146, 67.3972)" x="0" y="-0.9660" width="0.2000" height="0.9660" ry="0.0000" fill="currentColor"/>
<rect transform="translate(64.1478, 67.5972)" x="-0.2000" y="-0.2000" width="22.1668" height="0.2000" ry="0.0000" fill="currentColor"/>
<rect transform="translate(63.9478, 67.3972)" x="0" y="-0.9660" width="0.2000" height="0.9660" ry="0.0000" fill="currentColor"/>
</g>
<text transform="translate(64.1478, 67.3972)" font-family="monospace" font-size="2.2001" text-anchor="start" fill="currentColor">
<tspan>   </tspan>
</text>
</a>
</g>
<g pads-propid="117" thickness="0.20000000" spontinieditable="true" y-direction="1">
<g color="rgb(91.2000%, 93.4000%, 95.6000%)">
<rect transform="translate(64.1478, 61.7521)" x="-1.0000" y="-0.2000" width="22.6775" height="0.2000" ry="0.0000" fill="currentColor"/>
<rect transform="translate(85.6253, 62.5887)" x="0" y="-0.8365" width="0.2000" height="1.7690" ry="0.0000" fill="currentColor"/>
<rect transform="translate(64.1478, 63.7212)" x="-1.0000" y="-0.2000" width="22.6775" height="0.2000" ry="0.0000" fill="currentColor"/>
<rect transform="translate(63.1478, 62.5887)" x="0" y="-0.8365" width="0.2000" height="1.7690" ry="0.0000" fill="currentColor"/>
</g>
<text transform="translate(63.3478, 63.3910)" font-family="serif" font-style="italic" font-size="2.2001" text-anchor="start" fill="currentColor">
<tspan>8va</tspan>
</text>
<line transform="translate(85.5684, 62.5887)" stroke-linejoin="round" stroke-linecap="round" stroke-width="0.1138" stroke="currentColor" x1="0" y1="0" x2="0.0000" y2="0.8000" stroke-dasharray="0.85,0.0"/>
<line transform="translate(67.5743, 62.5887)" stroke-linejoin="round" stroke-linecap="round" stroke-width="0.1138" stroke="currentColor" x1="0" y1="0" x2="0.0000" y2="-0.0000" stroke-dasharray="0.85,0.0"/>
<line transform="translate(67.5743, 62.5887)" stroke-linejoin="round" stroke-linecap="round" stroke-width="0.1138" stroke="currentColor" x1="0" y1="0" x2="17.9941" y2="-0.0000" stroke-dasharray="0.253437738785288,0.591354723832338"/>
</g>
<g thickness="0.20000000" spontinieditable="true" y-direction="-1" pads-propid="122">
<a style="color:inherit;" xlink:href="textedit:///home/paolo/programmi/nuove-composizioni/Spontini-master/examples/EasyCrossStaffExample3.ly:158:1:2">
<g color="rgb(91.2000%, 93.4000%, 95.6000%)">
<rect transform="translate(64.1478, 95.3923)" x="-0.2000" y="-0.2000" width="28.3634" height="0.2000" ry="0.0000" fill="currentColor"/>
<rect transform="translate(92.1112, 97.1103)" x="0" y="-1.7180" width="0.2000" height="2.1619" ry="0.0000" fill="currentColor"/>
<rect transform="translate(64.1478, 97.7542)" x="-0.2000" y="-0.2000" width="28.3634" height="0.2000" ry="0.0000" fill="currentColor"/>
<rect transform="translate(63.9478, 97.1103)" x="0" y="-1.7180" width="0.2000" height="2.1619" ry="0.0000" fill="currentColor"/>
</g>
<text transform="translate(64.1478, 97.1103)" font-family="monospace" font-size="2.2001" text-anchor="start" fill="currentColor">
<tspan>Use pedals with care!</tspan>
</text>
</a>
</g>
<g y-direction="-1" thickness="0.20000000" spontinieditable="true" pads-propid="119">
<a style="color:inherit;" xlink:href="textedit:///home/paolo/programmi/nuove-composizioni/Spontini-master/examples/EasyCrossStaffExample3.ly:158:1:2">
<g color="rgb(91.2000%, 93.4000%, 95.6000%)">
<rect transform="translate(63.2976, 88.1490)" x="-0.2000" y="-0.2000" width="3.4046" height="0.2000" ry="0.0000" fill="currentColor"/>
<rect transform="translate(66.3023, 90.0610)" x="0" y="-1.9120" width="0.2000" height="2.6290" ry="0.0000" fill="currentColor"/>
<rect transform="translate(63.2976, 90.9780)" x="-0.2000" y="-0.2000" width="3.4046" height="0.2000" ry="0.0000" fill="currentColor"/>
<rect transform="translate(63.0976, 90.0610)" x="0" y="-1.9120" width="0.2000" height="2.6290" ry="0.0000" fill="currentColor"/>
</g>
<g transform="translate(63.2976, 90.0610)" >
<path transform="scale(0.0040, -0.0040)" d="M-41 146c26 76 82 153 149 153c22 0 36 -20 41 -45c22 26 51 45 81 45c23 0 38 -21 44 -46c22 27 51 46 80 46c33 0 59 -35 59 -69c0 -5 -1 -10 -2 -15l-35 -149c0 -2 -1 -4 -1 -5c0 -5 2 -8 7 -8c9 0 27 11 48 31c4 4 9 6 13 6c6 0 11 -4 11 -10c0 -4 -3 -8 -7 -12
c-40 -38 -85 -75 -131 -75c-20 0 -32 13 -32 32c0 4 0 7 1 11l39 165c1 5 2 9 2 14c0 10 -4 18 -14 18c-16 0 -33 -16 -39 -32l-53 -183c-3 -10 -12 -18 -22 -18h-41c-10 0 -16 8 -13 18l52 183c2 6 3 11 3 16c0 9 -4 16 -13 16c-16 0 -35 -15 -41 -32l-62 -183
c-3 -10 -14 -18 -24 -18h-41c-10 0 -15 8 -12 18l63 183c2 5 2 10 2 15c0 10 -3 17 -13 17c-29 0 -54 -53 -66 -87c-4 -11 -15 -17 -23 -17c-7 0 -12 4 -12 11c0 2 1 4 2 6z" fill="currentColor"/>

<path transform="translate(1.7413, 0.0000) scale(0.0040, -0.0040)" d="M253 245l-50 -163c-30 -99 -121 -255 -218 -255c-45 0 -87 27 -87 69c0 39 17 77 52 77c24 0 44 -20 44 -44c0 -30 -38 -24 -38 -54c0 -10 11 -11 23 -11h6c48 0 61 58 73 108l68 273h-49c-11 0 -19 8 -19 19s8 19 19 19h60c32 96 118 191 213 191c45 0 87 -27 87 -69
c0 -39 -17 -77 -52 -77c-24 0 -44 19 -44 43c0 30 38 25 38 55c0 10 -10 11 -22 11h-7c-62 0 -70 -88 -86 -154h55c11 0 19 -8 19 -19s-8 -19 -19 -19h-66z" fill="currentColor"/>
</g>
</a>
</g>
<g pads-propid="123" thickness="0.20000000" spontinieditable="true" y-direction="-1">
<a style="color:inherit;" xlink:href="textedit:///home/paolo/programmi/nuove-composizioni/Spontini-master/examples/EasyCrossStaffExample3.ly:167:9:10">
<g color="rgb(91.2000%, 93.4000%, 95.6000%)">
<rect transform="translate(64.1478, 83.3491)" x="-0.4569" y="-0.2000" width="14.2247" height="0.2000" ry="0.0000" fill="currentColor"/>
<rect transform="translate(77.7157, 84.3295)" x="0" y="-0.9804" width="0.2000" height="4.3999" ry="0.0000" fill="currentColor"/>
<rect transform="translate(64.1478, 87.9490)" x="-0.4569" y="-0.2000" width="14.2247" height="0.2000" ry="0.0000" fill="currentColor"/>
<rect transform="translate(63.6910, 84.3295)" x="0" y="-0.9804" width="0.2000" height="4.3999" ry="0.0000" fill="currentColor"/>
</g>
<line transform="translate(64.1478, 84.3295)" stroke-linejoin="round" stroke-linecap="round" stroke-width="0.1821" stroke="currentColor" x1="13.4768" y1="3.0374" x2="13.4768" y2="2.4424"/>
<line transform="translate(64.1478, 84.3295)" stroke-linejoin="round" stroke-linecap="round" stroke-width="0.1821" stroke="currentColor" x1="-0.1658" y1="-0.0374" x2="-0.1658" y2="-0.6324"/>
<line transform="translate(64.1478, 84.3295)" stroke-linejoin="round" stroke-linecap="round" stroke-width="0.1821" stroke="currentColor" x1="13.4768" y1="3.0374" x2="7.7904" y2="1.7558"/>
<line transform="translate(64.1478, 84.3295)" stroke-linejoin="round" stroke-linecap="round" stroke-width="0.1821" stroke="currentColor" x1="-0.1658" y1="-0.0374" x2="5.7157" y2="1.2882"/>
</a>
</g>
<g y-direction="-1" thickness="0.20000000" spontinieditable="true" pads-propid="121">
<a style="color:inherit;" xlink:href="textedit:///home/paolo/programmi/nuove-composizioni/Spontini-master/examples/EasyCrossStaffExample3.ly:158:1:2">
<g color="rgb(91.2000%, 93.4000%, 95.6000%)">
<rect transform="translate(60.8189, 93.2852)" x="-0.2000" y="-0.2000" width="7.0579" height="0.2000" ry="0.0000" fill="currentColor"/>
<rect transform="translate(67.4768, 94.9582)" x="0" y="-1.6730" width="0.2000" height="1.7072" ry="0.0000" fill="currentColor"/>
<rect transform="translate(60.8189, 95.1923)" x="-0.2000" y="-0.2000" width="7.0579" height="0.2000" ry="0.0000" fill="currentColor"/>
<rect transform="translate(60.6189, 94.9582)" x="0" y="-1.6730" width="0.2000" height="1.7072" ry="0.0000" fill="currentColor"/>
</g>
<text transform="translate(60.8189, 94.9582)" font-family="monospace" font-weight="bold" font-style="italic" font-size="2.2001" text-anchor="start" fill="currentColor">
<tspan>S Ped</tspan>
</text>
</a>
</g>
<g y-direction="-1" thickness="0.20000000" spontinieditable="true" pads-propid="120">
<a style="color:inherit;" xlink:href="textedit:///home/paolo/programmi/nuove-composizioni/Spontini-master/examples/EasyCrossStaffExample3.ly:158:1:2">
<g color="rgb(91.2000%, 93.4000%, 95.6000%)">
<rect transform="translate(62.1505, 91.1780)" x="-0.2000" y="-0.2000" width="4.3948" height="0.2000" ry="0.0000" fill="currentColor"/>
<rect transform="translate(66.1452, 92.8510)" x="0" y="-1.6730" width="0.2000" height="1.7072" ry="0.0000" fill="currentColor"/>
<rect transform="translate(62.1505, 93.0852)" x="-0.2000" y="-0.2000" width="4.3948" height="0.2000" ry="0.0000" fill="currentColor"/>
<rect transform="translate(61.9505, 92.8510)" x="0" y="-1.6730" width="0.2000" height="1.7072" ry="0.0000" fill="currentColor"/>
</g>
<text transform="translate(62.1505, 92.8510)" font-family="monospace" font-weight="bold" font-size="2.2001" text-anchor="start" fill="currentColor">
<tspan>Ped</tspan>
</text>
</a>
</g>
<g thickness="0.20000000" spontinieditable="true" y-direction="1" pads-propid="111">
<a style="color:inherit;" xlink:href="textedit:///home/paolo/programmi/nuove-composizioni/Spontini-master/examples/EasyCrossStaffExample3.ly:130:46:47">
<g color="rgb(91.2000%, 93.4000%, 95.6000%)">
<rect transform="translate(11.4906, 65.9832)" x="-0.2610" y="-0.2000" width="12.6598" height="0.2000" ry="0.0000" fill="currentColor"/>
<rect transform="translate(23.6893, 69.3882)" x="0" y="-3.4050" width="0.2000" height="3.5390" ry="0.0000" fill="currentColor"/>
<rect transform="translate(11.4906, 69.7222)" x="-0.2610" y="-0.2000" width="12.6598" height="0.2000" ry="0.0000" fill="currentColor"/>
<rect transform="translate(11.2296, 69.3882)" x="0" y="-3.4050" width="0.2000" height="3.5390" ry="0.0000" fill="currentColor"/>
</g>
<text transform="translate(11.4906, 69.3882)" font-family="monospace" font-size="2.2001" text-anchor="start" fill="currentColor">
<tspan>   </tspan>
</text>
</a>
</g>
<g y-direction="-1" thickness="0.20000000" spontinieditable="true" pads-propid="112">
<a style="color:inherit;" xlink:href="textedit:///home/paolo/programmi/nuove-composizioni/Spontini-master/examples/EasyCrossStaffExample3.ly:120:1:2">
<g color="rgb(91.2000%, 93.4000%, 95.6000%)">
<rect transform="translate(10.6404, 83.8591)" x="-0.2000" y="-0.2000" width="3.4046" height="0.2000" ry="0.0000" fill="currentColor"/>
<rect transform="translate(13.6450, 85.8181)" x="0" y="-1.9590" width="0.2000" height="2.6760" ry="0.0000" fill="currentColor"/>
<rect transform="translate(10.6404, 86.7351)" x="-0.2000" y="-0.2000" width="3.4046" height="0.2000" ry="0.0000" fill="currentColor"/>
<rect transform="translate(10.4404, 85.8181)" x="0" y="-1.9590" width="0.2000" height="2.6760" ry="0.0000" fill="currentColor"/>
</g>
<g transform="translate(10.6404, 85.8181)" >
<path transform="scale(0.0040, -0.0040)" d="M-41 146c26 76 82 153 149 153c22 0 36 -20 41 -45c22 26 51 45 81 45c23 0 38 -21 44 -46c22 27 51 46 80 46c33 0 59 -35 59 -69c0 -5 -1 -10 -2 -15l-35 -149c0 -2 -1 -4 -1 -5c0 -5 2 -8 7 -8c9 0 27 11 48 31c4 4 9 6 13 6c6 0 11 -4 11 -10c0 -4 -3 -8 -7 -12
c-40 -38 -85 -75 -131 -75c-20 0 -32 13 -32 32c0 4 0 7 1 11l39 165c1 5 2 9 2 14c0 10 -4 18 -14 18c-16 0 -33 -16 -39 -32l-53 -183c-3 -10 -12 -18 -22 -18h-41c-10 0 -16 8 -13 18l52 183c2 6 3 11 3 16c0 9 -4 16 -13 16c-16 0 -35 -15 -41 -32l-62 -183
c-3 -10 -14 -18 -24 -18h-41c-10 0 -15 8 -12 18l63 183c2 5 2 10 2 15c0 10 -3 17 -13 17c-29 0 -54 -53 -66 -87c-4 -11 -15 -17 -23 -17c-7 0 -12 4 -12 11c0 2 1 4 2 6z" fill="currentColor"/>

<path transform="translate(1.7413, 0.0000) scale(0.0040, -0.0040)" d="M253 245l-50 -163c-30 -99 -121 -255 -218 -255c-45 0 -87 27 -87 69c0 39 17 77 52 77c24 0 44 -20 44 -44c0 -30 -38 -24 -38 -54c0 -10 11 -11 23 -11h6c48 0 61 58 73 108l68 273h-49c-11 0 -19 8 -19 19s8 19 19 19h60c32 96 118 191 213 191c45 0 87 -27 87 -69
c0 -39 -17 -77 -52 -77c-24 0 -44 19 -44 43c0 30 38 25 38 55c0 10 -10 11 -22 11h-7c-62 0 -70 -88 -86 -154h55c11 0 19 -8 19 -19s-8 -19 -19 -19h-66z" fill="currentColor"/>
</g>
</a>
</g>
<g pads-propid="110" thickness="0.20000000" spontinieditable="true" y-direction="1">
<g color="rgb(91.2000%, 93.4000%, 95.6000%)">
<rect transform="translate(11.4906, 55.6409)" x="-1.0000" y="-0.2000" width="22.9817" height="0.2000" ry="0.0000" fill="currentColor"/>
<rect transform="translate(33.2722, 58.5314)" x="0" y="-2.8905" width="0.2000" height="3.7270" ry="0.0000" fill="currentColor"/>
<rect transform="translate(11.4906, 59.5679)" x="-1.0000" y="-0.2000" width="22.9817" height="0.2000" ry="0.0000" fill="currentColor"/>
<rect transform="translate(10.4906, 58.5314)" x="0" y="-2.8905" width="0.2000" height="3.7270" ry="0.0000" fill="currentColor"/>
</g>
<text transform="translate(10.6906, 59.3338)" font-family="serif" font-style="italic" font-size="2.2001" text-anchor="start" fill="currentColor">
<tspan>8va</tspan>
</text>
<line transform="translate(33.2153, 58.5314)" stroke-linejoin="round" stroke-linecap="round" stroke-width="0.1138" stroke="currentColor" x1="0" y1="0" x2="0.0000" y2="0.8000" stroke-dasharray="0.85,0.0"/>
<line transform="translate(14.9170, 58.5314)" stroke-linejoin="round" stroke-linecap="round" stroke-width="0.1138" stroke="currentColor" x1="0" y1="0" x2="0.0000" y2="-0.0000" stroke-dasharray="0.85,0.0"/>
<line transform="translate(14.9170, 58.5314)" stroke-linejoin="round" stroke-linecap="round" stroke-width="0.1138" stroke="currentColor" x1="0" y1="0" x2="18.2983" y2="-0.0000" stroke-dasharray="0.257722414841626,0.601352301297128"/>
</g>
<g y-direction="-1" thickness="0.20000000" spontinieditable="true" pads-propid="114">
<a style="color:inherit;" xlink:href="textedit:///home/paolo/programmi/nuove-composizioni/Spontini-master/examples/EasyCrossStaffExample3.ly:120:1:2">
<g color="rgb(91.2000%, 93.4000%, 95.6000%)">
<rect transform="translate(8.1616, 89.2933)" x="-0.2000" y="-0.2000" width="7.0579" height="0.2000" ry="0.0000" fill="currentColor"/>
<rect transform="translate(14.8195, 90.9663)" x="0" y="-1.6730" width="0.2000" height="1.7072" ry="0.0000" fill="currentColor"/>
<rect transform="translate(8.1616, 91.2005)" x="-0.2000" y="-0.2000" width="7.0579" height="0.2000" ry="0.0000" fill="currentColor"/>
<rect transform="translate(7.9616, 90.9663)" x="0" y="-1.6730" width="0.2000" height="1.7072" ry="0.0000" fill="currentColor"/>
</g>
<text transform="translate(8.1616, 90.9663)" font-family="monospace" font-weight="bold" font-style="italic" font-size="2.2001" text-anchor="start" fill="currentColor">
<tspan>S Ped</tspan>
</text>
</a>
</g>
<g y-direction="-1" thickness="0.20000000" spontinieditable="true" pads-propid="113">
<a style="color:inherit;" xlink:href="textedit:///home/paolo/programmi/nuove-composizioni/Spontini-master/examples/EasyCrossStaffExample3.ly:120:1:2">
<g color="rgb(91.2000%, 93.4000%, 95.6000%)">
<rect transform="translate(9.4932, 86.9351)" x="-0.2000" y="-0.2000" width="4.3948" height="0.2000" ry="0.0000" fill="currentColor"/>
<rect transform="translate(13.4879, 88.8592)" x="0" y="-1.9240" width="0.2000" height="1.9582" ry="0.0000" fill="currentColor"/>
<rect transform="translate(9.4932, 89.0933)" x="-0.2000" y="-0.2000" width="4.3948" height="0.2000" ry="0.0000" fill="currentColor"/>
<rect transform="translate(9.2932, 88.8592)" x="0" y="-1.9240" width="0.2000" height="1.9582" ry="0.0000" fill="currentColor"/>
</g>
<text transform="translate(9.4932, 88.8592)" font-family="monospace" font-weight="bold" font-size="2.2001" text-anchor="start" fill="currentColor">
<tspan>Ped</tspan>
</text>
</a>
</g>
<g pads-propid="109" thickness="0.20000000" spontinieditable="true" y-direction="1">
<a style="color:inherit;" xlink:href="textedit:///home/paolo/programmi/nuove-composizioni/Spontini-master/examples/EasyCrossStaffExample3.ly:130:9:10">
<g color="rgb(91.2000%, 93.4000%, 95.6000%)">
<rect transform="translate(11.4906, 59.7679)" x="-0.4610" y="-0.2000" width="15.3893" height="0.2000" ry="0.0000" fill="currentColor"/>
<rect transform="translate(26.2188, 61.3900)" x="0" y="-1.6220" width="0.2000" height="2.3691" ry="0.0000" fill="currentColor"/>
<rect transform="translate(11.4906, 62.3370)" x="-0.4610" y="-0.2000" width="15.3893" height="0.2000" ry="0.0000" fill="currentColor"/>
<rect transform="translate(11.0295, 61.3900)" x="0" y="-1.6220" width="0.2000" height="2.3691" ry="0.0000" fill="currentColor"/>
</g>
<line transform="translate(11.4906, 61.3900)" stroke-linejoin="round" stroke-linecap="round" stroke-width="0.1821" stroke="currentColor" x1="14.6372" y1="-0.0000" x2="14.6372" y2="0.5950"/>
<line transform="translate(11.4906, 61.3900)" stroke-linejoin="round" stroke-linecap="round" stroke-width="0.1821" stroke="currentColor" x1="-0.1700" y1="-0.0000" x2="-0.1700" y2="0.5950"/>
<line transform="translate(11.4906, 61.3900)" stroke-linejoin="round" stroke-linecap="round" stroke-width="0.1821" stroke="currentColor" x1="14.6372" y1="-0.0000" x2="8.3970" y2="-0.0000"/>
<line transform="translate(11.4906, 61.3900)" stroke-linejoin="round" stroke-linecap="round" stroke-width="0.1821" stroke="currentColor" x1="-0.1700" y1="-0.0000" x2="6.2702" y2="-0.0000"/>
</a>
</g>
<g gridcolor="#f0eee9" gridstep="1" gridify="true" isstaff="true">
<line transform="translate(5.6906, 74.0922)" stroke-linejoin="round" stroke-linecap="round" stroke-width="0.1138" stroke="currentColor" x1="0.0569" y1="-0.0000" x2="108.0636" y2="-0.0000"/>
<line transform="translate(5.6906, 73.2422)" stroke-linejoin="round" stroke-linecap="round" stroke-width="0.1138" stroke="currentColor" x1="0.0569" y1="-0.0000" x2="108.0636" y2="-0.0000"/>
<line transform="translate(5.6906, 72.3922)" stroke-linejoin="round" stroke-linecap="round" stroke-width="0.1138" stroke="currentColor" x1="0.0569" y1="-0.0000" x2="108.0636" y2="-0.0000"/>
<line transform="translate(5.6906, 71.5422)" stroke-linejoin="round" stroke-linecap="round" stroke-width="0.1138" stroke="currentColor" x1="0.0569" y1="-0.0000" x2="108.0636" y2="-0.0000"/>
<line transform="translate(5.6906, 70.6922)" stroke-linejoin="round" stroke-linecap="round" stroke-width="0.1138" stroke="currentColor" x1="0.0569" y1="-0.0000" x2="108.0636" y2="-0.0000"/>
</g>
<rect transform="translate(61.2417, 81.3922)" x="0.0000" y="-1.7569" width="0.2162" height="3.4569" ry="0.0000" fill="currentColor"/>
<rect transform="translate(61.2417, 55.4409)" x="0.0000" y="18.7082" width="0.2162" height="5.5431" ry="0.0000" fill="currentColor"/>
<rect transform="translate(113.5948, 55.4409)" x="0.0000" y="18.7082" width="0.2162" height="5.5431" ry="0.0000" fill="currentColor"/>
<rect transform="translate(113.5948, 81.3922)" x="0.0000" y="-1.7569" width="0.2162" height="3.4569" ry="0.0000" fill="currentColor"/>
<rect transform="translate(113.5948, 72.3922)" x="0.0000" y="-1.7000" width="0.2162" height="3.4569" ry="0.0000" fill="currentColor"/>
<rect transform="translate(61.2417, 72.3922)" x="0.0000" y="-1.7000" width="0.2162" height="3.4569" ry="0.0000" fill="currentColor"/>
<rect transform="translate(5.6906, 68.1422)" x="77.6476" y="-0.0994" width="1.9563" height="0.1988" ry="0.0994" fill="currentColor"/>
<rect transform="translate(5.6906, 68.9922)" x="77.6476" y="-0.0994" width="1.9563" height="0.1988" ry="0.0994" fill="currentColor"/>
<rect transform="translate(5.6906, 69.8422)" x="77.6476" y="-0.0994" width="1.9563" height="0.1988" ry="0.0994" fill="currentColor"/>
<rect transform="translate(5.6906, 68.9922)" x="58.1312" y="-0.0994" width="1.9563" height="0.1988" ry="0.0994" fill="currentColor"/>
<rect transform="translate(5.6906, 69.8422)" x="58.1312" y="-0.0994" width="1.9563" height="0.1988" ry="0.0994" fill="currentColor"/>
<rect transform="translate(5.6906, 68.1422)" x="25.2945" y="-0.0994" width="1.9563" height="0.1988" ry="0.0994" fill="currentColor"/>
<rect transform="translate(5.6906, 68.9922)" x="25.2945" y="-0.0994" width="1.9563" height="0.1988" ry="0.0994" fill="currentColor"/>
<rect transform="translate(5.6906, 69.8422)" x="25.2945" y="-0.0994" width="1.9563" height="0.1988" ry="0.0994" fill="currentColor"/>
<g gridcolor="#f0eee9" gridstep="1" gridify="true" isstaff="true">
<line transform="translate(5.6906, 83.0922)" stroke-linejoin="round" stroke-linecap="round" stroke-width="0.1138" stroke="currentColor" x1="0.0569" y1="-0.0000" x2="108.0636" y2="-0.0000"/>
<line transform="translate(5.6906, 82.2422)" stroke-linejoin="round" stroke-linecap="round" stroke-width="0.1138" stroke="currentColor" x1="0.0569" y1="-0.0000" x2="108.0636" y2="-0.0000"/>
<line transform="translate(5.6906, 81.3922)" stroke-linejoin="round" stroke-linecap="round" stroke-width="0.1138" stroke="currentColor" x1="0.0569" y1="-0.0000" x2="108.0636" y2="-0.0000"/>
<line transform="translate(5.6906, 80.5422)" stroke-linejoin="round" stroke-linecap="round" stroke-width="0.1138" stroke="currentColor" x1="0.0569" y1="-0.0000" x2="108.0636" y2="-0.0000"/>
<line transform="translate(5.6906, 79.6922)" stroke-linejoin="round" stroke-linecap="round" stroke-width="0.1138" stroke="currentColor" x1="0.0569" y1="-0.0000" x2="108.0636" y2="-0.0000"/>
</g>
<a style="color:inherit;" xlink:href="textedit:///home/paolo/programmi/nuove-composizioni/Spontini-master/examples/EasyCrossStaffExample3.ly:167:57:58">
<path transform="translate(70.6804, 80.9672) scale(0.0040, -0.0040)" d="M218 136c55 0 108 -28 108 -89c0 -71 -55 -121 -102 -149c-35 -21 -75 -34 -116 -34c-55 0 -108 28 -108 89c0 71 55 121 102 149c35 21 75 34 116 34z" fill="currentColor"/>
</a>
<rect transform="translate(77.3848, 81.3922)" x="-0.0740" y="-1.9389" width="0.1480" height="3.4918" ry="0.0400" fill="currentColor"/>
<rect transform="translate(70.7544, 81.3922)" x="-0.0740" y="-0.2389" width="0.1480" height="1.7918" ry="0.0400" fill="currentColor"/>
<a style="color:inherit;" xlink:href="textedit:///home/paolo/programmi/nuove-composizioni/Spontini-master/examples/EasyCrossStaffExample3.ly:167:65:66">
<path transform="translate(77.3108, 79.2672) scale(0.0040, -0.0040)" d="M218 136c55 0 108 -28 108 -89c0 -71 -55 -121 -102 -149c-35 -21 -75 -34 -116 -34c-55 0 -108 28 -108 89c0 71 55 121 102 149c35 21 75 34 116 34z" fill="currentColor"/>
</a>
<a style="color:inherit;" xlink:href="textedit:///home/paolo/programmi/nuove-composizioni/Spontini-master/examples/EasyCrossStaffExample3.ly:130:43:44">
<path transform="translate(11.4906, 68.4182)" stroke-width="0.0910" stroke-linejoin="round" stroke-linecap="round" stroke="currentColor" fill="currentColor" d="M0.6058 -3.0950C2.6533 -4.8602 18.0511 -6.5110 20.4263 -5.2200L20.4263 -5.2200C18.0657 -6.3752 2.6679 -4.7244 0.6058 -3.0950z"/>
</a>
<rect transform="translate(64.2218, 55.4409)" x="-0.0740" y="13.7374" width="0.1480" height="13.9708" ry="0.0400" fill="currentColor"/>
<a style="color:inherit;" xlink:href="textedit:///home/paolo/programmi/nuove-composizioni/Spontini-master/examples/EasyCrossStaffExample3.ly:158:1:2">
<line transform="translate(67.3452, 92.8510)" stroke-linejoin="round" stroke-linecap="round" stroke-width="0.1138" stroke="currentColor" x1="16.3190" y1="-0.0000" x2="16.3190" y2="-1.0000"/>
<line transform="translate(67.3452, 92.8510)" stroke-linejoin="round" stroke-linecap="round" stroke-width="0.1138" stroke="currentColor" x1="0.0000" y1="-0.0000" x2="0.0000" y2="-0.0000"/>
<line transform="translate(67.3452, 92.8510)" stroke-linejoin="round" stroke-linecap="round" stroke-width="0.1138" stroke="currentColor" x1="0.0000" y1="-0.0000" x2="16.3190" y2="-0.0000"/>
</a>
<a style="color:inherit;" xlink:href="textedit:///home/paolo/programmi/nuove-composizioni/Spontini-master/examples/EasyCrossStaffExample3.ly:158:1:2">
<line transform="translate(68.6768, 94.9582)" stroke-linejoin="round" stroke-linecap="round" stroke-width="0.1138" stroke="currentColor" x1="14.9874" y1="-0.0000" x2="14.9874" y2="-1.0000"/>
<line transform="translate(68.6768, 94.9582)" stroke-linejoin="round" stroke-linecap="round" stroke-width="0.1138" stroke="currentColor" x1="0.0000" y1="-0.0000" x2="0.0000" y2="-0.0000"/>
<line transform="translate(68.6768, 94.9582)" stroke-linejoin="round" stroke-linecap="round" stroke-width="0.1138" stroke="currentColor" x1="0.0000" y1="-0.0000" x2="14.9874" y2="-0.0000"/>
</a>
<a style="color:inherit;" xlink:href="textedit:///home/paolo/programmi/nuove-composizioni/Spontini-master/examples/EasyCrossStaffExample3.ly:167:9:10">
<text transform="translate(70.2400, 86.4612)" font-family="serif" font-style="italic" font-size="1.7461" text-anchor="start" fill="currentColor">
<tspan>3</tspan>
</text>
</a>
<a style="color:inherit;" xlink:href="textedit:///home/paolo/programmi/nuove-composizioni/Spontini-master/examples/EasyCrossStaffExample3.ly:158:1:2">
<line transform="translate(67.5023, 89.4610)" stroke-linejoin="round" stroke-linecap="round" stroke-width="0.1138" stroke="currentColor" x1="0.0000" y1="0.0000" x2="14.5507" y2="0.5666"/>
<line transform="translate(67.5023, 89.4610)" stroke-linejoin="round" stroke-linecap="round" stroke-width="0.1138" stroke="currentColor" x1="0.0000" y1="-0.0000" x2="14.5507" y2="-0.5666"/>
</a>
<a style="color:inherit;" xlink:href="textedit:///home/paolo/programmi/nuove-composizioni/Spontini-master/examples/EasyCrossStaffExample3.ly:167:30:31">
<polygon transform="translate(64.1478, 82.9451)" stroke-linejoin="round" stroke-linecap="round" stroke-width="0.0800" fill="currentColor" stroke="currentColor" points="13.2710 -0.1640 13.2710 0.1640 0.0400 0.1640 0.0400 -0.1640"/>
</a>
<a style="color:inherit;" xlink:href="textedit:///home/paolo/programmi/nuove-composizioni/Spontini-master/examples/EasyCrossStaffExample3.ly:146:1:2">
<path transform="translate(64.1478, 70.1412)" stroke-width="0.0910" stroke-linejoin="round" stroke-linecap="round" stroke="currentColor" fill="currentColor" d="M0.6332 -4.3700C2.7729 -5.9969 17.8765 -6.6547 20.1495 -5.2200L20.1495 -5.2200C17.8825 -6.5183 2.7788 -5.8605 0.6332 -4.3700z"/>
</a>
<a style="color:inherit;" xlink:href="textedit:///home/paolo/programmi/nuove-composizioni/Spontini-master/examples/EasyCrossStaffExample3.ly:120:1:2">
<line transform="translate(14.6879, 88.8592)" stroke-linejoin="round" stroke-linecap="round" stroke-width="0.1138" stroke="currentColor" x1="16.6232" y1="-0.0000" x2="16.6232" y2="-1.0000"/>
<line transform="translate(14.6879, 88.8592)" stroke-linejoin="round" stroke-linecap="round" stroke-width="0.1138" stroke="currentColor" x1="0.0000" y1="-0.0000" x2="0.0000" y2="-0.0000"/>
<line transform="translate(14.6879, 88.8592)" stroke-linejoin="round" stroke-linecap="round" stroke-width="0.1138" stroke="currentColor" x1="0.0000" y1="-0.0000" x2="16.6232" y2="-0.0000"/>
</a>
<a style="color:inherit;" xlink:href="textedit:///home/paolo/programmi/nuove-composizioni/Spontini-master/examples/EasyCrossStaffExample3.ly:120:1:2">
<line transform="translate(16.0195, 90.9663)" stroke-linejoin="round" stroke-linecap="round" stroke-width="0.1138" stroke="currentColor" x1="15.2916" y1="-0.0000" x2="15.2916" y2="-1.0000"/>
<line transform="translate(16.0195, 90.9663)" stroke-linejoin="round" stroke-linecap="round" stroke-width="0.1138" stroke="currentColor" x1="0.0000" y1="-0.0000" x2="0.0000" y2="-0.0000"/>
<line transform="translate(16.0195, 90.9663)" stroke-linejoin="round" stroke-linecap="round" stroke-width="0.1138" stroke="currentColor" x1="0.0000" y1="-0.0000" x2="15.2916" y2="-0.0000"/>
</a>
<a style="color:inherit;" xlink:href="textedit:///home/paolo/programmi/nuove-composizioni/Spontini-master/examples/EasyCrossStaffExample3.ly:120:1:2">
<line transform="translate(14.8450, 85.2181)" stroke-linejoin="round" stroke-linecap="round" stroke-width="0.1138" stroke="currentColor" x1="0.0000" y1="0.0000" x2="14.8550" y2="0.5666"/>
<line transform="translate(14.8450, 85.2181)" stroke-linejoin="round" stroke-linecap="round" stroke-width="0.1138" stroke="currentColor" x1="0.0000" y1="-0.0000" x2="14.8550" y2="-0.5666"/>
</a>
<a style="color:inherit;" xlink:href="textedit:///home/paolo/programmi/nuove-composizioni/Spontini-master/examples/EasyCrossStaffExample3.ly:131:33:34">
<polygon transform="translate(11.4906, 82.9451)" stroke-linejoin="round" stroke-linecap="round" stroke-width="0.0800" fill="currentColor" stroke="currentColor" points="13.2710 -0.1640 13.2710 0.1640 0.0400 0.1640 0.0400 -0.1640"/>
</a>
<a style="color:inherit;" xlink:href="textedit:///home/paolo/programmi/nuove-composizioni/Spontini-master/examples/EasyCrossStaffExample3.ly:130:9:10">
<text transform="translate(18.1608, 62.0216)" font-family="serif" font-style="italic" font-size="1.7461" text-anchor="start" fill="currentColor">
<tspan>3</tspan>
</text>
</a>
<a style="color:inherit;" xlink:href="textedit:///home/paolo/programmi/nuove-composizioni/Spontini-master/examples/EasyCrossStaffExample3.ly:166:76:77">
<path transform="translate(83.6642, 68.1422) scale(0.0040, -0.0040)" d="M218 136c55 0 108 -28 108 -89c0 -71 -55 -121 -102 -149c-35 -21 -75 -34 -116 -34c-55 0 -108 28 -108 89c0 71 55 121 102 149c35 21 75 34 116 34z" fill="currentColor"/>
</a>
<a style="color:inherit;" xlink:href="textedit:///home/paolo/programmi/nuove-composizioni/Spontini-master/examples/EasyCrossStaffExample3.ly:167:78:79">
<g transform="translate(83.0530, 90.0610)" >
<path transform="scale(0.0040, -0.0040)" d="M253 245l-50 -163c-30 -99 -121 -255 -218 -255c-45 0 -87 27 -87 69c0 39 17 77 52 77c24 0 44 -20 44 -44c0 -30 -38 -24 -38 -54c0 -10 11 -11 23 -11h6c48 0 61 58 73 108l68 273h-49c-11 0 -19 8 -19 19s8 19 19 19h60c32 96 118 191 213 191c45 0 87 -27 87 -69
c0 -39 -17 -77 -52 -77c-24 0 -44 19 -44 43c0 30 38 25 38 55c0 10 -10 11 -22 11h-7c-62 0 -70 -88 -86 -154h55c11 0 19 -8 19 -19s-8 -19 -19 -19h-66z" fill="currentColor"/>

<path transform="translate(1.2633, 0.0000) scale(0.0040, -0.0040)" d="M253 245l-50 -163c-30 -99 -121 -255 -218 -255c-45 0 -87 27 -87 69c0 39 17 77 52 77c24 0 44 -20 44 -44c0 -30 -38 -24 -38 -54c0 -10 11 -11 23 -11h6c48 0 61 58 73 108l68 273h-49c-11 0 -19 8 -19 19s8 19 19 19h60c32 96 118 191 213 191c45 0 87 -27 87 -69
c0 -39 -17 -77 -52 -77c-24 0 -44 19 -44 43c0 30 38 25 38 55c0 10 -10 11 -22 11h-7c-62 0 -70 -88 -86 -154h55c11 0 19 -8 19 -19s-8 -19 -19 -19h-66z" fill="currentColor"/>
</g>
</a>
<rect transform="translate(83.7382, 72.3922)" x="-0.0740" y="-4.0639" width="0.1480" height="4.0639" ry="0.0400" fill="currentColor"/>
<a style="color:inherit;" xlink:href="textedit:///home/paolo/programmi/nuove-composizioni/Spontini-master/examples/EasyCrossStaffExample3.ly:166:110:111">
<path transform="translate(98.8066, 72.3922) scale(0.0040, -0.0040)" d="M-23 -116c0 28 11 42 40 42c33 0 78 -13 119 -31l-132 158c-7 9 -10 17 -10 25c0 34 50 66 87 99c25 22 37 52 37 83c0 24 -8 49 -25 69l-35 42c-3 3 -4 7 -4 10c0 9 9 15 17 15c4 0 8 -1 11 -5l151 -180c7 -9 10 -17 10 -25c0 -34 -50 -66 -87 -99
c-25 -22 -37 -52 -37 -83c0 -24 7 -49 24 -69l84 -99c3 -3 4 -7 4 -10c0 -9 -8 -16 -16 -16c-4 0 -9 2 -12 6c-18 21 -63 38 -97 38c-41 0 -53 -26 -53 -67c0 -35 11 -74 28 -94c5 -6 0 -13 -6 -13c-2 0 -4 0 -6 2c-45 54 -92 148 -92 202z" fill="currentColor"/>
</a>
<g color="rgb(100.0000%, 0.0000%, 0.0000%)">
</g>
<rect transform="translate(11.5645, 72.3922)" x="-0.0740" y="-1.9389" width="0.1480" height="2.7889" ry="0.0400" fill="currentColor"/>
<g color="rgb(100.0000%, 0.0000%, 0.0000%)">
</g>
<rect transform="translate(11.5645, 81.3922)" x="-0.0740" y="-8.3139" width="0.1480" height="0.0000" ry="0.0000" fill="currentColor"/>
<rect transform="translate(11.5645, 55.4409)" x="-0.0740" y="15.0124" width="0.1480" height="12.6958" ry="0.0400" fill="currentColor"/>
<a style="color:inherit;" xlink:href="textedit:///home/paolo/programmi/nuove-composizioni/Spontini-master/examples/EasyCrossStaffExample3.ly:131:55:56">
<path transform="translate(18.0231, 80.9672) scale(0.0040, -0.0040)" d="M218 136c55 0 108 -28 108 -89c0 -71 -55 -121 -102 -149c-35 -21 -75 -34 -116 -34c-55 0 -108 28 -108 89c0 71 55 121 102 149c35 21 75 34 116 34z" fill="currentColor"/>
</a>
<path transform="translate(5.3085, 76.8922) scale(0.0040, -0.0040)" d="M-18 -474c0 -249 -96 -495 -96 -729c0 -129 30 -249 126 -342c3 -3 3 -6 3 -9c0 -9 -6 -18 -15 -18c-3 0 -9 3 -12 6c-129 126 -171 297 -171 477c0 255 102 501 102 741c0 129 -30 249 -123 342c-3 3 -6 3 -6 6s3 3 6 6c93 93 123 213 123 342c0 240 -102 486 -102 741
c0 180 42 351 171 477c3 3 9 6 12 6c9 0 15 -9 15 -18c0 -3 0 -6 -3 -9c-96 -93 -126 -213 -126 -342c0 -234 96 -480 96 -729c0 -177 -42 -348 -165 -474c123 -126 165 -297 165 -474z" fill="currentColor"/>
<rect transform="translate(5.6085, 76.8922)" x="0.0000" y="-6.2569" width="0.1821" height="12.5138" ry="0.0569" fill="currentColor"/>
<text transform="translate(4.5638, 69.6081)" font-family="serif" font-size="1.7461" text-anchor="start" fill="currentColor">
<tspan>3</tspan>
</text>
<path transform="translate(6.4906, 73.2422) scale(0.0040, -0.0040)" d="M376 262c4 0 9 1 13 1c155 0 256 -128 256 -261c0 -76 -33 -154 -107 -210c-22 -17 -47 -28 -73 -36c3 -35 5 -70 5 -105c0 -19 -1 -39 -2 -58c-7 -120 -90 -228 -208 -228c-108 0 -195 88 -195 197c0 58 53 103 112 103c54 0 95 -47 95 -103c0 -52 -43 -95 -95 -95
c-11 0 -21 2 -31 6c26 -39 68 -65 117 -65c96 0 157 92 163 191c1 18 2 37 2 55c0 31 -1 61 -4 92c-29 -5 -58 -8 -89 -8c-188 0 -333 172 -333 374c0 177 131 306 248 441c-19 62 -37 125 -45 190c-6 52 -7 104 -7 156c0 115 55 224 149 292c3 2 7 3 10 3c4 0 7 0 10 -3
c71 -84 133 -245 133 -358c0 -143 -86 -255 -180 -364c21 -68 39 -138 56 -207zM461 -203c68 24 113 95 113 164c0 90 -66 179 -173 190c24 -116 46 -231 60 -354zM74 28c0 -135 129 -247 264 -247c28 0 55 2 82 6c-14 127 -37 245 -63 364c-79 -8 -124 -61 -124 -119
c0 -44 25 -91 81 -123c5 -5 7 -10 7 -15c0 -11 -10 -22 -22 -22c-3 0 -6 1 -9 2c-80 43 -117 115 -117 185c0 88 58 174 160 197c-14 58 -29 117 -46 175c-107 -121 -213 -243 -213 -403zM408 1045c-99 -48 -162 -149 -162 -259c0 -74 18 -133 36 -194
c80 97 146 198 146 324c0 55 -4 79 -20 129z" fill="currentColor"/>
<path transform="translate(6.4906, 82.2422) scale(0.0040, -0.0040)" d="M376 262c4 0 9 1 13 1c155 0 256 -128 256 -261c0 -76 -33 -154 -107 -210c-22 -17 -47 -28 -73 -36c3 -35 5 -70 5 -105c0 -19 -1 -39 -2 -58c-7 -120 -90 -228 -208 -228c-108 0 -195 88 -195 197c0 58 53 103 112 103c54 0 95 -47 95 -103c0 -52 -43 -95 -95 -95
c-11 0 -21 2 -31 6c26 -39 68 -65 117 -65c96 0 157 92 163 191c1 18 2 37 2 55c0 31 -1 61 -4 92c-29 -5 -58 -8 -89 -8c-188 0 -333 172 -333 374c0 177 131 306 248 441c-19 62 -37 125 -45 190c-6 52 -7 104 -7 156c0 115 55 224 149 292c3 2 7 3 10 3c4 0 7 0 10 -3
c71 -84 133 -245 133 -358c0 -143 -86 -255 -180 -364c21 -68 39 -138 56 -207zM461 -203c68 24 113 95 113 164c0 90 -66 179 -173 190c24 -116 46 -231 60 -354zM74 28c0 -135 129 -247 264 -247c28 0 55 2 82 6c-14 127 -37 245 -63 364c-79 -8 -124 -61 -124 -119
c0 -44 25 -91 81 -123c5 -5 7 -10 7 -15c0 -11 -10 -22 -22 -22c-3 0 -6 1 -9 2c-80 43 -117 115 -117 185c0 88 58 174 160 197c-14 58 -29 117 -46 175c-107 -121 -213 -243 -213 -403zM408 1045c-99 -48 -162 -149 -162 -259c0 -74 18 -133 36 -194
c80 97 146 198 146 324c0 55 -4 79 -20 129z" fill="currentColor"/>
<a style="color:inherit;" xlink:href="textedit:///home/paolo/programmi/nuove-composizioni/Spontini-master/examples/EasyCrossStaffExample3.ly:130:36:37">
<path transform="translate(11.4906, 70.2672) scale(0.0040, -0.0040)" d="M218 136c55 0 108 -28 108 -89c0 -71 -55 -121 -102 -149c-35 -21 -75 -34 -116 -34c-55 0 -108 28 -108 89c0 71 55 121 102 149c35 21 75 34 116 34z" fill="currentColor"/>
</a>
<a style="color:inherit;" xlink:href="textedit:///home/paolo/programmi/nuove-composizioni/Spontini-master/examples/EasyCrossStaffExample3.ly:130:36:37">
<path transform="translate(11.4906, 70.2672) scale(0.0040, -0.0040)" d="M218 136c55 0 108 -28 108 -89c0 -71 -55 -121 -102 -149c-35 -21 -75 -34 -116 -34c-55 0 -108 28 -108 89c0 71 55 121 102 149c35 21 75 34 116 34z" fill="currentColor"/>
</a>
<rect transform="translate(18.0971, 81.3922)" x="-0.0740" y="-0.2389" width="0.1480" height="1.7918" ry="0.0400" fill="currentColor"/>
<rect transform="translate(24.7275, 55.4409)" x="-0.0740" y="17.1374" width="0.1480" height="10.5708" ry="0.0400" fill="currentColor"/>
<a style="color:inherit;" xlink:href="textedit:///home/paolo/programmi/nuove-composizioni/Spontini-master/examples/EasyCrossStaffExample3.ly:130:78:79">
<path transform="translate(31.3111, 68.1422) scale(0.0040, -0.0040)" d="M218 136c55 0 108 -28 108 -89c0 -71 -55 -121 -102 -149c-35 -21 -75 -34 -116 -34c-55 0 -108 28 -108 89c0 71 55 121 102 149c35 21 75 34 116 34z" fill="currentColor"/>
</a>
<a style="color:inherit;" xlink:href="textedit:///home/paolo/programmi/nuove-composizioni/Spontini-master/examples/EasyCrossStaffExample3.ly:131:80:81">
<g transform="translate(30.6999, 85.8181)" >
<path transform="scale(0.0040, -0.0040)" d="M253 245l-50 -163c-30 -99 -121 -255 -218 -255c-45 0 -87 27 -87 69c0 39 17 77 52 77c24 0 44 -20 44 -44c0 -30 -38 -24 -38 -54c0 -10 11 -11 23 -11h6c48 0 61 58 73 108l68 273h-49c-11 0 -19 8 -19 19s8 19 19 19h60c32 96 118 191 213 191c45 0 87 -27 87 -69
c0 -39 -17 -77 -52 -77c-24 0 -44 19 -44 43c0 30 38 25 38 55c0 10 -10 11 -22 11h-7c-62 0 -70 -88 -86 -154h55c11 0 19 -8 19 -19s-8 -19 -19 -19h-66z" fill="currentColor"/>

<path transform="translate(1.2633, 0.0000) scale(0.0040, -0.0040)" d="M253 245l-50 -163c-30 -99 -121 -255 -218 -255c-45 0 -87 27 -87 69c0 39 17 77 52 77c24 0 44 -20 44 -44c0 -30 -38 -24 -38 -54c0 -10 11 -11 23 -11h6c48 0 61 58 73 108l68 273h-49c-11 0 -19 8 -19 19s8 19 19 19h60c32 96 118 191 213 191c45 0 87 -27 87 -69
c0 -39 -17 -77 -52 -77c-24 0 -44 19 -44 43c0 30 38 25 38 55c0 10 -10 11 -22 11h-7c-62 0 -70 -88 -86 -154h55c11 0 19 -8 19 -19s-8 -19 -19 -19h-66z" fill="currentColor"/>
</g>
</a>
<rect transform="translate(31.3851, 72.3922)" x="-0.0740" y="-4.0639" width="0.1480" height="4.0639" ry="0.0400" fill="currentColor"/>
<a style="color:inherit;" xlink:href="textedit:///home/paolo/programmi/nuove-composizioni/Spontini-master/examples/EasyCrossStaffExample3.ly:130:112:113">
<path transform="translate(46.4535, 72.3922) scale(0.0040, -0.0040)" d="M-23 -116c0 28 11 42 40 42c33 0 78 -13 119 -31l-132 158c-7 9 -10 17 -10 25c0 34 50 66 87 99c25 22 37 52 37 83c0 24 -8 49 -25 69l-35 42c-3 3 -4 7 -4 10c0 9 9 15 17 15c4 0 8 -1 11 -5l151 -180c7 -9 10 -17 10 -25c0 -34 -50 -66 -87 -99
c-25 -22 -37 -52 -37 -83c0 -24 7 -49 24 -69l84 -99c3 -3 4 -7 4 -10c0 -9 -8 -16 -16 -16c-4 0 -9 2 -12 6c-18 21 -63 38 -97 38c-41 0 -53 -26 -53 -67c0 -35 11 -74 28 -94c5 -6 0 -13 -6 -13c-2 0 -4 0 -6 2c-45 54 -92 148 -92 202z" fill="currentColor"/>
</a>
<a style="color:inherit;" xlink:href="textedit:///home/paolo/programmi/nuove-composizioni/Spontini-master/examples/EasyCrossStaffExample3.ly:166:40:41">
<path transform="translate(64.1478, 68.9922) scale(0.0040, -0.0040)" d="M218 136c55 0 108 -28 108 -89c0 -71 -55 -121 -102 -149c-35 -21 -75 -34 -116 -34c-55 0 -108 28 -108 89c0 71 55 121 102 149c35 21 75 34 116 34z" fill="currentColor"/>
</a>
<a style="color:inherit;" xlink:href="textedit:///home/paolo/programmi/nuove-composizioni/Spontini-master/examples/EasyCrossStaffExample3.ly:166:40:41">
<path transform="translate(64.1478, 68.9922) scale(0.0040, -0.0040)" d="M218 136c55 0 108 -28 108 -89c0 -71 -55 -121 -102 -149c-35 -21 -75 -34 -116 -34c-55 0 -108 28 -108 89c0 71 55 121 102 149c35 21 75 34 116 34z" fill="currentColor"/>
</a>
<g color="rgb(100.0000%, 0.0000%, 0.0000%)">
</g>
<g color="rgb(100.0000%, 0.0000%, 0.0000%)">
</g>
<rect transform="translate(64.2218, 72.3922)" x="-0.0740" y="-3.2139" width="0.1480" height="3.2139" ry="0.0400" fill="currentColor"/>
<a style="color:inherit;" xlink:href="textedit:///home/paolo/programmi/nuove-composizioni/Spontini-master/examples/EasyCrossStaffExample3.ly:131:63:64">
<path transform="translate(24.6536, 79.2672) scale(0.0040, -0.0040)" d="M218 136c55 0 108 -28 108 -89c0 -71 -55 -121 -102 -149c-35 -21 -75 -34 -116 -34c-55 0 -108 28 -108 89c0 71 55 121 102 149c35 21 75 34 116 34z" fill="currentColor"/>
</a>
<a style="color:inherit;" xlink:href="textedit:///home/paolo/programmi/nuove-composizioni/Spontini-master/examples/EasyCrossStaffExample3.ly:130:64:65">
<path transform="translate(24.6536, 73.2422) scale(0.0040, -0.0040)" d="M218 136c55 0 108 -28 108 -89c0 -71 -55 -121 -102 -149c-35 -21 -75 -34 -116 -34c-55 0 -108 28 -108 89c0 71 55 121 102 149c35 21 75 34 116 34z" fill="currentColor"/>
</a>
<a style="color:inherit;" xlink:href="textedit:///home/paolo/programmi/nuove-composizioni/Spontini-master/examples/EasyCrossStaffExample3.ly:130:68:69">
<path transform="translate(24.6536, 72.3922) scale(0.0040, -0.0040)" d="M218 136c55 0 108 -28 108 -89c0 -71 -55 -121 -102 -149c-35 -21 -75 -34 -116 -34c-55 0 -108 28 -108 89c0 71 55 121 102 149c35 21 75 34 116 34z" fill="currentColor"/>
</a>
<a style="color:inherit;" xlink:href="textedit:///home/paolo/programmi/nuove-composizioni/Spontini-master/examples/EasyCrossStaffExample3.ly:130:64:65">
<path transform="translate(24.6536, 73.2422) scale(0.0040, -0.0040)" d="M218 136c55 0 108 -28 108 -89c0 -71 -55 -121 -102 -149c-35 -21 -75 -34 -116 -34c-55 0 -108 28 -108 89c0 71 55 121 102 149c35 21 75 34 116 34z" fill="currentColor"/>
</a>
<a style="color:inherit;" xlink:href="textedit:///home/paolo/programmi/nuove-composizioni/Spontini-master/examples/EasyCrossStaffExample3.ly:130:68:69">
<path transform="translate(24.6536, 72.3922) scale(0.0040, -0.0040)" d="M218 136c55 0 108 -28 108 -89c0 -71 -55 -121 -102 -149c-35 -21 -75 -34 -116 -34c-55 0 -108 28 -108 89c0 71 55 121 102 149c35 21 75 34 116 34z" fill="currentColor"/>
</a>
<rect transform="translate(24.7275, 72.3922)" x="-0.0740" y="0.1861" width="0.1480" height="3.3201" ry="0.0400" fill="currentColor"/>
<a transform="translate(28.2194, 165.1170)" xlink:href="http://lilypond.org/">
<rect x="0.0000" y="-0.4780" width="63.0627" height="2.1510" fill="none" stroke="none" stroke-width="0.0"/>
</a>
<text transform="translate(28.2194, 165.1170)" font-family="serif" font-size="2.2001" text-anchor="start" fill="currentColor">
<tspan>Music engraving by LilyPond 2.19.84www.lilypond.org</tspan>
</text>
</svg>
