<svg xmlns="http://www.w3.org/2000/svg" xmlns:xlink="http://www.w3.org/1999/xlink" version="1.2" width="210.00mm" height="297.00mm" viewBox="0 0 119.5016 169.0094">
<style text="style/css">
<![CDATA[
tspan { white-space: pre; }
]]>
</style>
<!-- Page: 1/1 -->
<text transform="translate(5.6906, 2.8453)" font-family="serif" font-size="2.2001" text-anchor="start" fill="currentColor">
<tspan/>
</text>
<g pads-propid="82" thickness="0.20000000" editableclass="OSOPadder" spontinieditable="true" y-direction="1">
<g color="rgb(91.2000%, 93.4000%, 95.6000%)">
<rect transform="translate(23.2334, 4.0453)" x="-1.0000" y="-0.2000" width="20.4208" height="0.2000" ry="0.0000" fill="currentColor"/>
<rect transform="translate(42.4542, 4.8818)" x="0" y="-0.8365" width="0.2000" height="1.6850" ry="0.0000" fill="currentColor"/>
<rect transform="translate(23.2334, 5.9303)" x="-1.0000" y="-0.2000" width="20.4208" height="0.2000" ry="0.0000" fill="currentColor"/>
<rect transform="translate(22.2334, 4.8818)" x="0" y="-0.8365" width="0.2000" height="1.6850" ry="0.0000" fill="currentColor"/>
</g>
<text transform="translate(22.4334, 5.6842)" font-family="serif" font-style="italic" font-size="2.2001" text-anchor="start" fill="currentColor">
<tspan>8va</tspan>
</text>
<line transform="translate(42.3973, 4.8818)" stroke-linejoin="round" stroke-linecap="round" stroke-width="0.1138" stroke="currentColor" x1="0" y1="0" x2="0.0000" y2="0.8000" stroke-dasharray="0.85,0.0"/>
<line transform="translate(26.6599, 4.8818)" stroke-linejoin="round" stroke-linecap="round" stroke-width="0.1138" stroke="currentColor" x1="0" y1="0" x2="0.0000" y2="-0.0000" stroke-dasharray="0.85,0.0"/>
<line transform="translate(26.6599, 4.8818)" stroke-linejoin="round" stroke-linecap="round" stroke-width="0.1138" stroke="currentColor" x1="0" y1="0" x2="15.7374" y2="-0.0000" stroke-dasharray="0.257990559024485,0.601977971057133"/>
</g>
<g pads-propid="97" thickness="0.20000000" editableclass="OSOPadder" spontinieditable="true" y-direction="1">
<a style="color:inherit;" xlink:href="textedit:///home/paolo/programmi/nuove-composizioni/Spontini-test/examples/easy-cross-staff-example-3.ly:93:9:10">
<g color="rgb(91.2000%, 93.4000%, 95.6000%)">
<rect transform="translate(69.3181, 6.9253)" x="0.6915" y="-0.2000" width="19.5050" height="0.2000" ry="0.0000" fill="currentColor"/>
<rect transform="translate(89.3147, 9.0441)" x="0" y="-2.1188" width="0.2000" height="2.8326" ry="0.0000" fill="currentColor"/>
<rect transform="translate(69.3181, 9.9579)" x="0.6915" y="-0.2000" width="19.5050" height="0.2000" ry="0.0000" fill="currentColor"/>
<rect transform="translate(70.0096, 9.0441)" x="0" y="-2.1188" width="0.2000" height="2.8326" ry="0.0000" fill="currentColor"/>
</g>
<line transform="translate(70.4744, 9.0441)" stroke-linejoin="round" stroke-linecap="round" stroke-width="0.1821" stroke="currentColor" x1="12.2442" y1="-2.0278" x2="12.2442" y2="-1.4328"/>
<line transform="translate(70.4744, 9.0441)" stroke-linejoin="round" stroke-linecap="round" stroke-width="0.1821" stroke="currentColor" x1="-0.1677" y1="0.0278" x2="-0.1677" y2="0.6228"/>
<line transform="translate(70.4744, 9.0441)" stroke-linejoin="round" stroke-linecap="round" stroke-width="0.1821" stroke="currentColor" x1="12.2442" y1="-2.0278" x2="7.1860" y2="-1.1901"/>
<line transform="translate(70.4744, 9.0441)" stroke-linejoin="round" stroke-linecap="round" stroke-width="0.1821" stroke="currentColor" x1="-0.1677" y1="0.0278" x2="5.0878" y2="-0.8426"/>
</a>
</g>
<g thickness="0.20000000" editableclass="OSOPadder" spontinieditable="true" y-direction="-1" pads-propid="102">
<a style="color:inherit;" xlink:href="textedit:///home/paolo/programmi/nuove-composizioni/Spontini-test/examples/easy-cross-staff-example-3.ly:85:1:2">
<g color="rgb(91.2000%, 93.4000%, 95.6000%)">
<rect transform="translate(69.3181, 36.6806)" x="-0.2000" y="-0.2000" width="28.3634" height="0.2000" ry="0.0000" fill="currentColor"/>
<rect transform="translate(97.2815, 38.3536)" x="0" y="-1.6730" width="0.2000" height="2.1689" ry="0.0000" fill="currentColor"/>
<rect transform="translate(69.3181, 39.0495)" x="-0.2000" y="-0.2000" width="28.3634" height="0.2000" ry="0.0000" fill="currentColor"/>
<rect transform="translate(69.1181, 38.3536)" x="0" y="-1.6730" width="0.2000" height="2.1689" ry="0.0000" fill="currentColor"/>
</g>
<text transform="translate(69.3181, 38.3536)" font-family="monospace" font-size="2.2001" text-anchor="start" fill="currentColor">
<tspan>Use pedals with care!</tspan>
</text>
</a>
</g>
<g y-direction="-1" thickness="0.20000000" editableclass="OSOPadder" spontinieditable="true" pads-propid="99">
<a style="color:inherit;" xlink:href="textedit:///home/paolo/programmi/nuove-composizioni/Spontini-test/examples/easy-cross-staff-example-3.ly:85:1:2">
<g color="rgb(91.2000%, 93.4000%, 95.6000%)">
<rect transform="translate(68.4679, 29.4372)" x="-0.2000" y="-0.2000" width="3.4046" height="0.2000" ry="0.0000" fill="currentColor"/>
<rect transform="translate(71.4726, 31.3493)" x="0" y="-1.9120" width="0.2000" height="2.6290" ry="0.0000" fill="currentColor"/>
<rect transform="translate(68.4679, 32.2663)" x="-0.2000" y="-0.2000" width="3.4046" height="0.2000" ry="0.0000" fill="currentColor"/>
<rect transform="translate(68.2679, 31.3493)" x="0" y="-1.9120" width="0.2000" height="2.6290" ry="0.0000" fill="currentColor"/>
</g>
<g transform="translate(68.4679, 31.3493)" >
<path transform="scale(0.0040, -0.0040)" d="M-41 146c26 76 82 153 149 153c22 0 36 -20 41 -45c22 26 51 45 81 45c23 0 38 -21 44 -46c22 27 51 46 80 46c33 0 59 -35 59 -69c0 -5 -1 -10 -2 -15l-35 -149c0 -2 -1 -4 -1 -5c0 -5 2 -8 7 -8c9 0 27 11 48 31c4 4 9 6 13 6c6 0 11 -4 11 -10c0 -4 -3 -8 -7 -12
c-40 -38 -85 -75 -131 -75c-20 0 -32 13 -32 32c0 4 0 7 1 11l39 165c1 5 2 9 2 14c0 10 -4 18 -14 18c-16 0 -33 -16 -39 -32l-53 -183c-3 -10 -12 -18 -22 -18h-41c-10 0 -16 8 -13 18l52 183c2 6 3 11 3 16c0 9 -4 16 -13 16c-16 0 -35 -15 -41 -32l-62 -183
c-3 -10 -14 -18 -24 -18h-41c-10 0 -15 8 -12 18l63 183c2 5 2 10 2 15c0 10 -3 17 -13 17c-29 0 -54 -53 -66 -87c-4 -11 -15 -17 -23 -17c-7 0 -12 4 -12 11c0 2 1 4 2 6z" fill="currentColor"/>

<path transform="translate(1.7413, 0.0000) scale(0.0040, -0.0040)" d="M253 245l-50 -163c-30 -99 -121 -255 -218 -255c-45 0 -87 27 -87 69c0 39 17 77 52 77c24 0 44 -20 44 -44c0 -30 -38 -24 -38 -54c0 -10 11 -11 23 -11h6c48 0 61 58 73 108l68 273h-49c-11 0 -19 8 -19 19s8 19 19 19h60c32 96 118 191 213 191c45 0 87 -27 87 -69
c0 -39 -17 -77 -52 -77c-24 0 -44 19 -44 43c0 30 38 25 38 55c0 10 -10 11 -22 11h-7c-62 0 -70 -88 -86 -154h55c11 0 19 -8 19 -19s-8 -19 -19 -19h-66z" fill="currentColor"/>
</g>
</a>
</g>
<g thickness="0.20000000" editableclass="OSOPadder" spontinieditable="true" y-direction="1" pads-propid="84">
<a style="color:inherit;" xlink:href="textedit:///home/paolo/programmi/nuove-composizioni/Spontini-test/examples/easy-cross-staff-example-3.ly:60:53:54">
<g color="rgb(91.2000%, 93.4000%, 95.6000%)">
<rect transform="translate(23.2334, 11.4043)" x="-0.2000" y="-0.2000" width="4.3948" height="0.2000" ry="0.0000" fill="currentColor"/>
<rect transform="translate(27.2282, 12.9753)" x="0" y="-1.5710" width="0.2000" height="1.5710" ry="0.0000" fill="currentColor"/>
<rect transform="translate(23.2334, 13.1753)" x="-0.2000" y="-0.2000" width="4.3948" height="0.2000" ry="0.0000" fill="currentColor"/>
<rect transform="translate(23.0334, 12.9753)" x="0" y="-1.5710" width="0.2000" height="1.5710" ry="0.0000" fill="currentColor"/>
</g>
<text transform="translate(23.2334, 12.9753)" font-family="monospace" font-size="2.2001" text-anchor="start" fill="currentColor">
<tspan>   </tspan>
</text>
</a>
</g>
<g thickness="0.20000000" editableclass="OSOPadder" spontinieditable="true" y-direction="-1" pads-propid="96">
<a style="color:inherit;" xlink:href="textedit:///home/paolo/programmi/nuove-composizioni/Spontini-test/examples/easy-cross-staff-example-3.ly:52:1:2">
<g color="rgb(91.2000%, 93.4000%, 95.6000%)">
<rect transform="translate(23.2334, 36.7996)" x="-0.2000" y="-0.2000" width="28.3634" height="0.2000" ry="0.0000" fill="currentColor"/>
<rect transform="translate(51.1968, 38.4726)" x="0" y="-1.6730" width="0.2000" height="2.1169" ry="0.0000" fill="currentColor"/>
<rect transform="translate(23.2334, 39.1165)" x="-0.2000" y="-0.2000" width="28.3634" height="0.2000" ry="0.0000" fill="currentColor"/>
<rect transform="translate(23.0334, 38.4726)" x="0" y="-1.6730" width="0.2000" height="2.1169" ry="0.0000" fill="currentColor"/>
</g>
<text transform="translate(23.2334, 38.4726)" font-family="monospace" font-size="2.2001" text-anchor="start" fill="currentColor">
<tspan>Use pedals with care!</tspan>
</text>
</a>
</g>
<g y-direction="-1" thickness="0.20000000" editableclass="OSOPadder" spontinieditable="true" pads-propid="100">
<a style="color:inherit;" xlink:href="textedit:///home/paolo/programmi/nuove-composizioni/Spontini-test/examples/easy-cross-staff-example-3.ly:85:1:2">
<g color="rgb(91.2000%, 93.4000%, 95.6000%)">
<rect transform="translate(65.9892, 32.4663)" x="-0.2000" y="-0.2000" width="7.0579" height="0.2000" ry="0.0000" fill="currentColor"/>
<rect transform="translate(72.6471, 34.1393)" x="0" y="-1.6730" width="0.2000" height="1.7072" ry="0.0000" fill="currentColor"/>
<rect transform="translate(65.9892, 34.3734)" x="-0.2000" y="-0.2000" width="7.0579" height="0.2000" ry="0.0000" fill="currentColor"/>
<rect transform="translate(65.7892, 34.1393)" x="0" y="-1.6730" width="0.2000" height="1.7072" ry="0.0000" fill="currentColor"/>
</g>
<text transform="translate(65.9892, 34.1393)" font-family="monospace" font-weight="bold" font-style="italic" font-size="2.2001" text-anchor="start" fill="currentColor">
<tspan>S Ped</tspan>
</text>
</a>
</g>
<g y-direction="-1" thickness="0.20000000" editableclass="OSOPadder" spontinieditable="true" pads-propid="101">
<a style="color:inherit;" xlink:href="textedit:///home/paolo/programmi/nuove-composizioni/Spontini-test/examples/easy-cross-staff-example-3.ly:85:1:2">
<g color="rgb(91.2000%, 93.4000%, 95.6000%)">
<rect transform="translate(67.3208, 34.5734)" x="-0.2000" y="-0.2000" width="4.3948" height="0.2000" ry="0.0000" fill="currentColor"/>
<rect transform="translate(71.3155, 36.2465)" x="0" y="-1.6730" width="0.2000" height="1.7072" ry="0.0000" fill="currentColor"/>
<rect transform="translate(67.3208, 36.4806)" x="-0.2000" y="-0.2000" width="4.3948" height="0.2000" ry="0.0000" fill="currentColor"/>
<rect transform="translate(67.1208, 36.2465)" x="0" y="-1.6730" width="0.2000" height="1.7072" ry="0.0000" fill="currentColor"/>
</g>
<text transform="translate(67.3208, 36.2465)" font-family="monospace" font-weight="bold" font-size="2.2001" text-anchor="start" fill="currentColor">
<tspan>Ped</tspan>
</text>
</a>
</g>
<g y-direction="-1" thickness="0.20000000" editableclass="OSOPadder" spontinieditable="true" pads-propid="93">
<a style="color:inherit;" xlink:href="textedit:///home/paolo/programmi/nuove-composizioni/Spontini-test/examples/easy-cross-staff-example-3.ly:52:1:2">
<g color="rgb(91.2000%, 93.4000%, 95.6000%)">
<rect transform="translate(22.2311, 29.4372)" x="-0.2000" y="-0.2000" width="3.4046" height="0.2000" ry="0.0000" fill="currentColor"/>
<rect transform="translate(25.2357, 31.4563)" x="0" y="-2.0190" width="0.2000" height="2.7360" ry="0.0000" fill="currentColor"/>
<rect transform="translate(22.2311, 32.3733)" x="-0.2000" y="-0.2000" width="3.4046" height="0.2000" ry="0.0000" fill="currentColor"/>
<rect transform="translate(22.0311, 31.4563)" x="0" y="-2.0190" width="0.2000" height="2.7360" ry="0.0000" fill="currentColor"/>
</g>
<g transform="translate(22.2311, 31.4563)" >
<path transform="scale(0.0040, -0.0040)" d="M-41 146c26 76 82 153 149 153c22 0 36 -20 41 -45c22 26 51 45 81 45c23 0 38 -21 44 -46c22 27 51 46 80 46c33 0 59 -35 59 -69c0 -5 -1 -10 -2 -15l-35 -149c0 -2 -1 -4 -1 -5c0 -5 2 -8 7 -8c9 0 27 11 48 31c4 4 9 6 13 6c6 0 11 -4 11 -10c0 -4 -3 -8 -7 -12
c-40 -38 -85 -75 -131 -75c-20 0 -32 13 -32 32c0 4 0 7 1 11l39 165c1 5 2 9 2 14c0 10 -4 18 -14 18c-16 0 -33 -16 -39 -32l-53 -183c-3 -10 -12 -18 -22 -18h-41c-10 0 -16 8 -13 18l52 183c2 6 3 11 3 16c0 9 -4 16 -13 16c-16 0 -35 -15 -41 -32l-62 -183
c-3 -10 -14 -18 -24 -18h-41c-10 0 -15 8 -12 18l63 183c2 5 2 10 2 15c0 10 -3 17 -13 17c-29 0 -54 -53 -66 -87c-4 -11 -15 -17 -23 -17c-7 0 -12 4 -12 11c0 2 1 4 2 6z" fill="currentColor"/>

<path transform="translate(1.7413, 0.0000) scale(0.0040, -0.0040)" d="M253 245l-50 -163c-30 -99 -121 -255 -218 -255c-45 0 -87 27 -87 69c0 39 17 77 52 77c24 0 44 -20 44 -44c0 -30 -38 -24 -38 -54c0 -10 11 -11 23 -11h6c48 0 61 58 73 108l68 273h-49c-11 0 -19 8 -19 19s8 19 19 19h60c32 96 118 191 213 191c45 0 87 -27 87 -69
c0 -39 -17 -77 -52 -77c-24 0 -44 19 -44 43c0 30 38 25 38 55c0 10 -10 11 -22 11h-7c-62 0 -70 -88 -86 -154h55c11 0 19 -8 19 -19s-8 -19 -19 -19h-66z" fill="currentColor"/>
</g>
</a>
</g>
<g thickness="0.20000000" editableclass="OSOPadder" spontinieditable="true" y-direction="1" pads-propid="103">
<a style="color:inherit;" xlink:href="textedit:///home/paolo/programmi/nuove-composizioni/Spontini-test/examples/easy-cross-staff-example-3.ly:76:1:2">
<g color="rgb(91.2000%, 93.4000%, 95.6000%)">
<rect transform="translate(69.3181, 10.1579)" x="-0.2000" y="-0.2000" width="14.5668" height="0.2000" ry="0.0000" fill="currentColor"/>
<rect transform="translate(83.4849, 12.3199)" x="0" y="-2.1620" width="0.2000" height="2.1620" ry="0.0000" fill="currentColor"/>
<rect transform="translate(69.3181, 12.5199)" x="-0.2000" y="-0.2000" width="14.5668" height="0.2000" ry="0.0000" fill="currentColor"/>
<rect transform="translate(69.1181, 12.3199)" x="0" y="-2.1620" width="0.2000" height="2.1620" ry="0.0000" fill="currentColor"/>
</g>
<text transform="translate(69.3181, 12.3199)" font-family="monospace" font-size="2.2001" text-anchor="start" fill="currentColor">
<tspan>   </tspan>
</text>
</a>
</g>
<g y-direction="-1" thickness="0.20000000" editableclass="OSOPadder" spontinieditable="true" pads-propid="95">
<a style="color:inherit;" xlink:href="textedit:///home/paolo/programmi/nuove-composizioni/Spontini-test/examples/easy-cross-staff-example-3.ly:52:1:2">
<g color="rgb(91.2000%, 93.4000%, 95.6000%)">
<rect transform="translate(19.9044, 34.6804)" x="-0.2000" y="-0.2000" width="7.0579" height="0.2000" ry="0.0000" fill="currentColor"/>
<rect transform="translate(26.5624, 36.3535)" x="0" y="-1.6730" width="0.2000" height="1.7192" ry="0.0000" fill="currentColor"/>
<rect transform="translate(19.9044, 36.5996)" x="-0.2000" y="-0.2000" width="7.0579" height="0.2000" ry="0.0000" fill="currentColor"/>
<rect transform="translate(19.7044, 36.3535)" x="0" y="-1.6730" width="0.2000" height="1.7192" ry="0.0000" fill="currentColor"/>
</g>
<text transform="translate(19.9044, 36.3535)" font-family="monospace" font-weight="bold" font-style="italic" font-size="2.2001" text-anchor="start" fill="currentColor">
<tspan>S Ped</tspan>
</text>
</a>
</g>
<g y-direction="-1" thickness="0.20000000" editableclass="OSOPadder" spontinieditable="true" pads-propid="94">
<a style="color:inherit;" xlink:href="textedit:///home/paolo/programmi/nuove-composizioni/Spontini-test/examples/easy-cross-staff-example-3.ly:52:1:2">
<g color="rgb(91.2000%, 93.4000%, 95.6000%)">
<rect transform="translate(21.2360, 32.5733)" x="-0.2000" y="-0.2000" width="4.3948" height="0.2000" ry="0.0000" fill="currentColor"/>
<rect transform="translate(25.2308, 34.2463)" x="0" y="-1.6730" width="0.2000" height="1.7072" ry="0.0000" fill="currentColor"/>
<rect transform="translate(21.2360, 34.4804)" x="-0.2000" y="-0.2000" width="4.3948" height="0.2000" ry="0.0000" fill="currentColor"/>
<rect transform="translate(21.0360, 34.2463)" x="0" y="-1.6730" width="0.2000" height="1.7072" ry="0.0000" fill="currentColor"/>
</g>
<text transform="translate(21.2360, 34.2463)" font-family="monospace" font-weight="bold" font-size="2.2001" text-anchor="start" fill="currentColor">
<tspan>Ped</tspan>
</text>
</a>
</g>
<g pads-propid="98" thickness="0.20000000" editableclass="OSOPadder" spontinieditable="true" y-direction="1">
<g color="rgb(91.2000%, 93.4000%, 95.6000%)">
<rect transform="translate(69.3181, 4.8523)" x="-1.0000" y="-0.2000" width="21.3068" height="0.2000" ry="0.0000" fill="currentColor"/>
<rect transform="translate(89.4250, 5.6888)" x="0" y="-0.8365" width="0.2000" height="1.6730" ry="0.0000" fill="currentColor"/>
<rect transform="translate(69.3181, 6.7253)" x="-1.0000" y="-0.2000" width="21.3068" height="0.2000" ry="0.0000" fill="currentColor"/>
<rect transform="translate(68.3181, 5.6888)" x="0" y="-0.8365" width="0.2000" height="1.6730" ry="0.0000" fill="currentColor"/>
</g>
<text transform="translate(68.5181, 6.4911)" font-family="serif" font-style="italic" font-size="2.2001" text-anchor="start" fill="currentColor">
<tspan>8va</tspan>
</text>
<line transform="translate(89.3681, 5.6888)" stroke-linejoin="round" stroke-linecap="round" stroke-width="0.1138" stroke="currentColor" x1="0" y1="0" x2="0.0000" y2="0.8000" stroke-dasharray="0.85,0.0"/>
<line transform="translate(72.7446, 5.6888)" stroke-linejoin="round" stroke-linecap="round" stroke-width="0.1138" stroke="currentColor" x1="0" y1="0" x2="0.0000" y2="-0.0000" stroke-dasharray="0.85,0.0"/>
<line transform="translate(72.7446, 5.6888)" stroke-linejoin="round" stroke-linecap="round" stroke-width="0.1138" stroke="currentColor" x1="0" y1="0" x2="16.6234" y2="-0.0000" stroke-dasharray="0.258395535791435,0.602922916846681"/>
</g>
<g pads-propid="106" thickness="0.20000000" editableclass="OSOPadder" spontinieditable="true" y-direction="1">
<a style="color:inherit;" xlink:href="textedit:///home/paolo/programmi/nuove-composizioni/Spontini-test/examples/easy-cross-staff-example-3.ly:60:9:10">
<g color="rgb(91.2000%, 93.4000%, 95.6000%)">
<rect transform="translate(23.2334, 6.1303)" x="-0.4589" y="-0.2000" width="13.2980" height="0.2000" ry="0.0000" fill="currentColor"/>
<rect transform="translate(35.8726, 8.2485)" x="0" y="-2.1182" width="0.2000" height="2.8785" ry="0.0000" fill="currentColor"/>
<rect transform="translate(23.2334, 9.2088)" x="-0.4589" y="-0.2000" width="13.2980" height="0.2000" ry="0.0000" fill="currentColor"/>
<rect transform="translate(22.7746, 8.2485)" x="0" y="-2.1182" width="0.2000" height="2.8785" ry="0.0000" fill="currentColor"/>
</g>
<line transform="translate(23.2334, 6.2485)" stroke-linejoin="round" stroke-linecap="round" stroke-width="0.1821" stroke="currentColor" x1="12.5081" y1="2.0272" x2="12.5081" y2="2.6222"/>
<line transform="translate(23.2334, 6.2485)" stroke-linejoin="round" stroke-linecap="round" stroke-width="0.1821" stroke="currentColor" x1="-0.1678" y1="-0.0272" x2="-0.1678" y2="0.5678"/>
<line transform="translate(23.2334, 6.2485)" stroke-linejoin="round" stroke-linecap="round" stroke-width="0.1821" stroke="currentColor" x1="12.5081" y1="2.0272" x2="7.3185" y2="1.1861"/>
<line transform="translate(23.2334, 6.2485)" stroke-linejoin="round" stroke-linecap="round" stroke-width="0.1821" stroke="currentColor" x1="-0.1678" y1="-0.0272" x2="5.2192" y2="0.8459"/>
</a>
</g>
<g gridcolor="#f0eee9" gridstep="1" gridify="true" isstaff="true">
<line transform="translate(14.2264, 19.6703)" stroke-linejoin="round" stroke-linecap="round" stroke-width="0.1138" stroke="currentColor" x1="0.0569" y1="-0.0000" x2="99.5277" y2="-0.0000"/>
<line transform="translate(14.2264, 18.8203)" stroke-linejoin="round" stroke-linecap="round" stroke-width="0.1138" stroke="currentColor" x1="0.0569" y1="-0.0000" x2="99.5277" y2="-0.0000"/>
<line transform="translate(14.2264, 17.9703)" stroke-linejoin="round" stroke-linecap="round" stroke-width="0.1138" stroke="currentColor" x1="0.0569" y1="-0.0000" x2="99.5277" y2="-0.0000"/>
<line transform="translate(14.2264, 17.1203)" stroke-linejoin="round" stroke-linecap="round" stroke-width="0.1138" stroke="currentColor" x1="0.0569" y1="-0.0000" x2="99.5277" y2="-0.0000"/>
<line transform="translate(14.2264, 16.2703)" stroke-linejoin="round" stroke-linecap="round" stroke-width="0.1138" stroke="currentColor" x1="0.0569" y1="-0.0000" x2="99.5277" y2="-0.0000"/>
</g>
<rect transform="translate(66.2698, 26.9703)" x="0.0000" y="-1.7569" width="0.2162" height="3.4569" ry="0.0000" fill="currentColor"/>
<rect transform="translate(66.2698, 3.8453)" x="0.0000" y="15.8820" width="0.2162" height="5.5431" ry="0.0000" fill="currentColor"/>
<rect transform="translate(113.5948, 3.8453)" x="0.0000" y="15.8820" width="0.2162" height="5.5431" ry="0.0000" fill="currentColor"/>
<rect transform="translate(113.5948, 26.9703)" x="0.0000" y="-1.7569" width="0.2162" height="3.4569" ry="0.0000" fill="currentColor"/>
<rect transform="translate(113.5948, 17.9703)" x="0.0000" y="-1.7000" width="0.2162" height="3.4569" ry="0.0000" fill="currentColor"/>
<rect transform="translate(5.6906, 13.7203)" x="81.4473" y="-0.0994" width="1.9563" height="0.1988" ry="0.0994" fill="currentColor"/>
<rect transform="translate(5.6906, 14.5703)" x="81.4473" y="-0.0994" width="1.9563" height="0.1988" ry="0.0994" fill="currentColor"/>
<rect transform="translate(5.6906, 15.4203)" x="81.4473" y="-0.0994" width="1.9563" height="0.1988" ry="0.0994" fill="currentColor"/>
<rect transform="translate(5.6906, 13.7203)" x="34.4765" y="-0.0994" width="1.9563" height="0.1988" ry="0.0994" fill="currentColor"/>
<rect transform="translate(5.6906, 14.5703)" x="34.4765" y="-0.0994" width="1.9563" height="0.1988" ry="0.0994" fill="currentColor"/>
<rect transform="translate(5.6906, 15.4203)" x="34.4765" y="-0.0994" width="1.9563" height="0.1988" ry="0.0994" fill="currentColor"/>
<rect transform="translate(5.6906, 13.7203)" x="17.2168" y="-0.0994" width="1.9563" height="0.1988" ry="0.0994" fill="currentColor"/>
<rect transform="translate(5.6906, 14.5703)" x="17.2168" y="-0.0994" width="1.9563" height="0.1988" ry="0.0994" fill="currentColor"/>
<rect transform="translate(5.6906, 15.4203)" x="17.2168" y="-0.0994" width="1.9563" height="0.1988" ry="0.0994" fill="currentColor"/>
<rect transform="translate(5.6906, 23.5703)" x="63.3015" y="-0.0994" width="1.9563" height="0.1988" ry="0.0994" fill="currentColor"/>
<rect transform="translate(5.6906, 24.4203)" x="63.3015" y="-0.0994" width="1.9563" height="0.1988" ry="0.0994" fill="currentColor"/>
<rect transform="translate(66.2698, 17.9703)" x="0.0000" y="-1.7000" width="0.2162" height="3.4569" ry="0.0000" fill="currentColor"/>
<g gridcolor="#f0eee9" gridstep="1" gridify="true" isstaff="true">
<line transform="translate(14.2264, 28.6703)" stroke-linejoin="round" stroke-linecap="round" stroke-width="0.1138" stroke="currentColor" x1="0.0569" y1="-0.0000" x2="99.5277" y2="-0.0000"/>
<line transform="translate(14.2264, 27.8203)" stroke-linejoin="round" stroke-linecap="round" stroke-width="0.1138" stroke="currentColor" x1="0.0569" y1="-0.0000" x2="99.5277" y2="-0.0000"/>
<line transform="translate(14.2264, 26.9703)" stroke-linejoin="round" stroke-linecap="round" stroke-width="0.1138" stroke="currentColor" x1="0.0569" y1="-0.0000" x2="99.5277" y2="-0.0000"/>
<line transform="translate(14.2264, 26.1203)" stroke-linejoin="round" stroke-linecap="round" stroke-width="0.1138" stroke="currentColor" x1="0.0569" y1="-0.0000" x2="99.5277" y2="-0.0000"/>
<line transform="translate(14.2264, 25.2703)" stroke-linejoin="round" stroke-linecap="round" stroke-width="0.1138" stroke="currentColor" x1="0.0569" y1="-0.0000" x2="99.5277" y2="-0.0000"/>
</g>
<a style="color:inherit;" xlink:href="textedit:///home/paolo/programmi/nuove-composizioni/Spontini-test/examples/easy-cross-staff-example-3.ly:93:50:51">
<path transform="translate(75.3241, 15.8453) scale(0.0040, -0.0040)" d="M218 136c55 0 108 -28 108 -89c0 -71 -55 -121 -102 -149c-35 -21 -75 -34 -116 -34c-55 0 -108 28 -108 89c0 71 55 121 102 149c35 21 75 34 116 34z" fill="currentColor"/>
</a>
<a style="color:inherit;" xlink:href="textedit:///home/paolo/programmi/nuove-composizioni/Spontini-test/examples/easy-cross-staff-example-3.ly:94:50:51">
<path transform="translate(75.3241, 26.5453) scale(0.0040, -0.0040)" d="M218 136c55 0 108 -28 108 -89c0 -71 -55 -121 -102 -149c-35 -21 -75 -34 -116 -34c-55 0 -108 28 -108 89c0 71 55 121 102 149c35 21 75 34 116 34z" fill="currentColor"/>
</a>
<a style="color:inherit;" xlink:href="textedit:///home/paolo/programmi/nuove-composizioni/Spontini-test/examples/easy-cross-staff-example-3.ly:94:50:51">
<path transform="translate(75.3241, 26.5453) scale(0.0040, -0.0040)" d="M218 136c55 0 108 -28 108 -89c0 -71 -55 -121 -102 -149c-35 -21 -75 -34 -116 -34c-55 0 -108 28 -108 89c0 71 55 121 102 149c35 21 75 34 116 34z" fill="currentColor"/>
</a>
<rect transform="translate(76.5543, 26.9703)" x="-0.0740" y="-3.1875" width="0.1480" height="2.5764" ry="0.0400" fill="currentColor"/>
<rect transform="translate(76.5543, 3.8453)" x="-0.0740" y="9.8022" width="0.1480" height="12.7118" ry="0.0400" fill="currentColor"/>
<a style="color:inherit;" xlink:href="textedit:///home/paolo/programmi/nuove-composizioni/Spontini-test/examples/easy-cross-staff-example-3.ly:93:59:60">
<path transform="translate(81.2467, 15.8453) scale(0.0040, -0.0040)" d="M218 136c55 0 108 -28 108 -89c0 -71 -55 -121 -102 -149c-35 -21 -75 -34 -116 -34c-55 0 -108 28 -108 89c0 71 55 121 102 149c35 21 75 34 116 34z" fill="currentColor"/>
</a>
<rect transform="translate(82.4769, 17.9703)" x="-0.0740" y="-5.2332" width="0.1480" height="2.9221" ry="0.0400" fill="currentColor"/>
<rect transform="translate(70.5484, 26.9703)" x="-0.0740" y="-5.9500" width="0.1480" height="2.3639" ry="0.0400" fill="currentColor"/>
<a style="color:inherit;" xlink:href="textedit:///home/paolo/programmi/nuove-composizioni/Spontini-test/examples/easy-cross-staff-example-3.ly:60:51:52">
<path transform="translate(23.2334, 15.9643)" stroke-width="0.0910" stroke-linejoin="round" stroke-linecap="round" stroke="currentColor" fill="currentColor" d="M0.6521 -5.2200C2.7630 -6.7223 15.8009 -6.7223 17.9118 -5.2200L17.9118 -5.2200C15.8009 -6.5858 2.7630 -6.5858 0.6521 -5.2200z"/>
</a>
<rect transform="translate(70.5484, 3.8453)" x="-0.0740" y="10.9321" width="0.1480" height="8.6068" ry="0.0400" fill="currentColor"/>
<g cpts-propid="108" editcommand="Shape" editableclass="Dummy" spontinieditable="true" staffspace="0.85000000">
<a style="color:inherit;" xlink:href="textedit:///home/paolo/programmi/nuove-composizioni/Spontini-test/examples/easy-cross-staff-example-3.ly:76:1:2">
<g color="rgb(100%, 50.0000%, 0%)">
<line transform="translate(69.9831, 25.4403)" stroke-linejoin="round" stroke-linecap="round" stroke-width="0.1366" stroke="currentColor" x1="0" y1="0" x2="8.8504" y2="8.3199"/>
</g>
<g color="rgb(100%, 50.0000%, 0%)">
<line transform="translate(78.8335, 33.7602)" stroke-linejoin="round" stroke-linecap="round" stroke-width="0.1366" stroke="currentColor" x1="0" y1="0" x2="7.8955" y2="-9.4547"/>
</g>
<g color="rgb(100%, 50.0000%, 0%)">
<line transform="translate(86.7290, 24.3055)" stroke-linejoin="round" stroke-linecap="round" stroke-width="0.1366" stroke="currentColor" x1="0" y1="0" x2="0.8279" y2="-5.3721"/>
</g>
<g color="rgb(81.1000%, 46.6000%, 43.9000%)">
<circle transform="translate(69.9831, 25.4403)" stroke-linejoin="round" stroke-linecap="round" fill="currentColor" stroke="currentColor" stroke-width="0" r="0.6000"/>
</g>
<g color="rgb(81.1000%, 46.6000%, 43.9000%)">
<circle transform="translate(78.8335, 33.7602)" stroke-linejoin="round" stroke-linecap="round" fill="currentColor" stroke="currentColor" stroke-width="0" r="0.6000"/>
</g>
<g color="rgb(81.1000%, 46.6000%, 43.9000%)">
<circle transform="translate(86.7290, 24.3055)" stroke-linejoin="round" stroke-linecap="round" fill="currentColor" stroke="currentColor" stroke-width="0" r="0.6000"/>
</g>
<g color="rgb(81.1000%, 46.6000%, 43.9000%)">
<circle transform="translate(87.5569, 18.9333)" stroke-linejoin="round" stroke-linecap="round" fill="currentColor" stroke="currentColor" stroke-width="0" r="0.6000"/>
</g>
<path transform="translate(69.3181, 17.9703)" stroke-width="0.0910" stroke-linejoin="round" stroke-linecap="round" stroke="currentColor" fill="currentColor" d="M0.6650 7.4700C9.5391 15.8539 17.4345 6.3992 18.2387 0.9630L18.2387 0.9630C17.3871 6.2711 9.4917 15.7259 0.6650 7.4700z"/>
</a>
</g>
<a style="color:inherit;" xlink:href="textedit:///home/paolo/programmi/nuove-composizioni/Spontini-test/examples/easy-cross-staff-example-3.ly:85:1:2">
<line transform="translate(72.5155, 36.2465)" stroke-linejoin="round" stroke-linecap="round" stroke-width="0.1138" stroke="currentColor" x1="14.9483" y1="-0.0000" x2="14.9483" y2="-1.0000"/>
<line transform="translate(72.5155, 36.2465)" stroke-linejoin="round" stroke-linecap="round" stroke-width="0.1138" stroke="currentColor" x1="0.0000" y1="-0.0000" x2="0.0000" y2="-0.0000"/>
<line transform="translate(72.5155, 36.2465)" stroke-linejoin="round" stroke-linecap="round" stroke-width="0.1138" stroke="currentColor" x1="0.0000" y1="-0.0000" x2="14.9483" y2="-0.0000"/>
</a>
<a style="color:inherit;" xlink:href="textedit:///home/paolo/programmi/nuove-composizioni/Spontini-test/examples/easy-cross-staff-example-3.ly:85:1:2">
<line transform="translate(73.8471, 34.1393)" stroke-linejoin="round" stroke-linecap="round" stroke-width="0.1138" stroke="currentColor" x1="13.6167" y1="-0.0000" x2="13.6167" y2="-1.0000"/>
<line transform="translate(73.8471, 34.1393)" stroke-linejoin="round" stroke-linecap="round" stroke-width="0.1138" stroke="currentColor" x1="0.0000" y1="-0.0000" x2="0.0000" y2="-0.0000"/>
<line transform="translate(73.8471, 34.1393)" stroke-linejoin="round" stroke-linecap="round" stroke-width="0.1138" stroke="currentColor" x1="0.0000" y1="-0.0000" x2="13.6167" y2="-0.0000"/>
</a>
<a style="color:inherit;" xlink:href="textedit:///home/paolo/programmi/nuove-composizioni/Spontini-test/examples/easy-cross-staff-example-3.ly:85:1:2">
<line transform="translate(72.6726, 30.7493)" stroke-linejoin="round" stroke-linecap="round" stroke-width="0.1138" stroke="currentColor" x1="0.0000" y1="0.0000" x2="13.1801" y2="0.5666"/>
<line transform="translate(72.6726, 30.7493)" stroke-linejoin="round" stroke-linecap="round" stroke-width="0.1138" stroke="currentColor" x1="0.0000" y1="-0.0000" x2="13.1801" y2="-0.5666"/>
</a>
<a style="color:inherit;" xlink:href="textedit:///home/paolo/programmi/nuove-composizioni/Spontini-test/examples/easy-cross-staff-example-3.ly:93:9:10">
<text transform="translate(75.9493, 8.6758)" font-family="serif" font-style="italic" font-size="1.7461" text-anchor="start" fill="currentColor">
<tspan>3</tspan>
</text>
</a>
<a style="color:inherit;" xlink:href="textedit:///home/paolo/programmi/nuove-composizioni/Spontini-test/examples/easy-cross-staff-example-3.ly:93:39:40">
<polygon transform="translate(70.4744, 14.9953)" stroke-linejoin="round" stroke-linecap="round" stroke-width="0.0800" fill="currentColor" stroke="currentColor" points="12.0365 -2.4361 12.0365 -2.1081 0.0400 0.1640 0.0400 -0.1640"/>
</a>
<a style="color:inherit;" xlink:href="textedit:///home/paolo/programmi/nuove-composizioni/Spontini-test/examples/easy-cross-staff-example-3.ly:52:1:2">
<line transform="translate(26.4308, 34.2463)" stroke-linejoin="round" stroke-linecap="round" stroke-width="0.1138" stroke="currentColor" x1="14.0623" y1="-0.0000" x2="14.0623" y2="-1.0000"/>
<line transform="translate(26.4308, 34.2463)" stroke-linejoin="round" stroke-linecap="round" stroke-width="0.1138" stroke="currentColor" x1="0.0000" y1="-0.0000" x2="0.0000" y2="-0.0000"/>
<line transform="translate(26.4308, 34.2463)" stroke-linejoin="round" stroke-linecap="round" stroke-width="0.1138" stroke="currentColor" x1="0.0000" y1="-0.0000" x2="14.0623" y2="-0.0000"/>
</a>
<a style="color:inherit;" xlink:href="textedit:///home/paolo/programmi/nuove-composizioni/Spontini-test/examples/easy-cross-staff-example-3.ly:52:1:2">
<line transform="translate(27.7624, 36.3535)" stroke-linejoin="round" stroke-linecap="round" stroke-width="0.1138" stroke="currentColor" x1="12.7307" y1="-0.0000" x2="12.7307" y2="-1.0000"/>
<line transform="translate(27.7624, 36.3535)" stroke-linejoin="round" stroke-linecap="round" stroke-width="0.1138" stroke="currentColor" x1="0.0000" y1="-0.0000" x2="0.0000" y2="-0.0000"/>
<line transform="translate(27.7624, 36.3535)" stroke-linejoin="round" stroke-linecap="round" stroke-width="0.1138" stroke="currentColor" x1="0.0000" y1="-0.0000" x2="12.7307" y2="-0.0000"/>
</a>
<a style="color:inherit;" xlink:href="textedit:///home/paolo/programmi/nuove-composizioni/Spontini-test/examples/easy-cross-staff-example-3.ly:52:1:2">
<line transform="translate(26.4357, 30.8563)" stroke-linejoin="round" stroke-linecap="round" stroke-width="0.1138" stroke="currentColor" x1="0.0000" y1="0.0000" x2="12.2691" y2="0.5666"/>
<line transform="translate(26.4357, 30.8563)" stroke-linejoin="round" stroke-linecap="round" stroke-width="0.1138" stroke="currentColor" x1="0.0000" y1="-0.0000" x2="12.2691" y2="-0.5666"/>
</a>
<a style="color:inherit;" xlink:href="textedit:///home/paolo/programmi/nuove-composizioni/Spontini-test/examples/easy-cross-staff-example-3.ly:60:50:51">
<polygon transform="translate(23.2334, 18.6732)" stroke-linejoin="round" stroke-linecap="round" stroke-width="0.0800" fill="currentColor" stroke="currentColor" points="12.6045 2.1081 12.6045 2.4361 0.0400 0.1640 0.0400 -0.1640"/>
</a>
<a style="color:inherit;" xlink:href="textedit:///home/paolo/programmi/nuove-composizioni/Spontini-test/examples/easy-cross-staff-example-3.ly:60:9:10">
<text transform="translate(28.8402, 7.8802)" font-family="serif" font-style="italic" font-size="1.7461" text-anchor="start" fill="currentColor">
<tspan>3</tspan>
</text>
</a>
<a style="color:inherit;" xlink:href="textedit:///home/paolo/programmi/nuove-composizioni/Spontini-test/examples/easy-cross-staff-example-3.ly:93:71:72">
<path transform="translate(87.4639, 13.7203) scale(0.0040, -0.0040)" d="M218 136c55 0 108 -28 108 -89c0 -71 -55 -121 -102 -149c-35 -21 -75 -34 -116 -34c-55 0 -108 28 -108 89c0 71 55 121 102 149c35 21 75 34 116 34z" fill="currentColor"/>
</a>
<a style="color:inherit;" xlink:href="textedit:///home/paolo/programmi/nuove-composizioni/Spontini-test/examples/easy-cross-staff-example-3.ly:94:73:74">
<g transform="translate(86.8527, 31.3493)" >
<path transform="scale(0.0040, -0.0040)" d="M253 245l-50 -163c-30 -99 -121 -255 -218 -255c-45 0 -87 27 -87 69c0 39 17 77 52 77c24 0 44 -20 44 -44c0 -30 -38 -24 -38 -54c0 -10 11 -11 23 -11h6c48 0 61 58 73 108l68 273h-49c-11 0 -19 8 -19 19s8 19 19 19h60c32 96 118 191 213 191c45 0 87 -27 87 -69
c0 -39 -17 -77 -52 -77c-24 0 -44 19 -44 43c0 30 38 25 38 55c0 10 -10 11 -22 11h-7c-62 0 -70 -88 -86 -154h55c11 0 19 -8 19 -19s-8 -19 -19 -19h-66z" fill="currentColor"/>

<path transform="translate(1.2633, 0.0000) scale(0.0040, -0.0040)" d="M253 245l-50 -163c-30 -99 -121 -255 -218 -255c-45 0 -87 27 -87 69c0 39 17 77 52 77c24 0 44 -20 44 -44c0 -30 -38 -24 -38 -54c0 -10 11 -11 23 -11h6c48 0 61 58 73 108l68 273h-49c-11 0 -19 8 -19 19s8 19 19 19h60c32 96 118 191 213 191c45 0 87 -27 87 -69
c0 -39 -17 -77 -52 -77c-24 0 -44 19 -44 43c0 30 38 25 38 55c0 10 -10 11 -22 11h-7c-62 0 -70 -88 -86 -154h55c11 0 19 -8 19 -19s-8 -19 -19 -19h-66z" fill="currentColor"/>
</g>
</a>
<rect transform="translate(87.5378, 17.9703)" x="-0.0740" y="-4.0639" width="0.1480" height="4.0639" ry="0.0400" fill="currentColor"/>
<a style="color:inherit;" xlink:href="textedit:///home/paolo/programmi/nuove-composizioni/Spontini-test/examples/easy-cross-staff-example-3.ly:93:105:106">
<path transform="translate(100.7064, 17.9703) scale(0.0040, -0.0040)" d="M-23 -116c0 28 11 42 40 42c33 0 78 -13 119 -31l-132 158c-7 9 -10 17 -10 25c0 34 50 66 87 99c25 22 37 52 37 83c0 24 -8 49 -25 69l-35 42c-3 3 -4 7 -4 10c0 9 9 15 17 15c4 0 8 -1 11 -5l151 -180c7 -9 10 -17 10 -25c0 -34 -50 -66 -87 -99
c-25 -22 -37 -52 -37 -83c0 -24 7 -49 24 -69l84 -99c3 -3 4 -7 4 -10c0 -9 -8 -16 -16 -16c-4 0 -9 2 -12 6c-18 21 -63 38 -97 38c-41 0 -53 -26 -53 -67c0 -35 11 -74 28 -94c5 -6 0 -13 -6 -13c-2 0 -4 0 -6 2c-45 54 -92 148 -92 202z" fill="currentColor"/>
</a>
<a style="color:inherit;" xlink:href="textedit:///home/paolo/programmi/nuove-composizioni/Spontini-test/examples/easy-cross-staff-example-3.ly:61:62:63">
<path transform="translate(28.6692, 26.5453) scale(0.0040, -0.0040)" d="M218 136c55 0 108 -28 108 -89c0 -71 -55 -121 -102 -149c-35 -21 -75 -34 -116 -34c-55 0 -108 28 -108 89c0 71 55 121 102 149c35 21 75 34 116 34z" fill="currentColor"/>
</a>
<a style="color:inherit;" xlink:href="textedit:///home/paolo/programmi/nuove-composizioni/Spontini-test/examples/easy-cross-staff-example-3.ly:61:62:63">
<path transform="translate(28.6692, 26.5453) scale(0.0040, -0.0040)" d="M218 136c55 0 108 -28 108 -89c0 -71 -55 -121 -102 -149c-35 -21 -75 -34 -116 -34c-55 0 -108 28 -108 89c0 71 55 121 102 149c35 21 75 34 116 34z" fill="currentColor"/>
</a>
<rect transform="translate(29.8994, 26.9703)" x="-0.0740" y="-7.0993" width="0.1480" height="6.4882" ry="0.0400" fill="currentColor"/>
<a style="color:inherit;" xlink:href="textedit:///home/paolo/programmi/nuove-composizioni/Spontini-test/examples/easy-cross-staff-example-3.ly:61:70:71">
<path transform="translate(34.5737, 24.8453) scale(0.0040, -0.0040)" d="M218 136c55 0 108 -28 108 -89c0 -71 -55 -121 -102 -149c-35 -21 -75 -34 -116 -34c-55 0 -108 28 -108 89c0 71 55 121 102 149c35 21 75 34 116 34z" fill="currentColor"/>
</a>
<a style="color:inherit;" xlink:href="textedit:///home/paolo/programmi/nuove-composizioni/Spontini-test/examples/easy-cross-staff-example-3.ly:26:0:1">
<path transform="translate(19.3630, 17.9703) scale(0.0040, -0.0040)" d="M150 477c-29 0 -59 -8 -59 -33c0 -22 36 -25 36 -47c0 -32 -26 -58 -58 -58s-57 26 -57 58c0 65 67 103 138 103c91 0 169 -33 169 -114c0 -43 -4 -82 -42 -100c-9 -4 -14 -12 -14 -21s5 -18 14 -22c41 -19 56 -57 56 -103c0 -92 -79 -140 -179 -140
c-79 0 -154 42 -154 113c0 36 30 66 66 66s65 -30 65 -66c0 -25 -40 -28 -40 -53c0 -27 32 -37 63 -37c49 0 63 61 63 117v16c0 54 -2 94 -50 94h-80c-10 0 -14 8 -14 15s4 14 14 14h80c49 0 50 43 50 99v8c0 54 -18 91 -67 91z" fill="currentColor"/>
<path transform="translate(19.2264, 20.0189) scale(0.0040, -0.0040)" d="M204 307c22 14 44 29 60 50c11 15 19 33 27 50c2 4 5 6 9 6c6 0 13 -5 13 -14v-245h72c10 0 15 -7 15 -14s-5 -15 -15 -15h-72v-8c0 -48 27 -94 72 -94c8 0 12 -5 12 -11s-4 -12 -12 -12c-44 0 -87 13 -131 13s-87 -13 -131 -13c-8 0 -12 6 -12 12s4 11 12 11
c45 0 73 46 73 94v8h-167c-23 0 -31 14 -31 23c0 3 1 5 2 6c80 93 138 207 138 330c0 9 6 16 13 16h3c23 -7 47 -13 71 -13s48 6 71 13c2 1 3 1 5 1c11 0 18 -10 12 -17l-284 -330h167v131c0 8 1 17 8 22z" fill="currentColor"/>
</a>
<text transform="translate(4.5771, 23.2556)" font-family="serif" font-size="2.2001" text-anchor="start" fill="currentColor">
<tspan>Piano  </tspan>
</text>
<path transform="translate(13.8443, 22.4703) scale(0.0040, -0.0040)" d="M-18 -474c0 -249 -96 -495 -96 -729c0 -129 30 -249 126 -342c3 -3 3 -6 3 -9c0 -9 -6 -18 -15 -18c-3 0 -9 3 -12 6c-129 126 -171 297 -171 477c0 255 102 501 102 741c0 129 -30 249 -123 342c-3 3 -6 3 -6 6s3 3 6 6c93 93 123 213 123 342c0 240 -102 486 -102 741
c0 180 42 351 171 477c3 3 9 6 12 6c9 0 15 -9 15 -18c0 -3 0 -6 -3 -9c-96 -93 -126 -213 -126 -342c0 -234 96 -480 96 -729c0 -177 -42 -348 -165 -474c123 -126 165 -297 165 -474z" fill="currentColor"/>
<rect transform="translate(14.1443, 22.4703)" x="0.0000" y="-6.2569" width="0.1821" height="12.5138" ry="0.0569" fill="currentColor"/>
<a style="color:inherit;" xlink:href="textedit:///home/paolo/programmi/nuove-composizioni/Spontini-test/examples/easy-cross-staff-example-3.ly:60:37:38">
<path transform="translate(23.2334, 14.5703) scale(0.0040, -0.0040)" d="M218 136c55 0 108 -28 108 -89c0 -71 -55 -121 -102 -149c-35 -21 -75 -34 -116 -34c-55 0 -108 28 -108 89c0 71 55 121 102 149c35 21 75 34 116 34z" fill="currentColor"/>
</a>
<a style="color:inherit;" xlink:href="textedit:///home/paolo/programmi/nuove-composizioni/Spontini-test/examples/easy-cross-staff-example-3.ly:60:43:44">
<path transform="translate(23.2334, 13.7203) scale(0.0040, -0.0040)" d="M218 136c55 0 108 -28 108 -89c0 -71 -55 -121 -102 -149c-35 -21 -75 -34 -116 -34c-55 0 -108 28 -108 89c0 71 55 121 102 149c35 21 75 34 116 34z" fill="currentColor"/>
</a>
<a style="color:inherit;" xlink:href="textedit:///home/paolo/programmi/nuove-composizioni/Spontini-test/examples/easy-cross-staff-example-3.ly:60:37:38">
<path transform="translate(23.2334, 14.5703) scale(0.0040, -0.0040)" d="M218 136c55 0 108 -28 108 -89c0 -71 -55 -121 -102 -149c-35 -21 -75 -34 -116 -34c-55 0 -108 28 -108 89c0 71 55 121 102 149c35 21 75 34 116 34z" fill="currentColor"/>
</a>
<a style="color:inherit;" xlink:href="textedit:///home/paolo/programmi/nuove-composizioni/Spontini-test/examples/easy-cross-staff-example-3.ly:60:43:44">
<path transform="translate(23.2334, 13.7203) scale(0.0040, -0.0040)" d="M218 136c55 0 108 -28 108 -89c0 -71 -55 -121 -102 -149c-35 -21 -75 -34 -116 -34c-55 0 -108 28 -108 89c0 71 55 121 102 149c35 21 75 34 116 34z" fill="currentColor"/>
</a>
<path transform="translate(15.0264, 18.8203) scale(0.0040, -0.0040)" d="M376 262c4 0 9 1 13 1c155 0 256 -128 256 -261c0 -76 -33 -154 -107 -210c-22 -17 -47 -28 -73 -36c3 -35 5 -70 5 -105c0 -19 -1 -39 -2 -58c-7 -120 -90 -228 -208 -228c-108 0 -195 88 -195 197c0 58 53 103 112 103c54 0 95 -47 95 -103c0 -52 -43 -95 -95 -95
c-11 0 -21 2 -31 6c26 -39 68 -65 117 -65c96 0 157 92 163 191c1 18 2 37 2 55c0 31 -1 61 -4 92c-29 -5 -58 -8 -89 -8c-188 0 -333 172 -333 374c0 177 131 306 248 441c-19 62 -37 125 -45 190c-6 52 -7 104 -7 156c0 115 55 224 149 292c3 2 7 3 10 3c4 0 7 0 10 -3
c71 -84 133 -245 133 -358c0 -143 -86 -255 -180 -364c21 -68 39 -138 56 -207zM461 -203c68 24 113 95 113 164c0 90 -66 179 -173 190c24 -116 46 -231 60 -354zM74 28c0 -135 129 -247 264 -247c28 0 55 2 82 6c-14 127 -37 245 -63 364c-79 -8 -124 -61 -124 -119
c0 -44 25 -91 81 -123c5 -5 7 -10 7 -15c0 -11 -10 -22 -22 -22c-3 0 -6 1 -9 2c-80 43 -117 115 -117 185c0 88 58 174 160 197c-14 58 -29 117 -46 175c-107 -121 -213 -243 -213 -403zM408 1045c-99 -48 -162 -149 -162 -259c0 -74 18 -133 36 -194
c80 97 146 198 146 324c0 55 -4 79 -20 129z" fill="currentColor"/>
<path transform="translate(15.0264, 27.8203) scale(0.0040, -0.0040)" d="M376 262c4 0 9 1 13 1c155 0 256 -128 256 -261c0 -76 -33 -154 -107 -210c-22 -17 -47 -28 -73 -36c3 -35 5 -70 5 -105c0 -19 -1 -39 -2 -58c-7 -120 -90 -228 -208 -228c-108 0 -195 88 -195 197c0 58 53 103 112 103c54 0 95 -47 95 -103c0 -52 -43 -95 -95 -95
c-11 0 -21 2 -31 6c26 -39 68 -65 117 -65c96 0 157 92 163 191c1 18 2 37 2 55c0 31 -1 61 -4 92c-29 -5 -58 -8 -89 -8c-188 0 -333 172 -333 374c0 177 131 306 248 441c-19 62 -37 125 -45 190c-6 52 -7 104 -7 156c0 115 55 224 149 292c3 2 7 3 10 3c4 0 7 0 10 -3
c71 -84 133 -245 133 -358c0 -143 -86 -255 -180 -364c21 -68 39 -138 56 -207zM461 -203c68 24 113 95 113 164c0 90 -66 179 -173 190c24 -116 46 -231 60 -354zM74 28c0 -135 129 -247 264 -247c28 0 55 2 82 6c-14 127 -37 245 -63 364c-79 -8 -124 -61 -124 -119
c0 -44 25 -91 81 -123c5 -5 7 -10 7 -15c0 -11 -10 -22 -22 -22c-3 0 -6 1 -9 2c-80 43 -117 115 -117 185c0 88 58 174 160 197c-14 58 -29 117 -46 175c-107 -121 -213 -243 -213 -403zM408 1045c-99 -48 -162 -149 -162 -259c0 -74 18 -133 36 -194
c80 97 146 198 146 324c0 55 -4 79 -20 129z" fill="currentColor"/>
<path transform="translate(19.3630, 26.9703) scale(0.0040, -0.0040)" d="M150 477c-29 0 -59 -8 -59 -33c0 -22 36 -25 36 -47c0 -32 -26 -58 -58 -58s-57 26 -57 58c0 65 67 103 138 103c91 0 169 -33 169 -114c0 -43 -4 -82 -42 -100c-9 -4 -14 -12 -14 -21s5 -18 14 -22c41 -19 56 -57 56 -103c0 -92 -79 -140 -179 -140
c-79 0 -154 42 -154 113c0 36 30 66 66 66s65 -30 65 -66c0 -25 -40 -28 -40 -53c0 -27 32 -37 63 -37c49 0 63 61 63 117v16c0 54 -2 94 -50 94h-80c-10 0 -14 8 -14 15s4 14 14 14h80c49 0 50 43 50 99v8c0 54 -18 91 -67 91z" fill="currentColor"/>
<path transform="translate(19.2264, 29.0189) scale(0.0040, -0.0040)" d="M204 307c22 14 44 29 60 50c11 15 19 33 27 50c2 4 5 6 9 6c6 0 13 -5 13 -14v-245h72c10 0 15 -7 15 -14s-5 -15 -15 -15h-72v-8c0 -48 27 -94 72 -94c8 0 12 -5 12 -11s-4 -12 -12 -12c-44 0 -87 13 -131 13s-87 -13 -131 -13c-8 0 -12 6 -12 12s4 11 12 11
c45 0 73 46 73 94v8h-167c-23 0 -31 14 -31 23c0 3 1 5 2 6c80 93 138 207 138 330c0 9 6 16 13 16h3c23 -7 47 -13 71 -13s48 6 71 13c2 1 3 1 5 1c11 0 18 -10 12 -17l-284 -330h167v131c0 8 1 17 8 22z" fill="currentColor"/>
<rect transform="translate(23.3074, 17.9703)" x="-0.0740" y="-4.0639" width="0.1480" height="4.7801" ry="0.0400" fill="currentColor"/>
<rect transform="translate(40.5671, 17.9703)" x="-0.0740" y="-4.0639" width="0.1480" height="4.0639" ry="0.0400" fill="currentColor"/>
<a style="color:inherit;" xlink:href="textedit:///home/paolo/programmi/nuove-composizioni/Spontini-test/examples/easy-cross-staff-example-3.ly:61:70:71">
<path transform="translate(34.5737, 24.8453) scale(0.0040, -0.0040)" d="M218 136c55 0 108 -28 108 -89c0 -71 -55 -121 -102 -149c-35 -21 -75 -34 -116 -34c-55 0 -108 28 -108 89c0 71 55 121 102 149c35 21 75 34 116 34z" fill="currentColor"/>
</a>
<a style="color:inherit;" xlink:href="textedit:///home/paolo/programmi/nuove-composizioni/Spontini-test/examples/easy-cross-staff-example-3.ly:60:115:116">
<path transform="translate(53.3815, 17.9703) scale(0.0040, -0.0040)" d="M-23 -116c0 28 11 42 40 42c33 0 78 -13 119 -31l-132 158c-7 9 -10 17 -10 25c0 34 50 66 87 99c25 22 37 52 37 83c0 24 -8 49 -25 69l-35 42c-3 3 -4 7 -4 10c0 9 9 15 17 15c4 0 8 -1 11 -5l151 -180c7 -9 10 -17 10 -25c0 -34 -50 -66 -87 -99
c-25 -22 -37 -52 -37 -83c0 -24 7 -49 24 -69l84 -99c3 -3 4 -7 4 -10c0 -9 -8 -16 -16 -16c-4 0 -9 2 -12 6c-18 21 -63 38 -97 38c-41 0 -53 -26 -53 -67c0 -35 11 -74 28 -94c5 -6 0 -13 -6 -13c-2 0 -4 0 -6 2c-45 54 -92 148 -92 202z" fill="currentColor"/>
</a>
<g color="rgb(100.0000%, 0.0000%, 0.0000%)">
</g>
<g color="rgb(100.0000%, 0.0000%, 0.0000%)">
</g>
<a style="color:inherit;" xlink:href="textedit:///home/paolo/programmi/nuove-composizioni/Spontini-test/examples/easy-cross-staff-example-3.ly:94:29:30">
<path transform="translate(69.3181, 23.5703) scale(0.0040, -0.0040)" d="M218 136c55 0 108 -28 108 -89c0 -71 -55 -121 -102 -149c-35 -21 -75 -34 -116 -34c-55 0 -108 28 -108 89c0 71 55 121 102 149c35 21 75 34 116 34z" fill="currentColor"/>
</a>
<a style="color:inherit;" xlink:href="textedit:///home/paolo/programmi/nuove-composizioni/Spontini-test/examples/easy-cross-staff-example-3.ly:94:29:30">
<path transform="translate(69.3181, 23.5703) scale(0.0040, -0.0040)" d="M218 136c55 0 108 -28 108 -89c0 -71 -55 -121 -102 -149c-35 -21 -75 -34 -116 -34c-55 0 -108 28 -108 89c0 71 55 121 102 149c35 21 75 34 116 34z" fill="currentColor"/>
</a>
<rect transform="translate(35.8040, 26.9703)" x="-0.0740" y="-6.0383" width="0.1480" height="3.7272" ry="0.0400" fill="currentColor"/>
<a style="color:inherit;" xlink:href="textedit:///home/paolo/programmi/nuove-composizioni/Spontini-test/examples/easy-cross-staff-example-3.ly:61:83:84">
<g transform="translate(39.7048, 31.4563)" >
<path transform="scale(0.0040, -0.0040)" d="M253 245l-50 -163c-30 -99 -121 -255 -218 -255c-45 0 -87 27 -87 69c0 39 17 77 52 77c24 0 44 -20 44 -44c0 -30 -38 -24 -38 -54c0 -10 11 -11 23 -11h6c48 0 61 58 73 108l68 273h-49c-11 0 -19 8 -19 19s8 19 19 19h60c32 96 118 191 213 191c45 0 87 -27 87 -69
c0 -39 -17 -77 -52 -77c-24 0 -44 19 -44 43c0 30 38 25 38 55c0 10 -10 11 -22 11h-7c-62 0 -70 -88 -86 -154h55c11 0 19 -8 19 -19s-8 -19 -19 -19h-66z" fill="currentColor"/>

<path transform="translate(1.2633, 0.0000) scale(0.0040, -0.0040)" d="M253 245l-50 -163c-30 -99 -121 -255 -218 -255c-45 0 -87 27 -87 69c0 39 17 77 52 77c24 0 44 -20 44 -44c0 -30 -38 -24 -38 -54c0 -10 11 -11 23 -11h6c48 0 61 58 73 108l68 273h-49c-11 0 -19 8 -19 19s8 19 19 19h60c32 96 118 191 213 191c45 0 87 -27 87 -69
c0 -39 -17 -77 -52 -77c-24 0 -44 19 -44 43c0 30 38 25 38 55c0 10 -10 11 -22 11h-7c-62 0 -70 -88 -86 -154h55c11 0 19 -8 19 -19s-8 -19 -19 -19h-66z" fill="currentColor"/>
</g>
</a>
<a style="color:inherit;" xlink:href="textedit:///home/paolo/programmi/nuove-composizioni/Spontini-test/examples/easy-cross-staff-example-3.ly:60:81:82">
<path transform="translate(40.4931, 13.7203) scale(0.0040, -0.0040)" d="M218 136c55 0 108 -28 108 -89c0 -71 -55 -121 -102 -149c-35 -21 -75 -34 -116 -34c-55 0 -108 28 -108 89c0 71 55 121 102 149c35 21 75 34 116 34z" fill="currentColor"/>
</a>
<a style="color:inherit;" xlink:href="textedit:///home/paolo/programmi/nuove-composizioni/Spontini-test/examples/easy-cross-staff-example-3.ly:60:81:82">
<path transform="translate(40.4931, 13.7203) scale(0.0040, -0.0040)" d="M218 136c55 0 108 -28 108 -89c0 -71 -55 -121 -102 -149c-35 -21 -75 -34 -116 -34c-55 0 -108 28 -108 89c0 71 55 121 102 149c35 21 75 34 116 34z" fill="currentColor"/>
</a>
<g thickness="0.20000000" editableclass="OSOPadder" spontinieditable="true" y-direction="-1" pads-propid="115">
<a style="color:inherit;" xlink:href="textedit:///home/paolo/programmi/nuove-composizioni/Spontini-test/examples/easy-cross-staff-example-3.ly:120:1:2">
<g color="rgb(91.2000%, 93.4000%, 95.6000%)">
<rect transform="translate(11.4906, 90.9786)" x="-0.2000" y="-0.2000" width="28.3634" height="0.2000" ry="0.0000" fill="currentColor"/>
<rect transform="translate(39.4539, 92.6516)" x="0" y="-1.6730" width="0.2000" height="2.1169" ry="0.0000" fill="currentColor"/>
<rect transform="translate(11.4906, 93.2955)" x="-0.2000" y="-0.2000" width="28.3634" height="0.2000" ry="0.0000" fill="currentColor"/>
<rect transform="translate(11.2906, 92.6516)" x="0" y="-1.6730" width="0.2000" height="2.1169" ry="0.0000" fill="currentColor"/>
</g>
<text transform="translate(11.4906, 92.6516)" font-family="monospace" font-size="2.2001" text-anchor="start" fill="currentColor">
<tspan>Use pedals with care!</tspan>
</text>
</a>
</g>
<g thickness="0.20000000" editableclass="OSOPadder" spontinieditable="true" y-direction="1" pads-propid="118">
<a style="color:inherit;" xlink:href="textedit:///home/paolo/programmi/nuove-composizioni/Spontini-test/examples/easy-cross-staff-example-3.ly:146:1:2">
<g color="rgb(91.2000%, 93.4000%, 95.6000%)">
<rect transform="translate(64.1478, 66.0093)" x="-0.2000" y="-0.2000" width="22.1668" height="0.2000" ry="0.0000" fill="currentColor"/>
<rect transform="translate(85.9146, 66.9753)" x="0" y="-0.9660" width="0.2000" height="0.9660" ry="0.0000" fill="currentColor"/>
<rect transform="translate(64.1478, 67.1753)" x="-0.2000" y="-0.2000" width="22.1668" height="0.2000" ry="0.0000" fill="currentColor"/>
<rect transform="translate(63.9478, 66.9753)" x="0" y="-0.9660" width="0.2000" height="0.9660" ry="0.0000" fill="currentColor"/>
</g>
<text transform="translate(64.1478, 66.9753)" font-family="monospace" font-size="2.2001" text-anchor="start" fill="currentColor">
<tspan>   </tspan>
</text>
</a>
</g>
<g pads-propid="117" thickness="0.20000000" editableclass="OSOPadder" spontinieditable="true" y-direction="1">
<g color="rgb(91.2000%, 93.4000%, 95.6000%)">
<rect transform="translate(64.1478, 61.3303)" x="-1.0000" y="-0.2000" width="22.6775" height="0.2000" ry="0.0000" fill="currentColor"/>
<rect transform="translate(85.6253, 62.1668)" x="0" y="-0.8365" width="0.2000" height="1.7690" ry="0.0000" fill="currentColor"/>
<rect transform="translate(64.1478, 63.2993)" x="-1.0000" y="-0.2000" width="22.6775" height="0.2000" ry="0.0000" fill="currentColor"/>
<rect transform="translate(63.1478, 62.1668)" x="0" y="-0.8365" width="0.2000" height="1.7690" ry="0.0000" fill="currentColor"/>
</g>
<text transform="translate(63.3478, 62.9691)" font-family="serif" font-style="italic" font-size="2.2001" text-anchor="start" fill="currentColor">
<tspan>8va</tspan>
</text>
<line transform="translate(85.5684, 62.1668)" stroke-linejoin="round" stroke-linecap="round" stroke-width="0.1138" stroke="currentColor" x1="0" y1="0" x2="0.0000" y2="0.8000" stroke-dasharray="0.85,0.0"/>
<line transform="translate(67.5743, 62.1668)" stroke-linejoin="round" stroke-linecap="round" stroke-width="0.1138" stroke="currentColor" x1="0" y1="0" x2="0.0000" y2="-0.0000" stroke-dasharray="0.85,0.0"/>
<line transform="translate(67.5743, 62.1668)" stroke-linejoin="round" stroke-linecap="round" stroke-width="0.1138" stroke="currentColor" x1="0" y1="0" x2="17.9941" y2="-0.0000" stroke-dasharray="0.253437738785288,0.591354723832338"/>
</g>
<g thickness="0.20000000" editableclass="OSOPadder" spontinieditable="true" y-direction="-1" pads-propid="122">
<a style="color:inherit;" xlink:href="textedit:///home/paolo/programmi/nuove-composizioni/Spontini-test/examples/easy-cross-staff-example-3.ly:158:1:2">
<g color="rgb(91.2000%, 93.4000%, 95.6000%)">
<rect transform="translate(64.1478, 94.9704)" x="-0.2000" y="-0.2000" width="28.3634" height="0.2000" ry="0.0000" fill="currentColor"/>
<rect transform="translate(92.1112, 96.6885)" x="0" y="-1.7180" width="0.2000" height="2.1619" ry="0.0000" fill="currentColor"/>
<rect transform="translate(64.1478, 97.3323)" x="-0.2000" y="-0.2000" width="28.3634" height="0.2000" ry="0.0000" fill="currentColor"/>
<rect transform="translate(63.9478, 96.6885)" x="0" y="-1.7180" width="0.2000" height="2.1619" ry="0.0000" fill="currentColor"/>
</g>
<text transform="translate(64.1478, 96.6885)" font-family="monospace" font-size="2.2001" text-anchor="start" fill="currentColor">
<tspan>Use pedals with care!</tspan>
</text>
</a>
</g>
<g y-direction="-1" thickness="0.20000000" editableclass="OSOPadder" spontinieditable="true" pads-propid="119">
<a style="color:inherit;" xlink:href="textedit:///home/paolo/programmi/nuove-composizioni/Spontini-test/examples/easy-cross-staff-example-3.ly:158:1:2">
<g color="rgb(91.2000%, 93.4000%, 95.6000%)">
<rect transform="translate(63.2976, 87.7271)" x="-0.2000" y="-0.2000" width="3.4046" height="0.2000" ry="0.0000" fill="currentColor"/>
<rect transform="translate(66.3023, 89.6391)" x="0" y="-1.9120" width="0.2000" height="2.6290" ry="0.0000" fill="currentColor"/>
<rect transform="translate(63.2976, 90.5561)" x="-0.2000" y="-0.2000" width="3.4046" height="0.2000" ry="0.0000" fill="currentColor"/>
<rect transform="translate(63.0976, 89.6391)" x="0" y="-1.9120" width="0.2000" height="2.6290" ry="0.0000" fill="currentColor"/>
</g>
<g transform="translate(63.2976, 89.6391)" >
<path transform="scale(0.0040, -0.0040)" d="M-41 146c26 76 82 153 149 153c22 0 36 -20 41 -45c22 26 51 45 81 45c23 0 38 -21 44 -46c22 27 51 46 80 46c33 0 59 -35 59 -69c0 -5 -1 -10 -2 -15l-35 -149c0 -2 -1 -4 -1 -5c0 -5 2 -8 7 -8c9 0 27 11 48 31c4 4 9 6 13 6c6 0 11 -4 11 -10c0 -4 -3 -8 -7 -12
c-40 -38 -85 -75 -131 -75c-20 0 -32 13 -32 32c0 4 0 7 1 11l39 165c1 5 2 9 2 14c0 10 -4 18 -14 18c-16 0 -33 -16 -39 -32l-53 -183c-3 -10 -12 -18 -22 -18h-41c-10 0 -16 8 -13 18l52 183c2 6 3 11 3 16c0 9 -4 16 -13 16c-16 0 -35 -15 -41 -32l-62 -183
c-3 -10 -14 -18 -24 -18h-41c-10 0 -15 8 -12 18l63 183c2 5 2 10 2 15c0 10 -3 17 -13 17c-29 0 -54 -53 -66 -87c-4 -11 -15 -17 -23 -17c-7 0 -12 4 -12 11c0 2 1 4 2 6z" fill="currentColor"/>

<path transform="translate(1.7413, 0.0000) scale(0.0040, -0.0040)" d="M253 245l-50 -163c-30 -99 -121 -255 -218 -255c-45 0 -87 27 -87 69c0 39 17 77 52 77c24 0 44 -20 44 -44c0 -30 -38 -24 -38 -54c0 -10 11 -11 23 -11h6c48 0 61 58 73 108l68 273h-49c-11 0 -19 8 -19 19s8 19 19 19h60c32 96 118 191 213 191c45 0 87 -27 87 -69
c0 -39 -17 -77 -52 -77c-24 0 -44 19 -44 43c0 30 38 25 38 55c0 10 -10 11 -22 11h-7c-62 0 -70 -88 -86 -154h55c11 0 19 -8 19 -19s-8 -19 -19 -19h-66z" fill="currentColor"/>
</g>
</a>
</g>
<g pads-propid="123" thickness="0.20000000" editableclass="OSOPadder" spontinieditable="true" y-direction="-1">
<a style="color:inherit;" xlink:href="textedit:///home/paolo/programmi/nuove-composizioni/Spontini-test/examples/easy-cross-staff-example-3.ly:167:9:10">
<g color="rgb(91.2000%, 93.4000%, 95.6000%)">
<rect transform="translate(64.1478, 82.9272)" x="-0.4569" y="-0.2000" width="14.2247" height="0.2000" ry="0.0000" fill="currentColor"/>
<rect transform="translate(77.7157, 83.9077)" x="0" y="-0.9804" width="0.2000" height="4.3999" ry="0.0000" fill="currentColor"/>
<rect transform="translate(64.1478, 87.5271)" x="-0.4569" y="-0.2000" width="14.2247" height="0.2000" ry="0.0000" fill="currentColor"/>
<rect transform="translate(63.6910, 83.9077)" x="0" y="-0.9804" width="0.2000" height="4.3999" ry="0.0000" fill="currentColor"/>
</g>
<line transform="translate(64.1478, 83.9077)" stroke-linejoin="round" stroke-linecap="round" stroke-width="0.1821" stroke="currentColor" x1="13.4768" y1="3.0374" x2="13.4768" y2="2.4424"/>
<line transform="translate(64.1478, 83.9077)" stroke-linejoin="round" stroke-linecap="round" stroke-width="0.1821" stroke="currentColor" x1="-0.1658" y1="-0.0374" x2="-0.1658" y2="-0.6324"/>
<line transform="translate(64.1478, 83.9077)" stroke-linejoin="round" stroke-linecap="round" stroke-width="0.1821" stroke="currentColor" x1="13.4768" y1="3.0374" x2="7.7904" y2="1.7558"/>
<line transform="translate(64.1478, 83.9077)" stroke-linejoin="round" stroke-linecap="round" stroke-width="0.1821" stroke="currentColor" x1="-0.1658" y1="-0.0374" x2="5.7157" y2="1.2882"/>
</a>
</g>
<g y-direction="-1" thickness="0.20000000" editableclass="OSOPadder" spontinieditable="true" pads-propid="121">
<a style="color:inherit;" xlink:href="textedit:///home/paolo/programmi/nuove-composizioni/Spontini-test/examples/easy-cross-staff-example-3.ly:158:1:2">
<g color="rgb(91.2000%, 93.4000%, 95.6000%)">
<rect transform="translate(60.8189, 92.8633)" x="-0.2000" y="-0.2000" width="7.0579" height="0.2000" ry="0.0000" fill="currentColor"/>
<rect transform="translate(67.4768, 94.5363)" x="0" y="-1.6730" width="0.2000" height="1.7072" ry="0.0000" fill="currentColor"/>
<rect transform="translate(60.8189, 94.7704)" x="-0.2000" y="-0.2000" width="7.0579" height="0.2000" ry="0.0000" fill="currentColor"/>
<rect transform="translate(60.6189, 94.5363)" x="0" y="-1.6730" width="0.2000" height="1.7072" ry="0.0000" fill="currentColor"/>
</g>
<text transform="translate(60.8189, 94.5363)" font-family="monospace" font-weight="bold" font-style="italic" font-size="2.2001" text-anchor="start" fill="currentColor">
<tspan>S Ped</tspan>
</text>
</a>
</g>
<g y-direction="-1" thickness="0.20000000" editableclass="OSOPadder" spontinieditable="true" pads-propid="120">
<a style="color:inherit;" xlink:href="textedit:///home/paolo/programmi/nuove-composizioni/Spontini-test/examples/easy-cross-staff-example-3.ly:158:1:2">
<g color="rgb(91.2000%, 93.4000%, 95.6000%)">
<rect transform="translate(62.1505, 90.7561)" x="-0.2000" y="-0.2000" width="4.3948" height="0.2000" ry="0.0000" fill="currentColor"/>
<rect transform="translate(66.1452, 92.4291)" x="0" y="-1.6730" width="0.2000" height="1.7072" ry="0.0000" fill="currentColor"/>
<rect transform="translate(62.1505, 92.6633)" x="-0.2000" y="-0.2000" width="4.3948" height="0.2000" ry="0.0000" fill="currentColor"/>
<rect transform="translate(61.9505, 92.4291)" x="0" y="-1.6730" width="0.2000" height="1.7072" ry="0.0000" fill="currentColor"/>
</g>
<text transform="translate(62.1505, 92.4291)" font-family="monospace" font-weight="bold" font-size="2.2001" text-anchor="start" fill="currentColor">
<tspan>Ped</tspan>
</text>
</a>
</g>
<g thickness="0.20000000" editableclass="OSOPadder" spontinieditable="true" y-direction="1" pads-propid="111">
<a style="color:inherit;" xlink:href="textedit:///home/paolo/programmi/nuove-composizioni/Spontini-test/examples/easy-cross-staff-example-3.ly:130:45:46">
<g color="rgb(91.2000%, 93.4000%, 95.6000%)">
<rect transform="translate(11.4906, 65.5613)" x="-0.2610" y="-0.2000" width="12.6598" height="0.2000" ry="0.0000" fill="currentColor"/>
<rect transform="translate(23.6893, 68.9663)" x="0" y="-3.4050" width="0.2000" height="3.5390" ry="0.0000" fill="currentColor"/>
<rect transform="translate(11.4906, 69.3003)" x="-0.2610" y="-0.2000" width="12.6598" height="0.2000" ry="0.0000" fill="currentColor"/>
<rect transform="translate(11.2296, 68.9663)" x="0" y="-3.4050" width="0.2000" height="3.5390" ry="0.0000" fill="currentColor"/>
</g>
<text transform="translate(11.4906, 68.9663)" font-family="monospace" font-size="2.2001" text-anchor="start" fill="currentColor">
<tspan>   </tspan>
</text>
</a>
</g>
<g y-direction="-1" thickness="0.20000000" editableclass="OSOPadder" spontinieditable="true" pads-propid="112">
<a style="color:inherit;" xlink:href="textedit:///home/paolo/programmi/nuove-composizioni/Spontini-test/examples/easy-cross-staff-example-3.ly:120:1:2">
<g color="rgb(91.2000%, 93.4000%, 95.6000%)">
<rect transform="translate(10.6404, 83.4372)" x="-0.2000" y="-0.2000" width="3.4046" height="0.2000" ry="0.0000" fill="currentColor"/>
<rect transform="translate(13.6450, 85.3963)" x="0" y="-1.9590" width="0.2000" height="2.6760" ry="0.0000" fill="currentColor"/>
<rect transform="translate(10.6404, 86.3133)" x="-0.2000" y="-0.2000" width="3.4046" height="0.2000" ry="0.0000" fill="currentColor"/>
<rect transform="translate(10.4404, 85.3963)" x="0" y="-1.9590" width="0.2000" height="2.6760" ry="0.0000" fill="currentColor"/>
</g>
<g transform="translate(10.6404, 85.3963)" >
<path transform="scale(0.0040, -0.0040)" d="M-41 146c26 76 82 153 149 153c22 0 36 -20 41 -45c22 26 51 45 81 45c23 0 38 -21 44 -46c22 27 51 46 80 46c33 0 59 -35 59 -69c0 -5 -1 -10 -2 -15l-35 -149c0 -2 -1 -4 -1 -5c0 -5 2 -8 7 -8c9 0 27 11 48 31c4 4 9 6 13 6c6 0 11 -4 11 -10c0 -4 -3 -8 -7 -12
c-40 -38 -85 -75 -131 -75c-20 0 -32 13 -32 32c0 4 0 7 1 11l39 165c1 5 2 9 2 14c0 10 -4 18 -14 18c-16 0 -33 -16 -39 -32l-53 -183c-3 -10 -12 -18 -22 -18h-41c-10 0 -16 8 -13 18l52 183c2 6 3 11 3 16c0 9 -4 16 -13 16c-16 0 -35 -15 -41 -32l-62 -183
c-3 -10 -14 -18 -24 -18h-41c-10 0 -15 8 -12 18l63 183c2 5 2 10 2 15c0 10 -3 17 -13 17c-29 0 -54 -53 -66 -87c-4 -11 -15 -17 -23 -17c-7 0 -12 4 -12 11c0 2 1 4 2 6z" fill="currentColor"/>

<path transform="translate(1.7413, 0.0000) scale(0.0040, -0.0040)" d="M253 245l-50 -163c-30 -99 -121 -255 -218 -255c-45 0 -87 27 -87 69c0 39 17 77 52 77c24 0 44 -20 44 -44c0 -30 -38 -24 -38 -54c0 -10 11 -11 23 -11h6c48 0 61 58 73 108l68 273h-49c-11 0 -19 8 -19 19s8 19 19 19h60c32 96 118 191 213 191c45 0 87 -27 87 -69
c0 -39 -17 -77 -52 -77c-24 0 -44 19 -44 43c0 30 38 25 38 55c0 10 -10 11 -22 11h-7c-62 0 -70 -88 -86 -154h55c11 0 19 -8 19 -19s-8 -19 -19 -19h-66z" fill="currentColor"/>
</g>
</a>
</g>
<g pads-propid="110" thickness="0.20000000" editableclass="OSOPadder" spontinieditable="true" y-direction="1">
<g color="rgb(91.2000%, 93.4000%, 95.6000%)">
<rect transform="translate(11.4906, 55.2190)" x="-1.0000" y="-0.2000" width="22.9817" height="0.2000" ry="0.0000" fill="currentColor"/>
<rect transform="translate(33.2722, 58.1095)" x="0" y="-2.8905" width="0.2000" height="3.7270" ry="0.0000" fill="currentColor"/>
<rect transform="translate(11.4906, 59.1460)" x="-1.0000" y="-0.2000" width="22.9817" height="0.2000" ry="0.0000" fill="currentColor"/>
<rect transform="translate(10.4906, 58.1095)" x="0" y="-2.8905" width="0.2000" height="3.7270" ry="0.0000" fill="currentColor"/>
</g>
<text transform="translate(10.6906, 58.9119)" font-family="serif" font-style="italic" font-size="2.2001" text-anchor="start" fill="currentColor">
<tspan>8va</tspan>
</text>
<line transform="translate(33.2153, 58.1095)" stroke-linejoin="round" stroke-linecap="round" stroke-width="0.1138" stroke="currentColor" x1="0" y1="0" x2="0.0000" y2="0.8000" stroke-dasharray="0.85,0.0"/>
<line transform="translate(14.9170, 58.1095)" stroke-linejoin="round" stroke-linecap="round" stroke-width="0.1138" stroke="currentColor" x1="0" y1="0" x2="0.0000" y2="-0.0000" stroke-dasharray="0.85,0.0"/>
<line transform="translate(14.9170, 58.1095)" stroke-linejoin="round" stroke-linecap="round" stroke-width="0.1138" stroke="currentColor" x1="0" y1="0" x2="18.2983" y2="-0.0000" stroke-dasharray="0.257722414841626,0.601352301297128"/>
</g>
<g y-direction="-1" thickness="0.20000000" editableclass="OSOPadder" spontinieditable="true" pads-propid="114">
<a style="color:inherit;" xlink:href="textedit:///home/paolo/programmi/nuove-composizioni/Spontini-test/examples/easy-cross-staff-example-3.ly:120:1:2">
<g color="rgb(91.2000%, 93.4000%, 95.6000%)">
<rect transform="translate(8.1616, 88.8714)" x="-0.2000" y="-0.2000" width="7.0579" height="0.2000" ry="0.0000" fill="currentColor"/>
<rect transform="translate(14.8195, 90.5445)" x="0" y="-1.6730" width="0.2000" height="1.7072" ry="0.0000" fill="currentColor"/>
<rect transform="translate(8.1616, 90.7786)" x="-0.2000" y="-0.2000" width="7.0579" height="0.2000" ry="0.0000" fill="currentColor"/>
<rect transform="translate(7.9616, 90.5445)" x="0" y="-1.6730" width="0.2000" height="1.7072" ry="0.0000" fill="currentColor"/>
</g>
<text transform="translate(8.1616, 90.5445)" font-family="monospace" font-weight="bold" font-style="italic" font-size="2.2001" text-anchor="start" fill="currentColor">
<tspan>S Ped</tspan>
</text>
</a>
</g>
<g y-direction="-1" thickness="0.20000000" editableclass="OSOPadder" spontinieditable="true" pads-propid="113">
<a style="color:inherit;" xlink:href="textedit:///home/paolo/programmi/nuove-composizioni/Spontini-test/examples/easy-cross-staff-example-3.ly:120:1:2">
<g color="rgb(91.2000%, 93.4000%, 95.6000%)">
<rect transform="translate(9.4932, 86.5133)" x="-0.2000" y="-0.2000" width="4.3948" height="0.2000" ry="0.0000" fill="currentColor"/>
<rect transform="translate(13.4879, 88.4373)" x="0" y="-1.9240" width="0.2000" height="1.9582" ry="0.0000" fill="currentColor"/>
<rect transform="translate(9.4932, 88.6714)" x="-0.2000" y="-0.2000" width="4.3948" height="0.2000" ry="0.0000" fill="currentColor"/>
<rect transform="translate(9.2932, 88.4373)" x="0" y="-1.9240" width="0.2000" height="1.9582" ry="0.0000" fill="currentColor"/>
</g>
<text transform="translate(9.4932, 88.4373)" font-family="monospace" font-weight="bold" font-size="2.2001" text-anchor="start" fill="currentColor">
<tspan>Ped</tspan>
</text>
</a>
</g>
<g pads-propid="109" thickness="0.20000000" editableclass="OSOPadder" spontinieditable="true" y-direction="1">
<a style="color:inherit;" xlink:href="textedit:///home/paolo/programmi/nuove-composizioni/Spontini-test/examples/easy-cross-staff-example-3.ly:130:9:10">
<g color="rgb(91.2000%, 93.4000%, 95.6000%)">
<rect transform="translate(11.4906, 59.3460)" x="-0.4610" y="-0.2000" width="15.3893" height="0.2000" ry="0.0000" fill="currentColor"/>
<rect transform="translate(26.2188, 60.9681)" x="0" y="-1.6220" width="0.2000" height="2.3691" ry="0.0000" fill="currentColor"/>
<rect transform="translate(11.4906, 61.9151)" x="-0.4610" y="-0.2000" width="15.3893" height="0.2000" ry="0.0000" fill="currentColor"/>
<rect transform="translate(11.0295, 60.9681)" x="0" y="-1.6220" width="0.2000" height="2.3691" ry="0.0000" fill="currentColor"/>
</g>
<line transform="translate(11.4906, 60.9681)" stroke-linejoin="round" stroke-linecap="round" stroke-width="0.1821" stroke="currentColor" x1="14.6372" y1="-0.0000" x2="14.6372" y2="0.5950"/>
<line transform="translate(11.4906, 60.9681)" stroke-linejoin="round" stroke-linecap="round" stroke-width="0.1821" stroke="currentColor" x1="-0.1700" y1="-0.0000" x2="-0.1700" y2="0.5950"/>
<line transform="translate(11.4906, 60.9681)" stroke-linejoin="round" stroke-linecap="round" stroke-width="0.1821" stroke="currentColor" x1="14.6372" y1="-0.0000" x2="8.3970" y2="-0.0000"/>
<line transform="translate(11.4906, 60.9681)" stroke-linejoin="round" stroke-linecap="round" stroke-width="0.1821" stroke="currentColor" x1="-0.1700" y1="-0.0000" x2="6.2702" y2="-0.0000"/>
</a>
</g>
<g gridcolor="#f0eee9" gridstep="1" gridify="true" isstaff="true">
<line transform="translate(5.6906, 73.6703)" stroke-linejoin="round" stroke-linecap="round" stroke-width="0.1138" stroke="currentColor" x1="0.0569" y1="-0.0000" x2="108.0636" y2="-0.0000"/>
<line transform="translate(5.6906, 72.8203)" stroke-linejoin="round" stroke-linecap="round" stroke-width="0.1138" stroke="currentColor" x1="0.0569" y1="-0.0000" x2="108.0636" y2="-0.0000"/>
<line transform="translate(5.6906, 71.9703)" stroke-linejoin="round" stroke-linecap="round" stroke-width="0.1138" stroke="currentColor" x1="0.0569" y1="-0.0000" x2="108.0636" y2="-0.0000"/>
<line transform="translate(5.6906, 71.1203)" stroke-linejoin="round" stroke-linecap="round" stroke-width="0.1138" stroke="currentColor" x1="0.0569" y1="-0.0000" x2="108.0636" y2="-0.0000"/>
<line transform="translate(5.6906, 70.2703)" stroke-linejoin="round" stroke-linecap="round" stroke-width="0.1138" stroke="currentColor" x1="0.0569" y1="-0.0000" x2="108.0636" y2="-0.0000"/>
</g>
<rect transform="translate(61.2417, 80.9703)" x="0.0000" y="-1.7569" width="0.2162" height="3.4569" ry="0.0000" fill="currentColor"/>
<rect transform="translate(61.2417, 55.0190)" x="0.0000" y="18.7082" width="0.2162" height="5.5431" ry="0.0000" fill="currentColor"/>
<rect transform="translate(113.5948, 55.0190)" x="0.0000" y="18.7082" width="0.2162" height="5.5431" ry="0.0000" fill="currentColor"/>
<rect transform="translate(113.5948, 80.9703)" x="0.0000" y="-1.7569" width="0.2162" height="3.4569" ry="0.0000" fill="currentColor"/>
<rect transform="translate(113.5948, 71.9703)" x="0.0000" y="-1.7000" width="0.2162" height="3.4569" ry="0.0000" fill="currentColor"/>
<rect transform="translate(61.2417, 71.9703)" x="0.0000" y="-1.7000" width="0.2162" height="3.4569" ry="0.0000" fill="currentColor"/>
<rect transform="translate(5.6906, 67.7203)" x="77.6476" y="-0.0994" width="1.9563" height="0.1988" ry="0.0994" fill="currentColor"/>
<rect transform="translate(5.6906, 68.5703)" x="77.6476" y="-0.0994" width="1.9563" height="0.1988" ry="0.0994" fill="currentColor"/>
<rect transform="translate(5.6906, 69.4203)" x="77.6476" y="-0.0994" width="1.9563" height="0.1988" ry="0.0994" fill="currentColor"/>
<rect transform="translate(5.6906, 68.5703)" x="58.1312" y="-0.0994" width="1.9563" height="0.1988" ry="0.0994" fill="currentColor"/>
<rect transform="translate(5.6906, 69.4203)" x="58.1312" y="-0.0994" width="1.9563" height="0.1988" ry="0.0994" fill="currentColor"/>
<rect transform="translate(5.6906, 67.7203)" x="25.2945" y="-0.0994" width="1.9563" height="0.1988" ry="0.0994" fill="currentColor"/>
<rect transform="translate(5.6906, 68.5703)" x="25.2945" y="-0.0994" width="1.9563" height="0.1988" ry="0.0994" fill="currentColor"/>
<rect transform="translate(5.6906, 69.4203)" x="25.2945" y="-0.0994" width="1.9563" height="0.1988" ry="0.0994" fill="currentColor"/>
<g gridcolor="#f0eee9" gridstep="1" gridify="true" isstaff="true">
<line transform="translate(5.6906, 82.6703)" stroke-linejoin="round" stroke-linecap="round" stroke-width="0.1138" stroke="currentColor" x1="0.0569" y1="-0.0000" x2="108.0636" y2="-0.0000"/>
<line transform="translate(5.6906, 81.8203)" stroke-linejoin="round" stroke-linecap="round" stroke-width="0.1138" stroke="currentColor" x1="0.0569" y1="-0.0000" x2="108.0636" y2="-0.0000"/>
<line transform="translate(5.6906, 80.9703)" stroke-linejoin="round" stroke-linecap="round" stroke-width="0.1138" stroke="currentColor" x1="0.0569" y1="-0.0000" x2="108.0636" y2="-0.0000"/>
<line transform="translate(5.6906, 80.1203)" stroke-linejoin="round" stroke-linecap="round" stroke-width="0.1138" stroke="currentColor" x1="0.0569" y1="-0.0000" x2="108.0636" y2="-0.0000"/>
<line transform="translate(5.6906, 79.2703)" stroke-linejoin="round" stroke-linecap="round" stroke-width="0.1138" stroke="currentColor" x1="0.0569" y1="-0.0000" x2="108.0636" y2="-0.0000"/>
</g>
<a style="color:inherit;" xlink:href="textedit:///home/paolo/programmi/nuove-composizioni/Spontini-test/examples/easy-cross-staff-example-3.ly:167:57:58">
<path transform="translate(70.6804, 80.5453) scale(0.0040, -0.0040)" d="M218 136c55 0 108 -28 108 -89c0 -71 -55 -121 -102 -149c-35 -21 -75 -34 -116 -34c-55 0 -108 28 -108 89c0 71 55 121 102 149c35 21 75 34 116 34z" fill="currentColor"/>
</a>
<rect transform="translate(77.3848, 80.9703)" x="-0.0740" y="-1.9389" width="0.1480" height="3.4918" ry="0.0400" fill="currentColor"/>
<rect transform="translate(70.7544, 80.9703)" x="-0.0740" y="-0.2389" width="0.1480" height="1.7918" ry="0.0400" fill="currentColor"/>
<a style="color:inherit;" xlink:href="textedit:///home/paolo/programmi/nuove-composizioni/Spontini-test/examples/easy-cross-staff-example-3.ly:167:65:66">
<path transform="translate(77.3108, 78.8453) scale(0.0040, -0.0040)" d="M218 136c55 0 108 -28 108 -89c0 -71 -55 -121 -102 -149c-35 -21 -75 -34 -116 -34c-55 0 -108 28 -108 89c0 71 55 121 102 149c35 21 75 34 116 34z" fill="currentColor"/>
</a>
<a style="color:inherit;" xlink:href="textedit:///home/paolo/programmi/nuove-composizioni/Spontini-test/examples/easy-cross-staff-example-3.ly:130:42:43">
<path transform="translate(11.4906, 67.9963)" stroke-width="0.0910" stroke-linejoin="round" stroke-linecap="round" stroke="currentColor" fill="currentColor" d="M0.6058 -3.0950C2.6533 -4.8602 18.0511 -6.5110 20.4263 -5.2200L20.4263 -5.2200C18.0657 -6.3752 2.6679 -4.7244 0.6058 -3.0950z"/>
</a>
<rect transform="translate(64.2218, 55.0190)" x="-0.0740" y="13.7374" width="0.1480" height="13.9708" ry="0.0400" fill="currentColor"/>
<a style="color:inherit;" xlink:href="textedit:///home/paolo/programmi/nuove-composizioni/Spontini-test/examples/easy-cross-staff-example-3.ly:158:1:2">
<line transform="translate(67.3452, 92.4291)" stroke-linejoin="round" stroke-linecap="round" stroke-width="0.1138" stroke="currentColor" x1="16.3190" y1="-0.0000" x2="16.3190" y2="-1.0000"/>
<line transform="translate(67.3452, 92.4291)" stroke-linejoin="round" stroke-linecap="round" stroke-width="0.1138" stroke="currentColor" x1="0.0000" y1="-0.0000" x2="0.0000" y2="-0.0000"/>
<line transform="translate(67.3452, 92.4291)" stroke-linejoin="round" stroke-linecap="round" stroke-width="0.1138" stroke="currentColor" x1="0.0000" y1="-0.0000" x2="16.3190" y2="-0.0000"/>
</a>
<a style="color:inherit;" xlink:href="textedit:///home/paolo/programmi/nuove-composizioni/Spontini-test/examples/easy-cross-staff-example-3.ly:158:1:2">
<line transform="translate(68.6768, 94.5363)" stroke-linejoin="round" stroke-linecap="round" stroke-width="0.1138" stroke="currentColor" x1="14.9874" y1="-0.0000" x2="14.9874" y2="-1.0000"/>
<line transform="translate(68.6768, 94.5363)" stroke-linejoin="round" stroke-linecap="round" stroke-width="0.1138" stroke="currentColor" x1="0.0000" y1="-0.0000" x2="0.0000" y2="-0.0000"/>
<line transform="translate(68.6768, 94.5363)" stroke-linejoin="round" stroke-linecap="round" stroke-width="0.1138" stroke="currentColor" x1="0.0000" y1="-0.0000" x2="14.9874" y2="-0.0000"/>
</a>
<a style="color:inherit;" xlink:href="textedit:///home/paolo/programmi/nuove-composizioni/Spontini-test/examples/easy-cross-staff-example-3.ly:167:9:10">
<text transform="translate(70.2400, 86.0393)" font-family="serif" font-style="italic" font-size="1.7461" text-anchor="start" fill="currentColor">
<tspan>3</tspan>
</text>
</a>
<a style="color:inherit;" xlink:href="textedit:///home/paolo/programmi/nuove-composizioni/Spontini-test/examples/easy-cross-staff-example-3.ly:158:1:2">
<line transform="translate(67.5023, 89.0391)" stroke-linejoin="round" stroke-linecap="round" stroke-width="0.1138" stroke="currentColor" x1="0.0000" y1="0.0000" x2="14.5507" y2="0.5666"/>
<line transform="translate(67.5023, 89.0391)" stroke-linejoin="round" stroke-linecap="round" stroke-width="0.1138" stroke="currentColor" x1="0.0000" y1="-0.0000" x2="14.5507" y2="-0.5666"/>
</a>
<a style="color:inherit;" xlink:href="textedit:///home/paolo/programmi/nuove-composizioni/Spontini-test/examples/easy-cross-staff-example-3.ly:167:30:31">
<polygon transform="translate(64.1478, 82.5232)" stroke-linejoin="round" stroke-linecap="round" stroke-width="0.0800" fill="currentColor" stroke="currentColor" points="13.2710 -0.1640 13.2710 0.1640 0.0400 0.1640 0.0400 -0.1640"/>
</a>
<a style="color:inherit;" xlink:href="textedit:///home/paolo/programmi/nuove-composizioni/Spontini-test/examples/easy-cross-staff-example-3.ly:146:1:2">
<path transform="translate(64.1478, 69.7193)" stroke-width="0.0910" stroke-linejoin="round" stroke-linecap="round" stroke="currentColor" fill="currentColor" d="M0.6332 -4.3700C2.7729 -5.9969 17.8765 -6.6547 20.1495 -5.2200L20.1495 -5.2200C17.8825 -6.5183 2.7788 -5.8605 0.6332 -4.3700z"/>
</a>
<a style="color:inherit;" xlink:href="textedit:///home/paolo/programmi/nuove-composizioni/Spontini-test/examples/easy-cross-staff-example-3.ly:120:1:2">
<line transform="translate(14.6879, 88.4373)" stroke-linejoin="round" stroke-linecap="round" stroke-width="0.1138" stroke="currentColor" x1="16.6232" y1="-0.0000" x2="16.6232" y2="-1.0000"/>
<line transform="translate(14.6879, 88.4373)" stroke-linejoin="round" stroke-linecap="round" stroke-width="0.1138" stroke="currentColor" x1="0.0000" y1="-0.0000" x2="0.0000" y2="-0.0000"/>
<line transform="translate(14.6879, 88.4373)" stroke-linejoin="round" stroke-linecap="round" stroke-width="0.1138" stroke="currentColor" x1="0.0000" y1="-0.0000" x2="16.6232" y2="-0.0000"/>
</a>
<a style="color:inherit;" xlink:href="textedit:///home/paolo/programmi/nuove-composizioni/Spontini-test/examples/easy-cross-staff-example-3.ly:120:1:2">
<line transform="translate(16.0195, 90.5445)" stroke-linejoin="round" stroke-linecap="round" stroke-width="0.1138" stroke="currentColor" x1="15.2916" y1="-0.0000" x2="15.2916" y2="-1.0000"/>
<line transform="translate(16.0195, 90.5445)" stroke-linejoin="round" stroke-linecap="round" stroke-width="0.1138" stroke="currentColor" x1="0.0000" y1="-0.0000" x2="0.0000" y2="-0.0000"/>
<line transform="translate(16.0195, 90.5445)" stroke-linejoin="round" stroke-linecap="round" stroke-width="0.1138" stroke="currentColor" x1="0.0000" y1="-0.0000" x2="15.2916" y2="-0.0000"/>
</a>
<a style="color:inherit;" xlink:href="textedit:///home/paolo/programmi/nuove-composizioni/Spontini-test/examples/easy-cross-staff-example-3.ly:120:1:2">
<line transform="translate(14.8450, 84.7963)" stroke-linejoin="round" stroke-linecap="round" stroke-width="0.1138" stroke="currentColor" x1="0.0000" y1="0.0000" x2="14.8550" y2="0.5666"/>
<line transform="translate(14.8450, 84.7963)" stroke-linejoin="round" stroke-linecap="round" stroke-width="0.1138" stroke="currentColor" x1="0.0000" y1="-0.0000" x2="14.8550" y2="-0.5666"/>
</a>
<a style="color:inherit;" xlink:href="textedit:///home/paolo/programmi/nuove-composizioni/Spontini-test/examples/easy-cross-staff-example-3.ly:131:33:34">
<polygon transform="translate(11.4906, 82.5232)" stroke-linejoin="round" stroke-linecap="round" stroke-width="0.0800" fill="currentColor" stroke="currentColor" points="13.2710 -0.1640 13.2710 0.1640 0.0400 0.1640 0.0400 -0.1640"/>
</a>
<a style="color:inherit;" xlink:href="textedit:///home/paolo/programmi/nuove-composizioni/Spontini-test/examples/easy-cross-staff-example-3.ly:130:9:10">
<text transform="translate(18.1608, 61.5997)" font-family="serif" font-style="italic" font-size="1.7461" text-anchor="start" fill="currentColor">
<tspan>3</tspan>
</text>
</a>
<a style="color:inherit;" xlink:href="textedit:///home/paolo/programmi/nuove-composizioni/Spontini-test/examples/easy-cross-staff-example-3.ly:166:76:77">
<path transform="translate(83.6642, 67.7203) scale(0.0040, -0.0040)" d="M218 136c55 0 108 -28 108 -89c0 -71 -55 -121 -102 -149c-35 -21 -75 -34 -116 -34c-55 0 -108 28 -108 89c0 71 55 121 102 149c35 21 75 34 116 34z" fill="currentColor"/>
</a>
<a style="color:inherit;" xlink:href="textedit:///home/paolo/programmi/nuove-composizioni/Spontini-test/examples/easy-cross-staff-example-3.ly:167:78:79">
<g transform="translate(83.0530, 89.6391)" >
<path transform="scale(0.0040, -0.0040)" d="M253 245l-50 -163c-30 -99 -121 -255 -218 -255c-45 0 -87 27 -87 69c0 39 17 77 52 77c24 0 44 -20 44 -44c0 -30 -38 -24 -38 -54c0 -10 11 -11 23 -11h6c48 0 61 58 73 108l68 273h-49c-11 0 -19 8 -19 19s8 19 19 19h60c32 96 118 191 213 191c45 0 87 -27 87 -69
c0 -39 -17 -77 -52 -77c-24 0 -44 19 -44 43c0 30 38 25 38 55c0 10 -10 11 -22 11h-7c-62 0 -70 -88 -86 -154h55c11 0 19 -8 19 -19s-8 -19 -19 -19h-66z" fill="currentColor"/>

<path transform="translate(1.2633, 0.0000) scale(0.0040, -0.0040)" d="M253 245l-50 -163c-30 -99 -121 -255 -218 -255c-45 0 -87 27 -87 69c0 39 17 77 52 77c24 0 44 -20 44 -44c0 -30 -38 -24 -38 -54c0 -10 11 -11 23 -11h6c48 0 61 58 73 108l68 273h-49c-11 0 -19 8 -19 19s8 19 19 19h60c32 96 118 191 213 191c45 0 87 -27 87 -69
c0 -39 -17 -77 -52 -77c-24 0 -44 19 -44 43c0 30 38 25 38 55c0 10 -10 11 -22 11h-7c-62 0 -70 -88 -86 -154h55c11 0 19 -8 19 -19s-8 -19 -19 -19h-66z" fill="currentColor"/>
</g>
</a>
<rect transform="translate(83.7382, 71.9703)" x="-0.0740" y="-4.0639" width="0.1480" height="4.0639" ry="0.0400" fill="currentColor"/>
<a style="color:inherit;" xlink:href="textedit:///home/paolo/programmi/nuove-composizioni/Spontini-test/examples/easy-cross-staff-example-3.ly:166:110:111">
<path transform="translate(98.8066, 71.9703) scale(0.0040, -0.0040)" d="M-23 -116c0 28 11 42 40 42c33 0 78 -13 119 -31l-132 158c-7 9 -10 17 -10 25c0 34 50 66 87 99c25 22 37 52 37 83c0 24 -8 49 -25 69l-35 42c-3 3 -4 7 -4 10c0 9 9 15 17 15c4 0 8 -1 11 -5l151 -180c7 -9 10 -17 10 -25c0 -34 -50 -66 -87 -99
c-25 -22 -37 -52 -37 -83c0 -24 7 -49 24 -69l84 -99c3 -3 4 -7 4 -10c0 -9 -8 -16 -16 -16c-4 0 -9 2 -12 6c-18 21 -63 38 -97 38c-41 0 -53 -26 -53 -67c0 -35 11 -74 28 -94c5 -6 0 -13 -6 -13c-2 0 -4 0 -6 2c-45 54 -92 148 -92 202z" fill="currentColor"/>
</a>
<g color="rgb(100.0000%, 0.0000%, 0.0000%)">
</g>
<rect transform="translate(11.5645, 71.9703)" x="-0.0740" y="-1.9389" width="0.1480" height="2.7889" ry="0.0400" fill="currentColor"/>
<g color="rgb(100.0000%, 0.0000%, 0.0000%)">
</g>
<rect transform="translate(11.5645, 80.9703)" x="-0.0740" y="-8.3139" width="0.1480" height="0.0000" ry="0.0000" fill="currentColor"/>
<rect transform="translate(11.5645, 55.0190)" x="-0.0740" y="15.0124" width="0.1480" height="12.6958" ry="0.0400" fill="currentColor"/>
<a style="color:inherit;" xlink:href="textedit:///home/paolo/programmi/nuove-composizioni/Spontini-test/examples/easy-cross-staff-example-3.ly:131:54:55">
<path transform="translate(18.0231, 80.5453) scale(0.0040, -0.0040)" d="M218 136c55 0 108 -28 108 -89c0 -71 -55 -121 -102 -149c-35 -21 -75 -34 -116 -34c-55 0 -108 28 -108 89c0 71 55 121 102 149c35 21 75 34 116 34z" fill="currentColor"/>
</a>
<path transform="translate(5.3085, 76.4703) scale(0.0040, -0.0040)" d="M-18 -474c0 -249 -96 -495 -96 -729c0 -129 30 -249 126 -342c3 -3 3 -6 3 -9c0 -9 -6 -18 -15 -18c-3 0 -9 3 -12 6c-129 126 -171 297 -171 477c0 255 102 501 102 741c0 129 -30 249 -123 342c-3 3 -6 3 -6 6s3 3 6 6c93 93 123 213 123 342c0 240 -102 486 -102 741
c0 180 42 351 171 477c3 3 9 6 12 6c9 0 15 -9 15 -18c0 -3 0 -6 -3 -9c-96 -93 -126 -213 -126 -342c0 -234 96 -480 96 -729c0 -177 -42 -348 -165 -474c123 -126 165 -297 165 -474z" fill="currentColor"/>
<rect transform="translate(5.6085, 76.4703)" x="0.0000" y="-6.2569" width="0.1821" height="12.5138" ry="0.0569" fill="currentColor"/>
<text transform="translate(4.5638, 69.1862)" font-family="serif" font-size="1.7461" text-anchor="start" fill="currentColor">
<tspan>3</tspan>
</text>
<path transform="translate(6.4906, 72.8203) scale(0.0040, -0.0040)" d="M376 262c4 0 9 1 13 1c155 0 256 -128 256 -261c0 -76 -33 -154 -107 -210c-22 -17 -47 -28 -73 -36c3 -35 5 -70 5 -105c0 -19 -1 -39 -2 -58c-7 -120 -90 -228 -208 -228c-108 0 -195 88 -195 197c0 58 53 103 112 103c54 0 95 -47 95 -103c0 -52 -43 -95 -95 -95
c-11 0 -21 2 -31 6c26 -39 68 -65 117 -65c96 0 157 92 163 191c1 18 2 37 2 55c0 31 -1 61 -4 92c-29 -5 -58 -8 -89 -8c-188 0 -333 172 -333 374c0 177 131 306 248 441c-19 62 -37 125 -45 190c-6 52 -7 104 -7 156c0 115 55 224 149 292c3 2 7 3 10 3c4 0 7 0 10 -3
c71 -84 133 -245 133 -358c0 -143 -86 -255 -180 -364c21 -68 39 -138 56 -207zM461 -203c68 24 113 95 113 164c0 90 -66 179 -173 190c24 -116 46 -231 60 -354zM74 28c0 -135 129 -247 264 -247c28 0 55 2 82 6c-14 127 -37 245 -63 364c-79 -8 -124 -61 -124 -119
c0 -44 25 -91 81 -123c5 -5 7 -10 7 -15c0 -11 -10 -22 -22 -22c-3 0 -6 1 -9 2c-80 43 -117 115 -117 185c0 88 58 174 160 197c-14 58 -29 117 -46 175c-107 -121 -213 -243 -213 -403zM408 1045c-99 -48 -162 -149 -162 -259c0 -74 18 -133 36 -194
c80 97 146 198 146 324c0 55 -4 79 -20 129z" fill="currentColor"/>
<path transform="translate(6.4906, 81.8203) scale(0.0040, -0.0040)" d="M376 262c4 0 9 1 13 1c155 0 256 -128 256 -261c0 -76 -33 -154 -107 -210c-22 -17 -47 -28 -73 -36c3 -35 5 -70 5 -105c0 -19 -1 -39 -2 -58c-7 -120 -90 -228 -208 -228c-108 0 -195 88 -195 197c0 58 53 103 112 103c54 0 95 -47 95 -103c0 -52 -43 -95 -95 -95
c-11 0 -21 2 -31 6c26 -39 68 -65 117 -65c96 0 157 92 163 191c1 18 2 37 2 55c0 31 -1 61 -4 92c-29 -5 -58 -8 -89 -8c-188 0 -333 172 -333 374c0 177 131 306 248 441c-19 62 -37 125 -45 190c-6 52 -7 104 -7 156c0 115 55 224 149 292c3 2 7 3 10 3c4 0 7 0 10 -3
c71 -84 133 -245 133 -358c0 -143 -86 -255 -180 -364c21 -68 39 -138 56 -207zM461 -203c68 24 113 95 113 164c0 90 -66 179 -173 190c24 -116 46 -231 60 -354zM74 28c0 -135 129 -247 264 -247c28 0 55 2 82 6c-14 127 -37 245 -63 364c-79 -8 -124 -61 -124 -119
c0 -44 25 -91 81 -123c5 -5 7 -10 7 -15c0 -11 -10 -22 -22 -22c-3 0 -6 1 -9 2c-80 43 -117 115 -117 185c0 88 58 174 160 197c-14 58 -29 117 -46 175c-107 -121 -213 -243 -213 -403zM408 1045c-99 -48 -162 -149 -162 -259c0 -74 18 -133 36 -194
c80 97 146 198 146 324c0 55 -4 79 -20 129z" fill="currentColor"/>
<a style="color:inherit;" xlink:href="textedit:///home/paolo/programmi/nuove-composizioni/Spontini-test/examples/easy-cross-staff-example-3.ly:130:36:37">
<path transform="translate(11.4906, 69.8453) scale(0.0040, -0.0040)" d="M218 136c55 0 108 -28 108 -89c0 -71 -55 -121 -102 -149c-35 -21 -75 -34 -116 -34c-55 0 -108 28 -108 89c0 71 55 121 102 149c35 21 75 34 116 34z" fill="currentColor"/>
</a>
<a style="color:inherit;" xlink:href="textedit:///home/paolo/programmi/nuove-composizioni/Spontini-test/examples/easy-cross-staff-example-3.ly:130:36:37">
<path transform="translate(11.4906, 69.8453) scale(0.0040, -0.0040)" d="M218 136c55 0 108 -28 108 -89c0 -71 -55 -121 -102 -149c-35 -21 -75 -34 -116 -34c-55 0 -108 28 -108 89c0 71 55 121 102 149c35 21 75 34 116 34z" fill="currentColor"/>
</a>
<rect transform="translate(18.0971, 80.9703)" x="-0.0740" y="-0.2389" width="0.1480" height="1.7918" ry="0.0400" fill="currentColor"/>
<rect transform="translate(24.7275, 55.0190)" x="-0.0740" y="17.1374" width="0.1480" height="10.5708" ry="0.0400" fill="currentColor"/>
<a style="color:inherit;" xlink:href="textedit:///home/paolo/programmi/nuove-composizioni/Spontini-test/examples/easy-cross-staff-example-3.ly:130:77:78">
<path transform="translate(31.3111, 67.7203) scale(0.0040, -0.0040)" d="M218 136c55 0 108 -28 108 -89c0 -71 -55 -121 -102 -149c-35 -21 -75 -34 -116 -34c-55 0 -108 28 -108 89c0 71 55 121 102 149c35 21 75 34 116 34z" fill="currentColor"/>
</a>
<a style="color:inherit;" xlink:href="textedit:///home/paolo/programmi/nuove-composizioni/Spontini-test/examples/easy-cross-staff-example-3.ly:131:79:80">
<g transform="translate(30.6999, 85.3963)" >
<path transform="scale(0.0040, -0.0040)" d="M253 245l-50 -163c-30 -99 -121 -255 -218 -255c-45 0 -87 27 -87 69c0 39 17 77 52 77c24 0 44 -20 44 -44c0 -30 -38 -24 -38 -54c0 -10 11 -11 23 -11h6c48 0 61 58 73 108l68 273h-49c-11 0 -19 8 -19 19s8 19 19 19h60c32 96 118 191 213 191c45 0 87 -27 87 -69
c0 -39 -17 -77 -52 -77c-24 0 -44 19 -44 43c0 30 38 25 38 55c0 10 -10 11 -22 11h-7c-62 0 -70 -88 -86 -154h55c11 0 19 -8 19 -19s-8 -19 -19 -19h-66z" fill="currentColor"/>

<path transform="translate(1.2633, 0.0000) scale(0.0040, -0.0040)" d="M253 245l-50 -163c-30 -99 -121 -255 -218 -255c-45 0 -87 27 -87 69c0 39 17 77 52 77c24 0 44 -20 44 -44c0 -30 -38 -24 -38 -54c0 -10 11 -11 23 -11h6c48 0 61 58 73 108l68 273h-49c-11 0 -19 8 -19 19s8 19 19 19h60c32 96 118 191 213 191c45 0 87 -27 87 -69
c0 -39 -17 -77 -52 -77c-24 0 -44 19 -44 43c0 30 38 25 38 55c0 10 -10 11 -22 11h-7c-62 0 -70 -88 -86 -154h55c11 0 19 -8 19 -19s-8 -19 -19 -19h-66z" fill="currentColor"/>
</g>
</a>
<rect transform="translate(31.3851, 71.9703)" x="-0.0740" y="-4.0639" width="0.1480" height="4.0639" ry="0.0400" fill="currentColor"/>
<a style="color:inherit;" xlink:href="textedit:///home/paolo/programmi/nuove-composizioni/Spontini-test/examples/easy-cross-staff-example-3.ly:130:111:112">
<path transform="translate(46.4535, 71.9703) scale(0.0040, -0.0040)" d="M-23 -116c0 28 11 42 40 42c33 0 78 -13 119 -31l-132 158c-7 9 -10 17 -10 25c0 34 50 66 87 99c25 22 37 52 37 83c0 24 -8 49 -25 69l-35 42c-3 3 -4 7 -4 10c0 9 9 15 17 15c4 0 8 -1 11 -5l151 -180c7 -9 10 -17 10 -25c0 -34 -50 -66 -87 -99
c-25 -22 -37 -52 -37 -83c0 -24 7 -49 24 -69l84 -99c3 -3 4 -7 4 -10c0 -9 -8 -16 -16 -16c-4 0 -9 2 -12 6c-18 21 -63 38 -97 38c-41 0 -53 -26 -53 -67c0 -35 11 -74 28 -94c5 -6 0 -13 -6 -13c-2 0 -4 0 -6 2c-45 54 -92 148 -92 202z" fill="currentColor"/>
</a>
<a style="color:inherit;" xlink:href="textedit:///home/paolo/programmi/nuove-composizioni/Spontini-test/examples/easy-cross-staff-example-3.ly:166:40:41">
<path transform="translate(64.1478, 68.5703) scale(0.0040, -0.0040)" d="M218 136c55 0 108 -28 108 -89c0 -71 -55 -121 -102 -149c-35 -21 -75 -34 -116 -34c-55 0 -108 28 -108 89c0 71 55 121 102 149c35 21 75 34 116 34z" fill="currentColor"/>
</a>
<a style="color:inherit;" xlink:href="textedit:///home/paolo/programmi/nuove-composizioni/Spontini-test/examples/easy-cross-staff-example-3.ly:166:40:41">
<path transform="translate(64.1478, 68.5703) scale(0.0040, -0.0040)" d="M218 136c55 0 108 -28 108 -89c0 -71 -55 -121 -102 -149c-35 -21 -75 -34 -116 -34c-55 0 -108 28 -108 89c0 71 55 121 102 149c35 21 75 34 116 34z" fill="currentColor"/>
</a>
<g color="rgb(100.0000%, 0.0000%, 0.0000%)">
</g>
<g color="rgb(100.0000%, 0.0000%, 0.0000%)">
</g>
<rect transform="translate(64.2218, 71.9703)" x="-0.0740" y="-3.2139" width="0.1480" height="3.2139" ry="0.0400" fill="currentColor"/>
<a style="color:inherit;" xlink:href="textedit:///home/paolo/programmi/nuove-composizioni/Spontini-test/examples/easy-cross-staff-example-3.ly:131:62:63">
<path transform="translate(24.6536, 78.8453) scale(0.0040, -0.0040)" d="M218 136c55 0 108 -28 108 -89c0 -71 -55 -121 -102 -149c-35 -21 -75 -34 -116 -34c-55 0 -108 28 -108 89c0 71 55 121 102 149c35 21 75 34 116 34z" fill="currentColor"/>
</a>
<a style="color:inherit;" xlink:href="textedit:///home/paolo/programmi/nuove-composizioni/Spontini-test/examples/easy-cross-staff-example-3.ly:130:63:64">
<path transform="translate(24.6536, 72.8203) scale(0.0040, -0.0040)" d="M218 136c55 0 108 -28 108 -89c0 -71 -55 -121 -102 -149c-35 -21 -75 -34 -116 -34c-55 0 -108 28 -108 89c0 71 55 121 102 149c35 21 75 34 116 34z" fill="currentColor"/>
</a>
<a style="color:inherit;" xlink:href="textedit:///home/paolo/programmi/nuove-composizioni/Spontini-test/examples/easy-cross-staff-example-3.ly:130:67:68">
<path transform="translate(24.6536, 71.9703) scale(0.0040, -0.0040)" d="M218 136c55 0 108 -28 108 -89c0 -71 -55 -121 -102 -149c-35 -21 -75 -34 -116 -34c-55 0 -108 28 -108 89c0 71 55 121 102 149c35 21 75 34 116 34z" fill="currentColor"/>
</a>
<a style="color:inherit;" xlink:href="textedit:///home/paolo/programmi/nuove-composizioni/Spontini-test/examples/easy-cross-staff-example-3.ly:130:63:64">
<path transform="translate(24.6536, 72.8203) scale(0.0040, -0.0040)" d="M218 136c55 0 108 -28 108 -89c0 -71 -55 -121 -102 -149c-35 -21 -75 -34 -116 -34c-55 0 -108 28 -108 89c0 71 55 121 102 149c35 21 75 34 116 34z" fill="currentColor"/>
</a>
<a style="color:inherit;" xlink:href="textedit:///home/paolo/programmi/nuove-composizioni/Spontini-test/examples/easy-cross-staff-example-3.ly:130:67:68">
<path transform="translate(24.6536, 71.9703) scale(0.0040, -0.0040)" d="M218 136c55 0 108 -28 108 -89c0 -71 -55 -121 -102 -149c-35 -21 -75 -34 -116 -34c-55 0 -108 28 -108 89c0 71 55 121 102 149c35 21 75 34 116 34z" fill="currentColor"/>
</a>
<rect transform="translate(24.7275, 71.9703)" x="-0.0740" y="0.1861" width="0.1480" height="3.3201" ry="0.0400" fill="currentColor"/>
<a transform="translate(28.9194, 165.1170)" xlink:href="http://lilypond.org/">
<rect x="0.0000" y="-0.4780" width="61.6628" height="2.1510" fill="none" stroke="none" stroke-width="0.0"/>
</a>
<text transform="translate(28.9194, 165.1170)" font-family="serif" font-size="2.2001" text-anchor="start" fill="currentColor">
<tspan>Music engraving by LilyPond 2.20.0www.lilypond.org</tspan>
</text>
</svg>
