<svg xmlns="http://www.w3.org/2000/svg" xmlns:xlink="http://www.w3.org/1999/xlink" version="1.2" width="210.00mm" height="297.00mm" viewBox="0 0 119.5016 169.0094">
<style type="text/css">
<![CDATA[
tspan { white-space: pre; }
]]>
</style>
<!-- Page: 1/1 -->
<g transform="translate(14.2264, 9.6243)">
<line stroke-linejoin="round" stroke-linecap="round" stroke-width="0.1000" stroke="currentColor" x1="0.0500" y1="0" x2="60.6514" y2="0"/>
</g>
<g transform="translate(14.2264, 8.6243)">
<line stroke-linejoin="round" stroke-linecap="round" stroke-width="0.1000" stroke="currentColor" x1="0.0500" y1="0" x2="60.6514" y2="0"/>
</g>
<g transform="translate(14.2264, 7.6243)">
<line stroke-linejoin="round" stroke-linecap="round" stroke-width="0.1000" stroke="currentColor" x1="0.0500" y1="0" x2="60.6514" y2="0"/>
</g>
<g transform="translate(14.2264, 6.6243)">
<line stroke-linejoin="round" stroke-linecap="round" stroke-width="0.1000" stroke="currentColor" x1="0.0500" y1="0" x2="60.6514" y2="0"/>
</g>
<g transform="translate(14.2264, 5.6243)">
<line stroke-linejoin="round" stroke-linecap="round" stroke-width="0.1000" stroke="currentColor" x1="0.0500" y1="0" x2="60.6514" y2="0"/>
</g>
<g transform="translate(48.4497, 7.6243)">
<rect x="0.0000" y="-2.0000" width="0.1900" height="4.0000" ry="0.0000" fill="currentColor"/>
</g>
<g transform="translate(35.1721, 7.6243)">
<rect x="0.0000" y="-2.0000" width="0.1900" height="4.0000" ry="0.0000" fill="currentColor"/>
</g>
<g transform="translate(66.5877, 7.6243)">
<rect x="0.0000" y="-2.0000" width="0.1900" height="4.0000" ry="0.0000" fill="currentColor"/>
</g>
<g transform="translate(74.7377, 7.6243)">
<rect x="0.0000" y="-2.0000" width="0.1900" height="4.0000" ry="0.0000" fill="currentColor"/>
</g>
<g transform="translate(5.6906, 10.6243)">
<rect x="62.4966" y="-0.1000" width="2.9430" height="0.2000" ry="0.1000" fill="currentColor"/>
</g>
<g transform="translate(5.6906, 10.6243)">
<rect x="39.2523" y="-0.1000" width="1.9563" height="0.2000" ry="0.1000" fill="currentColor"/>
</g>
<g transform="translate(5.6906, 10.6243)">
<rect x="16.9098" y="-0.1000" width="1.9563" height="0.2000" ry="0.1000" fill="currentColor"/>
</g>
<g transform="translate(59.1958, 7.6243)">
<rect x="-0.0650" y="-0.8100" width="0.1300" height="3.1239" ry="0.0400" fill="currentColor"/>
</g>
<a style="color:inherit;" xlink:href="textedit:///home/paolo/Desktop/SPONTINI/Spontini/lib/../examples/exclude-selections-example.ly:35:10:11">
<g transform="translate(55.8523, 10.1243)">
<path transform="scale(0.0040, -0.0040)" d="M218 136c55 0 108 -28 108 -89c0 -71 -55 -121 -102 -149c-35 -21 -75 -34 -116 -34c-55 0 -108 28 -108 89c0 71 55 121 102 149c35 21 75 34 116 34z" fill="currentColor"/>
</g>
</a>
<g transform="translate(57.0916, 7.6243)">
<rect x="-0.0650" y="-0.8100" width="0.1300" height="3.1239" ry="0.0400" fill="currentColor"/>
</g>
<a style="color:inherit;" xlink:href="textedit:///home/paolo/Desktop/SPONTINI/Spontini/lib/../examples/exclude-selections-example.ly:35:13:14">
<g transform="translate(57.9566, 10.1243)">
<path transform="scale(0.0040, -0.0040)" d="M218 136c55 0 108 -28 108 -89c0 -71 -55 -121 -102 -149c-35 -21 -75 -34 -116 -34c-55 0 -108 28 -108 89c0 71 55 121 102 149c35 21 75 34 116 34z" fill="currentColor"/>
</g>
</a>
<a style="color:inherit;" xlink:href="textedit:///home/paolo/Desktop/SPONTINI/Spontini/lib/../examples/exclude-selections-example.ly:35:16:17">
<g transform="translate(60.0608, 10.1243)">
<path transform="scale(0.0040, -0.0040)" d="M218 136c55 0 108 -28 108 -89c0 -71 -55 -121 -102 -149c-35 -21 -75 -34 -116 -34c-55 0 -108 28 -108 89c0 71 55 121 102 149c35 21 75 34 116 34z" fill="currentColor"/>
</g>
</a>
<g transform="translate(61.3000, 7.6243)">
<rect x="-0.0650" y="-0.8100" width="0.1300" height="3.1239" ry="0.0400" fill="currentColor"/>
</g>
<g transform="translate(50.7139, 6.8143)">
<polygon stroke-linejoin="round" stroke-linecap="round" stroke-width="0.0800" fill="currentColor" stroke="currentColor" points="6.4026 -0.2000 6.4026 0.2000 0.0400 0.2000 0.0400 -0.2000"/>
</g>
<a style="color:inherit;" xlink:href="textedit:///home/paolo/Desktop/SPONTINI/Spontini/lib/../examples/exclude-selections-example.ly:35:4:5">
<g transform="translate(51.6439, 10.1243)">
<path transform="scale(0.0040, -0.0040)" d="M218 136c55 0 108 -28 108 -89c0 -71 -55 -121 -102 -149c-35 -21 -75 -34 -116 -34c-55 0 -108 28 -108 89c0 71 55 121 102 149c35 21 75 34 116 34z" fill="currentColor"/>
</g>
</a>
<g transform="translate(52.8831, 7.6243)">
<rect x="-0.0650" y="-0.8100" width="0.1300" height="3.1239" ry="0.0400" fill="currentColor"/>
</g>
<a style="color:inherit;" xlink:href="textedit:///home/paolo/Desktop/SPONTINI/Spontini/lib/../examples/exclude-selections-example.ly:35:7:8">
<g transform="translate(53.7481, 10.1243)">
<path transform="scale(0.0040, -0.0040)" d="M218 136c55 0 108 -28 108 -89c0 -71 -55 -121 -102 -149c-35 -21 -75 -34 -116 -34c-55 0 -108 28 -108 89c0 71 55 121 102 149c35 21 75 34 116 34z" fill="currentColor"/>
</g>
</a>
<g transform="translate(54.9873, 7.6243)">
<rect x="-0.0650" y="-0.8100" width="0.1300" height="3.1239" ry="0.0400" fill="currentColor"/>
</g>
<g transform="translate(59.1308, 6.8143)">
<polygon stroke-linejoin="round" stroke-linecap="round" stroke-width="0.0800" fill="currentColor" stroke="currentColor" points="6.4026 -0.2000 6.4026 0.2000 0.0400 0.2000 0.0400 -0.2000"/>
</g>
<a style="color:inherit;" xlink:href="textedit:///home/paolo/Desktop/SPONTINI/Spontini/lib/../examples/exclude-selections-example.ly:35:19:20">
<g transform="translate(62.1650, 10.1243)">
<path transform="scale(0.0040, -0.0040)" d="M218 136c55 0 108 -28 108 -89c0 -71 -55 -121 -102 -149c-35 -21 -75 -34 -116 -34c-55 0 -108 28 -108 89c0 71 55 121 102 149c35 21 75 34 116 34z" fill="currentColor"/>
</g>
</a>
<g transform="translate(63.4042, 7.6243)">
<rect x="-0.0650" y="-0.8100" width="0.1300" height="3.1239" ry="0.0400" fill="currentColor"/>
</g>
<a style="color:inherit;" xlink:href="textedit:///home/paolo/Desktop/SPONTINI/Spontini/lib/../examples/exclude-selections-example.ly:35:22:23">
<g transform="translate(64.2692, 10.1243)">
<path transform="scale(0.0040, -0.0040)" d="M218 136c55 0 108 -28 108 -89c0 -71 -55 -121 -102 -149c-35 -21 -75 -34 -116 -34c-55 0 -108 28 -108 89c0 71 55 121 102 149c35 21 75 34 116 34z" fill="currentColor"/>
</g>
</a>
<g transform="translate(65.5084, 7.6243)">
<rect x="-0.0650" y="-0.8100" width="0.1300" height="3.1239" ry="0.0400" fill="currentColor"/>
</g>
<a style="color:inherit;" xlink:href="textedit:///home/paolo/Desktop/SPONTINI/Spontini/lib/../examples/exclude-selections-example.ly:39:0:1">
<g transform="translate(68.6777, 10.6243)">
<path transform="scale(0.0040, -0.0040)" d="M213 112c-50 0 -69 -43 -69 -88c0 -77 57 -136 134 -136c50 0 69 43 69 88c0 77 -57 136 -134 136zM491 0c0 -43 -34 -75 -72 -96c-53 -29 -114 -40 -174 -40s-120 11 -173 40c-38 21 -72 53 -72 96s34 75 72 96c53 29 113 40 173 40s121 -11 174 -40
c38 -21 72 -53 72 -96z" fill="currentColor"/>
</g>
</a>
<a style="color:inherit;" xlink:href="textedit:///home/paolo/Desktop/SPONTINI/Spontini/lib/../examples/exclude-selections-example.ly:27:7:8">
<g transform="translate(28.9309, 9.6243)">
<path transform="scale(0.0040, -0.0040)" d="M218 136c55 0 108 -28 108 -89c0 -71 -55 -121 -102 -149c-35 -21 -75 -34 -116 -34c-55 0 -108 28 -108 89c0 71 55 121 102 149c35 21 75 34 116 34z" fill="currentColor"/>
</g>
</a>
<g transform="translate(30.1701, 7.6243)">
<rect x="-0.0650" y="-1.5000" width="0.1300" height="3.3139" ry="0.0400" fill="currentColor"/>
</g>
<a style="color:inherit;" xlink:href="textedit:///home/paolo/Desktop/SPONTINI/Spontini/lib/../examples/exclude-selections-example.ly:27:10:11">
<g transform="translate(31.9331, 9.1243)">
<path transform="scale(0.0040, -0.0040)" d="M218 136c55 0 108 -28 108 -89c0 -71 -55 -121 -102 -149c-35 -21 -75 -34 -116 -34c-55 0 -108 28 -108 89c0 71 55 121 102 149c35 21 75 34 116 34z" fill="currentColor"/>
</g>
</a>
<g transform="translate(33.1724, 7.6243)">
<rect x="-0.0650" y="-2.0000" width="0.1300" height="3.3139" ry="0.0400" fill="currentColor"/>
</g>
<a style="color:inherit;" xlink:href="textedit:///home/paolo/Desktop/SPONTINI/Spontini/lib/../examples/exclude-selections-example.ly:31:0:1">
<g transform="translate(36.2621, 9.1243)">
<path transform="scale(0.0040, -0.0040)" d="M218 136c55 0 108 -28 108 -89c0 -71 -55 -121 -102 -149c-35 -21 -75 -34 -116 -34c-55 0 -108 28 -108 89c0 71 55 121 102 149c35 21 75 34 116 34z" fill="currentColor"/>
</g>
</a>
<g transform="translate(37.5013, 7.6243)">
<rect x="-0.0650" y="-2.0000" width="0.1300" height="3.3139" ry="0.0400" fill="currentColor"/>
</g>
<a style="color:inherit;" xlink:href="textedit:///home/paolo/Desktop/SPONTINI/Spontini/lib/../examples/exclude-selections-example.ly:27:0:1">
<g transform="translate(22.9264, 10.6243)">
<path transform="scale(0.0040, -0.0040)" d="M218 136c55 0 108 -28 108 -89c0 -71 -55 -121 -102 -149c-35 -21 -75 -34 -116 -34c-55 0 -108 28 -108 89c0 71 55 121 102 149c35 21 75 34 116 34z" fill="currentColor"/>
</g>
</a>
<g transform="translate(15.0264, 8.6243)">
<path transform="scale(0.0040, -0.0040)" d="M266 -635h-6c-108 0 -195 88 -195 197c0 58 53 103 112 103c54 0 95 -47 95 -103c0 -52 -43 -95 -95 -95c-11 0 -21 2 -31 6c26 -39 68 -65 117 -65h4zM461 -203c68 24 113 95 113 164c0 90 -66 179 -173 190c24 -116 46 -231 60 -354zM74 28c0 -135 129 -247 264 -247
c28 0 55 2 82 6c-14 127 -37 245 -63 364c-79 -8 -124 -61 -124 -119c0 -44 25 -91 81 -123c5 -5 7 -10 7 -15c0 -11 -10 -22 -22 -22c-3 0 -6 1 -9 2c-80 43 -117 115 -117 185c0 88 58 174 160 197c-14 58 -29 117 -46 175c-107 -121 -213 -243 -213 -403zM335 -262
c-188 0 -333 172 -333 374c0 177 131 306 248 441c-19 62 -37 125 -45 190c-6 52 -7 104 -7 156c0 115 55 224 149 292c6 5 14 5 20 0c71 -84 133 -245 133 -358c0 -143 -86 -255 -180 -364c21 -68 39 -138 56 -207c4 0 9 1 13 1c155 0 256 -128 256 -261
c0 -76 -33 -154 -107 -210c-22 -17 -47 -28 -73 -36c3 -35 5 -70 5 -105c0 -19 -1 -39 -2 -58c-7 -119 -88 -225 -202 -228l1 43c93 2 153 92 159 191c1 18 2 37 2 55c0 31 -1 61 -4 92c-29 -5 -58 -8 -89 -8zM428 916c0 55 -4 79 -20 129c-99 -48 -162 -149 -162 -259
c0 -74 18 -133 36 -194c80 97 146 198 146 324z" fill="currentColor"/>
</g>
<g transform="translate(19.2264, 7.6243)">
<path transform="scale(0.0040, -0.0040)" d="M359 27c-49 0 -75 42 -75 75c0 38 27 77 72 77c4 0 9 0 14 -1c-28 37 -72 59 -120 59c-106 0 -113 -73 -113 -186v-51v-51c0 -113 7 -187 113 -187c80 0 139 70 158 151c2 7 7 10 12 10c6 0 13 -4 13 -12c0 -94 -105 -174 -183 -174c-68 0 -137 21 -184 70
c-49 51 -66 122 -66 193s17 142 66 193c47 49 116 69 184 69c87 0 160 -63 175 -149c1 -5 1 -10 1 -14c0 -40 -30 -72 -67 -72z" fill="currentColor"/>
</g>
<g transform="translate(24.1656, 7.6243)">
<rect x="-0.0650" y="-0.5000" width="0.1300" height="3.3139" ry="0.0400" fill="currentColor"/>
</g>
<a style="color:inherit;" xlink:href="textedit:///home/paolo/Desktop/SPONTINI/Spontini/lib/../examples/exclude-selections-example.ly:27:4:5">
<g transform="translate(25.9286, 10.1243)">
<path transform="scale(0.0040, -0.0040)" d="M218 136c55 0 108 -28 108 -89c0 -71 -55 -121 -102 -149c-35 -21 -75 -34 -116 -34c-55 0 -108 28 -108 89c0 71 55 121 102 149c35 21 75 34 116 34z" fill="currentColor"/>
</g>
</a>
<g transform="translate(27.1678, 7.6243)">
<rect x="-0.0650" y="-1.0000" width="0.1300" height="3.3139" ry="0.0400" fill="currentColor"/>
</g>
<g transform="translate(46.5081, 7.6243)">
<rect x="-0.0650" y="-0.5000" width="0.1300" height="3.3139" ry="0.0400" fill="currentColor"/>
</g>
<a style="color:inherit;" xlink:href="textedit:///home/paolo/Desktop/SPONTINI/Spontini/lib/../examples/exclude-selections-example.ly:31:10:11">
<g transform="translate(45.2689, 10.6243)">
<path transform="scale(0.0040, -0.0040)" d="M218 136c55 0 108 -28 108 -89c0 -71 -55 -121 -102 -149c-35 -21 -75 -34 -116 -34c-55 0 -108 28 -108 89c0 71 55 121 102 149c35 21 75 34 116 34z" fill="currentColor"/>
</g>
</a>
<g transform="translate(43.5058, 7.6243)">
<rect x="-0.0650" y="-1.0000" width="0.1300" height="3.3139" ry="0.0400" fill="currentColor"/>
</g>
<a style="color:inherit;" xlink:href="textedit:///home/paolo/Desktop/SPONTINI/Spontini/lib/../examples/exclude-selections-example.ly:31:7:8">
<g transform="translate(42.2666, 10.1243)">
<path transform="scale(0.0040, -0.0040)" d="M218 136c55 0 108 -28 108 -89c0 -71 -55 -121 -102 -149c-35 -21 -75 -34 -116 -34c-55 0 -108 28 -108 89c0 71 55 121 102 149c35 21 75 34 116 34z" fill="currentColor"/>
</g>
</a>
<g transform="translate(40.5036, 7.6243)">
<rect x="-0.0650" y="-1.5000" width="0.1300" height="3.3139" ry="0.0400" fill="currentColor"/>
</g>
<a style="color:inherit;" xlink:href="textedit:///home/paolo/Desktop/SPONTINI/Spontini/lib/../examples/exclude-selections-example.ly:35:0:1">
<g transform="translate(49.5397, 10.1243)">
<path transform="scale(0.0040, -0.0040)" d="M218 136c55 0 108 -28 108 -89c0 -71 -55 -121 -102 -149c-35 -21 -75 -34 -116 -34c-55 0 -108 28 -108 89c0 71 55 121 102 149c35 21 75 34 116 34z" fill="currentColor"/>
</g>
</a>
<g transform="translate(50.7789, 7.6243)">
<rect x="-0.0650" y="-0.8100" width="0.1300" height="3.1239" ry="0.0400" fill="currentColor"/>
</g>
<a style="color:inherit;" xlink:href="textedit:///home/paolo/Desktop/SPONTINI/Spontini/lib/../examples/exclude-selections-example.ly:31:4:5">
<g transform="translate(39.2644, 9.6243)">
<path transform="scale(0.0040, -0.0040)" d="M218 136c55 0 108 -28 108 -89c0 -71 -55 -121 -102 -149c-35 -21 -75 -34 -116 -34c-55 0 -108 28 -108 89c0 71 55 121 102 149c35 21 75 34 116 34z" fill="currentColor"/>
</g>
</a>
<g transform="translate(28.9194, 165.1170)">
<a xlink:href="https://lilypond.org/">
<rect x="0.0000" y="-0.4780" width="61.6628" height="2.1510" fill="none" stroke="none" stroke-width="0.0"/>
</a>
</g>
<g transform="translate(28.9194, 165.1170)">
<text font-family="serif" font-size="2.2001" text-anchor="start" fill="currentColor">
<tspan>Music engraving by LilyPond 2.22.0—www.lilypond.org</tspan>
</text>
</g>
</svg>
