<svg xmlns="http://www.w3.org/2000/svg" xmlns:xlink="http://www.w3.org/1999/xlink" version="1.2" width="209.00mm" height="29.70mm" viewBox="0 0 118.9325 16.9009">
<style type="text/css">
<![CDATA[
tspan { white-space: pre; }
]]>
</style>
<!-- Page: 3/5 -->
<g transform="translate(5.6906, 9.2171)">
<line stroke-linejoin="round" stroke-linecap="round" stroke-width="0.1000" stroke="currentColor" x1="0.0500" y1="0" x2="107.5014" y2="0"/>
</g>
<g transform="translate(5.6906, 8.2171)">
<line stroke-linejoin="round" stroke-linecap="round" stroke-width="0.1000" stroke="currentColor" x1="0.0500" y1="0" x2="107.5014" y2="0"/>
</g>
<g transform="translate(5.6906, 7.2171)">
<line stroke-linejoin="round" stroke-linecap="round" stroke-width="0.1000" stroke="currentColor" x1="0.0500" y1="0" x2="107.5014" y2="0"/>
</g>
<g transform="translate(5.6906, 6.2171)">
<line stroke-linejoin="round" stroke-linecap="round" stroke-width="0.1000" stroke="currentColor" x1="0.0500" y1="0" x2="107.5014" y2="0"/>
</g>
<g transform="translate(5.6906, 5.2171)">
<line stroke-linejoin="round" stroke-linecap="round" stroke-width="0.1000" stroke="currentColor" x1="0.0500" y1="0" x2="107.5014" y2="0"/>
</g>
<g transform="translate(113.0520, 7.2171)">
<rect x="0.0000" y="-2.0000" width="0.1900" height="4.0000" ry="0.0000" fill="currentColor"/>
</g>
<a style="color:inherit;" xlink:href="textedit:///home/paolo/Desktop/SPONTINI/Spontini/examples/filter-example-2.ly:51:6:7">
<g transform="translate(62.1529, 9.2171)">
<path transform="scale(0.0040, -0.0040)" d="M218 136c55 0 108 -28 108 -89c0 -71 -55 -121 -102 -149c-35 -21 -75 -34 -116 -34c-55 0 -108 28 -108 89c0 71 55 121 102 149c35 21 75 34 116 34z" fill="currentColor"/>
</g>
</a>
<g transform="translate(63.3921, 7.2171)">
<rect x="-0.0650" y="-1.5000" width="0.1300" height="3.3139" ry="0.0400" fill="currentColor"/>
</g>
<a style="color:inherit;" xlink:href="textedit:///home/paolo/Desktop/SPONTINI/Spontini/examples/filter-example-2.ly:51:9:10">
<g transform="translate(87.4841, 9.2171)">
<path transform="scale(0.0040, -0.0040)" d="M218 136c55 0 108 -28 108 -89c0 -71 -55 -121 -102 -149c-35 -21 -75 -34 -116 -34c-55 0 -108 28 -108 89c0 71 55 121 102 149c35 21 75 34 116 34z" fill="currentColor"/>
</g>
</a>
<g transform="translate(88.7233, 7.2171)">
<rect x="-0.0650" y="-1.5000" width="0.1300" height="3.3139" ry="0.0400" fill="currentColor"/>
</g>
<a style="color:inherit;" xlink:href="textedit:///home/paolo/Desktop/SPONTINI/Spontini/examples/filter-example-2.ly:50:0:1">
<g transform="translate(9.4076, 4.3671)">
<rect x="-0.3520" y="-0.1000" width="10.1617" height="0.1000" ry="0.0000" fill="currentColor"/>
</g>
<g transform="translate(9.4076, 1.1000)">
<rect x="-0.3520" y="-0.1000" width="10.1617" height="0.1000" ry="0.0000" fill="currentColor"/>
</g>
<g transform="translate(9.0556, 3.4006)">
<rect x="0" y="-2.3006" width="0.1000" height="3.1671" ry="0.0000" fill="currentColor"/>
</g>
<g transform="translate(19.1172, 3.4006)">
<rect x="0" y="-2.3006" width="0.1000" height="3.1671" ry="0.0000" fill="currentColor"/>
</g>
<g transform="translate(9.4076, 3.4006)">
<text font-family="serif" font-size="2.7719" text-anchor="start" fill="currentColor">
<tspan>Page 3</tspan>
</text>
</g>
</a>
<g transform="translate(4.5638, 4.1330)">
<text font-family="serif" font-size="1.7461" text-anchor="start" fill="currentColor">
<tspan>3</tspan>
</text>
</g>
<g transform="translate(6.4906, 8.2171)">
<path transform="scale(0.0040, -0.0040)" d="M266 -635h-6c-108 0 -195 88 -195 197c0 58 53 103 112 103c54 0 95 -47 95 -103c0 -52 -43 -95 -95 -95c-11 0 -21 2 -31 6c26 -39 68 -65 117 -65h4zM461 -203c68 24 113 95 113 164c0 90 -66 179 -173 190c24 -116 46 -231 60 -354zM74 28c0 -135 129 -247 264 -247
c28 0 55 2 82 6c-14 127 -37 245 -63 364c-79 -8 -124 -61 -124 -119c0 -44 25 -91 81 -123c5 -5 7 -10 7 -15c0 -11 -10 -22 -22 -22c-3 0 -6 1 -9 2c-80 43 -117 115 -117 185c0 88 58 174 160 197c-14 58 -29 117 -46 175c-107 -121 -213 -243 -213 -403zM335 -262
c-188 0 -333 172 -333 374c0 177 131 306 248 441c-19 62 -37 125 -45 190c-6 52 -7 104 -7 156c0 115 55 224 149 292c6 5 14 5 20 0c71 -84 133 -245 133 -358c0 -143 -86 -255 -180 -364c21 -68 39 -138 56 -207c4 0 9 1 13 1c155 0 256 -128 256 -261
c0 -76 -33 -154 -107 -210c-22 -17 -47 -28 -73 -36c3 -35 5 -70 5 -105c0 -19 -1 -39 -2 -58c-7 -119 -88 -225 -202 -228l1 43c93 2 153 92 159 191c1 18 2 37 2 55c0 31 -1 61 -4 92c-29 -5 -58 -8 -89 -8zM428 916c0 55 -4 79 -20 129c-99 -48 -162 -149 -162 -259
c0 -74 18 -133 36 -194c80 97 146 198 146 324z" fill="currentColor"/>
</g>
<g transform="translate(38.0609, 7.2171)">
<rect x="-0.0650" y="-1.5000" width="0.1300" height="3.3139" ry="0.0400" fill="currentColor"/>
</g>
<a style="color:inherit;" xlink:href="textedit:///home/paolo/Desktop/SPONTINI/Spontini/examples/filter-example-2.ly:51:0:1">
<g transform="translate(11.4906, 9.2171)">
<path transform="scale(0.0040, -0.0040)" d="M218 136c55 0 108 -28 108 -89c0 -71 -55 -121 -102 -149c-35 -21 -75 -34 -116 -34c-55 0 -108 28 -108 89c0 71 55 121 102 149c35 21 75 34 116 34z" fill="currentColor"/>
</g>
</a>
<g transform="translate(12.7298, 7.2171)">
<rect x="-0.0650" y="-1.5000" width="0.1300" height="3.3139" ry="0.0400" fill="currentColor"/>
</g>
<a style="color:inherit;" xlink:href="textedit:///home/paolo/Desktop/SPONTINI/Spontini/examples/filter-example-2.ly:51:3:4">
<g transform="translate(36.8217, 9.2171)">
<path transform="scale(0.0040, -0.0040)" d="M218 136c55 0 108 -28 108 -89c0 -71 -55 -121 -102 -149c-35 -21 -75 -34 -116 -34c-55 0 -108 28 -108 89c0 71 55 121 102 149c35 21 75 34 116 34z" fill="currentColor"/>
</g>
</a>
<g transform="translate(59.1248, 16.3319)">
<text font-family="serif" font-size="2.2001" text-anchor="start" fill="currentColor">
<tspan> </tspan>
</text>
</g>
</svg>
