<svg xmlns="http://www.w3.org/2000/svg" xmlns:xlink="http://www.w3.org/1999/xlink" version="1.2" width="210.00mm" height="297.00mm" viewBox="0.0000 -0.0000 119.5016 169.0094">
<style type="text/css">
<![CDATA[
tspan { white-space: pre; }
]]>
</style>
<g thickness="0.20000000" editableclass="OSOPadder" spontinieditable="true" y-direction="1" pads-propid="3">
<a style="color:inherit;" xlink:href="textedit:///dummy/path/file.ly:49:1:2">
<g color="rgb(91.2000%, 93.4000%, 95.6000%)">
<g transform="translate(23.3290, 29.3198)">
<rect x="-3.8850" y="-0.2000" width="9.0798" height="0.2000" ry="0.0000" fill="currentColor"/>
</g>
<g transform="translate(28.3238, 32.3498)">
<rect x="0" y="-3.0300" width="0.2000" height="3.0300" ry="0.0000" fill="currentColor"/>
</g>
<g transform="translate(23.3290, 32.5498)">
<rect x="-3.8850" y="-0.2000" width="9.0798" height="0.2000" ry="0.0000" fill="currentColor"/>
</g>
<g transform="translate(19.4440, 32.3498)">
<rect x="0" y="-3.0300" width="0.2000" height="3.0300" ry="0.0000" fill="currentColor"/>
</g>
</g>
<g transform="translate(23.3290, 32.3498)">
<text font-family="monospace" font-size="2.2001" text-anchor="start" fill="currentColor">
<tspan>   </tspan>
</text>
</g>
</a>
</g>
<g thickness="0.20000000" editableclass="OSOPadder" spontinieditable="true" y-direction="-1" pads-propid="17">
<a style="color:inherit;" xlink:href="textedit:///dummy/path/file.ly:49:1:2">
<g color="rgb(91.2000%, 93.4000%, 95.6000%)">
<g transform="translate(23.3290, 68.4379)">
<rect x="-1.2000" y="-0.2000" width="6.3948" height="0.2000" ry="0.0000" fill="currentColor"/>
</g>
<g transform="translate(28.3238, 69.4379)">
<rect x="0" y="-1.0000" width="0.2000" height="2.0000" ry="0.0000" fill="currentColor"/>
</g>
<g transform="translate(23.3290, 70.6379)">
<rect x="-1.2000" y="-0.2000" width="6.3948" height="0.2000" ry="0.0000" fill="currentColor"/>
</g>
<g transform="translate(22.1290, 69.4379)">
<rect x="0" y="-1.0000" width="0.2000" height="2.0000" ry="0.0000" fill="currentColor"/>
</g>
</g>
<g transform="translate(23.3290, 69.4379)">
<text font-family="monospace" font-size="2.2001" text-anchor="start" fill="currentColor">
<tspan>   </tspan>
</text>
</g>
</a>
</g>
<g thickness="0.20000000" editableclass="OSOPadder" spontinieditable="true" y-direction="-1" pads-propid="16">
<a style="color:inherit;" xlink:href="textedit:///dummy/path/file.ly:49:1:2">
<g color="rgb(91.2000%, 93.4000%, 95.6000%)">
<g transform="translate(23.3290, 65.8378)">
<rect x="-1.2000" y="-0.2000" width="27.7002" height="0.2000" ry="0.0000" fill="currentColor"/>
</g>
<g transform="translate(49.6292, 67.5099)">
<rect x="0" y="-1.6721" width="0.2000" height="2.2001" ry="0.0000" fill="currentColor"/>
</g>
<g transform="translate(23.3290, 68.2379)">
<rect x="-1.2000" y="-0.2000" width="27.7002" height="0.2000" ry="0.0000" fill="currentColor"/>
</g>
<g transform="translate(22.1290, 67.5099)">
<rect x="0" y="-1.6721" width="0.2000" height="2.2001" ry="0.0000" fill="currentColor"/>
</g>
</g>
<g transform="translate(23.3290, 67.5099)">
<text font-family="monospace" font-size="2.2001" text-anchor="start" fill="currentColor">
<tspan>Use ped. with care!</tspan>
</text>
</g>
</a>
</g>
<g thickness="0.20000000" editableclass="OSOPadder" spontinieditable="true" y-direction="-1" pads-propid="15">
<a style="color:inherit;" xlink:href="textedit:///dummy/path/file.ly:49:1:2">
<g color="rgb(91.2000%, 93.4000%, 95.6000%)">
<g transform="translate(23.3290, 63.4378)">
<rect x="-1.2000" y="-0.2000" width="6.1268" height="0.2000" ry="0.0000" fill="currentColor"/>
</g>
<g transform="translate(28.0558, 64.4378)">
<rect x="0" y="-1.0000" width="0.2000" height="2.0000" ry="0.0000" fill="currentColor"/>
</g>
<g transform="translate(23.3290, 65.6378)">
<rect x="-1.2000" y="-0.2000" width="6.1268" height="0.2000" ry="0.0000" fill="currentColor"/>
</g>
<g transform="translate(22.1290, 64.4378)">
<rect x="0" y="-1.0000" width="0.2000" height="2.0000" ry="0.0000" fill="currentColor"/>
</g>
</g>
<g transform="translate(23.3290, 64.4378)">
<text font-family="monospace" font-size="2.2001" text-anchor="start" fill="currentColor">
<tspan>   </tspan>
</text>
</g>
</a>
</g>
<g thickness="0.20000000" editableclass="OSOPadder" spontinieditable="true" y-direction="-1" pads-propid="13">
<a style="color:inherit;" xlink:href="textedit:///dummy/path/file.ly:49:1:2">
<g color="rgb(91.2000%, 93.4000%, 95.6000%)">
<g transform="translate(23.3290, 56.6378)">
<rect x="-1.2000" y="-0.2000" width="6.3948" height="0.2000" ry="0.0000" fill="currentColor"/>
</g>
<g transform="translate(28.3238, 57.6378)">
<rect x="0" y="-1.0000" width="0.2000" height="2.0000" ry="0.0000" fill="currentColor"/>
</g>
<g transform="translate(23.3290, 58.8378)">
<rect x="-1.2000" y="-0.2000" width="6.3948" height="0.2000" ry="0.0000" fill="currentColor"/>
</g>
<g transform="translate(22.1290, 57.6378)">
<rect x="0" y="-1.0000" width="0.2000" height="2.0000" ry="0.0000" fill="currentColor"/>
</g>
</g>
<g transform="translate(23.3290, 57.6378)">
<text font-family="monospace" font-size="2.2001" text-anchor="start" fill="currentColor">
<tspan>   </tspan>
</text>
</g>
</a>
</g>
<g thickness="0.20000000" editableclass="OSOPadder" spontinieditable="true" y-direction="-1" pads-propid="10">
<a style="color:inherit;" xlink:href="textedit:///dummy/path/file.ly:49:1:2">
<g color="rgb(91.2000%, 93.4000%, 95.6000%)">
<g transform="translate(23.3290, 44.9917)">
<rect x="-1.2000" y="-0.2000" width="6.3948" height="0.2000" ry="0.0000" fill="currentColor"/>
</g>
<g transform="translate(28.3238, 48.9917)">
<rect x="0" y="-4.0000" width="0.2000" height="5.0000" ry="0.0000" fill="currentColor"/>
</g>
<g transform="translate(23.3290, 50.1917)">
<rect x="-1.2000" y="-0.2000" width="6.3948" height="0.2000" ry="0.0000" fill="currentColor"/>
</g>
<g transform="translate(22.1290, 48.9917)">
<rect x="0" y="-4.0000" width="0.2000" height="5.0000" ry="0.0000" fill="currentColor"/>
</g>
</g>
<g transform="translate(23.3290, 48.9917)">
<text font-family="monospace" font-size="2.2001" text-anchor="start" fill="currentColor">
<tspan>   </tspan>
</text>
</g>
</a>
</g>
<g thickness="0.20000000" editableclass="OSOPadder" spontinieditable="true" y-direction="-1" pads-propid="8">
<a style="color:inherit;" xlink:href="textedit:///dummy/path/file.ly:49:1:2">
<g color="rgb(91.2000%, 93.4000%, 95.6000%)">
<g transform="translate(23.3290, 39.3517)">
<rect x="-1.2000" y="-0.2000" width="6.3948" height="0.2000" ry="0.0000" fill="currentColor"/>
</g>
<g transform="translate(28.3238, 40.3517)">
<rect x="0" y="-1.0000" width="0.2000" height="2.0000" ry="0.0000" fill="currentColor"/>
</g>
<g transform="translate(23.3290, 41.5517)">
<rect x="-1.2000" y="-0.2000" width="6.3948" height="0.2000" ry="0.0000" fill="currentColor"/>
</g>
<g transform="translate(22.1290, 40.3517)">
<rect x="0" y="-1.0000" width="0.2000" height="2.0000" ry="0.0000" fill="currentColor"/>
</g>
</g>
<g transform="translate(23.3290, 40.3517)">
<text font-family="monospace" font-size="2.2001" text-anchor="start" fill="currentColor">
<tspan>   </tspan>
</text>
</g>
</a>
</g>
<g thickness="0.20000000" editableclass="OSOPadder" spontinieditable="true" y-direction="1" pads-propid="6">
<a style="color:inherit;" xlink:href="textedit:///dummy/path/file.ly:49:1:2">
<g color="rgb(91.2000%, 93.4000%, 95.6000%)">
<g transform="translate(23.3290, 5.9703)">
<rect x="-1.2000" y="-0.2000" width="6.3948" height="0.2000" ry="0.0000" fill="currentColor"/>
</g>
<g transform="translate(28.3238, 8.3973)">
<rect x="0" y="-2.4270" width="0.2000" height="3.4270" ry="0.0000" fill="currentColor"/>
</g>
<g transform="translate(23.3290, 9.5973)">
<rect x="-1.2000" y="-0.2000" width="6.3948" height="0.2000" ry="0.0000" fill="currentColor"/>
</g>
<g transform="translate(22.1290, 8.3973)">
<rect x="0" y="-2.4270" width="0.2000" height="3.4270" ry="0.0000" fill="currentColor"/>
</g>
</g>
<g transform="translate(23.3290, 8.3973)">
<text font-family="monospace" font-size="2.2001" text-anchor="start" fill="currentColor">
<tspan>   </tspan>
</text>
</g>
</a>
</g>
<g thickness="0.20000000" editableclass="OSOPadder" spontinieditable="true" y-direction="1" pads-propid="5">
<a style="color:inherit;" xlink:href="textedit:///dummy/path/file.ly:49:1:2">
<g color="rgb(91.2000%, 93.4000%, 95.6000%)">
<g transform="translate(23.3290, 11.8613)">
<rect x="-1.2000" y="-0.2000" width="6.3948" height="0.2000" ry="0.0000" fill="currentColor"/>
</g>
<g transform="translate(28.3238, 16.8613)">
<rect x="0" y="-5.0000" width="0.2000" height="6.0000" ry="0.0000" fill="currentColor"/>
</g>
<g transform="translate(23.3290, 18.0613)">
<rect x="-1.2000" y="-0.2000" width="6.3948" height="0.2000" ry="0.0000" fill="currentColor"/>
</g>
<g transform="translate(22.1290, 16.8613)">
<rect x="0" y="-5.0000" width="0.2000" height="6.0000" ry="0.0000" fill="currentColor"/>
</g>
</g>
<g transform="translate(23.3290, 16.8613)">
<text font-family="monospace" font-size="2.2001" text-anchor="start" fill="currentColor">
<tspan>   </tspan>
</text>
</g>
</a>
</g>
<g thickness="0.20000000" editableclass="OSOPadder" spontinieditable="true" y-direction="1" pads-propid="4">
<a style="color:inherit;" xlink:href="textedit:///dummy/path/file.ly:49:1:2">
<g color="rgb(91.2000%, 93.4000%, 95.6000%)">
<g transform="translate(23.3290, 20.3827)">
<rect x="-1.2000" y="-0.2000" width="13.8058" height="0.2000" ry="0.0000" fill="currentColor"/>
</g>
<g transform="translate(35.7348, 25.3827)">
<rect x="0" y="-5.0000" width="0.2000" height="5.0400" ry="0.0000" fill="currentColor"/>
</g>
<g transform="translate(23.3290, 25.6227)">
<rect x="-1.2000" y="-0.2000" width="13.8058" height="0.2000" ry="0.0000" fill="currentColor"/>
</g>
<g transform="translate(22.1290, 25.3827)">
<rect x="0" y="-5.0000" width="0.2000" height="5.0400" ry="0.0000" fill="currentColor"/>
</g>
</g>
<g transform="translate(23.3290, 25.3827)">
<text font-family="monospace" font-size="2.2001" text-anchor="start" fill="currentColor">
<tspan>   </tspan>
</text>
</g>
</a>
</g>
<g y-direction="-1" thickness="0.20000000" editableclass="OSOPadder" spontinieditable="true" pads-propid="11">
<a style="color:inherit;" xlink:href="textedit:///dummy/path/file.ly:49:1:2">
<g color="rgb(91.2000%, 93.4000%, 95.6000%)">
<g transform="translate(23.2470, 50.3917)">
<rect x="-0.2000" y="-0.2000" width="1.8682" height="0.2000" ry="0.0000" fill="currentColor"/>
</g>
<g transform="translate(24.7152, 51.5597)">
<rect x="0" y="-1.1680" width="0.2000" height="1.7520" ry="0.0000" fill="currentColor"/>
</g>
<g transform="translate(23.2470, 52.3437)">
<rect x="-0.2000" y="-0.2000" width="1.8682" height="0.2000" ry="0.0000" fill="currentColor"/>
</g>
<g transform="translate(23.0470, 51.5597)">
<rect x="0" y="-1.1680" width="0.2000" height="1.7520" ry="0.0000" fill="currentColor"/>
</g>
</g>
<g transform="translate(23.2470, 51.5597)">
<path transform="scale(0.0040, -0.0040)" d="M233 243c-56 0 -102 -107 -102 -173c0 -22 8 -38 30 -38c64 0 97 126 97 178c0 18 -7 33 -25 33zM112 -146c-38 0 -78 5 -116 5c-39 0 -78 -5 -115 -5c-9 0 -14 7 -14 14c0 18 31 15 48 16c22 1 47 5 54 25l102 300c2 7 4 14 4 20c0 8 -2 14 -11 14
c-33 0 -63 -60 -79 -97c-5 -12 -15 -17 -24 -17c-8 0 -14 4 -14 12c0 2 1 5 2 8c30 68 72 143 132 143c35 0 59 -21 66 -52c29 31 67 52 103 52c69 0 107 -49 107 -114c0 -21 -4 -44 -12 -67c-20 -58 -91 -119 -147 -119c-27 0 -52 5 -73 17c-4 2 -7 3 -11 3
c-7 0 -14 -3 -16 -9l-29 -86c-1 -2 -1 -5 -1 -7c0 -20 21 -26 44 -28c9 -1 13 -8 13 -14c0 -7 -4 -14 -13 -14z" fill="currentColor"/>
</g>
</a>
</g>
<g pads-propid="1" thickness="0.20000000" editableclass="OSOPadder" spontinieditable="true" y-direction="1">
<a style="color:inherit;" xlink:href="textedit:///dummy/path/file.ly:72:26:27">
<g color="rgb(91.2000%, 93.4000%, 95.6000%)">
<g transform="translate(23.3290, 9.7973)">
<rect x="-1.1180" y="-0.2000" width="20.9770" height="0.2000" ry="0.0000" fill="currentColor"/>
</g>
<g transform="translate(42.9880, 10.6293)">
<rect x="0" y="-0.8320" width="0.2000" height="1.6640" ry="0.0000" fill="currentColor"/>
</g>
<g transform="translate(23.3290, 11.6613)">
<rect x="-1.1180" y="-0.2000" width="20.9770" height="0.2000" ry="0.0000" fill="currentColor"/>
</g>
<g transform="translate(22.2110, 10.6293)">
<rect x="0" y="-0.8320" width="0.2000" height="1.6640" ry="0.0000" fill="currentColor"/>
</g>
</g>
<g transform="translate(22.5290, 11.4302)">
<text font-family="serif" font-weight="bold" font-style="italic" font-size="2.2001" text-anchor="start" fill="currentColor">
<tspan>8</tspan>
</text>
</g>
<g transform="translate(24.3655, 10.6293)">
<line stroke-linejoin="round" stroke-linecap="round" stroke-width="0.1138" stroke="currentColor" x1="18.4856" y1="-0.0000" x2="18.4856" y2="0.8000"/>
</g>
<g transform="translate(24.3655, 10.6293)">
<line stroke-linejoin="round" stroke-linecap="round" stroke-width="0.1138" stroke="currentColor" x1="0.0000" y1="-0.0000" x2="0.0000" y2="-0.0000"/>
</g>
<g transform="translate(24.3655, 10.6293)">
<line stroke-linejoin="round" stroke-linecap="round" stroke-width="0.1138" stroke="currentColor" x1="0" y1="0" x2="18.4856" y2="-0.0000" stroke-dasharray="0.30304318601978025,0.7071007673794873"/>
</g>
</a>
</g>
<g thickness="0.20000000" editableclass="OSOPadder" spontinieditable="true" y-direction="1" pads-propid="7">
<a style="color:inherit;" xlink:href="textedit:///dummy/path/file.ly:49:1:2">
<g color="rgb(91.2000%, 93.4000%, 95.6000%)">
<g transform="translate(24.1461, 4.0453)">
<rect x="-1.9210" y="-0.2000" width="3.5120" height="0.2000" ry="0.0000" fill="currentColor"/>
</g>
<g transform="translate(25.5371, 5.4953)">
<rect x="0" y="-1.4500" width="0.2000" height="1.5250" ry="0.0000" fill="currentColor"/>
</g>
<g transform="translate(24.1461, 5.7703)">
<rect x="-1.9210" y="-0.2000" width="3.5120" height="0.2000" ry="0.0000" fill="currentColor"/>
</g>
<g transform="translate(22.2251, 5.4953)">
<rect x="0" y="-1.4500" width="0.2000" height="1.5250" ry="0.0000" fill="currentColor"/>
</g>
</g>
<g transform="translate(24.1461, 5.4953)">
<path transform="scale(0.0040, -0.0040)" d="M-67 48c0 37 30 67 67 67s67 -30 67 -67s-30 -67 -67 -67s-67 30 -67 67zM0 363c157 0 332 -176 332 -366c0 -9 -10 -15 -19 -15s-17 5 -19 18c-26 148 -146 262 -294 262s-268 -114 -294 -262c-2 -13 -10 -18 -19 -18s-19 6 -19 15c0 190 175 366 332 366z" fill="currentColor"/>
</g>
</a>
</g>
<g thickness="0.20000000" editableclass="OSOPadder" spontinieditable="true" y-direction="-1" pads-propid="9">
<a style="color:inherit;" xlink:href="textedit:///dummy/path/file.ly:49:1:2">
<g color="rgb(91.2000%, 93.4000%, 95.6000%)">
<g transform="translate(23.9811, 41.7517)">
<rect x="-1.9500" y="-0.2000" width="3.9000" height="0.2000" ry="0.0000" fill="currentColor"/>
</g>
<g transform="translate(25.7311, 43.1717)">
<rect x="0" y="-1.4200" width="0.2000" height="2.8400" ry="0.0000" fill="currentColor"/>
</g>
<g transform="translate(23.9811, 44.7917)">
<rect x="-1.9500" y="-0.2000" width="3.9000" height="0.2000" ry="0.0000" fill="currentColor"/>
</g>
<g transform="translate(22.0311, 43.1717)">
<rect x="0" y="-1.4200" width="0.2000" height="2.8400" ry="0.0000" fill="currentColor"/>
</g>
</g>
<g transform="translate(23.9811, 43.1717)">
<path transform="scale(0.0040, -0.0040)" d="M-173 68c-8 2 -15 9 -15 18c0 10 9 19 19 19c2 0 3 -1 5 -1l337 -86c8 -2 15 -9 15 -18s-7 -16 -15 -18l-337 -86c-2 0 -3 -1 -5 -1c-10 0 -19 9 -19 19c0 9 7 16 15 18l206 53l109 15l-109 15z" fill="currentColor"/>
</g>
</a>
</g>
<g pads-propid="2" thickness="0.20000000" editableclass="OSOPadder" spontinieditable="true" y-direction="1">
<a style="color:inherit;" xlink:href="textedit:///dummy/path/file.ly:72:0:1">
<g color="rgb(91.2000%, 93.4000%, 95.6000%)">
<g transform="translate(23.3290, 25.8227)">
<rect x="-0.5430" y="-0.2000" width="20.2252" height="0.2000" ry="0.0000" fill="currentColor"/>
</g>
<g transform="translate(42.8111, 35.1738)">
<rect x="0" y="-9.3511" width="0.2000" height="3.0971" ry="0.0000" fill="currentColor"/>
</g>
<g transform="translate(23.3290, 29.1198)">
<rect x="-0.5430" y="-0.2000" width="20.2252" height="0.2000" ry="0.0000" fill="currentColor"/>
</g>
<g transform="translate(22.7860, 35.1738)">
<rect x="0" y="-9.3511" width="0.2000" height="3.0971" ry="0.0000" fill="currentColor"/>
</g>
</g>
<g transform="translate(23.3290, 28.1288)">
<line stroke-linejoin="round" stroke-linecap="round" stroke-width="0.1821" stroke="currentColor" x1="19.1221" y1="-0.0000" x2="19.1221" y2="0.7000"/>
</g>
<g transform="translate(23.3290, 28.1288)">
<line stroke-linejoin="round" stroke-linecap="round" stroke-width="0.1821" stroke="currentColor" x1="-0.2000" y1="-0.0000" x2="-0.2000" y2="0.7000"/>
</g>
<g transform="translate(23.3290, 28.1288)">
<line stroke-linejoin="round" stroke-linecap="round" stroke-width="0.1821" stroke="currentColor" x1="19.1221" y1="-0.0000" x2="10.6244" y2="-0.0000"/>
</g>
<g transform="translate(23.3290, 28.1288)">
<line stroke-linejoin="round" stroke-linecap="round" stroke-width="0.1821" stroke="currentColor" x1="-0.2000" y1="-0.0000" x2="8.4977" y2="-0.0000"/>
</g>
</a>
</g>
<g y-direction="-1" thickness="0.20000000" editableclass="OSOPadder" spontinieditable="true" pads-propid="12">
<a style="color:inherit;" xlink:href="textedit:///dummy/path/file.ly:49:1:2">
<g color="rgb(91.2000%, 93.4000%, 95.6000%)">
<g transform="translate(16.6576, 52.5437)">
<rect x="-0.2000" y="-0.2000" width="13.7429" height="0.2000" ry="0.0000" fill="currentColor"/>
</g>
<g transform="translate(30.0005, 55.2158)">
<rect x="0" y="-2.6721" width="0.2000" height="3.6941" ry="0.0000" fill="currentColor"/>
</g>
<g transform="translate(16.6576, 56.4378)">
<rect x="-0.2000" y="-0.2000" width="13.7429" height="0.2000" ry="0.0000" fill="currentColor"/>
</g>
<g transform="translate(16.4576, 55.2158)">
<rect x="0" y="-2.6721" width="0.2000" height="3.6941" ry="0.0000" fill="currentColor"/>
</g>
</g>
<g transform="translate(16.6576, 55.2158)">
<text font-family="monospace" font-style="italic" font-size="2.2001" text-anchor="start" fill="currentColor">
<tspan>Sost. Ped.</tspan>
</text>
</g>
</a>
</g>
<g y-direction="-1" thickness="0.20000000" editableclass="OSOPadder" spontinieditable="true" pads-propid="14">
<a style="color:inherit;" xlink:href="textedit:///dummy/path/file.ly:49:1:2">
<g color="rgb(91.2000%, 93.4000%, 95.6000%)">
<g transform="translate(21.5930, 59.0378)">
<rect x="-0.2000" y="-0.2000" width="3.8720" height="0.2000" ry="0.0000" fill="currentColor"/>
</g>
<g transform="translate(25.0650, 62.0378)">
<rect x="0" y="-3.0000" width="0.2000" height="4.0000" ry="0.0000" fill="currentColor"/>
</g>
<g transform="translate(21.5930, 63.2378)">
<rect x="-0.2000" y="-0.2000" width="3.8720" height="0.2000" ry="0.0000" fill="currentColor"/>
</g>
<g transform="translate(21.3930, 62.0378)">
<rect x="0" y="-3.0000" width="0.2000" height="4.0000" ry="0.0000" fill="currentColor"/>
</g>
</g>
<g transform="translate(24.7850, 62.0378)">
<path transform="scale(0.0040, -0.0040)" d="M0 35c0 19 16 35 35 35s35 -16 35 -35s-16 -35 -35 -35s-35 16 -35 35z" fill="currentColor"/>
</g>
<g transform="translate(21.5930, 62.0378)">
<path transform="scale(0.0040, -0.0040)" d="M43 339c0 -19 13 -48 39 -48c22 0 43 28 43 59c0 8 18 8 18 0c0 -63 -41 -125 -83 -125c-41 0 -61 44 -61 78c0 82 90 197 251 197c108 0 166 -82 166 -144c0 -30 -17 -67 -52 -67s-68 49 -87 90c-3 7 13 14 16 7c8 -18 28 -32 46 -32c21 0 32 18 32 36
c0 39 -44 92 -121 92h-7c-10 -20 -39 -91 -39 -108c0 -46 100 -114 100 -164c0 -24 -28 -52 -58 -90c29 -3 83 -28 102 -44c13 -11 48 24 57 31c-4 19 -6 29 -6 48c0 60 32 132 96 132c25 0 49 -17 49 -45c0 -42 -53 -88 -90 -119c13 -24 33 -57 47 -69c4 -4 13 -3 18 0
c9 5 47 33 63 47c-4 14 -6 28 -6 42c0 55 45 112 97 137c-51 71 -129 126 -208 140c-8 1 -5 19 3 18c142 -25 305 -134 329 -272c1 -8 3 -16 3 -24c0 -70 -50 -142 -113 -142c-43 0 -81 37 -99 82c-24 -22 -73 -64 -85 -72c-8 -6 -19 -9 -30 -9c-39 0 -51 46 -62 85
c-27 -20 -90 -73 -106 -82c-6 -3 -12 -4 -17 0c-19 16 -28 89 -57 98c-25 -30 -47 -57 -56 -66c-12 -12 -47 -36 -64 -36c-7 0 -14 5 -14 12c0 13 21 38 30 47c18 19 67 57 95 61c18 21 30 29 30 49c0 47 -88 111 -88 150c0 24 43 134 60 162c-113 -10 -181 -88 -181 -142z
M475 254c-30 0 -43 -27 -43 -55c0 -20 6 -42 14 -60c26 22 63 54 63 83c0 19 -16 32 -34 32zM683 265c-37 -21 -55 -77 -55 -122c0 -48 18 -108 59 -108c32 0 45 39 45 81c0 61 -20 105 -49 149z" fill="currentColor"/>
</g>
</a>
</g>
<g staffspace="1.00000000" lilypondversion="2.24.0" isstaff="true">
<g transform="translate(14.2264, 39.0948)">
<line stroke-linejoin="round" stroke-linecap="round" stroke-width="0.1138" stroke="currentColor" x1="0.0569" y1="0" x2="35.5459" y2="0"/>
</g>
<g transform="translate(14.2264, 38.0948)">
<line stroke-linejoin="round" stroke-linecap="round" stroke-width="0.1138" stroke="currentColor" x1="0.0569" y1="0" x2="35.5459" y2="0"/>
</g>
<g transform="translate(14.2264, 37.0948)">
<line stroke-linejoin="round" stroke-linecap="round" stroke-width="0.1138" stroke="currentColor" x1="0.0569" y1="0" x2="35.5459" y2="0"/>
</g>
<g transform="translate(14.2264, 36.0948)">
<line stroke-linejoin="round" stroke-linecap="round" stroke-width="0.1138" stroke="currentColor" x1="0.0569" y1="0" x2="35.5459" y2="0"/>
</g>
<g transform="translate(14.2264, 35.0948)">
<line stroke-linejoin="round" stroke-linecap="round" stroke-width="0.1138" stroke="currentColor" x1="0.0569" y1="0" x2="35.5459" y2="0"/>
</g>
</g>
<g transform="translate(49.6130, 37.0948)">
<rect x="0.0000" y="-2.0000" width="0.2162" height="4.0000" ry="0.0000" fill="currentColor"/>
</g>
<g transform="translate(5.6906, 33.0948)">
<rect x="34.9303" y="-0.1069" width="1.9563" height="0.2138" ry="0.1069" fill="currentColor"/>
</g>
<g transform="translate(5.6906, 34.0948)">
<rect x="34.9303" y="-0.1069" width="1.9563" height="0.2138" ry="0.1069" fill="currentColor"/>
</g>
<g transform="translate(5.6906, 31.0948)">
<rect x="26.3713" y="-0.1069" width="1.9563" height="0.2138" ry="0.1069" fill="currentColor"/>
</g>
<g transform="translate(5.6906, 32.0948)">
<rect x="26.3713" y="-0.1069" width="1.9563" height="0.2138" ry="0.1069" fill="currentColor"/>
</g>
<g transform="translate(5.6906, 33.0948)">
<rect x="26.3713" y="-0.1069" width="1.9563" height="0.2138" ry="0.1069" fill="currentColor"/>
</g>
<g transform="translate(5.6906, 34.0948)">
<rect x="26.3713" y="-0.1069" width="1.9563" height="0.2138" ry="0.1069" fill="currentColor"/>
</g>
<g transform="translate(5.6906, 33.0948)">
<rect x="17.3124" y="-0.1069" width="1.9563" height="0.2138" ry="0.1069" fill="currentColor"/>
</g>
<g transform="translate(5.6906, 34.0948)">
<rect x="17.3124" y="-0.1069" width="1.9563" height="0.2138" ry="0.1069" fill="currentColor"/>
</g>
<a style="color:inherit;" xlink:href="textedit:///dummy/path/file.ly:72:62:63">
<g transform="translate(40.9469, 33.0948)">
<path transform="scale(0.0040, -0.0040)" d="M218 136c55 0 108 -28 108 -89c0 -71 -55 -121 -102 -149c-35 -21 -75 -34 -116 -34c-55 0 -108 28 -108 89c0 71 55 121 102 149c35 21 75 34 116 34z" fill="currentColor"/>
</g>
</a>
<a style="color:inherit;" xlink:href="textedit:///dummy/path/file.ly:72:67:68">
<g transform="translate(40.4040, 51.5597)">
<g>
<path transform="scale(0.0040, -0.0040)" d="M253 245l-50 -163c-30 -99 -121 -255 -218 -255c-45 0 -87 27 -87 69c0 39 17 77 52 77c24 0 44 -20 44 -44c0 -30 -38 -24 -38 -54c0 -10 11 -11 23 -11h6c48 0 61 58 73 108l68 273h-49c-11 0 -19 8 -19 19s8 19 19 19h60c32 96 118 191 213 191c45 0 87 -27 87 -69
c0 -39 -17 -77 -52 -77c-24 0 -44 19 -44 43c0 30 38 25 38 55c0 10 -10 11 -22 11h-7c-62 0 -70 -88 -86 -154h55c11 0 19 -8 19 -19s-8 -19 -19 -19h-66z" fill="currentColor"/>

<path transform="translate(1.1267, 0.0000) scale(0.0040, -0.0040)" d="M253 245l-50 -163c-30 -99 -121 -255 -218 -255c-45 0 -87 27 -87 69c0 39 17 77 52 77c24 0 44 -20 44 -44c0 -30 -38 -24 -38 -54c0 -10 11 -11 23 -11h6c48 0 61 58 73 108l68 273h-49c-11 0 -19 8 -19 19s8 19 19 19h60c32 96 118 191 213 191c45 0 87 -27 87 -69
c0 -39 -17 -77 -52 -77c-24 0 -44 19 -44 43c0 30 38 25 38 55c0 10 -10 11 -22 11h-7c-62 0 -70 -88 -86 -154h55c11 0 19 -8 19 -19s-8 -19 -19 -19h-66z" fill="currentColor"/>
</g>
</g>
</a>
<g transform="translate(41.0209, 37.0948)">
<rect x="-0.0740" y="-3.8139" width="0.1480" height="3.8139" ry="0.0400" fill="currentColor"/>
</g>
<a style="color:inherit;" xlink:href="textedit:///dummy/path/file.ly:72:0:1">
<g transform="translate(32.2267, 28.7644)">
<text font-family="serif" font-style="italic" font-size="1.7461" text-anchor="start" fill="currentColor">
<tspan>3</tspan>
</text>
</g>
</a>
<a style="color:inherit;" xlink:href="textedit:///dummy/path/file.ly:49:1:2">
<g transform="translate(25.9152, 50.9597)">
<line stroke-linejoin="round" stroke-linecap="round" stroke-width="0.1138" stroke="currentColor" x1="0.0000" y1="0.0000" x2="13.4888" y2="0.6666"/>
</g>
<g transform="translate(25.9152, 50.9597)">
<line stroke-linejoin="round" stroke-linecap="round" stroke-width="0.1138" stroke="currentColor" x1="0.0000" y1="-0.0000" x2="13.4888" y2="-0.6666"/>
</g>
</a>
<a style="color:inherit;" xlink:href="textedit:///dummy/path/file.ly:72:42:43">
<g transform="translate(23.3290, 26.7222)">
<path stroke-width="0.0910" stroke-linejoin="round" stroke-linecap="round" stroke="currentColor" fill="currentColor" d="M0.6521 -7.0450C2.9998 -8.7550 15.9223 -8.7550 18.2700 -7.0450L18.2700 -7.0450C15.9223 -8.6184 2.9998 -8.6184 0.6521 -7.0450z"/>
</g>
</a>
<a style="color:inherit;" xlink:href="textedit:///dummy/path/file.ly:49:1:2">
<g transform="translate(26.2650, 62.0378)">
<line stroke-linejoin="round" stroke-linecap="round" stroke-width="0.1138" stroke="currentColor" x1="14.6819" y1="-0.0000" x2="14.6819" y2="-1.0000"/>
</g>
<g transform="translate(26.2650, 62.0378)">
<line stroke-linejoin="round" stroke-linecap="round" stroke-width="0.1138" stroke="currentColor" x1="0.0000" y1="-0.0000" x2="0.0000" y2="-0.0000"/>
</g>
<g transform="translate(26.2650, 62.0378)">
<line stroke-linejoin="round" stroke-linecap="round" stroke-width="0.1138" stroke="currentColor" x1="0.0000" y1="-0.0000" x2="14.6819" y2="-0.0000"/>
</g>
</a>
<a style="color:inherit;" xlink:href="textedit:///dummy/path/file.ly:49:1:2">
<g transform="translate(31.2005, 55.2158)">
<line stroke-linejoin="round" stroke-linecap="round" stroke-width="0.1138" stroke="currentColor" x1="9.7464" y1="-0.0000" x2="9.7464" y2="-1.0000"/>
</g>
<g transform="translate(31.2005, 55.2158)">
<line stroke-linejoin="round" stroke-linecap="round" stroke-width="0.1138" stroke="currentColor" x1="0.0000" y1="-0.0000" x2="0.0000" y2="-0.0000"/>
</g>
<g transform="translate(31.2005, 55.2158)">
<line stroke-linejoin="round" stroke-linecap="round" stroke-width="0.1138" stroke="currentColor" x1="0.0000" y1="-0.0000" x2="9.7464" y2="-0.0000"/>
</g>
</a>
<a style="color:inherit;" xlink:href="textedit:///dummy/path/file.ly:72:37:38">
<g transform="translate(23.3290, 33.0948)">
<path transform="scale(0.0040, -0.0040)" d="M218 136c55 0 108 -28 108 -89c0 -71 -55 -121 -102 -149c-35 -21 -75 -34 -116 -34c-55 0 -108 28 -108 89c0 71 55 121 102 149c35 21 75 34 116 34z" fill="currentColor"/>
</g>
</a>
<g transform="translate(15.0264, 38.0948)">
<path transform="scale(0.0040, -0.0040)" d="M376 262c4 0 9 1 13 1c155 0 256 -128 256 -261c0 -76 -33 -154 -107 -210c-22 -17 -47 -28 -73 -36c3 -35 5 -70 5 -105c0 -19 -1 -39 -2 -58c-7 -120 -90 -228 -208 -228c-108 0 -195 88 -195 197c0 58 53 103 112 103c54 0 95 -47 95 -103c0 -52 -43 -95 -95 -95
c-11 0 -21 2 -31 6c26 -39 68 -65 117 -65c96 0 157 92 163 191c1 18 2 37 2 55c0 31 -1 61 -4 92c-29 -5 -58 -8 -89 -8c-188 0 -333 172 -333 374c0 177 131 306 248 441c-19 62 -37 126 -45 191c-6 52 -7 103 -7 155c0 115 55 224 149 292c3 2 7 3 10 3c4 0 7 0 10 -3
c71 -84 133 -245 133 -358c0 -143 -86 -255 -180 -364c21 -68 39 -138 56 -207zM461 -203c68 24 113 95 113 164c0 90 -66 179 -173 190c24 -116 46 -231 60 -354zM74 28c0 -135 129 -247 264 -247c28 0 55 2 82 6c-14 127 -37 245 -63 364c-79 -8 -124 -61 -124 -119
c0 -44 25 -91 81 -123c5 -5 7 -10 7 -15c0 -11 -10 -22 -22 -22c-3 0 -6 1 -9 2c-80 43 -117 115 -117 185c0 88 58 174 160 197c-14 58 -29 117 -46 175c-107 -121 -213 -243 -213 -403zM408 1045c-99 -48 -162 -149 -162 -259c0 -74 18 -133 36 -194
c80 97 146 198 146 324c0 55 -4 79 -20 129z" fill="currentColor"/>
</g>
<g transform="translate(19.2947, 37.0948)">
<path transform="scale(0.0040, -0.0040)" d="M102 135c9 2 18 3 27 3c33 0 70 -11 105 -36c21 -15 46 -23 66 -23c21 0 39 9 44 29c2 6 6 9 11 9c6 0 12 -5 12 -12c0 -67 -90 -105 -138 -105c-36 0 -71 14 -96 44c-13 16 -31 22 -48 22c-30 0 -59 -20 -62 -55c-1 -7 -6 -11 -11 -11c-6 0 -12 4 -12 11
c0 174 232 166 232 344c0 59 -16 122 -67 122c-25 0 -49 -14 -49 -37c0 -27 35 -41 35 -68c0 -38 -31 -69 -69 -69s-69 31 -69 69c0 76 72 128 152 128c95 0 183 -57 183 -145c0 -151 -150 -159 -246 -220z" fill="currentColor"/>
</g>
<g transform="translate(19.2264, 39.0988)">
<path transform="scale(0.0040, -0.0040)" d="M204 307c22 14 44 29 60 50c11 15 19 33 27 50c2 4 5 6 9 6c6 0 13 -5 13 -14v-245h72c10 0 15 -7 15 -14s-5 -15 -15 -15h-72v-8c0 -48 27 -94 72 -94c8 0 12 -5 12 -11s-4 -12 -12 -12c-44 0 -87 13 -131 13s-87 -13 -131 -13c-8 0 -12 6 -12 12s4 11 12 11
c45 0 73 46 73 94v8h-167c-23 0 -31 14 -31 23c0 3 1 5 2 6c80 93 138 207 138 330c0 9 6 16 13 16h3c23 -7 47 -13 71 -13s48 6 71 13c2 1 3 1 5 1c11 0 18 -10 12 -17l-284 -330h167v131c0 8 1 17 8 22z" fill="currentColor"/>
</g>
<g transform="translate(23.4030, 37.0948)">
<rect x="-0.0740" y="-3.8139" width="0.1480" height="3.8139" ry="0.0400" fill="currentColor"/>
</g>
<a style="color:inherit;" xlink:href="textedit:///dummy/path/file.ly:72:56:57">
<g transform="translate(32.3879, 30.5948)">
<path transform="scale(0.0040, -0.0040)" d="M218 136c55 0 108 -28 108 -89c0 -71 -55 -121 -102 -149c-35 -21 -75 -34 -116 -34c-55 0 -108 28 -108 89c0 71 55 121 102 149c35 21 75 34 116 34z" fill="currentColor"/>
</g>
</a>
<g transform="translate(32.4619, 37.0948)">
<rect x="-0.0740" y="-6.3139" width="0.1480" height="6.3139" ry="0.0400" fill="currentColor"/>
</g>
<g transform="translate(28.8852, 165.1062)">
<a xlink:href="https://lilypond.org/">
<rect x="0.0000" y="-0.4888" width="61.7311" height="2.1604" fill="none" stroke="none" stroke-width="0.0"/>
</a>
</g>
<g transform="translate(28.8852, 165.1062)">
<text font-family="serif" font-size="2.2001" text-anchor="start" fill="currentColor">
<tspan>Music engraving by LilyPond 2.24.0—www.lilypond.org</tspan>
</text>
</g>
</svg>
