<svg xmlns="http://www.w3.org/2000/svg" xmlns:xlink="http://www.w3.org/1999/xlink" version="1.2" width="210.00mm" height="297.00mm" viewBox="0.0000 -0.0000 119.5016 169.0094">
<style type="text/css">
<![CDATA[
tspan { white-space: pre; }
]]>
</style>
<g transform="translate(5.6906, 4.4782)">
<text font-family="serif" font-size="2.2001" text-anchor="start" fill="currentColor">
<tspan>2</tspan>
</text>
</g>
<g staffspace="1.00000000" gridstep="3" gridify="true" lilypondversion="2.24.4" isstaff="true">
<g transform="translate(5.6906, 19.0232)">
<line stroke-linejoin="round" stroke-linecap="round" stroke-width="0.1138" stroke="currentColor" x1="0.0569" y1="0" x2="108.0636" y2="0"/>
</g>
<g transform="translate(5.6906, 18.0232)">
<line stroke-linejoin="round" stroke-linecap="round" stroke-width="0.1138" stroke="currentColor" x1="0.0569" y1="0" x2="108.0636" y2="0"/>
</g>
<g transform="translate(5.6906, 17.0232)">
<line stroke-linejoin="round" stroke-linecap="round" stroke-width="0.1138" stroke="currentColor" x1="0.0569" y1="0" x2="108.0636" y2="0"/>
</g>
<g transform="translate(5.6906, 16.0232)">
<line stroke-linejoin="round" stroke-linecap="round" stroke-width="0.1138" stroke="currentColor" x1="0.0569" y1="0" x2="108.0636" y2="0"/>
</g>
<g transform="translate(5.6906, 15.0232)">
<line stroke-linejoin="round" stroke-linecap="round" stroke-width="0.1138" stroke="currentColor" x1="0.0569" y1="0" x2="108.0636" y2="0"/>
</g>
</g>
<g transform="translate(5.6906, 13.0232)">
<rect x="79.7325" y="-0.1069" width="1.9563" height="0.2138" ry="0.1069" fill="currentColor"/>
</g>
<g transform="translate(5.6906, 14.0232)">
<rect x="79.7325" y="-0.1069" width="1.9563" height="0.2138" ry="0.1069" fill="currentColor"/>
</g>
<g transform="translate(5.6906, 20.0232)">
<rect x="65.5376" y="-0.1069" width="1.9563" height="0.2138" ry="0.1069" fill="currentColor"/>
</g>
<g transform="translate(5.6906, 21.0232)">
<rect x="65.5376" y="-0.1069" width="1.9563" height="0.2138" ry="0.1069" fill="currentColor"/>
</g>
<g transform="translate(5.6906, 22.0232)">
<rect x="65.5376" y="-0.1069" width="1.9563" height="0.2138" ry="0.1069" fill="currentColor"/>
</g>
<g transform="translate(5.6906, 23.0232)">
<rect x="65.5376" y="-0.1069" width="1.9563" height="0.2138" ry="0.1069" fill="currentColor"/>
</g>
<g transform="translate(5.6906, 24.0232)">
<rect x="65.5376" y="-0.1069" width="1.9563" height="0.2138" ry="0.1069" fill="currentColor"/>
</g>
<g transform="translate(5.6906, 25.0232)">
<rect x="65.5376" y="-0.1069" width="1.9563" height="0.2138" ry="0.1069" fill="currentColor"/>
</g>
<g transform="translate(5.6906, 26.0232)">
<rect x="65.5376" y="-0.1069" width="1.9563" height="0.2138" ry="0.1069" fill="currentColor"/>
</g>
<g transform="translate(5.6906, 27.0232)">
<rect x="65.5376" y="-0.1069" width="1.9563" height="0.2138" ry="0.1069" fill="currentColor"/>
</g>
<g transform="translate(5.6906, 28.0232)">
<rect x="65.5376" y="-0.1069" width="1.9563" height="0.2138" ry="0.1069" fill="currentColor"/>
</g>
<g transform="translate(5.6906, 6.0232)">
<rect x="33.7859" y="-0.1069" width="1.9563" height="0.2138" ry="0.1069" fill="currentColor"/>
</g>
<g transform="translate(5.6906, 7.0232)">
<rect x="33.7859" y="-0.1069" width="1.9563" height="0.2138" ry="0.1069" fill="currentColor"/>
</g>
<g transform="translate(5.6906, 8.0232)">
<rect x="33.7859" y="-0.1069" width="1.9563" height="0.2138" ry="0.1069" fill="currentColor"/>
</g>
<g transform="translate(5.6906, 9.0232)">
<rect x="33.7859" y="-0.1069" width="1.9563" height="0.2138" ry="0.1069" fill="currentColor"/>
</g>
<g transform="translate(5.6906, 10.0232)">
<rect x="33.7859" y="-0.1069" width="1.9563" height="0.2138" ry="0.1069" fill="currentColor"/>
</g>
<g transform="translate(5.6906, 11.0232)">
<rect x="33.7859" y="-0.1069" width="1.9563" height="0.2138" ry="0.1069" fill="currentColor"/>
</g>
<g transform="translate(5.6906, 12.0232)">
<rect x="33.7859" y="-0.1069" width="1.9563" height="0.2138" ry="0.1069" fill="currentColor"/>
</g>
<g transform="translate(5.6906, 13.0232)">
<rect x="33.7859" y="-0.1069" width="1.9563" height="0.2138" ry="0.1069" fill="currentColor"/>
</g>
<g transform="translate(5.6906, 14.0232)">
<rect x="33.7859" y="-0.1069" width="1.9563" height="0.2138" ry="0.1069" fill="currentColor"/>
</g>
<g transform="translate(5.6906, 13.0232)">
<rect x="5.4739" y="-0.1069" width="1.9563" height="0.2138" ry="0.1069" fill="currentColor"/>
</g>
<g transform="translate(5.6906, 14.0232)">
<rect x="5.4739" y="-0.1069" width="1.9563" height="0.2138" ry="0.1069" fill="currentColor"/>
</g>
<g transform="translate(67.8380, 17.0232)">
<rect x="0.0000" y="-2.0000" width="0.2162" height="4.0000" ry="0.0000" fill="currentColor"/>
</g>
<g transform="translate(72.7844, 17.0232)">
<rect x="-0.0740" y="-0.0000" width="0.1480" height="10.8139" ry="0.0400" fill="currentColor"/>
</g>
<a style="color:inherit;" xlink:href="textedit:///dummy/path/file.ly:169:0:1">
<g transform="translate(71.5542, 28.0232)">
<path transform="scale(0.0040, -0.0040)" d="M218 136c55 0 108 -28 108 -89c0 -71 -55 -121 -102 -149c-35 -21 -75 -34 -116 -34c-55 0 -108 28 -108 89c0 71 55 121 102 149c35 21 75 34 116 34z" fill="currentColor"/>
</g>
</a>
<a style="color:inherit;" xlink:href="textedit:///dummy/path/file.ly:167:126:127">
<g transform="translate(53.9974, 17.0232)">
<path transform="scale(0.0040, -0.0040)" d="M-23 -116c0 28 11 42 40 42c33 0 78 -13 119 -31l-132 158c-7 9 -10 17 -10 25c0 34 50 66 87 99c25 22 37 52 37 83c0 24 -8 49 -25 69l-35 42c-3 3 -4 7 -4 10c0 9 9 15 17 15c4 0 8 -1 11 -5l151 -180c7 -9 10 -17 10 -25c0 -34 -50 -66 -87 -99
c-25 -22 -37 -52 -37 -83c0 -24 7 -49 24 -69l84 -99c3 -3 4 -7 4 -10c0 -9 -8 -16 -16 -16c-4 0 -9 2 -12 6c-18 21 -63 38 -97 38c-41 0 -53 -26 -53 -67c0 -35 11 -74 28 -94c5 -6 0 -13 -6 -13c-2 0 -4 0 -6 2c-45 54 -92 148 -92 202z" fill="currentColor"/>
</g>
</a>
<a style="color:inherit;" xlink:href="textedit:///dummy/path/file.ly:174:0:1">
<g transform="translate(94.5720, 22.4156)">
<text font-family="serif" font-style="italic" font-size="1.7461" text-anchor="start" fill="currentColor">
<tspan>3</tspan>
</text>
</g>
</a>
<a style="color:inherit;" xlink:href="textedit:///dummy/path/file.ly:167:0:1">
<g transform="translate(20.8916, 11.8018)">
<text font-family="serif" font-style="italic" font-size="1.7461" text-anchor="start" fill="currentColor">
<tspan>3</tspan>
</text>
</g>
</a>
<g transform="translate(104.4477, 17.0232)">
<rect x="-0.0740" y="-0.3139" width="0.1480" height="3.3139" ry="0.0400" fill="currentColor"/>
</g>
<a style="color:inherit;" xlink:href="textedit:///dummy/path/file.ly:174:101:102">
<g transform="translate(104.3737, 16.5232)">
<path transform="scale(0.0040, -0.0040)" d="M218 136c55 0 108 -28 108 -89c0 -71 -55 -121 -102 -149c-35 -21 -75 -34 -116 -34c-55 0 -108 28 -108 89c0 71 55 121 102 149c35 21 75 34 116 34z" fill="currentColor"/>
</g>
</a>
<g transform="translate(95.0104, 17.0232)">
<rect x="-0.0740" y="-0.3139" width="0.1480" height="3.3139" ry="0.0400" fill="currentColor"/>
</g>
<a style="color:inherit;" xlink:href="textedit:///dummy/path/file.ly:174:96:97">
<g transform="translate(94.9364, 16.5232)">
<path transform="scale(0.0040, -0.0040)" d="M218 136c55 0 108 -28 108 -89c0 -71 -55 -121 -102 -149c-35 -21 -75 -34 -116 -34c-55 0 -108 28 -108 89c0 71 55 121 102 149c35 21 75 34 116 34z" fill="currentColor"/>
</g>
</a>
<g transform="translate(85.8231, 17.0232)">
<rect x="-0.0740" y="-3.8139" width="0.1480" height="3.8139" ry="0.0400" fill="currentColor"/>
</g>
<a style="color:inherit;" xlink:href="textedit:///dummy/path/file.ly:174:31:32">
<g transform="translate(85.7491, 11.9985)">
<text font-family="serif" font-size="1.3860" text-anchor="start" fill="currentColor">
<tspan>staff-padding + outside-staff-padding</tspan>
</text>
</g>
</a>
<a style="color:inherit;" xlink:href="textedit:///dummy/path/file.ly:174:25:26">
<g transform="translate(85.7491, 13.0232)">
<path transform="scale(0.0040, -0.0040)" d="M218 136c55 0 108 -28 108 -89c0 -71 -55 -121 -102 -149c-35 -21 -75 -34 -116 -34c-55 0 -108 28 -108 89c0 71 55 121 102 149c35 21 75 34 116 34z" fill="currentColor"/>
</g>
</a>
<g transform="translate(11.5645, 17.0232)">
<rect x="-0.0740" y="-3.8139" width="0.1480" height="3.8139" ry="0.0400" fill="currentColor"/>
</g>
<a style="color:inherit;" xlink:href="textedit:///dummy/path/file.ly:167:31:32">
<g transform="translate(11.4906, 21.3003)">
<text font-family="serif" font-size="1.3860" text-anchor="start" fill="currentColor">
<tspan>staff-padding + outside-staff-padding</tspan>
</text>
</g>
</a>
<a style="color:inherit;" xlink:href="textedit:///dummy/path/file.ly:167:25:26">
<g transform="translate(11.4906, 13.0232)">
<path transform="scale(0.0040, -0.0040)" d="M218 136c55 0 108 -28 108 -89c0 -71 -55 -121 -102 -149c-35 -21 -75 -34 -116 -34c-55 0 -108 28 -108 89c0 71 55 121 102 149c35 21 75 34 116 34z" fill="currentColor"/>
</g>
</a>
<g transform="translate(3.4371, 13.9732)">
<text font-family="serif" font-size="1.7461" text-anchor="start" fill="currentColor">
<tspan>21</tspan>
</text>
</g>
<g transform="translate(6.4906, 18.0232)">
<path transform="scale(0.0040, -0.0040)" d="M376 262c4 0 9 1 13 1c155 0 256 -128 256 -261c0 -76 -33 -154 -107 -210c-22 -17 -47 -28 -73 -36c3 -35 5 -70 5 -105c0 -19 -1 -39 -2 -58c-7 -120 -90 -228 -208 -228c-108 0 -195 88 -195 197c0 58 53 103 112 103c54 0 95 -47 95 -103c0 -52 -43 -95 -95 -95
c-11 0 -21 2 -31 6c26 -39 68 -65 117 -65c96 0 157 92 163 191c1 18 2 37 2 55c0 31 -1 61 -4 92c-29 -5 -58 -8 -89 -8c-188 0 -333 172 -333 374c0 177 131 306 248 441c-19 62 -37 126 -45 191c-6 52 -7 103 -7 155c0 115 55 224 149 292c3 2 7 3 10 3c4 0 7 0 10 -3
c71 -84 133 -245 133 -358c0 -143 -86 -255 -180 -364c21 -68 39 -138 56 -207zM461 -203c68 24 113 95 113 164c0 90 -66 179 -173 190c24 -116 46 -231 60 -354zM74 28c0 -135 129 -247 264 -247c28 0 55 2 82 6c-14 127 -37 245 -63 364c-79 -8 -124 -61 -124 -119
c0 -44 25 -91 81 -123c5 -5 7 -10 7 -15c0 -11 -10 -22 -22 -22c-3 0 -6 1 -9 2c-80 43 -117 115 -117 185c0 88 58 174 160 197c-14 58 -29 117 -46 175c-107 -121 -213 -243 -213 -403zM408 1045c-99 -48 -162 -149 -162 -259c0 -74 18 -133 36 -194
c80 97 146 198 146 324c0 55 -4 79 -20 129z" fill="currentColor"/>
</g>
<a style="color:inherit;" xlink:href="textedit:///dummy/path/file.ly:167:119:120">
<g transform="translate(39.8025, 6.0232)">
<path transform="scale(0.0040, -0.0040)" d="M218 136c55 0 108 -28 108 -89c0 -71 -55 -121 -102 -149c-35 -21 -75 -34 -116 -34c-55 0 -108 28 -108 89c0 71 55 121 102 149c35 21 75 34 116 34z" fill="currentColor"/>
</g>
</a>
<g transform="translate(39.8765, 17.0232)">
<rect x="-0.0740" y="-10.8139" width="0.1480" height="10.8139" ry="0.0400" fill="currentColor"/>
</g>
<g transform="translate(30.1892, 17.0232)">
<rect x="-0.0740" y="-0.3139" width="0.1480" height="3.3139" ry="0.0400" fill="currentColor"/>
</g>
<a style="color:inherit;" xlink:href="textedit:///dummy/path/file.ly:167:101:102">
<g transform="translate(30.1152, 16.5232)">
<path transform="scale(0.0040, -0.0040)" d="M218 136c55 0 108 -28 108 -89c0 -71 -55 -121 -102 -149c-35 -21 -75 -34 -116 -34c-55 0 -108 28 -108 89c0 71 55 121 102 149c35 21 75 34 116 34z" fill="currentColor"/>
</g>
</a>
<g transform="translate(20.7518, 17.0232)">
<rect x="-0.0740" y="-0.3139" width="0.1480" height="3.3139" ry="0.0400" fill="currentColor"/>
</g>
<a style="color:inherit;" xlink:href="textedit:///dummy/path/file.ly:167:96:97">
<g transform="translate(20.6779, 16.5232)">
<path transform="scale(0.0040, -0.0040)" d="M218 136c55 0 108 -28 108 -89c0 -71 -55 -121 -102 -149c-35 -21 -75 -34 -116 -34c-55 0 -108 28 -108 89c0 71 55 121 102 149c35 21 75 34 116 34z" fill="currentColor"/>
</g>
</a>
<g staffspace="1.00000000" outside-staff-padding-propid="31" editcommand="OnceOverride" editableclass="OttavaBracket" spontinieditable="true" y-direction="-1">
<a style="color:inherit;" xlink:href="textedit:///dummy/path/file.ly:174:14:15">
<g transform="translate(84.9491, 25.5040)">
<text font-family="serif" font-weight="bold" font-style="italic" font-size="2.2001" text-anchor="start" fill="currentColor">
<tspan>8</tspan>
</text>
</g>
<g transform="translate(86.7855, 24.7031)">
<line stroke-linejoin="round" stroke-linecap="round" stroke-width="0.1138" stroke="currentColor" x1="19.4924" y1="-0.0000" x2="19.4924" y2="-0.8000"/>
</g>
<g transform="translate(86.7855, 24.7031)">
<line stroke-linejoin="round" stroke-linecap="round" stroke-width="0.1138" stroke="currentColor" x1="0.0000" y1="-0.0000" x2="0.0000" y2="-0.0000"/>
</g>
<g transform="translate(86.7855, 24.7031)">
<line stroke-linejoin="round" stroke-linecap="round" stroke-width="0.1138" stroke="currentColor" x1="0" y1="0" x2="19.4924" y2="-0.0000" stroke-dasharray="0.30299061803436134,0.7069781087468432"/>
</g>
<g color="rgb(12.3000%, 45.6000%, 78.9000%)">
<g transform="scale(1.0000, -1.0000)">
<g transform="translate(95.6419, -21.8711)">
<line stroke-linejoin="round" stroke-linecap="round" stroke-width="0.1138" stroke="currentColor" x1="0" y1="0" x2="-1" y2="0"/>
</g>
</g>
</g>
<g color="rgb(12.3000%, 45.6000%, 78.9000%)">
<g transform="scale(1.0000, -1.0000)">
<g transform="translate(95.1419, -21.8711)">
<line stroke-linejoin="round" stroke-linecap="round" stroke-width="0.1138" stroke="currentColor" x1="0" y1="0" x2="0" y2="-2.0000"/>
</g>
</g>
</g>
<g color="rgb(12.3000%, 45.6000%, 78.9000%)">
<g transform="scale(1.0000, 1.0000)">
<g transform="translate(95.6419, 23.8711)">
<line stroke-linejoin="round" stroke-linecap="round" stroke-width="0.1138" stroke="currentColor" x1="0" y1="0" x2="-1" y2="0"/>
</g>
</g>
</g>
<g color="rgb(12.3000%, 45.6000%, 78.9000%)">
<g transform="scale(1.0000, -1.0000)">
<g transform="translate(95.6419, -25.5351)">
<line stroke-linejoin="round" stroke-linecap="round" stroke-width="0.1138" stroke="currentColor" x1="0" y1="0" x2="-1" y2="0"/>
</g>
</g>
</g>
<g color="rgb(12.3000%, 45.6000%, 78.9000%)">
<g transform="scale(1.0000, -1.0000)">
<g transform="translate(95.1419, -25.5351)">
<line stroke-linejoin="round" stroke-linecap="round" stroke-width="0.1138" stroke="currentColor" x1="0" y1="0" x2="0" y2="-2.0000"/>
</g>
</g>
</g>
<g color="rgb(12.3000%, 45.6000%, 78.9000%)">
<g transform="scale(1.0000, 1.0000)">
<g transform="translate(95.6419, 27.5351)">
<line stroke-linejoin="round" stroke-linecap="round" stroke-width="0.1138" stroke="currentColor" x1="0" y1="0" x2="-1" y2="0"/>
</g>
</g>
</g>
</a>
</g>
<g staffspace="1.00000000" staff-padding-propid="32" editcommand="OnceOverride" editableclass="TupletBracket" spontinieditable="true" y-direction="-1">
<a style="color:inherit;" xlink:href="textedit:///dummy/path/file.ly:174:0:1">
<g transform="translate(85.7491, 21.7801)">
<line stroke-linejoin="round" stroke-linecap="round" stroke-width="0.1821" stroke="currentColor" x1="18.9726" y1="-0.0000" x2="18.9726" y2="-0.7000"/>
</g>
<g transform="translate(85.7491, 21.7801)">
<line stroke-linejoin="round" stroke-linecap="round" stroke-width="0.1821" stroke="currentColor" x1="-0.2000" y1="-0.0000" x2="-0.2000" y2="-0.7000"/>
</g>
<g transform="translate(85.7491, 21.7801)">
<line stroke-linejoin="round" stroke-linecap="round" stroke-width="0.1821" stroke="currentColor" x1="18.9726" y1="-0.0000" x2="10.5497" y2="-0.0000"/>
</g>
<g transform="translate(85.7491, 21.7801)">
<line stroke-linejoin="round" stroke-linecap="round" stroke-width="0.1821" stroke="currentColor" x1="-0.2000" y1="-0.0000" x2="8.4229" y2="-0.0000"/>
</g>
<g color="rgb(12.3000%, 45.6000%, 78.9000%)">
<g transform="scale(1.0000, -1.0000)">
<g transform="translate(95.1354, -19.3890)">
<line stroke-linejoin="round" stroke-linecap="round" stroke-width="0.1821" stroke="currentColor" x1="0" y1="0" x2="-1" y2="0"/>
</g>
</g>
</g>
<g color="rgb(12.3000%, 45.6000%, 78.9000%)">
<g transform="scale(1.0000, -1.0000)">
<g transform="translate(94.6354, -19.3890)">
<line stroke-linejoin="round" stroke-linecap="round" stroke-width="0.1821" stroke="currentColor" x1="0" y1="0" x2="0" y2="-1.6000"/>
</g>
</g>
</g>
<g color="rgb(12.3000%, 45.6000%, 78.9000%)">
<g transform="scale(1.0000, 1.0000)">
<g transform="translate(95.1354, 20.9890)">
<line stroke-linejoin="round" stroke-linecap="round" stroke-width="0.1821" stroke="currentColor" x1="0" y1="0" x2="-1" y2="0"/>
</g>
</g>
</g>
</a>
</g>
<g staffspace="1.00000000" outside-staff-padding-propid="29" editcommand="OnceOverride" editableclass="OttavaBracket" spontinieditable="true" y-direction="1">
<a style="color:inherit;" xlink:href="textedit:///dummy/path/file.ly:167:14:15">
<g transform="translate(10.6906, 8.9441)">
<text font-family="serif" font-weight="bold" font-style="italic" font-size="2.2001" text-anchor="start" fill="currentColor">
<tspan>8</tspan>
</text>
</g>
<g transform="translate(12.5270, 8.1432)">
<line stroke-linejoin="round" stroke-linecap="round" stroke-width="0.1138" stroke="currentColor" x1="19.4924" y1="-0.0000" x2="19.4924" y2="0.8000"/>
</g>
<g transform="translate(12.5270, 8.1432)">
<line stroke-linejoin="round" stroke-linecap="round" stroke-width="0.1138" stroke="currentColor" x1="0.0000" y1="-0.0000" x2="0.0000" y2="-0.0000"/>
</g>
<g transform="translate(12.5270, 8.1432)">
<line stroke-linejoin="round" stroke-linecap="round" stroke-width="0.1138" stroke="currentColor" x1="0" y1="0" x2="19.4924" y2="-0.0000" stroke-dasharray="0.3029906180343616,0.7069781087468439"/>
</g>
<g color="rgb(12.3000%, 45.6000%, 78.9000%)">
<g transform="scale(1.0000, 1.0000)">
<g transform="translate(21.3834, 11.0752)">
<line stroke-linejoin="round" stroke-linecap="round" stroke-width="0.1138" stroke="currentColor" x1="0" y1="0" x2="-1" y2="0"/>
</g>
</g>
</g>
<g color="rgb(12.3000%, 45.6000%, 78.9000%)">
<g transform="scale(1.0000, 1.0000)">
<g transform="translate(20.8834, 11.0752)">
<line stroke-linejoin="round" stroke-linecap="round" stroke-width="0.1138" stroke="currentColor" x1="0" y1="0" x2="0" y2="-2.1000"/>
</g>
</g>
</g>
<g color="rgb(12.3000%, 45.6000%, 78.9000%)">
<g transform="scale(1.0000, -1.0000)">
<g transform="translate(21.3834, -8.9752)">
<line stroke-linejoin="round" stroke-linecap="round" stroke-width="0.1138" stroke="currentColor" x1="0" y1="0" x2="-1" y2="0"/>
</g>
</g>
</g>
<g color="rgb(12.3000%, 45.6000%, 78.9000%)">
<g transform="scale(1.0000, 1.0000)">
<g transform="translate(21.3834, 7.3112)">
<line stroke-linejoin="round" stroke-linecap="round" stroke-width="0.1138" stroke="currentColor" x1="0" y1="0" x2="-1" y2="0"/>
</g>
</g>
</g>
<g color="rgb(12.3000%, 45.6000%, 78.9000%)">
<g transform="scale(1.0000, 1.0000)">
<g transform="translate(20.8834, 7.3112)">
<line stroke-linejoin="round" stroke-linecap="round" stroke-width="0.1138" stroke="currentColor" x1="0" y1="0" x2="0" y2="-2.1000"/>
</g>
</g>
</g>
<g color="rgb(12.3000%, 45.6000%, 78.9000%)">
<g transform="scale(1.0000, -1.0000)">
<g transform="translate(21.3834, -5.2112)">
<line stroke-linejoin="round" stroke-linecap="round" stroke-width="0.1138" stroke="currentColor" x1="0" y1="0" x2="-1" y2="0"/>
</g>
</g>
</g>
</a>
</g>
<g staffspace="1.00000000" staff-padding-propid="30" editcommand="OnceOverride" editableclass="TupletBracket" spontinieditable="true" y-direction="1">
<a style="color:inherit;" xlink:href="textedit:///dummy/path/file.ly:167:0:1">
<g transform="translate(11.4906, 11.1663)">
<line stroke-linejoin="round" stroke-linecap="round" stroke-width="0.1821" stroke="currentColor" x1="20.1288" y1="-0.0000" x2="20.1288" y2="0.7000"/>
</g>
<g transform="translate(11.4906, 11.1663)">
<line stroke-linejoin="round" stroke-linecap="round" stroke-width="0.1821" stroke="currentColor" x1="-0.2000" y1="-0.0000" x2="-0.2000" y2="0.7000"/>
</g>
<g transform="translate(11.4906, 11.1663)">
<line stroke-linejoin="round" stroke-linecap="round" stroke-width="0.1821" stroke="currentColor" x1="20.1288" y1="-0.0000" x2="11.1278" y2="-0.0000"/>
</g>
<g transform="translate(11.4906, 11.1663)">
<line stroke-linejoin="round" stroke-linecap="round" stroke-width="0.1821" stroke="currentColor" x1="-0.2000" y1="-0.0000" x2="9.0011" y2="-0.0000"/>
</g>
<g color="rgb(12.3000%, 45.6000%, 78.9000%)">
<g transform="scale(1.0000, 1.0000)">
<g transform="translate(21.4550, 14.6573)">
<line stroke-linejoin="round" stroke-linecap="round" stroke-width="0.1821" stroke="currentColor" x1="0" y1="0" x2="-1" y2="0"/>
</g>
</g>
</g>
<g color="rgb(12.3000%, 45.6000%, 78.9000%)">
<g transform="scale(1.0000, 1.0000)">
<g transform="translate(20.9550, 14.6573)">
<line stroke-linejoin="round" stroke-linecap="round" stroke-width="0.1821" stroke="currentColor" x1="0" y1="0" x2="0" y2="-2.7000"/>
</g>
</g>
</g>
<g color="rgb(12.3000%, 45.6000%, 78.9000%)">
<g transform="scale(1.0000, -1.0000)">
<g transform="translate(21.4550, -11.9573)">
<line stroke-linejoin="round" stroke-linecap="round" stroke-width="0.1821" stroke="currentColor" x1="0" y1="0" x2="-1" y2="0"/>
</g>
</g>
</g>
</a>
</g>
<g transform="translate(28.8852, 165.1062)">
<a xlink:href="https://lilypond.org/">
<rect x="0.0000" y="-0.4888" width="61.7311" height="2.1604" fill="none" stroke="none" stroke-width="0.0"/>
</a>
</g>
<g transform="translate(28.8852, 165.1062)">
<text font-family="serif" font-size="2.2001" text-anchor="start" fill="currentColor">
<tspan>Music engraving by LilyPond 2.24.4—www.lilypond.org</tspan>
</text>
</g>
</svg>
