<svg xmlns="http://www.w3.org/2000/svg" xmlns:xlink="http://www.w3.org/1999/xlink" version="1.2" width="210.00mm" height="297.00mm" viewBox="0 0 119.5016 169.0094">
<style text="style/css">
<![CDATA[
tspan { white-space: pre; }
]]>
</style>
<!-- Page: 2/2 -->
<text transform="translate(5.6906, 4.4842)" font-family="serif" font-size="2.2001" text-anchor="start" fill="currentColor">
<tspan>2</tspan>
</text>
<text transform="translate(113.8110, 4.4842)" font-family="serif" font-size="2.2001" text-anchor="start" fill="currentColor">
<tspan/>
</text>
<g gridstep="3" gridify="true" isstaff="true">
<line transform="translate(5.6906, 19.0292)" stroke-linejoin="round" stroke-linecap="round" stroke-width="0.1138" stroke="currentColor" x1="0.0569" y1="-0.0000" x2="108.0636" y2="-0.0000"/>
<line transform="translate(5.6906, 18.0292)" stroke-linejoin="round" stroke-linecap="round" stroke-width="0.1138" stroke="currentColor" x1="0.0569" y1="-0.0000" x2="108.0636" y2="-0.0000"/>
<line transform="translate(5.6906, 17.0292)" stroke-linejoin="round" stroke-linecap="round" stroke-width="0.1138" stroke="currentColor" x1="0.0569" y1="-0.0000" x2="108.0636" y2="-0.0000"/>
<line transform="translate(5.6906, 16.0292)" stroke-linejoin="round" stroke-linecap="round" stroke-width="0.1138" stroke="currentColor" x1="0.0569" y1="-0.0000" x2="108.0636" y2="-0.0000"/>
<line transform="translate(5.6906, 15.0292)" stroke-linejoin="round" stroke-linecap="round" stroke-width="0.1138" stroke="currentColor" x1="0.0569" y1="-0.0000" x2="108.0636" y2="-0.0000"/>
</g>
<rect transform="translate(5.6906, 13.0292)" x="79.7325" y="-0.1069" width="1.9563" height="0.2138" ry="0.1069" fill="currentColor"/>
<rect transform="translate(5.6906, 14.0292)" x="79.7325" y="-0.1069" width="1.9563" height="0.2138" ry="0.1069" fill="currentColor"/>
<rect transform="translate(5.6906, 20.0292)" x="65.5376" y="-0.1069" width="1.9563" height="0.2138" ry="0.1069" fill="currentColor"/>
<rect transform="translate(5.6906, 21.0292)" x="65.5376" y="-0.1069" width="1.9563" height="0.2138" ry="0.1069" fill="currentColor"/>
<rect transform="translate(5.6906, 22.0292)" x="65.5376" y="-0.1069" width="1.9563" height="0.2138" ry="0.1069" fill="currentColor"/>
<rect transform="translate(5.6906, 23.0292)" x="65.5376" y="-0.1069" width="1.9563" height="0.2138" ry="0.1069" fill="currentColor"/>
<rect transform="translate(5.6906, 24.0292)" x="65.5376" y="-0.1069" width="1.9563" height="0.2138" ry="0.1069" fill="currentColor"/>
<rect transform="translate(5.6906, 25.0292)" x="65.5376" y="-0.1069" width="1.9563" height="0.2138" ry="0.1069" fill="currentColor"/>
<rect transform="translate(5.6906, 26.0292)" x="65.5376" y="-0.1069" width="1.9563" height="0.2138" ry="0.1069" fill="currentColor"/>
<rect transform="translate(5.6906, 27.0292)" x="65.5376" y="-0.1069" width="1.9563" height="0.2138" ry="0.1069" fill="currentColor"/>
<rect transform="translate(5.6906, 28.0292)" x="65.5376" y="-0.1069" width="1.9563" height="0.2138" ry="0.1069" fill="currentColor"/>
<rect transform="translate(5.6906, 6.0292)" x="33.7859" y="-0.1069" width="1.9563" height="0.2138" ry="0.1069" fill="currentColor"/>
<rect transform="translate(5.6906, 7.0292)" x="33.7859" y="-0.1069" width="1.9563" height="0.2138" ry="0.1069" fill="currentColor"/>
<rect transform="translate(5.6906, 8.0292)" x="33.7859" y="-0.1069" width="1.9563" height="0.2138" ry="0.1069" fill="currentColor"/>
<rect transform="translate(5.6906, 9.0292)" x="33.7859" y="-0.1069" width="1.9563" height="0.2138" ry="0.1069" fill="currentColor"/>
<rect transform="translate(5.6906, 10.0292)" x="33.7859" y="-0.1069" width="1.9563" height="0.2138" ry="0.1069" fill="currentColor"/>
<rect transform="translate(5.6906, 11.0292)" x="33.7859" y="-0.1069" width="1.9563" height="0.2138" ry="0.1069" fill="currentColor"/>
<rect transform="translate(5.6906, 12.0292)" x="33.7859" y="-0.1069" width="1.9563" height="0.2138" ry="0.1069" fill="currentColor"/>
<rect transform="translate(5.6906, 13.0292)" x="33.7859" y="-0.1069" width="1.9563" height="0.2138" ry="0.1069" fill="currentColor"/>
<rect transform="translate(5.6906, 14.0292)" x="33.7859" y="-0.1069" width="1.9563" height="0.2138" ry="0.1069" fill="currentColor"/>
<rect transform="translate(5.6906, 13.0292)" x="5.4739" y="-0.1069" width="1.9563" height="0.2138" ry="0.1069" fill="currentColor"/>
<rect transform="translate(5.6906, 14.0292)" x="5.4739" y="-0.1069" width="1.9563" height="0.2138" ry="0.1069" fill="currentColor"/>
<rect transform="translate(67.8380, 17.0292)" x="0.0000" y="-2.0000" width="0.2162" height="4.0000" ry="0.0000" fill="currentColor"/>
<rect transform="translate(72.7844, 17.0292)" x="-0.0740" y="-0.0000" width="0.1480" height="10.8139" ry="0.0400" fill="currentColor"/>
<a style="color:inherit;" xlink:href="textedit:///home/paolo/Desktop/SPONTINI/Spontini/examples/../examples/../examples/padding-on-brackets-example.ly:168:0:1">
<path transform="translate(71.5542, 28.0292) scale(0.0040, -0.0040)" d="M218 136c55 0 108 -28 108 -89c0 -71 -55 -121 -102 -149c-35 -21 -75 -34 -116 -34c-55 0 -108 28 -108 89c0 71 55 121 102 149c35 21 75 34 116 34z" fill="currentColor"/>
</a>
<a style="color:inherit;" xlink:href="textedit:///home/paolo/Desktop/SPONTINI/Spontini/examples/../examples/../examples/padding-on-brackets-example.ly:166:126:127">
<path transform="translate(53.9974, 17.0292) scale(0.0040, -0.0040)" d="M-23 -116c0 28 11 42 40 42c33 0 78 -13 119 -31l-132 158c-7 9 -10 17 -10 25c0 34 50 66 87 99c25 22 37 52 37 83c0 24 -8 49 -25 69l-35 42c-3 3 -4 7 -4 10c0 9 9 15 17 15c4 0 8 -1 11 -5l151 -180c7 -9 10 -17 10 -25c0 -34 -50 -66 -87 -99
c-25 -22 -37 -52 -37 -83c0 -24 7 -49 24 -69l84 -99c3 -3 4 -7 4 -10c0 -9 -8 -16 -16 -16c-4 0 -9 2 -12 6c-18 21 -63 38 -97 38c-41 0 -53 -26 -53 -67c0 -35 11 -74 28 -94c5 -6 0 -13 -6 -13c-2 0 -4 0 -6 2c-45 54 -92 148 -92 202z" fill="currentColor"/>
</a>
<a style="color:inherit;" xlink:href="textedit:///home/paolo/Desktop/SPONTINI/Spontini/examples/../examples/../examples/padding-on-brackets-example.ly:166:0:1">
<text transform="translate(20.8916, 11.8039)" font-family="serif" font-style="italic" font-size="1.7461" text-anchor="start" fill="currentColor">
<tspan>3</tspan>
</text>
</a>
<a style="color:inherit;" xlink:href="textedit:///home/paolo/Desktop/SPONTINI/Spontini/examples/../examples/../examples/padding-on-brackets-example.ly:173:0:1">
<text transform="translate(94.5720, 25.5346)" font-family="serif" font-style="italic" font-size="1.7461" text-anchor="start" fill="currentColor">
<tspan>3</tspan>
</text>
</a>
<rect transform="translate(104.4477, 17.0292)" x="-0.0740" y="-0.3139" width="0.1480" height="3.3139" ry="0.0400" fill="currentColor"/>
<a style="color:inherit;" xlink:href="textedit:///home/paolo/Desktop/SPONTINI/Spontini/examples/../examples/../examples/padding-on-brackets-example.ly:173:101:102">
<path transform="translate(104.3737, 16.5292) scale(0.0040, -0.0040)" d="M218 136c55 0 108 -28 108 -89c0 -71 -55 -121 -102 -149c-35 -21 -75 -34 -116 -34c-55 0 -108 28 -108 89c0 71 55 121 102 149c35 21 75 34 116 34z" fill="currentColor"/>
</a>
<rect transform="translate(95.0104, 17.0292)" x="-0.0740" y="-0.3139" width="0.1480" height="3.3139" ry="0.0400" fill="currentColor"/>
<a style="color:inherit;" xlink:href="textedit:///home/paolo/Desktop/SPONTINI/Spontini/examples/../examples/../examples/padding-on-brackets-example.ly:173:96:97">
<path transform="translate(94.9364, 16.5292) scale(0.0040, -0.0040)" d="M218 136c55 0 108 -28 108 -89c0 -71 -55 -121 -102 -149c-35 -21 -75 -34 -116 -34c-55 0 -108 28 -108 89c0 71 55 121 102 149c35 21 75 34 116 34z" fill="currentColor"/>
</a>
<rect transform="translate(85.8231, 17.0292)" x="-0.0740" y="-3.8139" width="0.1480" height="3.8139" ry="0.0400" fill="currentColor"/>
<a style="color:inherit;" xlink:href="textedit:///home/paolo/Desktop/SPONTINI/Spontini/examples/../examples/../examples/padding-on-brackets-example.ly:173:31:32">
<text transform="translate(85.7491, 11.6827)" font-family="serif" font-size="1.3860" text-anchor="start" fill="currentColor">
<tspan>staff-padding + outside-staff-padding</tspan>
</text>
</a>
<a style="color:inherit;" xlink:href="textedit:///home/paolo/Desktop/SPONTINI/Spontini/examples/../examples/../examples/padding-on-brackets-example.ly:173:25:26">
<path transform="translate(85.7491, 13.0292) scale(0.0040, -0.0040)" d="M218 136c55 0 108 -28 108 -89c0 -71 -55 -121 -102 -149c-35 -21 -75 -34 -116 -34c-55 0 -108 28 -108 89c0 71 55 121 102 149c35 21 75 34 116 34z" fill="currentColor"/>
</a>
<rect transform="translate(11.5645, 17.0292)" x="-0.0740" y="-3.8139" width="0.1480" height="3.8139" ry="0.0400" fill="currentColor"/>
<a style="color:inherit;" xlink:href="textedit:///home/paolo/Desktop/SPONTINI/Spontini/examples/../examples/../examples/padding-on-brackets-example.ly:166:31:32">
<text transform="translate(11.4906, 21.5817)" font-family="serif" font-size="1.3860" text-anchor="start" fill="currentColor">
<tspan>staff-padding + outside-staff-padding</tspan>
</text>
</a>
<a style="color:inherit;" xlink:href="textedit:///home/paolo/Desktop/SPONTINI/Spontini/examples/../examples/../examples/padding-on-brackets-example.ly:166:25:26">
<path transform="translate(11.4906, 13.0292) scale(0.0040, -0.0040)" d="M218 136c55 0 108 -28 108 -89c0 -71 -55 -121 -102 -149c-35 -21 -75 -34 -116 -34c-55 0 -108 28 -108 89c0 71 55 121 102 149c35 21 75 34 116 34z" fill="currentColor"/>
</a>
<path transform="translate(6.4906, 18.0292) scale(0.0040, -0.0040)" d="M376 262c4 0 9 1 13 1c155 0 256 -128 256 -261c0 -76 -33 -154 -107 -210c-22 -17 -47 -28 -73 -36c3 -35 5 -70 5 -105c0 -19 -1 -39 -2 -58c-7 -120 -90 -228 -208 -228c-108 0 -195 88 -195 197c0 58 53 103 112 103c54 0 95 -47 95 -103c0 -52 -43 -95 -95 -95
c-11 0 -21 2 -31 6c26 -39 68 -65 117 -65c96 0 157 92 163 191c1 18 2 37 2 55c0 31 -1 61 -4 92c-29 -5 -58 -8 -89 -8c-188 0 -333 172 -333 374c0 177 131 306 248 441c-19 62 -37 125 -45 190c-6 52 -7 104 -7 156c0 115 55 224 149 292c3 2 7 3 10 3c4 0 7 0 10 -3
c71 -84 133 -245 133 -358c0 -143 -86 -255 -180 -364c21 -68 39 -138 56 -207zM461 -203c68 24 113 95 113 164c0 90 -66 179 -173 190c24 -116 46 -231 60 -354zM74 28c0 -135 129 -247 264 -247c28 0 55 2 82 6c-14 127 -37 245 -63 364c-79 -8 -124 -61 -124 -119
c0 -44 25 -91 81 -123c5 -5 7 -10 7 -15c0 -11 -10 -22 -22 -22c-3 0 -6 1 -9 2c-80 43 -117 115 -117 185c0 88 58 174 160 197c-14 58 -29 117 -46 175c-107 -121 -213 -243 -213 -403zM408 1045c-99 -48 -162 -149 -162 -259c0 -74 18 -133 36 -194
c80 97 146 198 146 324c0 55 -4 79 -20 129z" fill="currentColor"/>
<text transform="translate(3.4371, 13.9792)" font-family="serif" font-size="1.7461" text-anchor="start" fill="currentColor">
<tspan>21</tspan>
</text>
<a style="color:inherit;" xlink:href="textedit:///home/paolo/Desktop/SPONTINI/Spontini/examples/../examples/../examples/padding-on-brackets-example.ly:166:119:120">
<path transform="translate(39.8025, 6.0292) scale(0.0040, -0.0040)" d="M218 136c55 0 108 -28 108 -89c0 -71 -55 -121 -102 -149c-35 -21 -75 -34 -116 -34c-55 0 -108 28 -108 89c0 71 55 121 102 149c35 21 75 34 116 34z" fill="currentColor"/>
</a>
<rect transform="translate(39.8765, 17.0292)" x="-0.0740" y="-10.8139" width="0.1480" height="10.8139" ry="0.0400" fill="currentColor"/>
<rect transform="translate(30.1892, 17.0292)" x="-0.0740" y="-0.3139" width="0.1480" height="3.3139" ry="0.0400" fill="currentColor"/>
<a style="color:inherit;" xlink:href="textedit:///home/paolo/Desktop/SPONTINI/Spontini/examples/../examples/../examples/padding-on-brackets-example.ly:166:101:102">
<path transform="translate(30.1152, 16.5292) scale(0.0040, -0.0040)" d="M218 136c55 0 108 -28 108 -89c0 -71 -55 -121 -102 -149c-35 -21 -75 -34 -116 -34c-55 0 -108 28 -108 89c0 71 55 121 102 149c35 21 75 34 116 34z" fill="currentColor"/>
</a>
<rect transform="translate(20.7518, 17.0292)" x="-0.0740" y="-0.3139" width="0.1480" height="3.3139" ry="0.0400" fill="currentColor"/>
<a style="color:inherit;" xlink:href="textedit:///home/paolo/Desktop/SPONTINI/Spontini/examples/../examples/../examples/padding-on-brackets-example.ly:166:96:97">
<path transform="translate(20.6779, 16.5292) scale(0.0040, -0.0040)" d="M218 136c55 0 108 -28 108 -89c0 -71 -55 -121 -102 -149c-35 -21 -75 -34 -116 -34c-55 0 -108 28 -108 89c0 71 55 121 102 149c35 21 75 34 116 34z" fill="currentColor"/>
</a>
<g staff-padding-propid="30" editcommand="OnceOverride" editableclass="TupletBracket" spontinieditable="true" staffspace="1.00000000" y-direction="1">
<a style="color:inherit;" xlink:href="textedit:///home/paolo/Desktop/SPONTINI/Spontini/examples/../examples/../examples/padding-on-brackets-example.ly:166:0:1">
<line transform="translate(11.4906, 11.1723)" stroke-linejoin="round" stroke-linecap="round" stroke-width="0.1821" stroke="currentColor" x1="20.1288" y1="-0.0000" x2="20.1288" y2="0.7000"/>
<line transform="translate(11.4906, 11.1723)" stroke-linejoin="round" stroke-linecap="round" stroke-width="0.1821" stroke="currentColor" x1="-0.2000" y1="-0.0000" x2="-0.2000" y2="0.7000"/>
<line transform="translate(11.4906, 11.1723)" stroke-linejoin="round" stroke-linecap="round" stroke-width="0.1821" stroke="currentColor" x1="20.1288" y1="-0.0000" x2="11.1278" y2="-0.0000"/>
<line transform="translate(11.4906, 11.1723)" stroke-linejoin="round" stroke-linecap="round" stroke-width="0.1821" stroke="currentColor" x1="-0.2000" y1="-0.0000" x2="9.0011" y2="-0.0000"/>
<g color="rgb(12.3000%, 45.6000%, 78.9000%)">
<g transform="scale(1.0000, 1.0000)">
<line transform="translate(21.4550, 14.6633)" stroke-linejoin="round" stroke-linecap="round" stroke-width="0.1821" stroke="currentColor" x1="0" y1="0" x2="-1" y2="0"/>
</g>
</g>
<g color="rgb(12.3000%, 45.6000%, 78.9000%)">
<g transform="scale(1.0000, 1.0000)">
<line transform="translate(20.9550, 14.6633)" stroke-linejoin="round" stroke-linecap="round" stroke-width="0.1821" stroke="currentColor" x1="0" y1="0" x2="0" y2="-2.7000"/>
</g>
</g>
<g color="rgb(12.3000%, 45.6000%, 78.9000%)">
<g transform="scale(1.0000, -1.0000)">
<line transform="translate(21.4550, -11.9633)" stroke-linejoin="round" stroke-linecap="round" stroke-width="0.1821" stroke="currentColor" x1="0" y1="0" x2="-1" y2="0"/>
</g>
</g>
</a>
</g>
<g outside-staff-padding-propid="29" editcommand="OnceOverride" editableclass="OttavaBracket" spontinieditable="true" staffspace="1.00000000" y-direction="1">
<text transform="translate(10.6906, 8.9519)" font-family="serif" font-style="italic" font-size="2.2001" text-anchor="start" fill="currentColor">
<tspan>8va</tspan>
</text>
<line transform="translate(32.0194, 8.1496)" stroke-linejoin="round" stroke-linecap="round" stroke-width="0.1138" stroke="currentColor" x1="0" y1="0" x2="0.0000" y2="0.8000" stroke-dasharray="1.0,0.0"/>
<line transform="translate(14.9170, 8.1496)" stroke-linejoin="round" stroke-linecap="round" stroke-width="0.1138" stroke="currentColor" x1="0" y1="0" x2="0.0000" y2="-0.0000" stroke-dasharray="1.0,0.0"/>
<line transform="translate(14.9170, 8.1496)" stroke-linejoin="round" stroke-linecap="round" stroke-width="0.1138" stroke="currentColor" x1="0" y1="0" x2="17.1024" y2="-0.0000" stroke-dasharray="0.296572802268456,0.692003205293063"/>
<g color="rgb(12.3000%, 45.6000%, 78.9000%)">
<g transform="scale(1.0000, 1.0000)">
<line transform="translate(21.3834, 11.2861)" stroke-linejoin="round" stroke-linecap="round" stroke-width="0.1138" stroke="currentColor" x1="0" y1="0" x2="-1" y2="0"/>
</g>
</g>
<g color="rgb(12.3000%, 45.6000%, 78.9000%)">
<g transform="scale(1.0000, 1.0000)">
<line transform="translate(20.8834, 11.2861)" stroke-linejoin="round" stroke-linecap="round" stroke-width="0.1138" stroke="currentColor" x1="0" y1="0" x2="0" y2="-2.3000"/>
</g>
</g>
<g color="rgb(12.3000%, 45.6000%, 78.9000%)">
<g transform="scale(1.0000, -1.0000)">
<line transform="translate(21.3834, -8.9861)" stroke-linejoin="round" stroke-linecap="round" stroke-width="0.1138" stroke="currentColor" x1="0" y1="0" x2="-1" y2="0"/>
</g>
</g>
<g color="rgb(12.3000%, 45.6000%, 78.9000%)">
<g transform="scale(1.0000, 1.0000)">
<line transform="translate(21.3834, 7.3130)" stroke-linejoin="round" stroke-linecap="round" stroke-width="0.1138" stroke="currentColor" x1="0" y1="0" x2="-1" y2="0"/>
</g>
</g>
<g color="rgb(12.3000%, 45.6000%, 78.9000%)">
<g transform="scale(1.0000, 1.0000)">
<line transform="translate(20.8834, 7.3130)" stroke-linejoin="round" stroke-linecap="round" stroke-width="0.1138" stroke="currentColor" x1="0" y1="0" x2="0" y2="-2.3000"/>
</g>
</g>
<g color="rgb(12.3000%, 45.6000%, 78.9000%)">
<g transform="scale(1.0000, -1.0000)">
<line transform="translate(21.3834, -5.0130)" stroke-linejoin="round" stroke-linecap="round" stroke-width="0.1138" stroke="currentColor" x1="0" y1="0" x2="-1" y2="0"/>
</g>
</g>
</g>
<g staff-padding-propid="32" editcommand="OnceOverride" editableclass="TupletBracket" spontinieditable="true" staffspace="1.00000000" y-direction="-1">
<a style="color:inherit;" xlink:href="textedit:///home/paolo/Desktop/SPONTINI/Spontini/examples/../examples/../examples/padding-on-brackets-example.ly:173:0:1">
<line transform="translate(85.7491, 24.9030)" stroke-linejoin="round" stroke-linecap="round" stroke-width="0.1821" stroke="currentColor" x1="18.9726" y1="-0.0000" x2="18.9726" y2="-0.7000"/>
<line transform="translate(85.7491, 24.9030)" stroke-linejoin="round" stroke-linecap="round" stroke-width="0.1821" stroke="currentColor" x1="-0.2000" y1="-0.0000" x2="-0.2000" y2="-0.7000"/>
<line transform="translate(85.7491, 24.9030)" stroke-linejoin="round" stroke-linecap="round" stroke-width="0.1821" stroke="currentColor" x1="18.9726" y1="-0.0000" x2="10.5497" y2="-0.0000"/>
<line transform="translate(85.7491, 24.9030)" stroke-linejoin="round" stroke-linecap="round" stroke-width="0.1821" stroke="currentColor" x1="-0.2000" y1="-0.0000" x2="8.4229" y2="-0.0000"/>
<g color="rgb(12.3000%, 45.6000%, 78.9000%)">
<g transform="scale(1.0000, -1.0000)">
<line transform="translate(95.1354, -21.9119)" stroke-linejoin="round" stroke-linecap="round" stroke-width="0.1821" stroke="currentColor" x1="0" y1="0" x2="-1" y2="0"/>
</g>
</g>
<g color="rgb(12.3000%, 45.6000%, 78.9000%)">
<g transform="scale(1.0000, -1.0000)">
<line transform="translate(94.6354, -21.9119)" stroke-linejoin="round" stroke-linecap="round" stroke-width="0.1821" stroke="currentColor" x1="0" y1="0" x2="0" y2="-2.2000"/>
</g>
</g>
<g color="rgb(12.3000%, 45.6000%, 78.9000%)">
<g transform="scale(1.0000, 1.0000)">
<line transform="translate(95.1354, 24.1119)" stroke-linejoin="round" stroke-linecap="round" stroke-width="0.1821" stroke="currentColor" x1="0" y1="0" x2="-1" y2="0"/>
</g>
</g>
</a>
</g>
<g outside-staff-padding-propid="31" editcommand="OnceOverride" editableclass="OttavaBracket" spontinieditable="true" staffspace="1.00000000" y-direction="-1">
<text transform="translate(84.9491, 28.7280)" font-family="serif" font-style="italic" font-size="2.2001" text-anchor="start" fill="currentColor">
<tspan>8va</tspan>
</text>
<line transform="translate(106.2779, 27.9257)" stroke-linejoin="round" stroke-linecap="round" stroke-width="0.1138" stroke="currentColor" x1="0" y1="0" x2="0.0000" y2="-0.8000" stroke-dasharray="1.0,0.0"/>
<line transform="translate(89.1756, 27.9257)" stroke-linejoin="round" stroke-linecap="round" stroke-width="0.1138" stroke="currentColor" x1="0" y1="0" x2="0.0000" y2="-0.0000" stroke-dasharray="1.0,0.0"/>
<line transform="translate(89.1756, 27.9257)" stroke-linejoin="round" stroke-linecap="round" stroke-width="0.1138" stroke="currentColor" x1="0" y1="0" x2="17.1024" y2="-0.0000" stroke-dasharray="0.296572802268455,0.692003205293063"/>
<g color="rgb(12.3000%, 45.6000%, 78.9000%)">
<g transform="scale(1.0000, -1.0000)">
<line transform="translate(95.6419, -24.7892)" stroke-linejoin="round" stroke-linecap="round" stroke-width="0.1138" stroke="currentColor" x1="0" y1="0" x2="-1" y2="0"/>
</g>
</g>
<g color="rgb(12.3000%, 45.6000%, 78.9000%)">
<g transform="scale(1.0000, -1.0000)">
<line transform="translate(95.1419, -24.7892)" stroke-linejoin="round" stroke-linecap="round" stroke-width="0.1138" stroke="currentColor" x1="0" y1="0" x2="0" y2="-2.3000"/>
</g>
</g>
<g color="rgb(12.3000%, 45.6000%, 78.9000%)">
<g transform="scale(1.0000, 1.0000)">
<line transform="translate(95.6419, 27.0892)" stroke-linejoin="round" stroke-linecap="round" stroke-width="0.1138" stroke="currentColor" x1="0" y1="0" x2="-1" y2="0"/>
</g>
</g>
<g color="rgb(12.3000%, 45.6000%, 78.9000%)">
<g transform="scale(1.0000, -1.0000)">
<line transform="translate(95.6419, -28.7622)" stroke-linejoin="round" stroke-linecap="round" stroke-width="0.1138" stroke="currentColor" x1="0" y1="0" x2="-1" y2="0"/>
</g>
</g>
<g color="rgb(12.3000%, 45.6000%, 78.9000%)">
<g transform="scale(1.0000, -1.0000)">
<line transform="translate(95.1419, -28.7622)" stroke-linejoin="round" stroke-linecap="round" stroke-width="0.1138" stroke="currentColor" x1="0" y1="0" x2="0" y2="-2.3000"/>
</g>
</g>
<g color="rgb(12.3000%, 45.6000%, 78.9000%)">
<g transform="scale(1.0000, 1.0000)">
<line transform="translate(95.6419, 31.0622)" stroke-linejoin="round" stroke-linecap="round" stroke-width="0.1138" stroke="currentColor" x1="0" y1="0" x2="-1" y2="0"/>
</g>
</g>
</g>
<a transform="translate(28.9194, 165.1170)" xlink:href="http://lilypond.org/">
<rect x="0.0000" y="-0.4780" width="61.6628" height="2.1510" fill="none" stroke="none" stroke-width="0.0"/>
</a>
<text transform="translate(28.9194, 165.1170)" font-family="serif" font-size="2.2001" text-anchor="start" fill="currentColor">
<tspan>Music engraving by LilyPond 2.20.0—www.lilypond.org</tspan>
</text>
</svg>
