<svg xmlns="http://www.w3.org/2000/svg" xmlns:xlink="http://www.w3.org/1999/xlink" version="1.2" width="210.00mm" height="297.00mm" viewBox="0 0 119.5016 169.0094">
<style text="style/css">
<![CDATA[
tspan { white-space: pre; }
]]>
</style>
<!-- Page: 1/1 -->
<text transform="translate(5.6906, 2.8453)" font-family="serif" font-size="2.2001" text-anchor="start" fill="currentColor">
<tspan/>
</text>
<g gridstep="3" gridify="true" isstaff="true">
<line transform="translate(14.2264, 9.6213)" stroke-linejoin="round" stroke-linecap="round" stroke-width="0.1138" stroke="currentColor" x1="0.0569" y1="-0.0000" x2="99.5277" y2="-0.0000"/>
<line transform="translate(14.2264, 8.6213)" stroke-linejoin="round" stroke-linecap="round" stroke-width="0.1138" stroke="currentColor" x1="0.0569" y1="-0.0000" x2="99.5277" y2="-0.0000"/>
<line transform="translate(14.2264, 7.6213)" stroke-linejoin="round" stroke-linecap="round" stroke-width="0.1138" stroke="currentColor" x1="0.0569" y1="-0.0000" x2="99.5277" y2="-0.0000"/>
<line transform="translate(14.2264, 6.6213)" stroke-linejoin="round" stroke-linecap="round" stroke-width="0.1138" stroke="currentColor" x1="0.0569" y1="-0.0000" x2="99.5277" y2="-0.0000"/>
<line transform="translate(14.2264, 5.6213)" stroke-linejoin="round" stroke-linecap="round" stroke-width="0.1138" stroke="currentColor" x1="0.0569" y1="-0.0000" x2="99.5277" y2="-0.0000"/>
</g>
<rect transform="translate(5.6906, 10.6213)" x="89.9231" y="-0.1069" width="1.9563" height="0.2138" ry="0.1069" fill="currentColor"/>
<rect transform="translate(5.6906, 10.6213)" x="75.3014" y="-0.1069" width="1.9563" height="0.2138" ry="0.1069" fill="currentColor"/>
<rect transform="translate(5.6906, 10.6213)" x="60.6797" y="-0.1069" width="1.9563" height="0.2138" ry="0.1069" fill="currentColor"/>
<rect transform="translate(5.6906, 10.6213)" x="46.0580" y="-0.1069" width="1.9563" height="0.2138" ry="0.1069" fill="currentColor"/>
<rect transform="translate(5.6906, 10.6213)" x="31.4362" y="-0.1069" width="1.9563" height="0.2138" ry="0.1069" fill="currentColor"/>
<rect transform="translate(5.6906, 10.6213)" x="16.8145" y="-0.1069" width="1.9563" height="0.2138" ry="0.1069" fill="currentColor"/>
<rect transform="translate(110.7400, 7.6213)" x="0.0000" y="-2.0000" width="0.2162" height="4.0000" ry="0.0000" fill="currentColor"/>
<a style="color:inherit;" xlink:href="textedit:///home/paolo/programmi/nuove-composizioni/Spontini-master/examples/SetPropertiesExample2.ly:31:4:5">
<path transform="translate(66.6963, 10.6213) scale(0.0040, -0.0040)" d="M218 136c55 0 108 -28 108 -89c0 -71 -55 -121 -102 -149c-35 -21 -75 -34 -116 -34c-55 0 -108 28 -108 89c0 71 55 121 102 149c35 21 75 34 116 34z" fill="currentColor"/>
</a>
<rect transform="translate(97.1700, 7.6213)" x="-0.0740" y="-0.5000" width="0.1480" height="3.3139" ry="0.0400" fill="currentColor"/>
<g extra-offset-y-propid="6" editcommand="Tweak" editableclass="Dummy" spontinieditable="true" staffspace="1.00000000">
<a style="color:inherit;" xlink:href="textedit:///home/paolo/programmi/nuove-composizioni/Spontini-master/examples/SetPropertiesExample2.ly:33:7:8">
<g transform="translate(95.0895, 15.6164)" >
<path transform="scale(0.0040, -0.0040)" d="M-41 146c26 76 82 153 149 153c22 0 36 -20 41 -45c22 26 51 45 81 45c23 0 38 -21 44 -46c22 27 51 46 80 46c33 0 59 -35 59 -69c0 -5 -1 -10 -2 -15l-35 -149c0 -2 -1 -4 -1 -5c0 -5 2 -8 7 -8c9 0 27 11 48 31c4 4 9 6 13 6c6 0 11 -4 11 -10c0 -4 -3 -8 -7 -12
c-40 -38 -85 -75 -131 -75c-20 0 -32 13 -32 32c0 4 0 7 1 11l39 165c1 5 2 9 2 14c0 10 -4 18 -14 18c-16 0 -33 -16 -39 -32l-53 -183c-3 -10 -12 -18 -22 -18h-41c-10 0 -16 8 -13 18l52 183c2 6 3 11 3 16c0 9 -4 16 -13 16c-16 0 -35 -15 -41 -32l-62 -183
c-3 -10 -14 -18 -24 -18h-41c-10 0 -15 8 -12 18l63 183c2 5 2 10 2 15c0 10 -3 17 -13 17c-29 0 -54 -53 -66 -87c-4 -11 -15 -17 -23 -17c-7 0 -12 4 -12 11c0 2 1 4 2 6z" fill="currentColor"/>

<path transform="translate(1.7413, 0.0000) scale(0.0040, -0.0040)" d="M253 245l-50 -163c-30 -99 -121 -255 -218 -255c-45 0 -87 27 -87 69c0 39 17 77 52 77c24 0 44 -20 44 -44c0 -30 -38 -24 -38 -54c0 -10 11 -11 23 -11h6c48 0 61 58 73 108l68 273h-49c-11 0 -19 8 -19 19s8 19 19 19h60c32 96 118 191 213 191c45 0 87 -27 87 -69
c0 -39 -17 -77 -52 -77c-24 0 -44 19 -44 43c0 30 38 25 38 55c0 10 -10 11 -22 11h-7c-62 0 -70 -88 -86 -154h55c11 0 19 -8 19 -19s-8 -19 -19 -19h-66z" fill="currentColor"/>
</g>
</a>
</g>
<a style="color:inherit;" xlink:href="textedit:///home/paolo/programmi/nuove-composizioni/Spontini-master/examples/SetPropertiesExample2.ly:33:4:5">
<path transform="translate(95.9397, 10.6213) scale(0.0040, -0.0040)" d="M218 136c55 0 108 -28 108 -89c0 -71 -55 -121 -102 -149c-35 -21 -75 -34 -116 -34c-55 0 -108 28 -108 89c0 71 55 121 102 149c35 21 75 34 116 34z" fill="currentColor"/>
</a>
<rect transform="translate(82.5483, 7.6213)" x="-0.0740" y="-0.5000" width="0.1480" height="3.3139" ry="0.0400" fill="currentColor"/>
<a style="color:inherit;" xlink:href="textedit:///home/paolo/programmi/nuove-composizioni/Spontini-master/examples/SetPropertiesExample2.ly:32:7:8">
<g transform="translate(80.4678, 15.6662)" >
<path transform="scale(0.0040, -0.0040)" d="M-41 146c26 76 82 153 149 153c22 0 36 -20 41 -45c22 26 51 45 81 45c23 0 38 -21 44 -46c22 27 51 46 80 46c33 0 59 -35 59 -69c0 -5 -1 -10 -2 -15l-35 -149c0 -2 -1 -4 -1 -5c0 -5 2 -8 7 -8c9 0 27 11 48 31c4 4 9 6 13 6c6 0 11 -4 11 -10c0 -4 -3 -8 -7 -12
c-40 -38 -85 -75 -131 -75c-20 0 -32 13 -32 32c0 4 0 7 1 11l39 165c1 5 2 9 2 14c0 10 -4 18 -14 18c-16 0 -33 -16 -39 -32l-53 -183c-3 -10 -12 -18 -22 -18h-41c-10 0 -16 8 -13 18l52 183c2 6 3 11 3 16c0 9 -4 16 -13 16c-16 0 -35 -15 -41 -32l-62 -183
c-3 -10 -14 -18 -24 -18h-41c-10 0 -15 8 -12 18l63 183c2 5 2 10 2 15c0 10 -3 17 -13 17c-29 0 -54 -53 -66 -87c-4 -11 -15 -17 -23 -17c-7 0 -12 4 -12 11c0 2 1 4 2 6z" fill="currentColor"/>

<path transform="translate(1.7413, 0.0000) scale(0.0040, -0.0040)" d="M253 245l-50 -163c-30 -99 -121 -255 -218 -255c-45 0 -87 27 -87 69c0 39 17 77 52 77c24 0 44 -20 44 -44c0 -30 -38 -24 -38 -54c0 -10 11 -11 23 -11h6c48 0 61 58 73 108l68 273h-49c-11 0 -19 8 -19 19s8 19 19 19h60c32 96 118 191 213 191c45 0 87 -27 87 -69
c0 -39 -17 -77 -52 -77c-24 0 -44 19 -44 43c0 30 38 25 38 55c0 10 -10 11 -22 11h-7c-62 0 -70 -88 -86 -154h55c11 0 19 -8 19 -19s-8 -19 -19 -19h-66z" fill="currentColor"/>
</g>
</a>
<a style="color:inherit;" xlink:href="textedit:///home/paolo/programmi/nuove-composizioni/Spontini-master/examples/SetPropertiesExample2.ly:32:4:5">
<path transform="translate(81.3180, 10.6213) scale(0.0040, -0.0040)" d="M218 136c55 0 108 -28 108 -89c0 -71 -55 -121 -102 -149c-35 -21 -75 -34 -116 -34c-55 0 -108 28 -108 89c0 71 55 121 102 149c35 21 75 34 116 34z" fill="currentColor"/>
</a>
<rect transform="translate(67.9265, 7.6213)" x="-0.0740" y="-0.5000" width="0.1480" height="3.3139" ry="0.0400" fill="currentColor"/>
<a style="color:inherit;" xlink:href="textedit:///home/paolo/programmi/nuove-composizioni/Spontini-master/examples/SetPropertiesExample2.ly:31:7:8">
<g transform="translate(65.8461, 15.5933)" >
<path transform="scale(0.0040, -0.0040)" d="M-41 146c26 76 82 153 149 153c22 0 36 -20 41 -45c22 26 51 45 81 45c23 0 38 -21 44 -46c22 27 51 46 80 46c33 0 59 -35 59 -69c0 -5 -1 -10 -2 -15l-35 -149c0 -2 -1 -4 -1 -5c0 -5 2 -8 7 -8c9 0 27 11 48 31c4 4 9 6 13 6c6 0 11 -4 11 -10c0 -4 -3 -8 -7 -12
c-40 -38 -85 -75 -131 -75c-20 0 -32 13 -32 32c0 4 0 7 1 11l39 165c1 5 2 9 2 14c0 10 -4 18 -14 18c-16 0 -33 -16 -39 -32l-53 -183c-3 -10 -12 -18 -22 -18h-41c-10 0 -16 8 -13 18l52 183c2 6 3 11 3 16c0 9 -4 16 -13 16c-16 0 -35 -15 -41 -32l-62 -183
c-3 -10 -14 -18 -24 -18h-41c-10 0 -15 8 -12 18l63 183c2 5 2 10 2 15c0 10 -3 17 -13 17c-29 0 -54 -53 -66 -87c-4 -11 -15 -17 -23 -17c-7 0 -12 4 -12 11c0 2 1 4 2 6z" fill="currentColor"/>

<path transform="translate(1.7413, 0.0000) scale(0.0040, -0.0040)" d="M253 245l-50 -163c-30 -99 -121 -255 -218 -255c-45 0 -87 27 -87 69c0 39 17 77 52 77c24 0 44 -20 44 -44c0 -30 -38 -24 -38 -54c0 -10 11 -11 23 -11h6c48 0 61 58 73 108l68 273h-49c-11 0 -19 8 -19 19s8 19 19 19h60c32 96 118 191 213 191c45 0 87 -27 87 -69
c0 -39 -17 -77 -52 -77c-24 0 -44 19 -44 43c0 30 38 25 38 55c0 10 -10 11 -22 11h-7c-62 0 -70 -88 -86 -154h55c11 0 19 -8 19 -19s-8 -19 -19 -19h-66z" fill="currentColor"/>
</g>
</a>
<g y-offset-propid="1" editcommand="Tweak" editableclass="DynamicLineSpanner" spontinieditable="true" staffspace="1.00000000">
<line transform="translate(21.9809, 15.0213)" stroke-linejoin="round" stroke-linecap="round" stroke-width="0.3414" stroke="currentColor" x1="0" y1="0" x2="4" y2="0"/>
</g>
<a style="color:inherit;" xlink:href="textedit:///home/paolo/programmi/nuove-composizioni/Spontini-master/examples/SetPropertiesExample2.ly:37:4:5">
<path transform="translate(111.7746, 7.6213) scale(0.0040, -0.0040)" d="M23 11c-1 -7 -6 -11 -11 -11c-6 0 -12 4 -12 11c0 175 235 165 235 344c0 60 -18 122 -70 122c-26 0 -51 -14 -51 -37c0 -27 35 -41 35 -68c0 -38 -30 -69 -68 -69s-69 31 -69 69c0 76 72 128 153 128c96 0 187 -56 187 -145c0 -153 -151 -159 -249 -220c9 2 17 3 26 3
c33 0 70 -11 105 -36c21 -15 46 -23 66 -23c21 0 39 9 44 29c2 6 6 9 11 9c6 0 12 -5 12 -12c0 -67 -90 -105 -138 -105c-36 0 -71 14 -96 44c-13 16 -31 22 -48 22c-30 0 -59 -20 -62 -55z" fill="currentColor"/>
<path transform="translate(111.7063, 9.6699) scale(0.0040, -0.0040)" d="M204 307c22 14 44 29 60 50c11 15 19 33 27 50c2 4 5 6 9 6c6 0 13 -5 13 -14v-245h72c10 0 15 -7 15 -14s-5 -15 -15 -15h-72v-8c0 -48 27 -94 72 -94c8 0 12 -5 12 -11s-4 -12 -12 -12c-44 0 -87 13 -131 13s-87 -13 -131 -13c-8 0 -12 6 -12 12s4 11 12 11
c45 0 73 46 73 94v8h-167c-23 0 -31 14 -31 23c0 3 1 5 2 6c80 93 138 207 138 330c0 9 6 16 13 16h3c23 -7 47 -13 71 -13s48 6 71 13c2 1 3 1 5 1c11 0 18 -10 12 -17l-284 -330h167v131c0 8 1 17 8 22z" fill="currentColor"/>
</a>
<path transform="translate(19.3459, 7.6213) scale(0.0040, -0.0040)" d="M170 256c-51 0 -53 -44 -53 -102v-14v-15c0 -58 2 -102 53 -102c57 0 61 51 61 117s-4 116 -61 116zM117 266c17 7 34 13 53 13c101 0 170 -44 170 -139s-69 -140 -170 -140c-112 0 -170 124 -170 250c0 128 72 250 190 250c71 0 138 -39 138 -103c0 -36 -29 -66 -65 -66
s-66 30 -66 66c0 24 39 25 39 49c0 20 -23 31 -46 31c-66 0 -75 -65 -75 -139c0 -24 2 -48 2 -72z" fill="currentColor"/>
<path transform="translate(19.2264, 9.6699) scale(0.0040, -0.0040)" d="M204 307c22 14 44 29 60 50c11 15 19 33 27 50c2 4 5 6 9 6c6 0 13 -5 13 -14v-245h72c10 0 15 -7 15 -14s-5 -15 -15 -15h-72v-8c0 -48 27 -94 72 -94c8 0 12 -5 12 -11s-4 -12 -12 -12c-44 0 -87 13 -131 13s-87 -13 -131 -13c-8 0 -12 6 -12 12s4 11 12 11
c45 0 73 46 73 94v8h-167c-23 0 -31 14 -31 23c0 3 1 5 2 6c80 93 138 207 138 330c0 9 6 16 13 16h3c23 -7 47 -13 71 -13s48 6 71 13c2 1 3 1 5 1c11 0 18 -10 12 -17l-284 -330h167v131c0 8 1 17 8 22z" fill="currentColor"/>
<rect transform="translate(24.0613, 7.6213)" x="-0.0740" y="-0.5000" width="0.1480" height="3.3139" ry="0.0400" fill="currentColor"/>
<path transform="translate(15.0264, 8.6213) scale(0.0040, -0.0040)" d="M376 262c4 0 9 1 13 1c155 0 256 -128 256 -261c0 -76 -33 -154 -107 -210c-22 -17 -47 -28 -73 -36c3 -35 5 -70 5 -105c0 -19 -1 -39 -2 -58c-7 -120 -90 -228 -208 -228c-108 0 -195 88 -195 197c0 58 53 103 112 103c54 0 95 -47 95 -103c0 -52 -43 -95 -95 -95
c-11 0 -21 2 -31 6c26 -39 68 -65 117 -65c96 0 157 92 163 191c1 18 2 37 2 55c0 31 -1 61 -4 92c-29 -5 -58 -8 -89 -8c-188 0 -333 172 -333 374c0 177 131 306 248 441c-19 62 -37 125 -45 190c-6 52 -7 104 -7 156c0 115 55 224 149 292c3 2 7 3 10 3c4 0 7 0 10 -3
c71 -84 133 -245 133 -358c0 -143 -86 -255 -180 -364c21 -68 39 -138 56 -207zM461 -203c68 24 113 95 113 164c0 90 -66 179 -173 190c24 -116 46 -231 60 -354zM74 28c0 -135 129 -247 264 -247c28 0 55 2 82 6c-14 127 -37 245 -63 364c-79 -8 -124 -61 -124 -119
c0 -44 25 -91 81 -123c5 -5 7 -10 7 -15c0 -11 -10 -22 -22 -22c-3 0 -6 1 -9 2c-80 43 -117 115 -117 185c0 88 58 174 160 197c-14 58 -29 117 -46 175c-107 -121 -213 -243 -213 -403zM408 1045c-99 -48 -162 -149 -162 -259c0 -74 18 -133 36 -194
c80 97 146 198 146 324c0 55 -4 79 -20 129z" fill="currentColor"/>
<a style="color:inherit;" xlink:href="textedit:///home/paolo/programmi/nuove-composizioni/Spontini-master/examples/SetPropertiesExample2.ly:28:4:12">
<g transform="translate(21.9809, 15.6213)" >
<path transform="scale(0.0040, -0.0040)" d="M-41 146c26 76 82 153 149 153c22 0 36 -20 41 -45c22 26 51 45 81 45c23 0 38 -21 44 -46c22 27 51 46 80 46c33 0 59 -35 59 -69c0 -5 -1 -10 -2 -15l-35 -149c0 -2 -1 -4 -1 -5c0 -5 2 -8 7 -8c9 0 27 11 48 31c4 4 9 6 13 6c6 0 11 -4 11 -10c0 -4 -3 -8 -7 -12
c-40 -38 -85 -75 -131 -75c-20 0 -32 13 -32 32c0 4 0 7 1 11l39 165c1 5 2 9 2 14c0 10 -4 18 -14 18c-16 0 -33 -16 -39 -32l-53 -183c-3 -10 -12 -18 -22 -18h-41c-10 0 -16 8 -13 18l52 183c2 6 3 11 3 16c0 9 -4 16 -13 16c-16 0 -35 -15 -41 -32l-62 -183
c-3 -10 -14 -18 -24 -18h-41c-10 0 -15 8 -12 18l63 183c2 5 2 10 2 15c0 10 -3 17 -13 17c-29 0 -54 -53 -66 -87c-4 -11 -15 -17 -23 -17c-7 0 -12 4 -12 11c0 2 1 4 2 6z" fill="currentColor"/>

<path transform="translate(1.7413, 0.0000) scale(0.0040, -0.0040)" d="M253 245l-50 -163c-30 -99 -121 -255 -218 -255c-45 0 -87 27 -87 69c0 39 17 77 52 77c24 0 44 -20 44 -44c0 -30 -38 -24 -38 -54c0 -10 11 -11 23 -11h6c48 0 61 58 73 108l68 273h-49c-11 0 -19 8 -19 19s8 19 19 19h60c32 96 118 191 213 191c45 0 87 -27 87 -69
c0 -39 -17 -77 -52 -77c-24 0 -44 19 -44 43c0 30 38 25 38 55c0 10 -10 11 -22 11h-7c-62 0 -70 -88 -86 -154h55c11 0 19 -8 19 -19s-8 -19 -19 -19h-66z" fill="currentColor"/>
</g>
</a>
<a style="color:inherit;" xlink:href="textedit:///home/paolo/programmi/nuove-composizioni/Spontini-master/examples/SetPropertiesExample2.ly:28:1:9">
<path transform="translate(22.8311, 10.6213) scale(0.0040, -0.0040)" d="M218 136c55 0 108 -28 108 -89c0 -71 -55 -121 -102 -149c-35 -21 -75 -34 -116 -34c-55 0 -108 28 -108 89c0 71 55 121 102 149c35 21 75 34 116 34z" fill="currentColor"/>
</a>
<g y-ref-of-1="true" spontinimarker="true">
<line transform="translate(14.2264, 7.6213)" stroke-linejoin="round" stroke-linecap="round" stroke-width="0.1138" stroke="currentColor" x1="0" y1="0" x2="1" y2="0"/>
</g>
<rect transform="translate(53.3048, 7.6213)" x="-0.0740" y="-0.5000" width="0.1480" height="3.3139" ry="0.0400" fill="currentColor"/>
<a style="color:inherit;" xlink:href="textedit:///home/paolo/programmi/nuove-composizioni/Spontini-master/examples/SetPropertiesExample2.ly:30:7:8">
<g transform="translate(51.2244, 15.6024)" >
<path transform="scale(0.0040, -0.0040)" d="M-41 146c26 76 82 153 149 153c22 0 36 -20 41 -45c22 26 51 45 81 45c23 0 38 -21 44 -46c22 27 51 46 80 46c33 0 59 -35 59 -69c0 -5 -1 -10 -2 -15l-35 -149c0 -2 -1 -4 -1 -5c0 -5 2 -8 7 -8c9 0 27 11 48 31c4 4 9 6 13 6c6 0 11 -4 11 -10c0 -4 -3 -8 -7 -12
c-40 -38 -85 -75 -131 -75c-20 0 -32 13 -32 32c0 4 0 7 1 11l39 165c1 5 2 9 2 14c0 10 -4 18 -14 18c-16 0 -33 -16 -39 -32l-53 -183c-3 -10 -12 -18 -22 -18h-41c-10 0 -16 8 -13 18l52 183c2 6 3 11 3 16c0 9 -4 16 -13 16c-16 0 -35 -15 -41 -32l-62 -183
c-3 -10 -14 -18 -24 -18h-41c-10 0 -15 8 -12 18l63 183c2 5 2 10 2 15c0 10 -3 17 -13 17c-29 0 -54 -53 -66 -87c-4 -11 -15 -17 -23 -17c-7 0 -12 4 -12 11c0 2 1 4 2 6z" fill="currentColor"/>

<path transform="translate(1.7413, 0.0000) scale(0.0040, -0.0040)" d="M253 245l-50 -163c-30 -99 -121 -255 -218 -255c-45 0 -87 27 -87 69c0 39 17 77 52 77c24 0 44 -20 44 -44c0 -30 -38 -24 -38 -54c0 -10 11 -11 23 -11h6c48 0 61 58 73 108l68 273h-49c-11 0 -19 8 -19 19s8 19 19 19h60c32 96 118 191 213 191c45 0 87 -27 87 -69
c0 -39 -17 -77 -52 -77c-24 0 -44 19 -44 43c0 30 38 25 38 55c0 10 -10 11 -22 11h-7c-62 0 -70 -88 -86 -154h55c11 0 19 -8 19 -19s-8 -19 -19 -19h-66z" fill="currentColor"/>
</g>
</a>
<a style="color:inherit;" xlink:href="textedit:///home/paolo/programmi/nuove-composizioni/Spontini-master/examples/SetPropertiesExample2.ly:30:4:5">
<path transform="translate(52.0746, 10.6213) scale(0.0040, -0.0040)" d="M218 136c55 0 108 -28 108 -89c0 -71 -55 -121 -102 -149c-35 -21 -75 -34 -116 -34c-55 0 -108 28 -108 89c0 71 55 121 102 149c35 21 75 34 116 34z" fill="currentColor"/>
</a>
<g x-ref-of-2="true" spontinimarker="true">
<line transform="translate(37.4528, 7.6213)" stroke-linejoin="round" stroke-linecap="round" stroke-width="0.1138" stroke="currentColor" x1="0" y1="0" x2="0" y2="-1"/>
</g>
<rect transform="translate(38.6831, 7.6213)" x="-0.0740" y="-0.5000" width="0.1480" height="3.3139" ry="0.0400" fill="currentColor"/>
<g x-offset-propid="2" editcommand="Tweak" editableclass="Dummy" spontinieditable="true" staffspace="1.00000000">
<a style="color:inherit;" xlink:href="textedit:///home/paolo/programmi/nuove-composizioni/Spontini-master/examples/SetPropertiesExample2.ly:29:7:8">
<g transform="translate(33.2528, 12.1902)" >
<path transform="scale(0.0040, -0.0040)" d="M-41 146c26 76 82 153 149 153c22 0 36 -20 41 -45c22 26 51 45 81 45c23 0 38 -21 44 -46c22 27 51 46 80 46c33 0 59 -35 59 -69c0 -5 -1 -10 -2 -15l-35 -149c0 -2 -1 -4 -1 -5c0 -5 2 -8 7 -8c9 0 27 11 48 31c4 4 9 6 13 6c6 0 11 -4 11 -10c0 -4 -3 -8 -7 -12
c-40 -38 -85 -75 -131 -75c-20 0 -32 13 -32 32c0 4 0 7 1 11l39 165c1 5 2 9 2 14c0 10 -4 18 -14 18c-16 0 -33 -16 -39 -32l-53 -183c-3 -10 -12 -18 -22 -18h-41c-10 0 -16 8 -13 18l52 183c2 6 3 11 3 16c0 9 -4 16 -13 16c-16 0 -35 -15 -41 -32l-62 -183
c-3 -10 -14 -18 -24 -18h-41c-10 0 -15 8 -12 18l63 183c2 5 2 10 2 15c0 10 -3 17 -13 17c-29 0 -54 -53 -66 -87c-4 -11 -15 -17 -23 -17c-7 0 -12 4 -12 11c0 2 1 4 2 6z" fill="currentColor"/>

<path transform="translate(1.7413, 0.0000) scale(0.0040, -0.0040)" d="M253 245l-50 -163c-30 -99 -121 -255 -218 -255c-45 0 -87 27 -87 69c0 39 17 77 52 77c24 0 44 -20 44 -44c0 -30 -38 -24 -38 -54c0 -10 11 -11 23 -11h6c48 0 61 58 73 108l68 273h-49c-11 0 -19 8 -19 19s8 19 19 19h60c32 96 118 191 213 191c45 0 87 -27 87 -69
c0 -39 -17 -77 -52 -77c-24 0 -44 19 -44 43c0 30 38 25 38 55c0 10 -10 11 -22 11h-7c-62 0 -70 -88 -86 -154h55c11 0 19 -8 19 -19s-8 -19 -19 -19h-66z" fill="currentColor"/>
</g>
</a>
</g>
<a style="color:inherit;" xlink:href="textedit:///home/paolo/programmi/nuove-composizioni/Spontini-master/examples/SetPropertiesExample2.ly:29:4:5">
<path transform="translate(37.4528, 10.6213) scale(0.0040, -0.0040)" d="M218 136c55 0 108 -28 108 -89c0 -71 -55 -121 -102 -149c-35 -21 -75 -34 -116 -34c-55 0 -108 28 -108 89c0 71 55 121 102 149c35 21 75 34 116 34z" fill="currentColor"/>
</a>
<g staff-padding-propid="5" editcommand="Tweak" editableclass="DynamicLineSpanner" spontinieditable="true" staffspace="1.00000000" y-direction="-1">
<line transform="translate(80.4678, 15.0662)" stroke-linejoin="round" stroke-linecap="round" stroke-width="0.3414" stroke="currentColor" x1="0" y1="0" x2="4" y2="0"/>
<g color="rgb(12.3000%, 45.6000%, 78.9000%)">
<g transform="scale(1.0000, -1.0000)">
<line transform="translate(82.4678, -9.5075)" stroke-linejoin="round" stroke-linecap="round" stroke-width="0.1138" stroke="currentColor" x1="0" y1="0" x2="-1" y2="0"/>
</g>
</g>
<g color="rgb(12.3000%, 45.6000%, 78.9000%)">
<g transform="scale(1.0000, -1.0000)">
<line transform="translate(81.9678, -9.5075)" stroke-linejoin="round" stroke-linecap="round" stroke-width="0.1138" stroke="currentColor" x1="0" y1="0" x2="0" y2="-5.3880"/>
</g>
</g>
<g color="rgb(12.3000%, 45.6000%, 78.9000%)">
<g transform="scale(1.0000, 1.0000)">
<line transform="translate(82.4678, 14.8955)" stroke-linejoin="round" stroke-linecap="round" stroke-width="0.1138" stroke="currentColor" x1="0" y1="0" x2="-1" y2="0"/>
</g>
</g>
</g>
<g outside-staff-padding-propid="4" editcommand="Tweak" editableclass="DynamicLineSpanner" spontinieditable="true" staffspace="1.00000000" y-direction="-1">
<line transform="translate(65.8461, 14.9933)" stroke-linejoin="round" stroke-linecap="round" stroke-width="0.3414" stroke="currentColor" x1="0" y1="0" x2="4" y2="0"/>
<g color="rgb(12.3000%, 45.6000%, 78.9000%)">
<g transform="scale(1.0000, -1.0000)">
<line transform="translate(67.8461, -11.7346)" stroke-linejoin="round" stroke-linecap="round" stroke-width="0.1138" stroke="currentColor" x1="0" y1="0" x2="-1" y2="0"/>
</g>
</g>
<g color="rgb(12.3000%, 45.6000%, 78.9000%)">
<g transform="scale(1.0000, -1.0000)">
<line transform="translate(67.3461, -11.7346)" stroke-linejoin="round" stroke-linecap="round" stroke-width="0.1138" stroke="currentColor" x1="0" y1="0" x2="0" y2="-3.0880"/>
</g>
</g>
<g color="rgb(12.3000%, 45.6000%, 78.9000%)">
<g transform="scale(1.0000, 1.0000)">
<line transform="translate(67.8461, 14.8226)" stroke-linejoin="round" stroke-linecap="round" stroke-width="0.1138" stroke="currentColor" x1="0" y1="0" x2="-1" y2="0"/>
</g>
</g>
<g color="rgb(12.3000%, 45.6000%, 78.9000%)">
<g transform="scale(1.0000, -1.0000)">
<line transform="translate(67.8461, -15.1641)" stroke-linejoin="round" stroke-linecap="round" stroke-width="0.1138" stroke="currentColor" x1="0" y1="0" x2="-1" y2="0"/>
</g>
</g>
<g color="rgb(12.3000%, 45.6000%, 78.9000%)">
<g transform="scale(1.0000, -1.0000)">
<line transform="translate(67.3461, -15.1641)" stroke-linejoin="round" stroke-linecap="round" stroke-width="0.1138" stroke="currentColor" x1="0" y1="0" x2="0" y2="-3.0880"/>
</g>
</g>
<g color="rgb(12.3000%, 45.6000%, 78.9000%)">
<g transform="scale(1.0000, 1.0000)">
<line transform="translate(67.8461, 18.2521)" stroke-linejoin="round" stroke-linecap="round" stroke-width="0.1138" stroke="currentColor" x1="0" y1="0" x2="-1" y2="0"/>
</g>
</g>
</g>
<g padding-propid="3" editcommand="Tweak" editableclass="DynamicLineSpanner" spontinieditable="true" staffspace="1.00000000" y-direction="-1">
<line transform="translate(51.2244, 15.0024)" stroke-linejoin="round" stroke-linecap="round" stroke-width="0.3414" stroke="currentColor" x1="0" y1="0" x2="4" y2="0"/>
<g color="rgb(12.3000%, 45.6000%, 78.9000%)">
<g transform="scale(1.0000, -1.0000)">
<line transform="translate(53.2244, -11.6227)" stroke-linejoin="round" stroke-linecap="round" stroke-width="0.1138" stroke="currentColor" x1="0" y1="0" x2="-1" y2="0"/>
</g>
</g>
<g color="rgb(12.3000%, 45.6000%, 78.9000%)">
<g transform="scale(1.0000, -1.0000)">
<line transform="translate(52.7244, -11.6227)" stroke-linejoin="round" stroke-linecap="round" stroke-width="0.1138" stroke="currentColor" x1="0" y1="0" x2="0" y2="-3.2090"/>
</g>
</g>
<g color="rgb(12.3000%, 45.6000%, 78.9000%)">
<g transform="scale(1.0000, 1.0000)">
<line transform="translate(53.2244, 14.8317)" stroke-linejoin="round" stroke-linecap="round" stroke-width="0.1138" stroke="currentColor" x1="0" y1="0" x2="-1" y2="0"/>
</g>
</g>
</g>
<g gridstep="3" gridify="true" isstaff="true">
<line transform="translate(5.6906, 25.7487)" stroke-linejoin="round" stroke-linecap="round" stroke-width="0.1138" stroke="currentColor" x1="0.0569" y1="-0.0000" x2="108.0636" y2="-0.0000"/>
<line transform="translate(5.6906, 24.7487)" stroke-linejoin="round" stroke-linecap="round" stroke-width="0.1138" stroke="currentColor" x1="0.0569" y1="-0.0000" x2="108.0636" y2="-0.0000"/>
<line transform="translate(5.6906, 23.7487)" stroke-linejoin="round" stroke-linecap="round" stroke-width="0.1138" stroke="currentColor" x1="0.0569" y1="-0.0000" x2="108.0636" y2="-0.0000"/>
<line transform="translate(5.6906, 22.7487)" stroke-linejoin="round" stroke-linecap="round" stroke-width="0.1138" stroke="currentColor" x1="0.0569" y1="-0.0000" x2="108.0636" y2="-0.0000"/>
<line transform="translate(5.6906, 21.7487)" stroke-linejoin="round" stroke-linecap="round" stroke-width="0.1138" stroke="currentColor" x1="0.0569" y1="-0.0000" x2="108.0636" y2="-0.0000"/>
</g>
<rect transform="translate(5.6906, 26.7487)" x="56.4899" y="-0.1069" width="1.9563" height="0.2138" ry="0.1069" fill="currentColor"/>
<rect transform="translate(5.6906, 26.7487)" x="32.5093" y="-0.1069" width="1.9563" height="0.2138" ry="0.1069" fill="currentColor"/>
<rect transform="translate(5.6906, 26.7487)" x="8.2787" y="-0.1069" width="1.9563" height="0.2138" ry="0.1069" fill="currentColor"/>
<rect transform="translate(5.6906, 27.7487)" x="8.2787" y="-0.1069" width="1.9563" height="0.2138" ry="0.1069" fill="currentColor"/>
<rect transform="translate(5.6906, 28.7487)" x="8.2787" y="-0.1069" width="1.9563" height="0.2138" ry="0.1069" fill="currentColor"/>
<rect transform="translate(110.7400, 23.7487)" x="0.0000" y="-2.0000" width="0.2162" height="4.0000" ry="0.0000" fill="currentColor"/>
<rect transform="translate(87.9673, 23.7487)" x="-0.0740" y="-6.6245" width="0.1480" height="4.9384" ry="0.0400" fill="currentColor"/>
<a style="color:inherit;" xlink:href="textedit:///home/paolo/programmi/nuove-composizioni/Spontini-master/examples/SetPropertiesExample2.ly:38:62:63">
<path transform="translate(86.7370, 22.2487) scale(0.0040, -0.0040)" d="M218 136c55 0 108 -28 108 -89c0 -71 -55 -121 -102 -149c-35 -21 -75 -34 -116 -34c-55 0 -108 28 -108 89c0 71 55 121 102 149c35 21 75 34 116 34z" fill="currentColor"/>
</a>
<rect transform="translate(63.7367, 23.7487)" x="-0.0740" y="-4.4701" width="0.1480" height="7.2840" ry="0.0400" fill="currentColor"/>
<a style="color:inherit;" xlink:href="textedit:///home/paolo/programmi/nuove-composizioni/Spontini-master/examples/SetPropertiesExample2.ly:38:59:60">
<path transform="translate(62.5065, 26.7487) scale(0.0040, -0.0040)" d="M218 136c55 0 108 -28 108 -89c0 -71 -55 -121 -102 -149c-35 -21 -75 -34 -116 -34c-55 0 -108 28 -108 89c0 71 55 121 102 149c35 21 75 34 116 34z" fill="currentColor"/>
</a>
<g positions-propid="7" editcommand="OnceOffset" editableclass="Dummy" spontinieditable="true" staffspace="1.00000000">
<a style="color:inherit;" xlink:href="textedit:///home/paolo/programmi/nuove-composizioni/Spontini-master/examples/SetPropertiesExample2.ly:38:6:7">
<polygon transform="translate(15.4515, 23.5718)" stroke-linejoin="round" stroke-linecap="round" stroke-width="0.0800" fill="currentColor" stroke="currentColor" points="72.5497 -6.6542 72.5497 -6.2542 0.0400 0.2000 0.0400 -0.2000"/>
</a>
</g>
<a style="color:inherit;" xlink:href="textedit:///home/paolo/programmi/nuove-composizioni/Spontini-master/examples/SetPropertiesExample2.ly:42:4:5">
<path transform="translate(111.8258, 23.7487) scale(0.0040, -0.0040)" d="M170 256c-51 0 -53 -44 -53 -102v-14v-15c0 -58 2 -102 53 -102c57 0 61 51 61 117s-4 116 -61 116zM117 266c17 7 34 13 53 13c101 0 170 -44 170 -139s-69 -140 -170 -140c-112 0 -170 124 -170 250c0 128 72 250 190 250c71 0 138 -39 138 -103c0 -36 -29 -66 -65 -66
s-66 30 -66 66c0 24 39 25 39 49c0 20 -23 31 -46 31c-66 0 -75 -65 -75 -139c0 -24 2 -48 2 -72z" fill="currentColor"/>
<path transform="translate(111.7063, 25.7973) scale(0.0040, -0.0040)" d="M204 307c22 14 44 29 60 50c11 15 19 33 27 50c2 4 5 6 9 6c6 0 13 -5 13 -14v-245h72c10 0 15 -7 15 -14s-5 -15 -15 -15h-72v-8c0 -48 27 -94 72 -94c8 0 12 -5 12 -11s-4 -12 -12 -12c-44 0 -87 13 -131 13s-87 -13 -131 -13c-8 0 -12 6 -12 12s4 11 12 11
c45 0 73 46 73 94v8h-167c-23 0 -31 14 -31 23c0 3 1 5 2 6c80 93 138 207 138 330c0 9 6 16 13 16h3c23 -7 47 -13 71 -13s48 6 71 13c2 1 3 1 5 1c11 0 18 -10 12 -17l-284 -330h167v131c0 8 1 17 8 22z" fill="currentColor"/>
</a>
<a style="color:inherit;" xlink:href="textedit:///home/paolo/programmi/nuove-composizioni/Spontini-master/examples/SetPropertiesExample2.ly:37:4:5">
<path transform="translate(10.7588, 23.7487) scale(0.0040, -0.0040)" d="M23 11c-1 -7 -6 -11 -11 -11c-6 0 -12 4 -12 11c0 175 235 165 235 344c0 60 -18 122 -70 122c-26 0 -51 -14 -51 -37c0 -27 35 -41 35 -68c0 -38 -30 -69 -68 -69s-69 31 -69 69c0 76 72 128 153 128c96 0 187 -56 187 -145c0 -153 -151 -159 -249 -220c9 2 17 3 26 3
c33 0 70 -11 105 -36c21 -15 46 -23 66 -23c21 0 39 9 44 29c2 6 6 9 11 9c6 0 12 -5 12 -12c0 -67 -90 -105 -138 -105c-36 0 -71 14 -96 44c-13 16 -31 22 -48 22c-30 0 -59 -20 -62 -55z" fill="currentColor"/>
<path transform="translate(10.6906, 25.7973) scale(0.0040, -0.0040)" d="M204 307c22 14 44 29 60 50c11 15 19 33 27 50c2 4 5 6 9 6c6 0 13 -5 13 -14v-245h72c10 0 15 -7 15 -14s-5 -15 -15 -15h-72v-8c0 -48 27 -94 72 -94c8 0 12 -5 12 -11s-4 -12 -12 -12c-44 0 -87 13 -131 13s-87 -13 -131 -13c-8 0 -12 6 -12 12s4 11 12 11
c45 0 73 46 73 94v8h-167c-23 0 -31 14 -31 23c0 3 1 5 2 6c80 93 138 207 138 330c0 9 6 16 13 16h3c23 -7 47 -13 71 -13s48 6 71 13c2 1 3 1 5 1c11 0 18 -10 12 -17l-284 -330h167v131c0 8 1 17 8 22z" fill="currentColor"/>
</a>
<text transform="translate(4.5638, 20.6987)" font-family="serif" font-size="1.7461" text-anchor="start" fill="currentColor">
<tspan>2</tspan>
</text>
<path transform="translate(6.4906, 24.7487) scale(0.0040, -0.0040)" d="M376 262c4 0 9 1 13 1c155 0 256 -128 256 -261c0 -76 -33 -154 -107 -210c-22 -17 -47 -28 -73 -36c3 -35 5 -70 5 -105c0 -19 -1 -39 -2 -58c-7 -120 -90 -228 -208 -228c-108 0 -195 88 -195 197c0 58 53 103 112 103c54 0 95 -47 95 -103c0 -52 -43 -95 -95 -95
c-11 0 -21 2 -31 6c26 -39 68 -65 117 -65c96 0 157 92 163 191c1 18 2 37 2 55c0 31 -1 61 -4 92c-29 -5 -58 -8 -89 -8c-188 0 -333 172 -333 374c0 177 131 306 248 441c-19 62 -37 125 -45 190c-6 52 -7 104 -7 156c0 115 55 224 149 292c3 2 7 3 10 3c4 0 7 0 10 -3
c71 -84 133 -245 133 -358c0 -143 -86 -255 -180 -364c21 -68 39 -138 56 -207zM461 -203c68 24 113 95 113 164c0 90 -66 179 -173 190c24 -116 46 -231 60 -354zM74 28c0 -135 129 -247 264 -247c28 0 55 2 82 6c-14 127 -37 245 -63 364c-79 -8 -124 -61 -124 -119
c0 -44 25 -91 81 -123c5 -5 7 -10 7 -15c0 -11 -10 -22 -22 -22c-3 0 -6 1 -9 2c-80 43 -117 115 -117 185c0 88 58 174 160 197c-14 58 -29 117 -46 175c-107 -121 -213 -243 -213 -403zM408 1045c-99 -48 -162 -149 -162 -259c0 -74 18 -133 36 -194
c80 97 146 198 146 324c0 55 -4 79 -20 129z" fill="currentColor"/>
<rect transform="translate(39.7561, 23.7487)" x="-0.0740" y="-2.3379" width="0.1480" height="5.1518" ry="0.0400" fill="currentColor"/>
<a style="color:inherit;" xlink:href="textedit:///home/paolo/programmi/nuove-composizioni/Spontini-master/examples/SetPropertiesExample2.ly:38:56:57">
<path transform="translate(38.5259, 26.7487) scale(0.0040, -0.0040)" d="M218 136c55 0 108 -28 108 -89c0 -71 -55 -121 -102 -149c-35 -21 -75 -34 -116 -34c-55 0 -108 28 -108 89c0 71 55 121 102 149c35 21 75 34 116 34z" fill="currentColor"/>
</a>
<rect transform="translate(15.5255, 23.7487)" x="-0.0740" y="-0.1835" width="0.1480" height="4.9974" ry="0.0400" fill="currentColor"/>
<a style="color:inherit;" xlink:href="textedit:///home/paolo/programmi/nuove-composizioni/Spontini-master/examples/SetPropertiesExample2.ly:38:4:5">
<path transform="translate(14.2953, 28.7487) scale(0.0040, -0.0040)" d="M218 136c55 0 108 -28 108 -89c0 -71 -55 -121 -102 -149c-35 -21 -75 -34 -116 -34c-55 0 -108 28 -108 89c0 71 55 121 102 149c35 21 75 34 116 34z" fill="currentColor"/>
</a>
<g gridstep="3" gridify="true" isstaff="true">
<line transform="translate(5.6906, 40.7487)" stroke-linejoin="round" stroke-linecap="round" stroke-width="0.1138" stroke="currentColor" x1="0.0569" y1="-0.0000" x2="108.0636" y2="-0.0000"/>
<line transform="translate(5.6906, 39.7487)" stroke-linejoin="round" stroke-linecap="round" stroke-width="0.1138" stroke="currentColor" x1="0.0569" y1="-0.0000" x2="108.0636" y2="-0.0000"/>
<line transform="translate(5.6906, 38.7487)" stroke-linejoin="round" stroke-linecap="round" stroke-width="0.1138" stroke="currentColor" x1="0.0569" y1="-0.0000" x2="108.0636" y2="-0.0000"/>
<line transform="translate(5.6906, 37.7487)" stroke-linejoin="round" stroke-linecap="round" stroke-width="0.1138" stroke="currentColor" x1="0.0569" y1="-0.0000" x2="108.0636" y2="-0.0000"/>
<line transform="translate(5.6906, 36.7487)" stroke-linejoin="round" stroke-linecap="round" stroke-width="0.1138" stroke="currentColor" x1="0.0569" y1="-0.0000" x2="108.0636" y2="-0.0000"/>
</g>
<rect transform="translate(5.6906, 41.7487)" x="88.5005" y="-0.1069" width="1.9563" height="0.2138" ry="0.1069" fill="currentColor"/>
<rect transform="translate(5.6906, 41.7487)" x="72.4561" y="-0.1069" width="1.9563" height="0.2138" ry="0.1069" fill="currentColor"/>
<rect transform="translate(5.6906, 41.7487)" x="56.4118" y="-0.1069" width="1.9563" height="0.2138" ry="0.1069" fill="currentColor"/>
<rect transform="translate(5.6906, 41.7487)" x="40.3674" y="-0.1069" width="1.9563" height="0.2138" ry="0.1069" fill="currentColor"/>
<rect transform="translate(5.6906, 41.7487)" x="24.3230" y="-0.1069" width="1.9563" height="0.2138" ry="0.1069" fill="currentColor"/>
<rect transform="translate(5.6906, 41.7487)" x="8.2787" y="-0.1069" width="1.9563" height="0.2138" ry="0.1069" fill="currentColor"/>
<rect transform="translate(110.7400, 38.7487)" x="0.0000" y="-2.0000" width="0.2162" height="4.0000" ry="0.0000" fill="currentColor"/>
<a style="color:inherit;" xlink:href="textedit:///home/paolo/programmi/nuove-composizioni/Spontini-master/examples/SetPropertiesExample2.ly:51:4:5">
<path transform="translate(94.5171, 41.7487) scale(0.0040, -0.0040)" d="M218 136c55 0 108 -28 108 -89c0 -71 -55 -121 -102 -149c-35 -21 -75 -34 -116 -34c-55 0 -108 28 -108 89c0 71 55 121 102 149c35 21 75 34 116 34z" fill="currentColor"/>
</a>
<rect transform="translate(47.6143, 38.7487)" x="-0.0740" y="-0.5000" width="0.1480" height="3.3139" ry="0.0400" fill="currentColor"/>
<rect transform="translate(79.7030, 38.7487)" x="-0.0740" y="-0.5000" width="0.1480" height="3.3139" ry="0.0400" fill="currentColor"/>
<a style="color:inherit;" xlink:href="textedit:///home/paolo/programmi/nuove-composizioni/Spontini-master/examples/SetPropertiesExample2.ly:50:4:5">
<path transform="translate(78.4727, 41.7487) scale(0.0040, -0.0040)" d="M218 136c55 0 108 -28 108 -89c0 -71 -55 -121 -102 -149c-35 -21 -75 -34 -116 -34c-55 0 -108 28 -108 89c0 71 55 121 102 149c35 21 75 34 116 34z" fill="currentColor"/>
</a>
<rect transform="translate(63.6586, 38.7487)" x="-0.0740" y="-0.5000" width="0.1480" height="3.3139" ry="0.0400" fill="currentColor"/>
<a style="color:inherit;" xlink:href="textedit:///home/paolo/programmi/nuove-composizioni/Spontini-master/examples/SetPropertiesExample2.ly:49:4:5">
<path transform="translate(62.4284, 41.7487) scale(0.0040, -0.0040)" d="M218 136c55 0 108 -28 108 -89c0 -71 -55 -121 -102 -149c-35 -21 -75 -34 -116 -34c-55 0 -108 28 -108 89c0 71 55 121 102 149c35 21 75 34 116 34z" fill="currentColor"/>
</a>
<g extra-offset-y-propid="13" editcommand="Tweak" editableclass="Dummy" spontinieditable="true" staffspace="1.00000000">
<a style="color:inherit;" xlink:href="textedit:///home/paolo/programmi/nuove-composizioni/Spontini-master/examples/SetPropertiesExample2.ly:51:8:9">
<path transform="translate(95.1692, 44.9767) scale(0.0040, -0.0040)" d="M-211 88c-8 2 -14 9 -14 18c0 10 9 19 19 19c2 0 3 -1 4 -1l408 -105c13 0 19 -6 19 -19s-6 -19 -19 -19l-408 -105c-1 0 -2 -1 -4 -1c-10 0 -19 9 -19 19c0 9 6 16 14 18l251 65l140 23l-140 23z" fill="currentColor"/>
</a>
</g>
<rect transform="translate(95.7473, 38.7487)" x="-0.0740" y="-0.5000" width="0.1480" height="3.3139" ry="0.0400" fill="currentColor"/>
<a style="color:inherit;" xlink:href="textedit:///home/paolo/programmi/nuove-composizioni/Spontini-master/examples/SetPropertiesExample2.ly:55:4:5">
<path transform="translate(111.8429, 38.7487) scale(0.0040, -0.0040)" d="M150 477c-29 0 -59 -8 -59 -33c0 -22 36 -25 36 -47c0 -32 -26 -58 -58 -58s-57 26 -57 58c0 65 67 103 138 103c91 0 169 -33 169 -114c0 -43 -4 -82 -42 -100c-9 -4 -14 -12 -14 -21s5 -18 14 -22c41 -19 56 -57 56 -103c0 -92 -79 -140 -179 -140
c-79 0 -154 42 -154 113c0 36 30 66 66 66s65 -30 65 -66c0 -25 -40 -28 -40 -53c0 -27 32 -37 63 -37c49 0 63 61 63 117v16c0 54 -2 94 -50 94h-80c-10 0 -14 8 -14 15s4 14 14 14h80c49 0 50 43 50 99v8c0 54 -18 91 -67 91z" fill="currentColor"/>
<path transform="translate(111.7063, 40.7973) scale(0.0040, -0.0040)" d="M204 307c22 14 44 29 60 50c11 15 19 33 27 50c2 4 5 6 9 6c6 0 13 -5 13 -14v-245h72c10 0 15 -7 15 -14s-5 -15 -15 -15h-72v-8c0 -48 27 -94 72 -94c8 0 12 -5 12 -11s-4 -12 -12 -12c-44 0 -87 13 -131 13s-87 -13 -131 -13c-8 0 -12 6 -12 12s4 11 12 11
c45 0 73 46 73 94v8h-167c-23 0 -31 14 -31 23c0 3 1 5 2 6c80 93 138 207 138 330c0 9 6 16 13 16h3c23 -7 47 -13 71 -13s48 6 71 13c2 1 3 1 5 1c11 0 18 -10 12 -17l-284 -330h167v131c0 8 1 17 8 22z" fill="currentColor"/>
</a>
<path transform="translate(6.4906, 39.7487) scale(0.0040, -0.0040)" d="M376 262c4 0 9 1 13 1c155 0 256 -128 256 -261c0 -76 -33 -154 -107 -210c-22 -17 -47 -28 -73 -36c3 -35 5 -70 5 -105c0 -19 -1 -39 -2 -58c-7 -120 -90 -228 -208 -228c-108 0 -195 88 -195 197c0 58 53 103 112 103c54 0 95 -47 95 -103c0 -52 -43 -95 -95 -95
c-11 0 -21 2 -31 6c26 -39 68 -65 117 -65c96 0 157 92 163 191c1 18 2 37 2 55c0 31 -1 61 -4 92c-29 -5 -58 -8 -89 -8c-188 0 -333 172 -333 374c0 177 131 306 248 441c-19 62 -37 125 -45 190c-6 52 -7 104 -7 156c0 115 55 224 149 292c3 2 7 3 10 3c4 0 7 0 10 -3
c71 -84 133 -245 133 -358c0 -143 -86 -255 -180 -364c21 -68 39 -138 56 -207zM461 -203c68 24 113 95 113 164c0 90 -66 179 -173 190c24 -116 46 -231 60 -354zM74 28c0 -135 129 -247 264 -247c28 0 55 2 82 6c-14 127 -37 245 -63 364c-79 -8 -124 -61 -124 -119
c0 -44 25 -91 81 -123c5 -5 7 -10 7 -15c0 -11 -10 -22 -22 -22c-3 0 -6 1 -9 2c-80 43 -117 115 -117 185c0 88 58 174 160 197c-14 58 -29 117 -46 175c-107 -121 -213 -243 -213 -403zM408 1045c-99 -48 -162 -149 -162 -259c0 -74 18 -133 36 -194
c80 97 146 198 146 324c0 55 -4 79 -20 129z" fill="currentColor"/>
<a style="color:inherit;" xlink:href="textedit:///home/paolo/programmi/nuove-composizioni/Spontini-master/examples/SetPropertiesExample2.ly:45:4:5">
<path transform="translate(46.3840, 41.7487) scale(0.0040, -0.0040)" d="M218 136c55 0 108 -28 108 -89c0 -71 -55 -121 -102 -149c-35 -21 -75 -34 -116 -34c-55 0 -108 28 -108 89c0 71 55 121 102 149c35 21 75 34 116 34z" fill="currentColor"/>
</a>
<a style="color:inherit;" xlink:href="textedit:///home/paolo/programmi/nuove-composizioni/Spontini-master/examples/SetPropertiesExample2.ly:43:1:9">
<path transform="translate(14.2953, 41.7487) scale(0.0040, -0.0040)" d="M218 136c55 0 108 -28 108 -89c0 -71 -55 -121 -102 -149c-35 -21 -75 -34 -116 -34c-55 0 -108 28 -108 89c0 71 55 121 102 149c35 21 75 34 116 34z" fill="currentColor"/>
</a>
<g y-offset-propid="8" editcommand="Tweak" editableclass="Dummy" spontinieditable="true" staffspace="1.00000000">
<a style="color:inherit;" xlink:href="textedit:///home/paolo/programmi/nuove-composizioni/Spontini-master/examples/SetPropertiesExample2.ly:43:5:13">
<path transform="translate(14.9474, 45.0487) scale(0.0040, -0.0040)" d="M-211 88c-8 2 -14 9 -14 18c0 10 9 19 19 19c2 0 3 -1 4 -1l408 -105c13 0 19 -6 19 -19s-6 -19 -19 -19l-408 -105c-1 0 -2 -1 -4 -1c-10 0 -19 9 -19 19c0 9 6 16 14 18l251 65l140 23l-140 23z" fill="currentColor"/>
</a>
</g>
<rect transform="translate(15.5255, 38.7487)" x="-0.0740" y="-0.5000" width="0.1480" height="3.3139" ry="0.0400" fill="currentColor"/>
<text transform="translate(4.5638, 35.6646)" font-family="serif" font-size="1.7461" text-anchor="start" fill="currentColor">
<tspan>3</tspan>
</text>
<a style="color:inherit;" xlink:href="textedit:///home/paolo/programmi/nuove-composizioni/Spontini-master/examples/SetPropertiesExample2.ly:42:4:5">
<path transform="translate(10.8101, 38.7487) scale(0.0040, -0.0040)" d="M170 256c-51 0 -53 -44 -53 -102v-14v-15c0 -58 2 -102 53 -102c57 0 61 51 61 117s-4 116 -61 116zM117 266c17 7 34 13 53 13c101 0 170 -44 170 -139s-69 -140 -170 -140c-112 0 -170 124 -170 250c0 128 72 250 190 250c71 0 138 -39 138 -103c0 -36 -29 -66 -65 -66
s-66 30 -66 66c0 24 39 25 39 49c0 20 -23 31 -46 31c-66 0 -75 -65 -75 -139c0 -24 2 -48 2 -72z" fill="currentColor"/>
<path transform="translate(10.6906, 40.7973) scale(0.0040, -0.0040)" d="M204 307c22 14 44 29 60 50c11 15 19 33 27 50c2 4 5 6 9 6c6 0 13 -5 13 -14v-245h72c10 0 15 -7 15 -14s-5 -15 -15 -15h-72v-8c0 -48 27 -94 72 -94c8 0 12 -5 12 -11s-4 -12 -12 -12c-44 0 -87 13 -131 13s-87 -13 -131 -13c-8 0 -12 6 -12 12s4 11 12 11
c45 0 73 46 73 94v8h-167c-23 0 -31 14 -31 23c0 3 1 5 2 6c80 93 138 207 138 330c0 9 6 16 13 16h3c23 -7 47 -13 71 -13s48 6 71 13c2 1 3 1 5 1c11 0 18 -10 12 -17l-284 -330h167v131c0 8 1 17 8 22z" fill="currentColor"/>
</a>
<a style="color:inherit;" xlink:href="textedit:///home/paolo/programmi/nuove-composizioni/Spontini-master/examples/SetPropertiesExample2.ly:44:1:9">
<path transform="translate(30.3397, 41.7487) scale(0.0040, -0.0040)" d="M218 136c55 0 108 -28 108 -89c0 -71 -55 -121 -102 -149c-35 -21 -75 -34 -116 -34c-55 0 -108 28 -108 89c0 71 55 121 102 149c35 21 75 34 116 34z" fill="currentColor"/>
</a>
<g x-offset-propid="9" editcommand="Tweak" editableclass="Dummy" spontinieditable="true" staffspace="1.00000000">
<a style="color:inherit;" xlink:href="textedit:///home/paolo/programmi/nuove-composizioni/Spontini-master/examples/SetPropertiesExample2.ly:44:5:13">
<path transform="translate(30.2397, 42.8847) scale(0.0040, -0.0040)" d="M-211 88c-8 2 -14 9 -14 18c0 10 9 19 19 19c2 0 3 -1 4 -1l408 -105c13 0 19 -6 19 -19s-6 -19 -19 -19l-408 -105c-1 0 -2 -1 -4 -1c-10 0 -19 9 -19 19c0 9 6 16 14 18l251 65l140 23l-140 23z" fill="currentColor"/>
</a>
</g>
<rect transform="translate(31.5699, 38.7487)" x="-0.0740" y="-0.5000" width="0.1480" height="3.3139" ry="0.0400" fill="currentColor"/>
<g x-ref-of-9="true" spontinimarker="true">
<line transform="translate(30.3397, 38.7487)" stroke-linejoin="round" stroke-linecap="round" stroke-width="0.1138" stroke="currentColor" x1="0" y1="0" x2="0" y2="-1"/>
</g>
<g y-ref-of-8="true" spontinimarker="true">
<line transform="translate(5.6906, 38.7487)" stroke-linejoin="round" stroke-linecap="round" stroke-width="0.1138" stroke="currentColor" x1="0" y1="0" x2="1" y2="0"/>
</g>
<g staff-padding-propid="12" editcommand="Tweak" editableclass="Dummy" spontinieditable="true" staffspace="1.00000000" y-direction="-1">
<a style="color:inherit;" xlink:href="textedit:///home/paolo/programmi/nuove-composizioni/Spontini-master/examples/SetPropertiesExample2.ly:50:8:9">
<path transform="translate(79.1249, 45.1056) scale(0.0040, -0.0040)" d="M-211 88c-8 2 -14 9 -14 18c0 10 9 19 19 19c2 0 3 -1 4 -1l408 -105c13 0 19 -6 19 -19s-6 -19 -19 -19l-408 -105c-1 0 -2 -1 -4 -1c-10 0 -19 9 -19 19c0 9 6 16 14 18l251 65l140 23l-140 23z" fill="currentColor"/>
<g color="rgb(12.3000%, 45.6000%, 78.9000%)">
<g transform="scale(1.0000, -1.0000)">
<line transform="translate(79.1249, -40.3056)" stroke-linejoin="round" stroke-linecap="round" stroke-width="0.1138" stroke="currentColor" x1="0" y1="0" x2="-1" y2="0"/>
</g>
</g>
<g color="rgb(12.3000%, 45.6000%, 78.9000%)">
<g transform="scale(1.0000, -1.0000)">
<line transform="translate(78.6249, -40.3056)" stroke-linejoin="round" stroke-linecap="round" stroke-width="0.1138" stroke="currentColor" x1="0" y1="0" x2="0" y2="-4.3000"/>
</g>
</g>
<g color="rgb(12.3000%, 45.6000%, 78.9000%)">
<g transform="scale(1.0000, 1.0000)">
<line transform="translate(79.1249, 44.6056)" stroke-linejoin="round" stroke-linecap="round" stroke-width="0.1138" stroke="currentColor" x1="0" y1="0" x2="-1" y2="0"/>
</g>
</g>
</a>
</g>
<g outside-staff-padding-propid="11" editcommand="Tweak" editableclass="Dummy" spontinieditable="true" staffspace="1.00000000" y-direction="-1">
<a style="color:inherit;" xlink:href="textedit:///home/paolo/programmi/nuove-composizioni/Spontini-master/examples/SetPropertiesExample2.ly:49:8:9">
<path transform="translate(63.0805, 45.0897) scale(0.0040, -0.0040)" d="M-211 88c-8 2 -14 9 -14 18c0 10 9 19 19 19c2 0 3 -1 4 -1l408 -105c13 0 19 -6 19 -19s-6 -19 -19 -19l-408 -105c-1 0 -2 -1 -4 -1c-10 0 -19 9 -19 19c0 9 6 16 14 18l251 65l140 23l-140 23z" fill="currentColor"/>
<g color="rgb(12.3000%, 45.6000%, 78.9000%)">
<g transform="scale(1.0000, -1.0000)">
<line transform="translate(63.0805, -42.2897)" stroke-linejoin="round" stroke-linecap="round" stroke-width="0.1138" stroke="currentColor" x1="0" y1="0" x2="-1" y2="0"/>
</g>
</g>
<g color="rgb(12.3000%, 45.6000%, 78.9000%)">
<g transform="scale(1.0000, -1.0000)">
<line transform="translate(62.5805, -42.2897)" stroke-linejoin="round" stroke-linecap="round" stroke-width="0.1138" stroke="currentColor" x1="0" y1="0" x2="0" y2="-2.3000"/>
</g>
</g>
<g color="rgb(12.3000%, 45.6000%, 78.9000%)">
<g transform="scale(1.0000, 1.0000)">
<line transform="translate(63.0805, 44.5897)" stroke-linejoin="round" stroke-linecap="round" stroke-width="0.1138" stroke="currentColor" x1="0" y1="0" x2="-1" y2="0"/>
</g>
</g>
<g color="rgb(12.3000%, 45.6000%, 78.9000%)">
<g transform="scale(1.0000, -1.0000)">
<line transform="translate(63.0805, -45.5897)" stroke-linejoin="round" stroke-linecap="round" stroke-width="0.1138" stroke="currentColor" x1="0" y1="0" x2="-1" y2="0"/>
</g>
</g>
<g color="rgb(12.3000%, 45.6000%, 78.9000%)">
<g transform="scale(1.0000, -1.0000)">
<line transform="translate(62.5805, -45.5897)" stroke-linejoin="round" stroke-linecap="round" stroke-width="0.1138" stroke="currentColor" x1="0" y1="0" x2="0" y2="-2.3000"/>
</g>
</g>
<g color="rgb(12.3000%, 45.6000%, 78.9000%)">
<g transform="scale(1.0000, 1.0000)">
<line transform="translate(63.0805, 47.8897)" stroke-linejoin="round" stroke-linecap="round" stroke-width="0.1138" stroke="currentColor" x1="0" y1="0" x2="-1" y2="0"/>
</g>
</g>
</a>
</g>
<g padding-propid="10" editcommand="Tweak" editableclass="Dummy" spontinieditable="true" staffspace="1.00000000" y-direction="-1">
<a style="color:inherit;" xlink:href="textedit:///home/paolo/programmi/nuove-composizioni/Spontini-master/examples/SetPropertiesExample2.ly:45:8:9">
<path transform="translate(47.0361, 45.0897) scale(0.0040, -0.0040)" d="M-211 88c-8 2 -14 9 -14 18c0 10 9 19 19 19c2 0 3 -1 4 -1l408 -105c13 0 19 -6 19 -19s-6 -19 -19 -19l-408 -105c-1 0 -2 -1 -4 -1c-10 0 -19 9 -19 19c0 9 6 16 14 18l251 65l140 23l-140 23z" fill="currentColor"/>
<g color="rgb(12.3000%, 45.6000%, 78.9000%)">
<g transform="scale(1.0000, -1.0000)">
<line transform="translate(47.0361, -42.2897)" stroke-linejoin="round" stroke-linecap="round" stroke-width="0.1138" stroke="currentColor" x1="0" y1="0" x2="-1" y2="0"/>
</g>
</g>
<g color="rgb(12.3000%, 45.6000%, 78.9000%)">
<g transform="scale(1.0000, -1.0000)">
<line transform="translate(46.5361, -42.2897)" stroke-linejoin="round" stroke-linecap="round" stroke-width="0.1138" stroke="currentColor" x1="0" y1="0" x2="0" y2="-2.3000"/>
</g>
</g>
<g color="rgb(12.3000%, 45.6000%, 78.9000%)">
<g transform="scale(1.0000, 1.0000)">
<line transform="translate(47.0361, 44.5897)" stroke-linejoin="round" stroke-linecap="round" stroke-width="0.1138" stroke="currentColor" x1="0" y1="0" x2="-1" y2="0"/>
</g>
</g>
</a>
</g>
<g gridstep="3" gridify="true" isstaff="true">
<line transform="translate(5.6906, 55.7487)" stroke-linejoin="round" stroke-linecap="round" stroke-width="0.1138" stroke="currentColor" x1="0.0569" y1="-0.0000" x2="108.0636" y2="-0.0000"/>
<line transform="translate(5.6906, 54.7487)" stroke-linejoin="round" stroke-linecap="round" stroke-width="0.1138" stroke="currentColor" x1="0.0569" y1="-0.0000" x2="108.0636" y2="-0.0000"/>
<line transform="translate(5.6906, 53.7487)" stroke-linejoin="round" stroke-linecap="round" stroke-width="0.1138" stroke="currentColor" x1="0.0569" y1="-0.0000" x2="108.0636" y2="-0.0000"/>
<line transform="translate(5.6906, 52.7487)" stroke-linejoin="round" stroke-linecap="round" stroke-width="0.1138" stroke="currentColor" x1="0.0569" y1="-0.0000" x2="108.0636" y2="-0.0000"/>
<line transform="translate(5.6906, 51.7487)" stroke-linejoin="round" stroke-linecap="round" stroke-width="0.1138" stroke="currentColor" x1="0.0569" y1="-0.0000" x2="108.0636" y2="-0.0000"/>
</g>
<rect transform="translate(110.7400, 53.7487)" x="0.0000" y="-2.0000" width="0.2162" height="4.0000" ry="0.0000" fill="currentColor"/>
<rect transform="translate(5.6906, 56.7487)" x="76.7561" y="-0.1069" width="1.9563" height="0.2138" ry="0.1069" fill="currentColor"/>
<rect transform="translate(5.6906, 56.7487)" x="48.9674" y="-0.1069" width="1.9563" height="0.2138" ry="0.1069" fill="currentColor"/>
<rect transform="translate(5.6906, 56.7487)" x="8.2787" y="-0.1069" width="1.9563" height="0.2138" ry="0.1069" fill="currentColor"/>
<a style="color:inherit;" xlink:href="textedit:///home/paolo/programmi/nuove-composizioni/Spontini-master/examples/SetPropertiesExample2.ly:59:58:59">
<path transform="translate(54.9840, 56.7487) scale(0.0040, -0.0040)" d="M218 136c55 0 108 -28 108 -89c0 -71 -55 -121 -102 -149c-35 -21 -75 -34 -116 -34c-55 0 -108 28 -108 89c0 71 55 121 102 149c35 21 75 34 116 34z" fill="currentColor"/>
</a>
<rect transform="translate(56.2143, 53.7487)" x="-0.0740" y="-0.5000" width="0.1480" height="3.3139" ry="0.0400" fill="currentColor"/>
<g x-offset-propid="14" editcommand="OnceOverride" editableclass="NoteColumn" spontinieditable="true" staffspace="1.00000000">
<line transform="translate(54.9840, 53.7487)" stroke-linejoin="round" stroke-linecap="round" stroke-width="0.3414" stroke="currentColor" x1="0" y1="0" x2="0" y2="-4"/>
</g>
<a style="color:inherit;" xlink:href="textedit:///home/paolo/programmi/nuove-composizioni/Spontini-master/examples/SetPropertiesExample2.ly:60:4:5">
<path transform="translate(82.7727, 56.7487) scale(0.0040, -0.0040)" d="M218 136c55 0 108 -28 108 -89c0 -71 -55 -121 -102 -149c-35 -21 -75 -34 -116 -34c-55 0 -108 28 -108 89c0 71 55 121 102 149c35 21 75 34 116 34z" fill="currentColor"/>
</a>
<rect transform="translate(84.0030, 53.7487)" x="-0.0740" y="-0.5000" width="0.1480" height="3.3139" ry="0.0400" fill="currentColor"/>
<a style="color:inherit;" xlink:href="textedit:///home/paolo/programmi/nuove-composizioni/Spontini-master/examples/SetPropertiesExample2.ly:64:4:5">
<path transform="translate(111.8258, 53.7487) scale(0.0040, -0.0040)" d="M170 256c-51 0 -53 -44 -53 -102v-14v-15c0 -58 2 -102 53 -102c57 0 61 51 61 117s-4 116 -61 116zM117 266c17 7 34 13 53 13c101 0 170 -44 170 -139s-69 -140 -170 -140c-112 0 -170 124 -170 250c0 128 72 250 190 250c71 0 138 -39 138 -103c0 -36 -29 -66 -65 -66
s-66 30 -66 66c0 24 39 25 39 49c0 20 -23 31 -46 31c-66 0 -75 -65 -75 -139c0 -24 2 -48 2 -72z" fill="currentColor"/>
<path transform="translate(111.7063, 55.7973) scale(0.0040, -0.0040)" d="M204 307c22 14 44 29 60 50c11 15 19 33 27 50c2 4 5 6 9 6c6 0 13 -5 13 -14v-245h72c10 0 15 -7 15 -14s-5 -15 -15 -15h-72v-8c0 -48 27 -94 72 -94c8 0 12 -5 12 -11s-4 -12 -12 -12c-44 0 -87 13 -131 13s-87 -13 -131 -13c-8 0 -12 6 -12 12s4 11 12 11
c45 0 73 46 73 94v8h-167c-23 0 -31 14 -31 23c0 3 1 5 2 6c80 93 138 207 138 330c0 9 6 16 13 16h3c23 -7 47 -13 71 -13s48 6 71 13c2 1 3 1 5 1c11 0 18 -10 12 -17l-284 -330h167v131c0 8 1 17 8 22z" fill="currentColor"/>
</a>
<a style="color:inherit;" xlink:href="textedit:///home/paolo/programmi/nuove-composizioni/Spontini-master/examples/SetPropertiesExample2.ly:55:4:5">
<path transform="translate(10.8271, 53.7487) scale(0.0040, -0.0040)" d="M150 477c-29 0 -59 -8 -59 -33c0 -22 36 -25 36 -47c0 -32 -26 -58 -58 -58s-57 26 -57 58c0 65 67 103 138 103c91 0 169 -33 169 -114c0 -43 -4 -82 -42 -100c-9 -4 -14 -12 -14 -21s5 -18 14 -22c41 -19 56 -57 56 -103c0 -92 -79 -140 -179 -140
c-79 0 -154 42 -154 113c0 36 30 66 66 66s65 -30 65 -66c0 -25 -40 -28 -40 -53c0 -27 32 -37 63 -37c49 0 63 61 63 117v16c0 54 -2 94 -50 94h-80c-10 0 -14 8 -14 15s4 14 14 14h80c49 0 50 43 50 99v8c0 54 -18 91 -67 91z" fill="currentColor"/>
<path transform="translate(10.6906, 55.7973) scale(0.0040, -0.0040)" d="M204 307c22 14 44 29 60 50c11 15 19 33 27 50c2 4 5 6 9 6c6 0 13 -5 13 -14v-245h72c10 0 15 -7 15 -14s-5 -15 -15 -15h-72v-8c0 -48 27 -94 72 -94c8 0 12 -5 12 -11s-4 -12 -12 -12c-44 0 -87 13 -131 13s-87 -13 -131 -13c-8 0 -12 6 -12 12s4 11 12 11
c45 0 73 46 73 94v8h-167c-23 0 -31 14 -31 23c0 3 1 5 2 6c80 93 138 207 138 330c0 9 6 16 13 16h3c23 -7 47 -13 71 -13s48 6 71 13c2 1 3 1 5 1c11 0 18 -10 12 -17l-284 -330h167v131c0 8 1 17 8 22z" fill="currentColor"/>
</a>
<text transform="translate(4.5638, 50.6987)" font-family="serif" font-size="1.7461" text-anchor="start" fill="currentColor">
<tspan>4</tspan>
</text>
<path transform="translate(6.4906, 54.7487) scale(0.0040, -0.0040)" d="M376 262c4 0 9 1 13 1c155 0 256 -128 256 -261c0 -76 -33 -154 -107 -210c-22 -17 -47 -28 -73 -36c3 -35 5 -70 5 -105c0 -19 -1 -39 -2 -58c-7 -120 -90 -228 -208 -228c-108 0 -195 88 -195 197c0 58 53 103 112 103c54 0 95 -47 95 -103c0 -52 -43 -95 -95 -95
c-11 0 -21 2 -31 6c26 -39 68 -65 117 -65c96 0 157 92 163 191c1 18 2 37 2 55c0 31 -1 61 -4 92c-29 -5 -58 -8 -89 -8c-188 0 -333 172 -333 374c0 177 131 306 248 441c-19 62 -37 125 -45 190c-6 52 -7 104 -7 156c0 115 55 224 149 292c3 2 7 3 10 3c4 0 7 0 10 -3
c71 -84 133 -245 133 -358c0 -143 -86 -255 -180 -364c21 -68 39 -138 56 -207zM461 -203c68 24 113 95 113 164c0 90 -66 179 -173 190c24 -116 46 -231 60 -354zM74 28c0 -135 129 -247 264 -247c28 0 55 2 82 6c-14 127 -37 245 -63 364c-79 -8 -124 -61 -124 -119
c0 -44 25 -91 81 -123c5 -5 7 -10 7 -15c0 -11 -10 -22 -22 -22c-3 0 -6 1 -9 2c-80 43 -117 115 -117 185c0 88 58 174 160 197c-14 58 -29 117 -46 175c-107 -121 -213 -243 -213 -403zM408 1045c-99 -48 -162 -149 -162 -259c0 -74 18 -133 36 -194
c80 97 146 198 146 324c0 55 -4 79 -20 129z" fill="currentColor"/>
<a style="color:inherit;" xlink:href="textedit:///home/paolo/programmi/nuove-composizioni/Spontini-master/examples/SetPropertiesExample2.ly:56:4:5">
<path transform="translate(14.2953, 56.7487) scale(0.0040, -0.0040)" d="M218 136c55 0 108 -28 108 -89c0 -71 -55 -121 -102 -149c-35 -21 -75 -34 -116 -34c-55 0 -108 28 -108 89c0 71 55 121 102 149c35 21 75 34 116 34z" fill="currentColor"/>
</a>
<rect transform="translate(15.5255, 53.7487)" x="-0.0740" y="-0.5000" width="0.1480" height="3.3139" ry="0.0400" fill="currentColor"/>
<g x-ref-of-14="true" spontinimarker="true">
<line transform="translate(42.0840, 49.4013)" stroke-linejoin="round" stroke-linecap="round" stroke-width="0.1138" stroke="currentColor" x1="0" y1="0" x2="0" y2="-1"/>
</g>
<g gridstep="3" gridify="true" isstaff="true">
<line transform="translate(5.6906, 70.7487)" stroke-linejoin="round" stroke-linecap="round" stroke-width="0.1138" stroke="currentColor" x1="0.0569" y1="-0.0000" x2="108.0636" y2="-0.0000"/>
<line transform="translate(5.6906, 69.7487)" stroke-linejoin="round" stroke-linecap="round" stroke-width="0.1138" stroke="currentColor" x1="0.0569" y1="-0.0000" x2="108.0636" y2="-0.0000"/>
<line transform="translate(5.6906, 68.7487)" stroke-linejoin="round" stroke-linecap="round" stroke-width="0.1138" stroke="currentColor" x1="0.0569" y1="-0.0000" x2="108.0636" y2="-0.0000"/>
<line transform="translate(5.6906, 67.7487)" stroke-linejoin="round" stroke-linecap="round" stroke-width="0.1138" stroke="currentColor" x1="0.0569" y1="-0.0000" x2="108.0636" y2="-0.0000"/>
<line transform="translate(5.6906, 66.7487)" stroke-linejoin="round" stroke-linecap="round" stroke-width="0.1138" stroke="currentColor" x1="0.0569" y1="-0.0000" x2="108.0636" y2="-0.0000"/>
</g>
<rect transform="translate(5.6906, 71.7487)" x="88.5005" y="-0.1069" width="1.9563" height="0.2138" ry="0.1069" fill="currentColor"/>
<rect transform="translate(5.6906, 71.7487)" x="72.4561" y="-0.1069" width="1.9563" height="0.2138" ry="0.1069" fill="currentColor"/>
<rect transform="translate(5.6906, 71.7487)" x="56.4118" y="-0.1069" width="1.9563" height="0.2138" ry="0.1069" fill="currentColor"/>
<rect transform="translate(5.6906, 71.7487)" x="40.3674" y="-0.1069" width="1.9563" height="0.2138" ry="0.1069" fill="currentColor"/>
<rect transform="translate(5.6906, 71.7487)" x="24.3230" y="-0.1069" width="1.9563" height="0.2138" ry="0.1069" fill="currentColor"/>
<rect transform="translate(5.6906, 71.7487)" x="8.2787" y="-0.1069" width="1.9563" height="0.2138" ry="0.1069" fill="currentColor"/>
<rect transform="translate(110.7400, 68.7487)" x="0.0000" y="-2.0000" width="0.2162" height="4.0000" ry="0.0000" fill="currentColor"/>
<rect transform="translate(95.7473, 68.7487)" x="-0.0740" y="-0.5000" width="0.1480" height="3.3139" ry="0.0400" fill="currentColor"/>
<a style="color:inherit;" xlink:href="textedit:///home/paolo/programmi/nuove-composizioni/Spontini-master/examples/SetPropertiesExample2.ly:70:4:5">
<path transform="translate(94.5171, 71.7487) scale(0.0040, -0.0040)" d="M218 136c55 0 108 -28 108 -89c0 -71 -55 -121 -102 -149c-35 -21 -75 -34 -116 -34c-55 0 -108 28 -108 89c0 71 55 121 102 149c35 21 75 34 116 34z" fill="currentColor"/>
</a>
<rect transform="translate(79.7030, 68.7487)" x="-0.0740" y="-0.5000" width="0.1480" height="3.3139" ry="0.0400" fill="currentColor"/>
<a style="color:inherit;" xlink:href="textedit:///home/paolo/programmi/nuove-composizioni/Spontini-master/examples/SetPropertiesExample2.ly:69:4:5">
<path transform="translate(78.4727, 71.7487) scale(0.0040, -0.0040)" d="M218 136c55 0 108 -28 108 -89c0 -71 -55 -121 -102 -149c-35 -21 -75 -34 -116 -34c-55 0 -108 28 -108 89c0 71 55 121 102 149c35 21 75 34 116 34z" fill="currentColor"/>
</a>
<rect transform="translate(63.6586, 68.7487)" x="-0.0740" y="-0.5000" width="0.1480" height="3.3139" ry="0.0400" fill="currentColor"/>
<a style="color:inherit;" xlink:href="textedit:///home/paolo/programmi/nuove-composizioni/Spontini-master/examples/SetPropertiesExample2.ly:68:4:5">
<path transform="translate(62.4284, 71.7487) scale(0.0040, -0.0040)" d="M218 136c55 0 108 -28 108 -89c0 -71 -55 -121 -102 -149c-35 -21 -75 -34 -116 -34c-55 0 -108 28 -108 89c0 71 55 121 102 149c35 21 75 34 116 34z" fill="currentColor"/>
</a>
<g cpts-propid="15" editcommand="Shape" editableclass="Dummy" spontinieditable="true" staffspace="1.00000000">
<a style="color:inherit;" xlink:href="textedit:///home/paolo/programmi/nuove-composizioni/Spontini-master/examples/SetPropertiesExample2.ly:65:7:8">
<g color="rgb(100%, 50.0000%, 0%)">
<line transform="translate(14.9474, 72.7937)" stroke-linejoin="round" stroke-linecap="round" stroke-width="0.1366" stroke="currentColor" x1="0" y1="0" x2="0.0802" y2="5.1136"/>
</g>
<g color="rgb(100%, 50.0000%, 0%)">
<line transform="translate(15.0276, 77.9074)" stroke-linejoin="round" stroke-linecap="round" stroke-width="0.1366" stroke="currentColor" x1="0" y1="0" x2="16.0909" y2="-0.0000"/>
</g>
<g color="rgb(100%, 50.0000%, 0%)">
<line transform="translate(31.1185, 77.9074)" stroke-linejoin="round" stroke-linecap="round" stroke-width="0.1366" stroke="currentColor" x1="0" y1="0" x2="-0.1268" y2="-5.1136"/>
</g>
<g color="rgb(81.1000%, 46.6000%, 43.9000%)">
<circle transform="translate(14.9474, 72.7937)" stroke-linejoin="round" stroke-linecap="round" fill="currentColor" stroke="currentColor" stroke-width="0" r="0.6000"/>
</g>
<g color="rgb(81.1000%, 46.6000%, 43.9000%)">
<circle transform="translate(15.0276, 77.9074)" stroke-linejoin="round" stroke-linecap="round" fill="currentColor" stroke="currentColor" stroke-width="0" r="0.6000"/>
</g>
<g color="rgb(81.1000%, 46.6000%, 43.9000%)">
<circle transform="translate(31.1185, 77.9074)" stroke-linejoin="round" stroke-linecap="round" fill="currentColor" stroke="currentColor" stroke-width="0" r="0.6000"/>
</g>
<g color="rgb(81.1000%, 46.6000%, 43.9000%)">
<circle transform="translate(30.9918, 72.7937)" stroke-linejoin="round" stroke-linecap="round" fill="currentColor" stroke="currentColor" stroke-width="0" r="0.6000"/>
</g>
<path transform="translate(14.2953, 68.7487)" stroke-width="0.0910" stroke-linejoin="round" stroke-linecap="round" stroke="currentColor" fill="currentColor" d="M0.6521 4.0450C0.7324 9.2269 16.8232 9.2269 16.6965 4.0450L16.6965 4.0450C16.8232 9.0904 0.7324 9.0904 0.6521 4.0450z"/>
</a>
</g>
<a style="color:inherit;" xlink:href="textedit:///home/paolo/programmi/nuove-composizioni/Spontini-master/examples/SetPropertiesExample2.ly:74:4:5">
<path transform="translate(111.8429, 68.7487) scale(0.0040, -0.0040)" d="M150 477c-29 0 -59 -8 -59 -33c0 -22 36 -25 36 -47c0 -32 -26 -58 -58 -58s-57 26 -57 58c0 65 67 103 138 103c91 0 169 -33 169 -114c0 -43 -4 -82 -42 -100c-9 -4 -14 -12 -14 -21s5 -18 14 -22c41 -19 56 -57 56 -103c0 -92 -79 -140 -179 -140
c-79 0 -154 42 -154 113c0 36 30 66 66 66s65 -30 65 -66c0 -25 -40 -28 -40 -53c0 -27 32 -37 63 -37c49 0 63 61 63 117v16c0 54 -2 94 -50 94h-80c-10 0 -14 8 -14 15s4 14 14 14h80c49 0 50 43 50 99v8c0 54 -18 91 -67 91z" fill="currentColor"/>
<path transform="translate(111.7063, 70.7973) scale(0.0040, -0.0040)" d="M204 307c22 14 44 29 60 50c11 15 19 33 27 50c2 4 5 6 9 6c6 0 13 -5 13 -14v-245h72c10 0 15 -7 15 -14s-5 -15 -15 -15h-72v-8c0 -48 27 -94 72 -94c8 0 12 -5 12 -11s-4 -12 -12 -12c-44 0 -87 13 -131 13s-87 -13 -131 -13c-8 0 -12 6 -12 12s4 11 12 11
c45 0 73 46 73 94v8h-167c-23 0 -31 14 -31 23c0 3 1 5 2 6c80 93 138 207 138 330c0 9 6 16 13 16h3c23 -7 47 -13 71 -13s48 6 71 13c2 1 3 1 5 1c11 0 18 -10 12 -17l-284 -330h167v131c0 8 1 17 8 22z" fill="currentColor"/>
</a>
<g cpts-propid="17" editcommand="Shape" editableclass="Dummy" spontinieditable="true" staffspace="1.00000000">
<a style="color:inherit;" xlink:href="textedit:///home/paolo/programmi/nuove-composizioni/Spontini-master/examples/SetPropertiesExample2.ly:69:7:8">
<g color="rgb(100%, 50.0000%, 0%)">
<line transform="translate(79.3249, 72.4987)" stroke-linejoin="round" stroke-linecap="round" stroke-width="0.1366" stroke="currentColor" x1="0" y1="0" x2="0.1003" y2="5.4376"/>
</g>
<g color="rgb(100%, 50.0000%, 0%)">
<line transform="translate(79.4252, 77.9363)" stroke-linejoin="round" stroke-linecap="round" stroke-width="0.1366" stroke="currentColor" x1="0" y1="0" x2="15.5227" y2="0.0920"/>
</g>
<g color="rgb(100%, 50.0000%, 0%)">
<line transform="translate(94.9479, 78.0283)" stroke-linejoin="round" stroke-linecap="round" stroke-width="0.1366" stroke="currentColor" x1="0" y1="0" x2="0.0213" y2="-5.5296"/>
</g>
<g color="rgb(81.1000%, 46.6000%, 43.9000%)">
<circle transform="translate(79.3249, 72.4987)" stroke-linejoin="round" stroke-linecap="round" fill="currentColor" stroke="currentColor" stroke-width="0" r="0.6000"/>
</g>
<g color="rgb(81.1000%, 46.6000%, 43.9000%)">
<circle transform="translate(79.4252, 77.9363)" stroke-linejoin="round" stroke-linecap="round" fill="currentColor" stroke="currentColor" stroke-width="0" r="0.6000"/>
</g>
<g color="rgb(81.1000%, 46.6000%, 43.9000%)">
<circle transform="translate(94.9479, 78.0283)" stroke-linejoin="round" stroke-linecap="round" fill="currentColor" stroke="currentColor" stroke-width="0" r="0.6000"/>
</g>
<g color="rgb(81.1000%, 46.6000%, 43.9000%)">
<circle transform="translate(94.9692, 72.4987)" stroke-linejoin="round" stroke-linecap="round" fill="currentColor" stroke="currentColor" stroke-width="0" r="0.6000"/>
</g>
<path transform="translate(78.4727, 68.7487)" stroke-width="0.0910" stroke-linejoin="round" stroke-linecap="round" stroke="currentColor" fill="currentColor" d="M0.8521 3.7500C0.9525 9.2559 16.4751 9.3479 16.4965 3.7500L16.4965 3.7500C16.4751 9.2113 0.9525 9.1193 0.8521 3.7500z"/>
</a>
</g>
<g cpts-propid="16" editcommand="Shape" editableclass="Dummy" spontinieditable="true" staffspace="1.00000000">
<a style="color:inherit;" xlink:href="textedit:///home/paolo/programmi/nuove-composizioni/Spontini-master/examples/SetPropertiesExample2.ly:67:7:8">
<g color="rgb(100%, 50.0000%, 0%)">
<line transform="translate(47.0361, 72.7937)" stroke-linejoin="round" stroke-linecap="round" stroke-width="0.1252" stroke="currentColor" x1="0" y1="0" x2="0.0802" y2="5.2071"/>
</g>
<g color="rgb(100%, 50.0000%, 0%)">
<line transform="translate(47.1164, 78.0009)" stroke-linejoin="round" stroke-linecap="round" stroke-width="0.1252" stroke="currentColor" x1="0" y1="0" x2="16.0909" y2="-0.0000"/>
</g>
<g color="rgb(100%, 50.0000%, 0%)">
<line transform="translate(63.2072, 78.0009)" stroke-linejoin="round" stroke-linecap="round" stroke-width="0.1252" stroke="currentColor" x1="0" y1="0" x2="-0.1268" y2="-5.2071"/>
</g>
<g color="rgb(81.1000%, 46.6000%, 43.9000%)">
<circle transform="translate(47.0361, 72.7937)" stroke-linejoin="round" stroke-linecap="round" fill="currentColor" stroke="currentColor" stroke-width="0" r="0.6000"/>
</g>
<g color="rgb(81.1000%, 46.6000%, 43.9000%)">
<circle transform="translate(47.1164, 78.0009)" stroke-linejoin="round" stroke-linecap="round" fill="currentColor" stroke="currentColor" stroke-width="0" r="0.6000"/>
</g>
<g color="rgb(81.1000%, 46.6000%, 43.9000%)">
<circle transform="translate(63.2072, 78.0009)" stroke-linejoin="round" stroke-linecap="round" fill="currentColor" stroke="currentColor" stroke-width="0" r="0.6000"/>
</g>
<g color="rgb(81.1000%, 46.6000%, 43.9000%)">
<circle transform="translate(63.0805, 72.7937)" stroke-linejoin="round" stroke-linecap="round" fill="currentColor" stroke="currentColor" stroke-width="0" r="0.6000"/>
</g>
<path transform="translate(46.3840, 68.7487)" stroke-width="0.1138" stroke-linejoin="round" stroke-linecap="round" stroke="currentColor" fill="currentColor" d="M0.6521 4.0450C0.7324 9.3147 16.8232 9.3147 16.6965 4.0450L16.6965 4.0450C16.8232 9.1895 0.7324 9.1895 0.6521 4.0450z"/>
</a>
</g>
<path transform="translate(6.4906, 69.7487) scale(0.0040, -0.0040)" d="M376 262c4 0 9 1 13 1c155 0 256 -128 256 -261c0 -76 -33 -154 -107 -210c-22 -17 -47 -28 -73 -36c3 -35 5 -70 5 -105c0 -19 -1 -39 -2 -58c-7 -120 -90 -228 -208 -228c-108 0 -195 88 -195 197c0 58 53 103 112 103c54 0 95 -47 95 -103c0 -52 -43 -95 -95 -95
c-11 0 -21 2 -31 6c26 -39 68 -65 117 -65c96 0 157 92 163 191c1 18 2 37 2 55c0 31 -1 61 -4 92c-29 -5 -58 -8 -89 -8c-188 0 -333 172 -333 374c0 177 131 306 248 441c-19 62 -37 125 -45 190c-6 52 -7 104 -7 156c0 115 55 224 149 292c3 2 7 3 10 3c4 0 7 0 10 -3
c71 -84 133 -245 133 -358c0 -143 -86 -255 -180 -364c21 -68 39 -138 56 -207zM461 -203c68 24 113 95 113 164c0 90 -66 179 -173 190c24 -116 46 -231 60 -354zM74 28c0 -135 129 -247 264 -247c28 0 55 2 82 6c-14 127 -37 245 -63 364c-79 -8 -124 -61 -124 -119
c0 -44 25 -91 81 -123c5 -5 7 -10 7 -15c0 -11 -10 -22 -22 -22c-3 0 -6 1 -9 2c-80 43 -117 115 -117 185c0 88 58 174 160 197c-14 58 -29 117 -46 175c-107 -121 -213 -243 -213 -403zM408 1045c-99 -48 -162 -149 -162 -259c0 -74 18 -133 36 -194
c80 97 146 198 146 324c0 55 -4 79 -20 129z" fill="currentColor"/>
<text transform="translate(4.5638, 65.6646)" font-family="serif" font-size="1.7461" text-anchor="start" fill="currentColor">
<tspan>5</tspan>
</text>
<a style="color:inherit;" xlink:href="textedit:///home/paolo/programmi/nuove-composizioni/Spontini-master/examples/SetPropertiesExample2.ly:64:4:5">
<path transform="translate(10.8101, 68.7487) scale(0.0040, -0.0040)" d="M170 256c-51 0 -53 -44 -53 -102v-14v-15c0 -58 2 -102 53 -102c57 0 61 51 61 117s-4 116 -61 116zM117 266c17 7 34 13 53 13c101 0 170 -44 170 -139s-69 -140 -170 -140c-112 0 -170 124 -170 250c0 128 72 250 190 250c71 0 138 -39 138 -103c0 -36 -29 -66 -65 -66
s-66 30 -66 66c0 24 39 25 39 49c0 20 -23 31 -46 31c-66 0 -75 -65 -75 -139c0 -24 2 -48 2 -72z" fill="currentColor"/>
<path transform="translate(10.6906, 70.7973) scale(0.0040, -0.0040)" d="M204 307c22 14 44 29 60 50c11 15 19 33 27 50c2 4 5 6 9 6c6 0 13 -5 13 -14v-245h72c10 0 15 -7 15 -14s-5 -15 -15 -15h-72v-8c0 -48 27 -94 72 -94c8 0 12 -5 12 -11s-4 -12 -12 -12c-44 0 -87 13 -131 13s-87 -13 -131 -13c-8 0 -12 6 -12 12s4 11 12 11
c45 0 73 46 73 94v8h-167c-23 0 -31 14 -31 23c0 3 1 5 2 6c80 93 138 207 138 330c0 9 6 16 13 16h3c23 -7 47 -13 71 -13s48 6 71 13c2 1 3 1 5 1c11 0 18 -10 12 -17l-284 -330h167v131c0 8 1 17 8 22z" fill="currentColor"/>
</a>
<rect transform="translate(31.5699, 68.7487)" x="-0.0740" y="-0.5000" width="0.1480" height="3.3139" ry="0.0400" fill="currentColor"/>
<rect transform="translate(47.6143, 68.7487)" x="-0.0740" y="-0.5000" width="0.1480" height="3.3139" ry="0.0400" fill="currentColor"/>
<a style="color:inherit;" xlink:href="textedit:///home/paolo/programmi/nuove-composizioni/Spontini-master/examples/SetPropertiesExample2.ly:67:4:5">
<path transform="translate(46.3840, 71.7487) scale(0.0040, -0.0040)" d="M218 136c55 0 108 -28 108 -89c0 -71 -55 -121 -102 -149c-35 -21 -75 -34 -116 -34c-55 0 -108 28 -108 89c0 71 55 121 102 149c35 21 75 34 116 34z" fill="currentColor"/>
</a>
<a style="color:inherit;" xlink:href="textedit:///home/paolo/programmi/nuove-composizioni/Spontini-master/examples/SetPropertiesExample2.ly:66:4:5">
<path transform="translate(30.3397, 71.7487) scale(0.0040, -0.0040)" d="M218 136c55 0 108 -28 108 -89c0 -71 -55 -121 -102 -149c-35 -21 -75 -34 -116 -34c-55 0 -108 28 -108 89c0 71 55 121 102 149c35 21 75 34 116 34z" fill="currentColor"/>
</a>
<rect transform="translate(15.5255, 68.7487)" x="-0.0740" y="-0.5000" width="0.1480" height="3.3139" ry="0.0400" fill="currentColor"/>
<a style="color:inherit;" xlink:href="textedit:///home/paolo/programmi/nuove-composizioni/Spontini-master/examples/SetPropertiesExample2.ly:65:4:5">
<path transform="translate(14.2953, 71.7487) scale(0.0040, -0.0040)" d="M218 136c55 0 108 -28 108 -89c0 -71 -55 -121 -102 -149c-35 -21 -75 -34 -116 -34c-55 0 -108 28 -108 89c0 71 55 121 102 149c35 21 75 34 116 34z" fill="currentColor"/>
</a>
<g gridstep="3" gridify="true" isstaff="true">
<line transform="translate(5.6906, 86.2859)" stroke-linejoin="round" stroke-linecap="round" stroke-width="0.1138" stroke="currentColor" x1="0.0569" y1="-0.0000" x2="108.0636" y2="-0.0000"/>
<line transform="translate(5.6906, 85.2859)" stroke-linejoin="round" stroke-linecap="round" stroke-width="0.1138" stroke="currentColor" x1="0.0569" y1="-0.0000" x2="108.0636" y2="-0.0000"/>
<line transform="translate(5.6906, 84.2859)" stroke-linejoin="round" stroke-linecap="round" stroke-width="0.1138" stroke="currentColor" x1="0.0569" y1="-0.0000" x2="108.0636" y2="-0.0000"/>
<line transform="translate(5.6906, 83.2859)" stroke-linejoin="round" stroke-linecap="round" stroke-width="0.1138" stroke="currentColor" x1="0.0569" y1="-0.0000" x2="108.0636" y2="-0.0000"/>
<line transform="translate(5.6906, 82.2859)" stroke-linejoin="round" stroke-linecap="round" stroke-width="0.1138" stroke="currentColor" x1="0.0569" y1="-0.0000" x2="108.0636" y2="-0.0000"/>
</g>
<rect transform="translate(110.7400, 84.2859)" x="0.0000" y="-2.0000" width="0.2162" height="4.0000" ry="0.0000" fill="currentColor"/>
<rect transform="translate(5.6906, 80.2859)" x="40.5450" y="-0.1069" width="1.9563" height="0.2138" ry="0.1069" fill="currentColor"/>
<rect transform="translate(5.6906, 81.2859)" x="40.5450" y="-0.1069" width="1.9563" height="0.2138" ry="0.1069" fill="currentColor"/>
<rect transform="translate(5.6906, 80.2859)" x="8.2787" y="-0.1069" width="1.9563" height="0.2138" ry="0.1069" fill="currentColor"/>
<rect transform="translate(5.6906, 81.2859)" x="8.2787" y="-0.1069" width="1.9563" height="0.2138" ry="0.1069" fill="currentColor"/>
<a style="color:inherit;" xlink:href="textedit:///home/paolo/programmi/nuove-composizioni/Spontini-master/examples/SetPropertiesExample2.ly:79:4:5">
<path transform="translate(46.5616, 80.2859) scale(0.0040, -0.0040)" d="M218 136c55 0 108 -28 108 -89c0 -71 -55 -121 -102 -149c-35 -21 -75 -34 -116 -34c-55 0 -108 28 -108 89c0 71 55 121 102 149c35 21 75 34 116 34z" fill="currentColor"/>
</a>
<rect transform="translate(46.6356, 84.2859)" x="-0.0740" y="-3.8139" width="0.1480" height="3.8139" ry="0.0400" fill="currentColor"/>
<a style="color:inherit;" xlink:href="textedit:///home/paolo/programmi/nuove-composizioni/Spontini-master/examples/SetPropertiesExample2.ly:79:21:22">
<path transform="translate(78.8279, 84.2859) scale(0.0040, -0.0040)" d="M-23 -116c0 28 11 42 40 42c33 0 78 -13 119 -31l-132 158c-7 9 -10 17 -10 25c0 34 50 66 87 99c25 22 37 52 37 83c0 24 -8 49 -25 69l-35 42c-3 3 -4 7 -4 10c0 9 9 15 17 15c4 0 8 -1 11 -5l151 -180c7 -9 10 -17 10 -25c0 -34 -50 -66 -87 -99
c-25 -22 -37 -52 -37 -83c0 -24 7 -49 24 -69l84 -99c3 -3 4 -7 4 -10c0 -9 -8 -16 -16 -16c-4 0 -9 2 -12 6c-18 21 -63 38 -97 38c-41 0 -53 -26 -53 -67c0 -35 11 -74 28 -94c5 -6 0 -13 -6 -13c-2 0 -4 0 -6 2c-45 54 -92 148 -92 202z" fill="currentColor"/>
</a>
<a style="color:inherit;" xlink:href="textedit:///home/paolo/programmi/nuove-composizioni/Spontini-master/examples/SetPropertiesExample2.ly:85:4:5">
<path transform="translate(111.8258, 84.2859) scale(0.0040, -0.0040)" d="M170 256c-51 0 -53 -44 -53 -102v-14v-15c0 -58 2 -102 53 -102c57 0 61 51 61 117s-4 116 -61 116zM117 266c17 7 34 13 53 13c101 0 170 -44 170 -139s-69 -140 -170 -140c-112 0 -170 124 -170 250c0 128 72 250 190 250c71 0 138 -39 138 -103c0 -36 -29 -66 -65 -66
s-66 30 -66 66c0 24 39 25 39 49c0 20 -23 31 -46 31c-66 0 -75 -65 -75 -139c0 -24 2 -48 2 -72z" fill="currentColor"/>
<path transform="translate(111.7063, 86.3345) scale(0.0040, -0.0040)" d="M204 307c22 14 44 29 60 50c11 15 19 33 27 50c2 4 5 6 9 6c6 0 13 -5 13 -14v-245h72c10 0 15 -7 15 -14s-5 -15 -15 -15h-72v-8c0 -48 27 -94 72 -94c8 0 12 -5 12 -11s-4 -12 -12 -12c-44 0 -87 13 -131 13s-87 -13 -131 -13c-8 0 -12 6 -12 12s4 11 12 11
c45 0 73 46 73 94v8h-167c-23 0 -31 14 -31 23c0 3 1 5 2 6c80 93 138 207 138 330c0 9 6 16 13 16h3c23 -7 47 -13 71 -13s48 6 71 13c2 1 3 1 5 1c11 0 18 -10 12 -17l-284 -330h167v131c0 8 1 17 8 22z" fill="currentColor"/>
</a>
<g shorten-pair-propid="19" editcommand="OnceOverride" editableclass="OttavaBracket" spontinieditable="true" y-offset-propid="18" editcommand="OnceOverride" editableclass="OttavaBracket" spontinieditable="true" staffspace="1.00000000">
<text transform="translate(9.1443, 78.4882)" font-family="serif" font-style="italic" font-size="2.2001" text-anchor="start" fill="currentColor">
<tspan>8va</tspan>
</text>
<line transform="translate(47.8658, 77.6859)" stroke-linejoin="round" stroke-linecap="round" stroke-width="0.1138" stroke="currentColor" x1="0" y1="0" x2="0.0000" y2="0.8000" stroke-dasharray="1.0,0.0"/>
<line transform="translate(13.3708, 77.6859)" stroke-linejoin="round" stroke-linecap="round" stroke-width="0.1138" stroke="currentColor" x1="0" y1="0" x2="0.0000" y2="-0.0000" stroke-dasharray="1.0,0.0"/>
<line transform="translate(13.3708, 77.6859)" stroke-linejoin="round" stroke-linecap="round" stroke-width="0.1138" stroke="currentColor" x1="0" y1="0" x2="34.4951" y2="-0.0000" stroke-dasharray="0.301706039898074,0.703980759762173"/>
</g>
<g y-ref-of-18="true" spontinimarker="true">
<line transform="translate(5.6906, 84.2859)" stroke-linejoin="round" stroke-linecap="round" stroke-width="0.1138" stroke="currentColor" x1="0" y1="0" x2="1" y2="0"/>
</g>
<a style="color:inherit;" xlink:href="textedit:///home/paolo/programmi/nuove-composizioni/Spontini-master/examples/SetPropertiesExample2.ly:74:4:5">
<path transform="translate(10.8271, 84.2859) scale(0.0040, -0.0040)" d="M150 477c-29 0 -59 -8 -59 -33c0 -22 36 -25 36 -47c0 -32 -26 -58 -58 -58s-57 26 -57 58c0 65 67 103 138 103c91 0 169 -33 169 -114c0 -43 -4 -82 -42 -100c-9 -4 -14 -12 -14 -21s5 -18 14 -22c41 -19 56 -57 56 -103c0 -92 -79 -140 -179 -140
c-79 0 -154 42 -154 113c0 36 30 66 66 66s65 -30 65 -66c0 -25 -40 -28 -40 -53c0 -27 32 -37 63 -37c49 0 63 61 63 117v16c0 54 -2 94 -50 94h-80c-10 0 -14 8 -14 15s4 14 14 14h80c49 0 50 43 50 99v8c0 54 -18 91 -67 91z" fill="currentColor"/>
<path transform="translate(10.6906, 86.3345) scale(0.0040, -0.0040)" d="M204 307c22 14 44 29 60 50c11 15 19 33 27 50c2 4 5 6 9 6c6 0 13 -5 13 -14v-245h72c10 0 15 -7 15 -14s-5 -15 -15 -15h-72v-8c0 -48 27 -94 72 -94c8 0 12 -5 12 -11s-4 -12 -12 -12c-44 0 -87 13 -131 13s-87 -13 -131 -13c-8 0 -12 6 -12 12s4 11 12 11
c45 0 73 46 73 94v8h-167c-23 0 -31 14 -31 23c0 3 1 5 2 6c80 93 138 207 138 330c0 9 6 16 13 16h3c23 -7 47 -13 71 -13s48 6 71 13c2 1 3 1 5 1c11 0 18 -10 12 -17l-284 -330h167v131c0 8 1 17 8 22z" fill="currentColor"/>
</a>
<text transform="translate(4.5638, 81.2017)" font-family="serif" font-size="1.7461" text-anchor="start" fill="currentColor">
<tspan>6</tspan>
</text>
<path transform="translate(6.4906, 85.2859) scale(0.0040, -0.0040)" d="M376 262c4 0 9 1 13 1c155 0 256 -128 256 -261c0 -76 -33 -154 -107 -210c-22 -17 -47 -28 -73 -36c3 -35 5 -70 5 -105c0 -19 -1 -39 -2 -58c-7 -120 -90 -228 -208 -228c-108 0 -195 88 -195 197c0 58 53 103 112 103c54 0 95 -47 95 -103c0 -52 -43 -95 -95 -95
c-11 0 -21 2 -31 6c26 -39 68 -65 117 -65c96 0 157 92 163 191c1 18 2 37 2 55c0 31 -1 61 -4 92c-29 -5 -58 -8 -89 -8c-188 0 -333 172 -333 374c0 177 131 306 248 441c-19 62 -37 125 -45 190c-6 52 -7 104 -7 156c0 115 55 224 149 292c3 2 7 3 10 3c4 0 7 0 10 -3
c71 -84 133 -245 133 -358c0 -143 -86 -255 -180 -364c21 -68 39 -138 56 -207zM461 -203c68 24 113 95 113 164c0 90 -66 179 -173 190c24 -116 46 -231 60 -354zM74 28c0 -135 129 -247 264 -247c28 0 55 2 82 6c-14 127 -37 245 -63 364c-79 -8 -124 -61 -124 -119
c0 -44 25 -91 81 -123c5 -5 7 -10 7 -15c0 -11 -10 -22 -22 -22c-3 0 -6 1 -9 2c-80 43 -117 115 -117 185c0 88 58 174 160 197c-14 58 -29 117 -46 175c-107 -121 -213 -243 -213 -403zM408 1045c-99 -48 -162 -149 -162 -259c0 -74 18 -133 36 -194
c80 97 146 198 146 324c0 55 -4 79 -20 129z" fill="currentColor"/>
<a style="color:inherit;" xlink:href="textedit:///home/paolo/programmi/nuove-composizioni/Spontini-master/examples/SetPropertiesExample2.ly:78:4:5">
<path transform="translate(14.2953, 80.2859) scale(0.0040, -0.0040)" d="M218 136c55 0 108 -28 108 -89c0 -71 -55 -121 -102 -149c-35 -21 -75 -34 -116 -34c-55 0 -108 28 -108 89c0 71 55 121 102 149c35 21 75 34 116 34z" fill="currentColor"/>
</a>
<rect transform="translate(14.3693, 84.2859)" x="-0.0740" y="-3.8139" width="0.1480" height="3.8139" ry="0.0400" fill="currentColor"/>
<g gridstep="3" gridify="true" isstaff="true">
<line transform="translate(5.6906, 101.2859)" stroke-linejoin="round" stroke-linecap="round" stroke-width="0.1138" stroke="currentColor" x1="0.0569" y1="-0.0000" x2="108.0636" y2="-0.0000"/>
<line transform="translate(5.6906, 100.2859)" stroke-linejoin="round" stroke-linecap="round" stroke-width="0.1138" stroke="currentColor" x1="0.0569" y1="-0.0000" x2="108.0636" y2="-0.0000"/>
<line transform="translate(5.6906, 99.2859)" stroke-linejoin="round" stroke-linecap="round" stroke-width="0.1138" stroke="currentColor" x1="0.0569" y1="-0.0000" x2="108.0636" y2="-0.0000"/>
<line transform="translate(5.6906, 98.2859)" stroke-linejoin="round" stroke-linecap="round" stroke-width="0.1138" stroke="currentColor" x1="0.0569" y1="-0.0000" x2="108.0636" y2="-0.0000"/>
<line transform="translate(5.6906, 97.2859)" stroke-linejoin="round" stroke-linecap="round" stroke-width="0.1138" stroke="currentColor" x1="0.0569" y1="-0.0000" x2="108.0636" y2="-0.0000"/>
</g>
<rect transform="translate(5.6906, 102.2859)" x="90.8795" y="-0.1069" width="1.9563" height="0.2138" ry="0.1069" fill="currentColor"/>
<rect transform="translate(5.6906, 102.2859)" x="74.3593" y="-0.1069" width="1.9563" height="0.2138" ry="0.1069" fill="currentColor"/>
<rect transform="translate(5.6906, 102.2859)" x="57.8391" y="-0.1069" width="1.9563" height="0.2138" ry="0.1069" fill="currentColor"/>
<rect transform="translate(5.6906, 102.2859)" x="41.3190" y="-0.1069" width="1.9563" height="0.2138" ry="0.1069" fill="currentColor"/>
<rect transform="translate(5.6906, 102.2859)" x="24.7988" y="-0.1069" width="1.9563" height="0.2138" ry="0.1069" fill="currentColor"/>
<rect transform="translate(5.6906, 102.2859)" x="8.2787" y="-0.1069" width="1.9563" height="0.2138" ry="0.1069" fill="currentColor"/>
<rect transform="translate(113.5948, 99.2859)" x="0.0000" y="-2.0000" width="0.2162" height="4.0000" ry="0.0000" fill="currentColor"/>
<a style="color:inherit;" xlink:href="textedit:///home/paolo/programmi/nuove-composizioni/Spontini-master/examples/SetPropertiesExample2.ly:88:4:5">
<path transform="translate(47.3356, 102.2859) scale(0.0040, -0.0040)" d="M218 136c55 0 108 -28 108 -89c0 -71 -55 -121 -102 -149c-35 -21 -75 -34 -116 -34c-55 0 -108 28 -108 89c0 71 55 121 102 149c35 21 75 34 116 34z" fill="currentColor"/>
</a>
<rect transform="translate(81.6061, 99.2859)" x="-0.0740" y="-0.5000" width="0.1480" height="3.3139" ry="0.0400" fill="currentColor"/>
<a style="color:inherit;" xlink:href="textedit:///home/paolo/programmi/nuove-composizioni/Spontini-master/examples/SetPropertiesExample2.ly:90:4:5">
<path transform="translate(80.3759, 102.2859) scale(0.0040, -0.0040)" d="M218 136c55 0 108 -28 108 -89c0 -71 -55 -121 -102 -149c-35 -21 -75 -34 -116 -34c-55 0 -108 28 -108 89c0 71 55 121 102 149c35 21 75 34 116 34z" fill="currentColor"/>
</a>
<rect transform="translate(65.0860, 99.2859)" x="-0.0740" y="-0.5000" width="0.1480" height="3.3139" ry="0.0400" fill="currentColor"/>
<a style="color:inherit;" xlink:href="textedit:///home/paolo/programmi/nuove-composizioni/Spontini-master/examples/SetPropertiesExample2.ly:89:4:5">
<path transform="translate(63.8557, 102.2859) scale(0.0040, -0.0040)" d="M218 136c55 0 108 -28 108 -89c0 -71 -55 -121 -102 -149c-35 -21 -75 -34 -116 -34c-55 0 -108 28 -108 89c0 71 55 121 102 149c35 21 75 34 116 34z" fill="currentColor"/>
</a>
<rect transform="translate(48.5658, 99.2859)" x="-0.0740" y="-0.5000" width="0.1480" height="3.3139" ry="0.0400" fill="currentColor"/>
<a style="color:inherit;" xlink:href="textedit:///home/paolo/programmi/nuove-composizioni/Spontini-master/examples/SetPropertiesExample2.ly:91:4:5">
<path transform="translate(96.8961, 102.2859) scale(0.0040, -0.0040)" d="M218 136c55 0 108 -28 108 -89c0 -71 -55 -121 -102 -149c-35 -21 -75 -34 -116 -34c-55 0 -108 28 -108 89c0 71 55 121 102 149c35 21 75 34 116 34z" fill="currentColor"/>
</a>
<g extra-offset-y-propid="25" editcommand="Tweak" editableclass="Dummy" spontinieditable="true" staffspace="1.00000000">
<a style="color:inherit;" xlink:href="textedit:///home/paolo/programmi/nuove-composizioni/Spontini-master/examples/SetPropertiesExample2.ly:91:8:9">
<text transform="translate(96.8961, 107.7972)" font-family="serif" font-size="2.2001" text-anchor="start" fill="currentColor">
<tspan>text</tspan>
</text>
</a>
</g>
<rect transform="translate(98.1263, 99.2859)" x="-0.0740" y="-0.5000" width="0.1480" height="3.3139" ry="0.0400" fill="currentColor"/>
<path transform="translate(6.4906, 100.2859) scale(0.0040, -0.0040)" d="M376 262c4 0 9 1 13 1c155 0 256 -128 256 -261c0 -76 -33 -154 -107 -210c-22 -17 -47 -28 -73 -36c3 -35 5 -70 5 -105c0 -19 -1 -39 -2 -58c-7 -120 -90 -228 -208 -228c-108 0 -195 88 -195 197c0 58 53 103 112 103c54 0 95 -47 95 -103c0 -52 -43 -95 -95 -95
c-11 0 -21 2 -31 6c26 -39 68 -65 117 -65c96 0 157 92 163 191c1 18 2 37 2 55c0 31 -1 61 -4 92c-29 -5 -58 -8 -89 -8c-188 0 -333 172 -333 374c0 177 131 306 248 441c-19 62 -37 125 -45 190c-6 52 -7 104 -7 156c0 115 55 224 149 292c3 2 7 3 10 3c4 0 7 0 10 -3
c71 -84 133 -245 133 -358c0 -143 -86 -255 -180 -364c21 -68 39 -138 56 -207zM461 -203c68 24 113 95 113 164c0 90 -66 179 -173 190c24 -116 46 -231 60 -354zM74 28c0 -135 129 -247 264 -247c28 0 55 2 82 6c-14 127 -37 245 -63 364c-79 -8 -124 -61 -124 -119
c0 -44 25 -91 81 -123c5 -5 7 -10 7 -15c0 -11 -10 -22 -22 -22c-3 0 -6 1 -9 2c-80 43 -117 115 -117 185c0 88 58 174 160 197c-14 58 -29 117 -46 175c-107 -121 -213 -243 -213 -403zM408 1045c-99 -48 -162 -149 -162 -259c0 -74 18 -133 36 -194
c80 97 146 198 146 324c0 55 -4 79 -20 129z" fill="currentColor"/>
<a style="color:inherit;" xlink:href="textedit:///home/paolo/programmi/nuove-composizioni/Spontini-master/examples/SetPropertiesExample2.ly:86:1:9">
<path transform="translate(14.2953, 102.2859) scale(0.0040, -0.0040)" d="M218 136c55 0 108 -28 108 -89c0 -71 -55 -121 -102 -149c-35 -21 -75 -34 -116 -34c-55 0 -108 28 -108 89c0 71 55 121 102 149c35 21 75 34 116 34z" fill="currentColor"/>
</a>
<text transform="translate(4.5638, 96.2359)" font-family="serif" font-size="1.7461" text-anchor="start" fill="currentColor">
<tspan>7</tspan>
</text>
<a style="color:inherit;" xlink:href="textedit:///home/paolo/programmi/nuove-composizioni/Spontini-master/examples/SetPropertiesExample2.ly:85:4:5">
<path transform="translate(10.8101, 99.2859) scale(0.0040, -0.0040)" d="M170 256c-51 0 -53 -44 -53 -102v-14v-15c0 -58 2 -102 53 -102c57 0 61 51 61 117s-4 116 -61 116zM117 266c17 7 34 13 53 13c101 0 170 -44 170 -139s-69 -140 -170 -140c-112 0 -170 124 -170 250c0 128 72 250 190 250c71 0 138 -39 138 -103c0 -36 -29 -66 -65 -66
s-66 30 -66 66c0 24 39 25 39 49c0 20 -23 31 -46 31c-66 0 -75 -65 -75 -139c0 -24 2 -48 2 -72z" fill="currentColor"/>
<path transform="translate(10.6906, 101.3345) scale(0.0040, -0.0040)" d="M204 307c22 14 44 29 60 50c11 15 19 33 27 50c2 4 5 6 9 6c6 0 13 -5 13 -14v-245h72c10 0 15 -7 15 -14s-5 -15 -15 -15h-72v-8c0 -48 27 -94 72 -94c8 0 12 -5 12 -11s-4 -12 -12 -12c-44 0 -87 13 -131 13s-87 -13 -131 -13c-8 0 -12 6 -12 12s4 11 12 11
c45 0 73 46 73 94v8h-167c-23 0 -31 14 -31 23c0 3 1 5 2 6c80 93 138 207 138 330c0 9 6 16 13 16h3c23 -7 47 -13 71 -13s48 6 71 13c2 1 3 1 5 1c11 0 18 -10 12 -17l-284 -330h167v131c0 8 1 17 8 22z" fill="currentColor"/>
</a>
<g y-ref-of-20="true" spontinimarker="true">
<line transform="translate(5.6906, 99.2859)" stroke-linejoin="round" stroke-linecap="round" stroke-width="0.1138" stroke="currentColor" x1="0" y1="0" x2="1" y2="0"/>
</g>
<g x-ref-of-21="true" spontinimarker="true">
<line transform="translate(30.8154, 99.2859)" stroke-linejoin="round" stroke-linecap="round" stroke-width="0.1138" stroke="currentColor" x1="0" y1="0" x2="0" y2="-1"/>
</g>
<rect transform="translate(15.5255, 99.2859)" x="-0.0740" y="-0.5000" width="0.1480" height="3.3139" ry="0.0400" fill="currentColor"/>
<rect transform="translate(32.0457, 99.2859)" x="-0.0740" y="-0.5000" width="0.1480" height="3.3139" ry="0.0400" fill="currentColor"/>
<g y-offset-propid="20" editcommand="Tweak" editableclass="Dummy" spontinieditable="true" staffspace="1.00000000">
<a style="color:inherit;" xlink:href="textedit:///home/paolo/programmi/nuove-composizioni/Spontini-master/examples/SetPropertiesExample2.ly:86:5:13">
<text transform="translate(14.2953, 107.8859)" font-family="serif" font-size="2.2001" text-anchor="start" fill="currentColor">
<tspan>text</tspan>
</text>
</a>
</g>
<g x-offset-propid="21" editcommand="Tweak" editableclass="Dummy" spontinieditable="true" staffspace="1.00000000">
<a style="color:inherit;" xlink:href="textedit:///home/paolo/programmi/nuove-composizioni/Spontini-master/examples/SetPropertiesExample2.ly:87:5:13">
<text transform="translate(32.9154, 104.2992)" font-family="serif" font-size="2.2001" text-anchor="start" fill="currentColor">
<tspan>text</tspan>
</text>
</a>
</g>
<a style="color:inherit;" xlink:href="textedit:///home/paolo/programmi/nuove-composizioni/Spontini-master/examples/SetPropertiesExample2.ly:87:1:9">
<path transform="translate(30.8154, 102.2859) scale(0.0040, -0.0040)" d="M218 136c55 0 108 -28 108 -89c0 -71 -55 -121 -102 -149c-35 -21 -75 -34 -116 -34c-55 0 -108 28 -108 89c0 71 55 121 102 149c35 21 75 34 116 34z" fill="currentColor"/>
</a>
<g padding-propid="22" editcommand="Tweak" editableclass="Dummy" spontinieditable="true" staffspace="1.00000000" y-direction="-1">
<a style="color:inherit;" xlink:href="textedit:///home/paolo/programmi/nuove-composizioni/Spontini-master/examples/SetPropertiesExample2.ly:88:8:9">
<text transform="translate(47.3356, 107.9451)" font-family="serif" font-size="2.2001" text-anchor="start" fill="currentColor">
<tspan>text</tspan>
</text>
<g color="rgb(12.3000%, 45.6000%, 78.9000%)">
<g transform="scale(1.0000, -1.0000)">
<line transform="translate(49.4866, -101.3428)" stroke-linejoin="round" stroke-linecap="round" stroke-width="0.1138" stroke="currentColor" x1="0" y1="0" x2="-1" y2="0"/>
</g>
</g>
<g color="rgb(12.3000%, 45.6000%, 78.9000%)">
<g transform="scale(1.0000, -1.0000)">
<line transform="translate(48.9866, -101.3428)" stroke-linejoin="round" stroke-linecap="round" stroke-width="0.1138" stroke="currentColor" x1="0" y1="0" x2="0" y2="-5.1000"/>
</g>
</g>
<g color="rgb(12.3000%, 45.6000%, 78.9000%)">
<g transform="scale(1.0000, 1.0000)">
<line transform="translate(49.4866, 106.4428)" stroke-linejoin="round" stroke-linecap="round" stroke-width="0.1138" stroke="currentColor" x1="0" y1="0" x2="-1" y2="0"/>
</g>
</g>
</a>
</g>
<g outside-staff-padding-propid="23" editcommand="Tweak" editableclass="Dummy" spontinieditable="true" staffspace="1.00000000" y-direction="-1">
<a style="color:inherit;" xlink:href="textedit:///home/paolo/programmi/nuove-composizioni/Spontini-master/examples/SetPropertiesExample2.ly:89:8:9">
<text transform="translate(63.8557, 107.9332)" font-family="serif" font-size="2.2001" text-anchor="start" fill="currentColor">
<tspan>text</tspan>
</text>
<g color="rgb(12.3000%, 45.6000%, 78.9000%)">
<g transform="scale(1.0000, -1.0000)">
<line transform="translate(66.0068, -102.8309)" stroke-linejoin="round" stroke-linecap="round" stroke-width="0.1138" stroke="currentColor" x1="0" y1="0" x2="-1" y2="0"/>
</g>
</g>
<g color="rgb(12.3000%, 45.6000%, 78.9000%)">
<g transform="scale(1.0000, -1.0000)">
<line transform="translate(65.5068, -102.8309)" stroke-linejoin="round" stroke-linecap="round" stroke-width="0.1138" stroke="currentColor" x1="0" y1="0" x2="0" y2="-3.6000"/>
</g>
</g>
<g color="rgb(12.3000%, 45.6000%, 78.9000%)">
<g transform="scale(1.0000, 1.0000)">
<line transform="translate(66.0068, 106.4309)" stroke-linejoin="round" stroke-linecap="round" stroke-width="0.1138" stroke="currentColor" x1="0" y1="0" x2="-1" y2="0"/>
</g>
</g>
<g color="rgb(12.3000%, 45.6000%, 78.9000%)">
<g transform="scale(1.0000, -1.0000)">
<line transform="translate(66.0068, -107.9673)" stroke-linejoin="round" stroke-linecap="round" stroke-width="0.1138" stroke="currentColor" x1="0" y1="0" x2="-1" y2="0"/>
</g>
</g>
<g color="rgb(12.3000%, 45.6000%, 78.9000%)">
<g transform="scale(1.0000, -1.0000)">
<line transform="translate(65.5068, -107.9673)" stroke-linejoin="round" stroke-linecap="round" stroke-width="0.1138" stroke="currentColor" x1="0" y1="0" x2="0" y2="-3.6000"/>
</g>
</g>
<g color="rgb(12.3000%, 45.6000%, 78.9000%)">
<g transform="scale(1.0000, 1.0000)">
<line transform="translate(66.0068, 111.5673)" stroke-linejoin="round" stroke-linecap="round" stroke-width="0.1138" stroke="currentColor" x1="0" y1="0" x2="-1" y2="0"/>
</g>
</g>
</a>
</g>
<g staff-padding-propid="24" editcommand="Tweak" editableclass="Dummy" spontinieditable="true" staffspace="1.00000000" y-direction="-1">
<a style="color:inherit;" xlink:href="textedit:///home/paolo/programmi/nuove-composizioni/Spontini-master/examples/SetPropertiesExample2.ly:90:8:9">
<text transform="translate(80.3759, 107.9428)" font-family="serif" font-size="2.2001" text-anchor="start" fill="currentColor">
<tspan>text</tspan>
</text>
<g color="rgb(12.3000%, 45.6000%, 78.9000%)">
<g transform="scale(1.0000, -1.0000)">
<line transform="translate(82.5269, -99.8405)" stroke-linejoin="round" stroke-linecap="round" stroke-width="0.1138" stroke="currentColor" x1="0" y1="0" x2="-1" y2="0"/>
</g>
</g>
<g color="rgb(12.3000%, 45.6000%, 78.9000%)">
<g transform="scale(1.0000, -1.0000)">
<line transform="translate(82.0269, -99.8405)" stroke-linejoin="round" stroke-linecap="round" stroke-width="0.1138" stroke="currentColor" x1="0" y1="0" x2="0" y2="-6.6000"/>
</g>
</g>
<g color="rgb(12.3000%, 45.6000%, 78.9000%)">
<g transform="scale(1.0000, 1.0000)">
<line transform="translate(82.5269, 106.4405)" stroke-linejoin="round" stroke-linecap="round" stroke-width="0.1138" stroke="currentColor" x1="0" y1="0" x2="-1" y2="0"/>
</g>
</g>
</a>
</g>
<a transform="translate(28.2194, 165.1170)" xlink:href="http://lilypond.org/">
<rect x="0.0000" y="-0.4780" width="63.0627" height="2.1510" fill="none" stroke="none" stroke-width="0.0"/>
</a>
<text transform="translate(28.2194, 165.1170)" font-family="serif" font-size="2.2001" text-anchor="start" fill="currentColor">
<tspan>Music engraving by LilyPond 2.19.84www.lilypond.org</tspan>
</text>
</svg>
