<svg xmlns="http://www.w3.org/2000/svg" xmlns:xlink="http://www.w3.org/1999/xlink" version="1.2" width="210.00mm" height="297.00mm" viewBox="0 0 119.5016 169.0094">
<style type="text/css">
<![CDATA[
tspan { white-space: pre; }
]]>
</style>
<!-- Page: 1/1 -->
<g y-direction="-1" thickness="0.20000000" editableclass="OSOPadder" spontinieditable="true" pads-propid="4">
<a style="color:inherit;" xlink:href="textedit:///home/paolo/programmi/SPONTINI/Spontini-master/tests/../examples/spanned-pedals-example.ly:40:1:2">
<g color="rgb(91.2000%, 93.4000%, 95.6000%)">
<g transform="translate(22.2311, 18.8812)">
<rect x="-0.2000" y="-0.2000" width="3.6095" height="0.2000" ry="0.0000" fill="currentColor"/>
</g>
<g transform="translate(25.4406, 20.0762)">
<rect x="0" y="-1.1950" width="0.2000" height="3.5745" ry="0.0000" fill="currentColor"/>
</g>
<g transform="translate(22.2311, 22.6556)">
<rect x="-0.2000" y="-0.2000" width="3.6095" height="0.2000" ry="0.0000" fill="currentColor"/>
</g>
<g transform="translate(22.0311, 20.0762)">
<rect x="0" y="-1.1950" width="0.2000" height="3.5745" ry="0.0000" fill="currentColor"/>
</g>
</g>
<g transform="translate(22.2311, 20.0762)">
<g>
<path transform="scale(0.0040, -0.0040)" d="M-41 146c26 76 82 153 149 153c22 0 36 -20 41 -45c22 26 51 45 81 45c23 0 38 -21 44 -46c22 27 51 46 80 46c33 0 59 -35 59 -69c0 -5 -1 -10 -2 -15l-35 -149c0 -2 -1 -4 -1 -5c0 -5 2 -8 7 -8c9 0 27 11 48 31c4 4 9 6 13 6c6 0 11 -4 11 -10c0 -4 -3 -8 -7 -12
c-40 -38 -85 -75 -131 -75c-20 0 -32 13 -32 32c0 4 0 7 1 11l39 165c1 5 2 9 2 14c0 10 -4 18 -14 18c-16 0 -33 -16 -39 -32l-53 -183c-3 -10 -12 -18 -22 -18h-41c-10 0 -16 8 -13 18l52 183c2 6 3 11 3 16c0 9 -4 16 -13 16c-16 0 -35 -16 -41 -33l-62 -182
c-3 -10 -14 -18 -24 -18h-41c-10 0 -15 8 -12 18l63 183c2 5 2 10 2 15c0 10 -3 17 -13 17c-29 0 -54 -53 -66 -87c-4 -11 -15 -17 -23 -17c-7 0 -12 4 -12 11c0 2 1 4 2 6z" fill="currentColor"/>

<path transform="translate(1.7413, 0.0000) scale(0.0040, -0.0040)" d="M233 243c-56 0 -102 -107 -102 -173c0 -22 8 -38 30 -38c64 0 97 126 97 178c0 18 -7 33 -25 33zM112 -146c-38 0 -78 5 -116 5c-39 0 -78 -5 -115 -5c-9 0 -14 7 -14 14c0 18 31 15 48 16c22 1 47 5 54 25l102 300c2 7 4 14 4 20c0 8 -2 14 -11 14
c-33 0 -63 -60 -79 -97c-5 -12 -15 -17 -24 -17c-8 0 -14 4 -14 12c0 2 1 5 2 8c30 68 72 143 132 143c35 0 59 -21 66 -52c29 31 67 52 103 52c69 0 107 -49 107 -114c0 -21 -4 -44 -12 -67c-20 -58 -91 -119 -147 -119c-27 0 -52 5 -73 17c-4 2 -7 3 -11 3
c-7 0 -14 -3 -16 -9l-29 -86c-1 -2 -1 -5 -1 -7c0 -20 21 -26 44 -28c9 -1 13 -8 13 -14c0 -7 -4 -14 -13 -14z" fill="currentColor"/>
</g>
</g>
</a>
</g>
<g thickness="0.20000000" editableclass="OSOPadder" spontinieditable="true" y-direction="-1" pads-propid="5">
<a style="color:inherit;" xlink:href="textedit:///home/paolo/programmi/SPONTINI/Spontini-master/tests/../examples/spanned-pedals-example.ly:40:1:2">
<g color="rgb(91.2000%, 93.4000%, 95.6000%)">
<g transform="translate(23.0858, 25.8325)">
<rect x="-0.2000" y="-0.2000" width="4.3948" height="0.2000" ry="0.0000" fill="currentColor"/>
</g>
<g transform="translate(27.0806, 26.2475)">
<rect x="0" y="-0.4150" width="0.2000" height="2.6750" ry="0.0000" fill="currentColor"/>
</g>
<g transform="translate(23.0858, 28.7075)">
<rect x="-0.2000" y="-0.2000" width="4.3948" height="0.2000" ry="0.0000" fill="currentColor"/>
</g>
<g transform="translate(22.8858, 26.2475)">
<rect x="0" y="-0.4150" width="0.2000" height="2.6750" ry="0.0000" fill="currentColor"/>
</g>
</g>
<g transform="translate(23.0858, 26.2475)">
<text font-family="monospace" font-size="2.2001" text-anchor="start" fill="currentColor">
<tspan>   </tspan>
</text>
</g>
</a>
</g>
<g thickness="0.20000000" editableclass="OSOPadder" spontinieditable="true" y-direction="-1" pads-propid="3">
<a style="color:inherit;" xlink:href="textedit:///home/paolo/programmi/SPONTINI/Spontini-master/tests/../examples/spanned-pedals-example.ly:40:1:2">
<g color="rgb(91.2000%, 93.4000%, 95.6000%)">
<g transform="translate(23.0858, 31.5295)">
<rect x="-0.2000" y="-0.2000" width="4.3948" height="0.2000" ry="0.0000" fill="currentColor"/>
</g>
<g transform="translate(27.0806, 31.5295)">
<rect x="0" y="-0.0000" width="0.2000" height="3.4890" ry="0.0000" fill="currentColor"/>
</g>
<g transform="translate(23.0858, 35.2185)">
<rect x="-0.2000" y="-0.2000" width="4.3948" height="0.2000" ry="0.0000" fill="currentColor"/>
</g>
<g transform="translate(22.8858, 31.5295)">
<rect x="0" y="-0.0000" width="0.2000" height="3.4890" ry="0.0000" fill="currentColor"/>
</g>
</g>
<g transform="translate(23.0858, 31.5295)">
<text font-family="monospace" font-size="2.2001" text-anchor="start" fill="currentColor">
<tspan>   </tspan>
</text>
</g>
</a>
</g>
<g staffspace="1.00000000" gridcolor="#f0eee9" gridstep="1" gridify="true" lilypondversion="2.22.0" isstaff="true">
<g transform="translate(14.2264, 9.6243)">
<line stroke-linejoin="round" stroke-linecap="round" stroke-width="0.1138" stroke="currentColor" x1="0.0569" y1="0" x2="99.5277" y2="0"/>
</g>
<g transform="translate(14.2264, 8.6243)">
<line stroke-linejoin="round" stroke-linecap="round" stroke-width="0.1138" stroke="currentColor" x1="0.0569" y1="0" x2="99.5277" y2="0"/>
</g>
<g transform="translate(14.2264, 7.6243)">
<line stroke-linejoin="round" stroke-linecap="round" stroke-width="0.1138" stroke="currentColor" x1="0.0569" y1="0" x2="99.5277" y2="0"/>
</g>
<g transform="translate(14.2264, 6.6243)">
<line stroke-linejoin="round" stroke-linecap="round" stroke-width="0.1138" stroke="currentColor" x1="0.0569" y1="0" x2="99.5277" y2="0"/>
</g>
<g transform="translate(14.2264, 5.6243)">
<line stroke-linejoin="round" stroke-linecap="round" stroke-width="0.1138" stroke="currentColor" x1="0.0569" y1="0" x2="99.5277" y2="0"/>
</g>
</g>
<g transform="translate(49.5623, 16.6243)">
<rect x="0.0000" y="-2.0569" width="0.2162" height="4.0569" ry="0.0000" fill="currentColor"/>
</g>
<g transform="translate(49.5623, 3.8453)">
<rect x="0.0000" y="5.8359" width="0.2162" height="4.9431" ry="0.0000" fill="currentColor"/>
</g>
<g transform="translate(49.5623, 7.6243)">
<rect x="0.0000" y="-2.0000" width="0.2162" height="4.0569" ry="0.0000" fill="currentColor"/>
</g>
<g transform="translate(81.5785, 7.6243)">
<rect x="0.0000" y="-2.0000" width="0.2162" height="4.0569" ry="0.0000" fill="currentColor"/>
</g>
<g transform="translate(81.5785, 16.6243)">
<rect x="0.0000" y="-2.0569" width="0.2162" height="4.0569" ry="0.0000" fill="currentColor"/>
</g>
<g transform="translate(81.5785, 3.8453)">
<rect x="0.0000" y="5.8359" width="0.2162" height="4.9431" ry="0.0000" fill="currentColor"/>
</g>
<g transform="translate(113.5948, 7.6243)">
<rect x="0.0000" y="-2.0000" width="0.2162" height="4.0569" ry="0.0000" fill="currentColor"/>
</g>
<g transform="translate(113.5948, 16.6243)">
<rect x="0.0000" y="-2.0569" width="0.2162" height="4.0569" ry="0.0000" fill="currentColor"/>
</g>
<g transform="translate(113.5948, 3.8453)">
<rect x="0.0000" y="5.8359" width="0.2162" height="4.9431" ry="0.0000" fill="currentColor"/>
</g>
<g transform="translate(5.6906, 10.6243)">
<rect x="81.0835" y="-0.1069" width="2.0660" height="0.2138" ry="0.1069" fill="currentColor"/>
</g>
<g transform="translate(5.6906, 10.6243)">
<rect x="49.0672" y="-0.1069" width="2.0660" height="0.2138" ry="0.1069" fill="currentColor"/>
</g>
<g transform="translate(5.6906, 10.6243)">
<rect x="17.0510" y="-0.1069" width="2.0660" height="0.2138" ry="0.1069" fill="currentColor"/>
</g>
<g staffspace="1.00000000" gridcolor="#f0eee9" gridstep="1" gridify="true" lilypondversion="2.22.0" isstaff="true">
<g transform="translate(14.2264, 18.6243)">
<line stroke-linejoin="round" stroke-linecap="round" stroke-width="0.1138" stroke="currentColor" x1="0.0569" y1="0" x2="99.5277" y2="0"/>
</g>
<g transform="translate(14.2264, 17.6243)">
<line stroke-linejoin="round" stroke-linecap="round" stroke-width="0.1138" stroke="currentColor" x1="0.0569" y1="0" x2="99.5277" y2="0"/>
</g>
<g transform="translate(14.2264, 16.6243)">
<line stroke-linejoin="round" stroke-linecap="round" stroke-width="0.1138" stroke="currentColor" x1="0.0569" y1="0" x2="99.5277" y2="0"/>
</g>
<g transform="translate(14.2264, 15.6243)">
<line stroke-linejoin="round" stroke-linecap="round" stroke-width="0.1138" stroke="currentColor" x1="0.0569" y1="0" x2="99.5277" y2="0"/>
</g>
<g transform="translate(14.2264, 14.6243)">
<line stroke-linejoin="round" stroke-linecap="round" stroke-width="0.1138" stroke="currentColor" x1="0.0569" y1="0" x2="99.5277" y2="0"/>
</g>
</g>
<g transform="translate(88.4217, 7.6243)">
<rect x="-0.0740" y="-0.5000" width="0.1480" height="3.2410" ry="0.0400" fill="currentColor"/>
</g>
<a style="color:inherit;" xlink:href="textedit:///home/paolo/programmi/SPONTINI/Spontini-master/tests/../examples/spanned-pedals-example.ly:51:25:26">
<g transform="translate(87.1184, 10.6243)">
<path transform="scale(0.0040, -0.0040)" d="M314 65c0 24 -21 41 -42 41c-4 0 -8 0 -12 -1c-31 -9 -78 -40 -115 -64s-84 -53 -104 -78c-7 -8 -10 -18 -10 -28c0 -24 21 -41 42 -41c4 0 8 0 12 1c31 9 77 40 114 64s84 53 104 78c7 8 11 18 11 28zM262 136c46 0 82 -21 82 -71c0 -19 -4 -39 -10 -57
c-12 -37 -32 -72 -64 -94c-53 -36 -113 -50 -187 -50c-46 0 -83 21 -83 71c0 19 5 39 11 57c12 37 31 72 63 94c53 36 114 50 188 50z" fill="currentColor"/>
</g>
</a>
<g transform="translate(15.0264, 8.6243)">
<path transform="scale(0.0040, -0.0040)" d="M266 -635h-6c-108 0 -195 88 -195 197c0 58 53 103 112 103c54 0 95 -47 95 -103c0 -52 -43 -95 -95 -95c-11 0 -21 2 -31 6c26 -39 68 -65 117 -65h4zM461 -203c68 24 113 95 113 164c0 90 -66 179 -173 190c24 -116 46 -231 60 -354zM74 28c0 -135 129 -247 264 -247
c28 0 55 2 82 6c-14 127 -37 245 -63 364c-79 -8 -124 -61 -124 -119c0 -44 25 -91 81 -123c5 -5 7 -10 7 -15c0 -11 -10 -22 -22 -22c-3 0 -6 1 -9 2c-80 43 -117 115 -117 185c0 88 58 174 160 197c-14 58 -29 117 -46 175c-107 -121 -213 -243 -213 -403zM335 -262
c-188 0 -333 172 -333 374c0 177 131 306 248 441c-19 62 -37 125 -45 190c-6 52 -7 104 -7 156c0 115 55 224 149 292c6 5 14 5 20 0c71 -84 133 -245 133 -358c0 -143 -86 -255 -180 -364c21 -68 39 -138 56 -207c4 0 9 1 13 1c155 0 256 -128 256 -261
c0 -76 -33 -154 -107 -210c-22 -17 -47 -28 -73 -36c3 -35 5 -70 5 -105c0 -19 -1 -39 -2 -58c-7 -119 -88 -225 -202 -228l1 43c93 2 153 92 159 191c1 18 2 37 2 55c0 31 -1 61 -4 92c-29 -5 -58 -8 -89 -8zM428 916c0 55 -4 79 -20 129c-99 -48 -162 -149 -162 -259
c0 -74 18 -133 36 -194c80 97 146 198 146 324z" fill="currentColor"/>
</g>
<g transform="translate(24.3892, 7.6243)">
<rect x="-0.0740" y="-0.5000" width="0.1480" height="3.2410" ry="0.0400" fill="currentColor"/>
</g>
<a style="color:inherit;" xlink:href="textedit:///home/paolo/programmi/SPONTINI/Spontini-master/tests/../examples/spanned-pedals-example.ly:40:1:2">
<g transform="translate(24.5418, 25.1156)">
<path transform="scale(0.0040, -0.0040)" d="M0 35c0 19 16 35 35 35s35 -16 35 -35s-16 -35 -35 -35s-35 16 -35 35z" fill="currentColor"/>
</g>
<g transform="translate(21.3498, 25.1156)">
<path transform="scale(0.0040, -0.0040)" d="M43 339c0 -19 13 -48 39 -48c22 0 43 28 43 59c0 8 18 8 18 0c0 -63 -41 -125 -83 -125c-41 0 -61 44 -61 78c0 82 90 197 251 197c108 0 166 -82 166 -144c0 -30 -17 -67 -52 -67s-68 49 -87 90c-3 7 13 14 16 7c8 -18 28 -32 46 -32c21 0 32 18 32 36
c0 39 -44 92 -121 92h-7c-10 -20 -39 -91 -39 -108c0 -46 100 -114 100 -164c0 -24 -28 -52 -58 -90c29 -3 83 -28 102 -44c13 -11 48 24 57 31c-4 19 -6 29 -6 48c0 60 32 132 96 132c25 0 49 -17 49 -45c0 -37 -43 -80 -79 -110l-11 -9c13 -24 33 -57 47 -69
c4 -4 13 -3 18 0c9 5 47 33 63 47c-4 14 -6 28 -6 42c0 55 45 112 97 137c-51 71 -129 126 -208 140c-8 1 -5 19 3 18c142 -25 305 -134 329 -272c1 -8 3 -16 3 -24c0 -70 -50 -142 -113 -142c-43 0 -81 37 -99 82c-24 -22 -73 -64 -85 -72c-8 -6 -19 -9 -30 -9
c-39 0 -51 46 -62 85c-27 -20 -90 -73 -106 -82c-6 -3 -12 -4 -17 0c-19 16 -28 89 -57 98c-25 -30 -47 -57 -56 -66c-11 -11 -64 -36 -65 -36h1c-7 0 -14 5 -14 12c0 13 21 38 30 47c18 19 67 57 95 61c18 21 30 29 30 49c0 47 -88 111 -88 150c0 24 43 134 60 162
c-113 -10 -181 -88 -181 -142zM475 254c-30 0 -43 -27 -43 -55c0 -20 6 -42 14 -60c26 22 63 54 63 83c0 19 -16 32 -34 32zM683 265c-37 -21 -55 -77 -55 -122c0 -48 18 -108 59 -108c32 0 45 39 45 81c0 61 -20 105 -49 149z" fill="currentColor"/>
</g>
</a>
<a style="color:inherit;" xlink:href="textedit:///home/paolo/programmi/SPONTINI/Spontini-master/tests/../examples/spanned-pedals-example.ly:40:1:2">
<g transform="translate(17.6058, 30.8354)">
<text font-family="serif" font-style="italic" font-size="2.2001" text-anchor="start" fill="currentColor">
<tspan>Sost. Ped.</tspan>
</text>
</g>
</a>
<g transform="translate(19.2947, 16.6243)">
<path transform="scale(0.0040, -0.0040)" d="M103 135c9 2 17 3 26 3c33 0 70 -11 105 -36c21 -15 46 -23 66 -23c21 0 39 9 44 29c2 6 6 9 11 9c6 0 12 -5 12 -12c0 -67 -90 -105 -138 -105c-36 0 -71 14 -96 44c-13 16 -31 22 -48 22c-30 0 -59 -20 -62 -55c-1 -7 -6 -11 -11 -11c-6 0 -12 4 -12 11
c0 175 235 165 235 344c0 60 -18 122 -70 122c-26 0 -51 -14 -51 -37c0 -27 35 -41 35 -68c0 -38 -30 -69 -68 -69s-69 31 -69 69c0 76 72 128 153 128c96 0 187 -56 187 -145c0 -153 -151 -159 -249 -220z" fill="currentColor"/>
</g>
<g transform="translate(19.2264, 18.6729)">
<path transform="scale(0.0040, -0.0040)" d="M196 117h117c0 -48 27 -94 72 -94c8 0 12 -5 12 -11s-4 -12 -12 -12c-44 0 -87 13 -131 13s-87 -13 -131 -13c-8 0 -12 6 -12 12s4 11 12 11c45 0 73 46 73 94zM204 307c22 14 44 29 60 50c11 15 19 33 27 50c2 4 5 6 9 6c6 0 13 -5 13 -14v-245h72c10 0 15 -7 15 -14
s-5 -15 -15 -15h-72v-8h-117v8h-167c-23 0 -31 14 -31 23c0 3 1 5 2 6c80 93 138 207 138 330c0 10 7 19 16 16c23 -7 47 -13 71 -13s48 6 71 13c14 4 23 -9 17 -16l-284 -330h167v131c0 8 1 17 8 22z" fill="currentColor"/>
</g>
<g transform="translate(15.0264, 17.6243)">
<path transform="scale(0.0040, -0.0040)" d="M266 -635h-6c-108 0 -195 88 -195 197c0 58 53 103 112 103c54 0 95 -47 95 -103c0 -52 -43 -95 -95 -95c-11 0 -21 2 -31 6c26 -39 68 -65 117 -65h4zM461 -203c68 24 113 95 113 164c0 90 -66 179 -173 190c24 -116 46 -231 60 -354zM74 28c0 -135 129 -247 264 -247
c28 0 55 2 82 6c-14 127 -37 245 -63 364c-79 -8 -124 -61 -124 -119c0 -44 25 -91 81 -123c5 -5 7 -10 7 -15c0 -11 -10 -22 -22 -22c-3 0 -6 1 -9 2c-80 43 -117 115 -117 185c0 88 58 174 160 197c-14 58 -29 117 -46 175c-107 -121 -213 -243 -213 -403zM335 -262
c-188 0 -333 172 -333 374c0 177 131 306 248 441c-19 62 -37 125 -45 190c-6 52 -7 104 -7 156c0 115 55 224 149 292c6 5 14 5 20 0c71 -84 133 -245 133 -358c0 -143 -86 -255 -180 -364c21 -68 39 -138 56 -207c4 0 9 1 13 1c155 0 256 -128 256 -261
c0 -76 -33 -154 -107 -210c-22 -17 -47 -28 -73 -36c3 -35 5 -70 5 -105c0 -19 -1 -39 -2 -58c-7 -119 -88 -225 -202 -228l1 43c93 2 153 92 159 191c1 18 2 37 2 55c0 31 -1 61 -4 92c-29 -5 -58 -8 -89 -8zM428 916c0 55 -4 79 -20 129c-99 -48 -162 -149 -162 -259
c0 -74 18 -133 36 -194c80 97 146 198 146 324z" fill="currentColor"/>
</g>
<a style="color:inherit;" xlink:href="textedit:///home/paolo/programmi/SPONTINI/Spontini-master/tests/../examples/spanned-pedals-example.ly:26:0:1">
<g transform="translate(19.2947, 7.6243)">
<path transform="scale(0.0040, -0.0040)" d="M103 135c9 2 17 3 26 3c33 0 70 -11 105 -36c21 -15 46 -23 66 -23c21 0 39 9 44 29c2 6 6 9 11 9c6 0 12 -5 12 -12c0 -67 -90 -105 -138 -105c-36 0 -71 14 -96 44c-13 16 -31 22 -48 22c-30 0 -59 -20 -62 -55c-1 -7 -6 -11 -11 -11c-6 0 -12 4 -12 11
c0 175 235 165 235 344c0 60 -18 122 -70 122c-26 0 -51 -14 -51 -37c0 -27 35 -41 35 -68c0 -38 -30 -69 -68 -69s-69 31 -69 69c0 76 72 128 153 128c96 0 187 -56 187 -145c0 -153 -151 -159 -249 -220z" fill="currentColor"/>
</g>
<g transform="translate(19.2264, 9.6729)">
<path transform="scale(0.0040, -0.0040)" d="M196 117h117c0 -48 27 -94 72 -94c8 0 12 -5 12 -11s-4 -12 -12 -12c-44 0 -87 13 -131 13s-87 -13 -131 -13c-8 0 -12 6 -12 12s4 11 12 11c45 0 73 46 73 94zM204 307c22 14 44 29 60 50c11 15 19 33 27 50c2 4 5 6 9 6c6 0 13 -5 13 -14v-245h72c10 0 15 -7 15 -14
s-5 -15 -15 -15h-72v-8h-117v8h-167c-23 0 -31 14 -31 23c0 3 1 5 2 6c80 93 138 207 138 330c0 10 7 19 16 16c23 -7 47 -13 71 -13s48 6 71 13c14 4 23 -9 17 -16l-284 -330h167v131c0 8 1 17 8 22z" fill="currentColor"/>
</g>
</a>
<a style="color:inherit;" xlink:href="textedit:///home/paolo/programmi/SPONTINI/Spontini-master/tests/../examples/spanned-pedals-example.ly:51:4:5">
<g transform="translate(23.0858, 10.6243)">
<path transform="scale(0.0040, -0.0040)" d="M314 65c0 24 -21 41 -42 41c-4 0 -8 0 -12 -1c-31 -9 -78 -40 -115 -64s-84 -53 -104 -78c-7 -8 -10 -18 -10 -28c0 -24 21 -41 42 -41c4 0 8 0 12 1c31 9 77 40 114 64s84 53 104 78c7 8 11 18 11 28zM262 136c46 0 82 -21 82 -71c0 -19 -4 -39 -10 -57
c-12 -37 -32 -72 -64 -94c-53 -36 -113 -50 -187 -50c-46 0 -83 21 -83 71c0 19 5 39 11 57c12 37 31 72 63 94c53 36 114 50 188 50z" fill="currentColor"/>
</g>
</a>
<g transform="translate(14.1443, 12.1243)">
<rect x="0.0000" y="-6.5569" width="0.1821" height="13.1138" ry="0.0569" fill="currentColor"/>
</g>
<g transform="translate(13.8443, 12.1243)">
<path transform="scale(0.0040, -0.0040)" d="M-189 -1146c0 267 108 528 108 780c0 135 -33 261 -129 360c-3 3 -3 3 -3 6s0 3 3 6c96 99 129 225 129 360c0 252 -108 513 -108 780c0 189 45 366 177 501c15 15 39 -9 24 -24c-99 -99 -129 -225 -129 -360c0 -249 102 -504 102 -765c0 -186 -45 -363 -174 -498
c129 -135 174 -312 174 -498c0 -261 -102 -516 -102 -765c0 -135 30 -261 129 -360c15 -15 -9 -39 -24 -24c-132 135 -177 312 -177 501z" fill="currentColor"/>
</g>
<a style="color:inherit;" xlink:href="textedit:///home/paolo/programmi/SPONTINI/Spontini-master/tests/../examples/spanned-pedals-example.ly:40:1:2">
<g transform="translate(25.8219, 25.1156)">
<line stroke-linejoin="round" stroke-linecap="round" stroke-width="0.1138" stroke="currentColor" x1="87.9892" y1="-0.0000" x2="87.9892" y2="-0.0000"/>
</g>
<g transform="translate(25.8219, 25.1156)">
<line stroke-linejoin="round" stroke-linecap="round" stroke-width="0.1138" stroke="currentColor" x1="0.0000" y1="-0.0000" x2="0.0000" y2="-0.0000"/>
</g>
<g transform="translate(25.8219, 25.1156)">
<line stroke-linejoin="round" stroke-linecap="round" stroke-width="0.1138" stroke="currentColor" x1="0.0000" y1="-0.0000" x2="87.9892" y2="-0.0000"/>
</g>
</a>
<a style="color:inherit;" xlink:href="textedit:///home/paolo/programmi/SPONTINI/Spontini-master/tests/../examples/spanned-pedals-example.ly:40:1:2">
<g transform="translate(29.5658, 30.8354)">
<line stroke-linejoin="round" stroke-linecap="round" stroke-width="0.1138" stroke="currentColor" x1="84.2452" y1="-0.0000" x2="84.2452" y2="-0.0000"/>
</g>
<g transform="translate(29.5658, 30.8354)">
<line stroke-linejoin="round" stroke-linecap="round" stroke-width="0.1138" stroke="currentColor" x1="0.0000" y1="-0.0000" x2="0.0000" y2="-0.0000"/>
</g>
<g transform="translate(29.5658, 30.8354)">
<line stroke-linejoin="round" stroke-linecap="round" stroke-width="0.1138" stroke="currentColor" x1="0.0000" y1="-0.0000" x2="84.2452" y2="-0.0000"/>
</g>
</a>
<g transform="translate(56.4055, 7.6243)">
<rect x="-0.0740" y="-0.5000" width="0.1480" height="3.2410" ry="0.0400" fill="currentColor"/>
</g>
<a style="color:inherit;" xlink:href="textedit:///home/paolo/programmi/SPONTINI/Spontini-master/tests/../examples/spanned-pedals-example.ly:51:18:19">
<g transform="translate(55.1021, 10.6243)">
<path transform="scale(0.0040, -0.0040)" d="M314 65c0 24 -21 41 -42 41c-4 0 -8 0 -12 -1c-31 -9 -78 -40 -115 -64s-84 -53 -104 -78c-7 -8 -10 -18 -10 -28c0 -24 21 -41 42 -41c4 0 8 0 12 1c31 9 77 40 114 64s84 53 104 78c7 8 11 18 11 28zM262 136c46 0 82 -21 82 -71c0 -19 -4 -39 -10 -57
c-12 -37 -32 -72 -64 -94c-53 -36 -113 -50 -187 -50c-46 0 -83 21 -83 71c0 19 5 39 11 57c12 37 31 72 63 94c53 36 114 50 188 50z" fill="currentColor"/>
</g>
</a>
<g y-direction="-1" thickness="0.20000000" editableclass="OSOPadder" spontinieditable="true" pads-propid="7">
<a style="color:inherit;" xlink:href="textedit:///home/paolo/programmi/SPONTINI/Spontini-master/tests/../examples/spanned-pedals-example.ly:57:1:2">
<g color="rgb(91.2000%, 93.4000%, 95.6000%)">
<g transform="translate(10.7382, 50.9323)">
<rect x="-0.2000" y="-0.2000" width="3.4046" height="0.2000" ry="0.0000" fill="currentColor"/>
</g>
<g transform="translate(13.7429, 52.8444)">
<rect x="0" y="-1.9120" width="0.2000" height="2.6290" ry="0.0000" fill="currentColor"/>
</g>
<g transform="translate(10.7382, 53.7614)">
<rect x="-0.2000" y="-0.2000" width="3.4046" height="0.2000" ry="0.0000" fill="currentColor"/>
</g>
<g transform="translate(10.5382, 52.8444)">
<rect x="0" y="-1.9120" width="0.2000" height="2.6290" ry="0.0000" fill="currentColor"/>
</g>
</g>
<g transform="translate(10.7382, 52.8444)">
<g>
<path transform="scale(0.0040, -0.0040)" d="M-41 146c26 76 82 153 149 153c22 0 36 -20 41 -45c22 26 51 45 81 45c23 0 38 -21 44 -46c22 27 51 46 80 46c33 0 59 -35 59 -69c0 -5 -1 -10 -2 -15l-35 -149c0 -2 -1 -4 -1 -5c0 -5 2 -8 7 -8c9 0 27 11 48 31c4 4 9 6 13 6c6 0 11 -4 11 -10c0 -4 -3 -8 -7 -12
c-40 -38 -85 -75 -131 -75c-20 0 -32 13 -32 32c0 4 0 7 1 11l39 165c1 5 2 9 2 14c0 10 -4 18 -14 18c-16 0 -33 -16 -39 -32l-53 -183c-3 -10 -12 -18 -22 -18h-41c-10 0 -16 8 -13 18l52 183c2 6 3 11 3 16c0 9 -4 16 -13 16c-16 0 -35 -16 -41 -33l-62 -182
c-3 -10 -14 -18 -24 -18h-41c-10 0 -15 8 -12 18l63 183c2 5 2 10 2 15c0 10 -3 17 -13 17c-29 0 -54 -53 -66 -87c-4 -11 -15 -17 -23 -17c-7 0 -12 4 -12 11c0 2 1 4 2 6z" fill="currentColor"/>

<path transform="translate(1.7413, 0.0000) scale(0.0040, -0.0040)" d="M253 245l-50 -163c-30 -99 -121 -255 -218 -255c-45 0 -87 27 -87 69c0 39 17 77 52 77c24 0 44 -20 44 -44c0 -30 -38 -24 -38 -54c0 -10 11 -11 23 -11h6c48 0 61 58 73 108l68 273h-49c-11 0 -19 8 -19 19s8 19 19 19h60c32 96 118 191 213 191c45 0 87 -27 87 -69
c0 -39 -17 -77 -52 -77c-24 0 -44 19 -44 43c0 30 38 25 38 55c0 10 -10 11 -22 11h-7c-62 0 -70 -88 -86 -154h55c11 0 19 -8 19 -19s-8 -19 -19 -19h-66z" fill="currentColor"/>
</g>
</g>
</a>
</g>
<g thickness="0.20000000" editableclass="OSOPadder" spontinieditable="true" y-direction="-1" pads-propid="1">
<a style="color:inherit;" xlink:href="textedit:///home/paolo/programmi/SPONTINI/Spontini-master/tests/../examples/spanned-pedals-example.ly:57:1:2">
<g color="rgb(91.2000%, 93.4000%, 95.6000%)">
<g transform="translate(11.4906, 53.9614)">
<rect x="-0.2000" y="-0.2000" width="31.0655" height="0.2000" ry="0.0000" fill="currentColor"/>
</g>
<g transform="translate(42.1561, 55.6344)">
<rect x="0" y="-1.6730" width="0.2000" height="5.1119" ry="0.0000" fill="currentColor"/>
</g>
<g transform="translate(11.4906, 59.2733)">
<rect x="-0.2000" y="-0.2000" width="31.0655" height="0.2000" ry="0.0000" fill="currentColor"/>
</g>
<g transform="translate(11.2906, 55.6344)">
<rect x="0" y="-1.6730" width="0.2000" height="5.1119" ry="0.0000" fill="currentColor"/>
</g>
</g>
<g transform="translate(11.4906, 55.6344)">
<text font-family="monospace" font-size="2.2001" text-anchor="start" fill="currentColor">
<tspan>Handle pedals with care</tspan>
</text>
</g>
</a>
</g>
<g thickness="0.20000000" editableclass="Padder" spontinieditable="true" y-direction="-1" pads-propid="8">
<a style="color:inherit;" xlink:href="textedit:///home/paolo/programmi/SPONTINI/Spontini-master/tests/../examples/spanned-pedals-example.ly:57:1:2">
<g color="rgb(91.2000%, 93.4000%, 95.6000%)">
<g transform="translate(11.4906, 60.5071)">
<rect x="-0.2000" y="-0.2000" width="4.3948" height="0.2000" ry="0.0000" fill="currentColor"/>
</g>
<g transform="translate(15.4853, 60.5071)">
<rect x="0" y="-0.0000" width="0.2000" height="5.6320" ry="0.0000" fill="currentColor"/>
</g>
<g transform="translate(11.4906, 66.3391)">
<rect x="-0.2000" y="-0.2000" width="4.3948" height="0.2000" ry="0.0000" fill="currentColor"/>
</g>
<g transform="translate(11.2906, 60.5071)">
<rect x="0" y="-0.0000" width="0.2000" height="5.6320" ry="0.0000" fill="currentColor"/>
</g>
</g>
<g transform="translate(11.4906, 60.5071)">
<text font-family="monospace" font-size="2.2001" text-anchor="start" fill="currentColor">
<tspan>   </tspan>
</text>
</g>
</a>
</g>
<g thickness="0.20000000" editableclass="OSOPadder" spontinieditable="true" y-direction="-1" pads-propid="6">
<a style="color:inherit;" xlink:href="textedit:///home/paolo/programmi/SPONTINI/Spontini-master/tests/../examples/spanned-pedals-example.ly:57:1:2">
<g color="rgb(91.2000%, 93.4000%, 95.6000%)">
<g transform="translate(12.2406, 49.5323)">
<rect x="-1.1000" y="-0.2000" width="2.2000" height="0.2000" ry="0.0000" fill="currentColor"/>
</g>
<g transform="translate(13.1405, 50.0323)">
<rect x="0" y="-0.5000" width="0.2000" height="1.0000" ry="0.0000" fill="currentColor"/>
</g>
<g transform="translate(12.2406, 50.7323)">
<rect x="-1.1000" y="-0.2000" width="2.2000" height="0.2000" ry="0.0000" fill="currentColor"/>
</g>
<g transform="translate(11.1406, 50.0323)">
<rect x="0" y="-0.5000" width="0.2000" height="1.0000" ry="0.0000" fill="currentColor"/>
</g>
</g>
<g transform="translate(12.2406, 50.0323)">
<path transform="scale(0.0040, -0.0040)" d="M-211 88c-8 2 -14 9 -14 18c0 11 10 21 23 18l408 -105c13 0 19 -6 19 -19s-6 -19 -19 -19l-408 -105c-13 -3 -23 7 -23 18c0 9 6 16 14 18l251 65l140 23l-140 23z" fill="currentColor"/>
</g>
</a>
</g>
<g transform="translate(113.5948, 38.2754)">
<rect x="0.0000" y="-2.0000" width="0.2162" height="4.0569" ry="0.0000" fill="currentColor"/>
</g>
<g transform="translate(77.5321, 47.2754)">
<rect x="0.0000" y="-2.0569" width="0.2162" height="4.0569" ry="0.0000" fill="currentColor"/>
</g>
<g transform="translate(77.5321, 38.2754)">
<rect x="0.0000" y="-2.0000" width="0.2162" height="4.0569" ry="0.0000" fill="currentColor"/>
</g>
<g transform="translate(77.5321, 33.9280)">
<rect x="0.0000" y="6.4044" width="0.2162" height="4.9431" ry="0.0000" fill="currentColor"/>
</g>
<g transform="translate(113.5948, 47.2754)">
<rect x="0.0000" y="-2.0569" width="0.2162" height="4.0569" ry="0.0000" fill="currentColor"/>
</g>
<g transform="translate(41.4695, 33.9280)">
<rect x="0.0000" y="6.4044" width="0.2162" height="4.9431" ry="0.0000" fill="currentColor"/>
</g>
<g transform="translate(113.5948, 33.9280)">
<rect x="0.0000" y="6.4044" width="0.2162" height="4.9431" ry="0.0000" fill="currentColor"/>
</g>
<g staffspace="1.00000000" gridcolor="#f0eee9" gridstep="1" gridify="true" lilypondversion="2.22.0" isstaff="true">
<g transform="translate(5.6906, 40.2754)">
<line stroke-linejoin="round" stroke-linecap="round" stroke-width="0.1138" stroke="currentColor" x1="0.0569" y1="0" x2="108.0636" y2="0"/>
</g>
<g transform="translate(5.6906, 39.2754)">
<line stroke-linejoin="round" stroke-linecap="round" stroke-width="0.1138" stroke="currentColor" x1="0.0569" y1="0" x2="108.0636" y2="0"/>
</g>
<g transform="translate(5.6906, 38.2754)">
<line stroke-linejoin="round" stroke-linecap="round" stroke-width="0.1138" stroke="currentColor" x1="0.0569" y1="0" x2="108.0636" y2="0"/>
</g>
<g transform="translate(5.6906, 37.2754)">
<line stroke-linejoin="round" stroke-linecap="round" stroke-width="0.1138" stroke="currentColor" x1="0.0569" y1="0" x2="108.0636" y2="0"/>
</g>
<g transform="translate(5.6906, 36.2754)">
<line stroke-linejoin="round" stroke-linecap="round" stroke-width="0.1138" stroke="currentColor" x1="0.0569" y1="0" x2="108.0636" y2="0"/>
</g>
</g>
<g transform="translate(5.6906, 41.2754)">
<rect x="77.5810" y="-0.1069" width="2.0660" height="0.2138" ry="0.1069" fill="currentColor"/>
</g>
<g transform="translate(5.6906, 41.2754)">
<rect x="41.5183" y="-0.1069" width="2.0660" height="0.2138" ry="0.1069" fill="currentColor"/>
</g>
<g transform="translate(5.6906, 41.2754)">
<rect x="5.4557" y="-0.1069" width="2.0660" height="0.2138" ry="0.1069" fill="currentColor"/>
</g>
<g staffspace="1.00000000" gridcolor="#f0eee9" gridstep="1" gridify="true" lilypondversion="2.22.0" isstaff="true">
<g transform="translate(5.6906, 49.2754)">
<line stroke-linejoin="round" stroke-linecap="round" stroke-width="0.1138" stroke="currentColor" x1="0.0569" y1="0" x2="108.0636" y2="0"/>
</g>
<g transform="translate(5.6906, 48.2754)">
<line stroke-linejoin="round" stroke-linecap="round" stroke-width="0.1138" stroke="currentColor" x1="0.0569" y1="0" x2="108.0636" y2="0"/>
</g>
<g transform="translate(5.6906, 47.2754)">
<line stroke-linejoin="round" stroke-linecap="round" stroke-width="0.1138" stroke="currentColor" x1="0.0569" y1="0" x2="108.0636" y2="0"/>
</g>
<g transform="translate(5.6906, 46.2754)">
<line stroke-linejoin="round" stroke-linecap="round" stroke-width="0.1138" stroke="currentColor" x1="0.0569" y1="0" x2="108.0636" y2="0"/>
</g>
<g transform="translate(5.6906, 45.2754)">
<line stroke-linejoin="round" stroke-linecap="round" stroke-width="0.1138" stroke="currentColor" x1="0.0569" y1="0" x2="108.0636" y2="0"/>
</g>
</g>
<g transform="translate(41.4695, 47.2754)">
<rect x="0.0000" y="-2.0569" width="0.2162" height="4.0569" ry="0.0000" fill="currentColor"/>
</g>
<g transform="translate(41.4695, 38.2754)">
<rect x="0.0000" y="-2.0000" width="0.2162" height="4.0569" ry="0.0000" fill="currentColor"/>
</g>
<g transform="translate(84.9192, 38.2754)">
<rect x="-0.0740" y="-0.5000" width="0.1480" height="3.2410" ry="0.0400" fill="currentColor"/>
</g>
<a style="color:inherit;" xlink:href="textedit:///home/paolo/programmi/SPONTINI/Spontini-master/tests/../examples/spanned-pedals-example.ly:70:32:33">
<g transform="translate(83.6158, 41.2754)">
<path transform="scale(0.0040, -0.0040)" d="M314 65c0 24 -21 41 -42 41c-4 0 -8 0 -12 -1c-31 -9 -78 -40 -115 -64s-84 -53 -104 -78c-7 -8 -10 -18 -10 -28c0 -24 21 -41 42 -41c4 0 8 0 12 1c31 9 77 40 114 64s84 53 104 78c7 8 11 18 11 28zM262 136c46 0 82 -21 82 -71c0 -19 -4 -39 -10 -57
c-12 -37 -32 -72 -64 -94c-53 -36 -113 -50 -187 -50c-46 0 -83 21 -83 71c0 19 5 39 11 57c12 37 31 72 63 94c53 36 114 50 188 50z" fill="currentColor"/>
</g>
</a>
<g transform="translate(6.4906, 48.2754)">
<path transform="scale(0.0040, -0.0040)" d="M266 -635h-6c-108 0 -195 88 -195 197c0 58 53 103 112 103c54 0 95 -47 95 -103c0 -52 -43 -95 -95 -95c-11 0 -21 2 -31 6c26 -39 68 -65 117 -65h4zM461 -203c68 24 113 95 113 164c0 90 -66 179 -173 190c24 -116 46 -231 60 -354zM74 28c0 -135 129 -247 264 -247
c28 0 55 2 82 6c-14 127 -37 245 -63 364c-79 -8 -124 -61 -124 -119c0 -44 25 -91 81 -123c5 -5 7 -10 7 -15c0 -11 -10 -22 -22 -22c-3 0 -6 1 -9 2c-80 43 -117 115 -117 185c0 88 58 174 160 197c-14 58 -29 117 -46 175c-107 -121 -213 -243 -213 -403zM335 -262
c-188 0 -333 172 -333 374c0 177 131 306 248 441c-19 62 -37 125 -45 190c-6 52 -7 104 -7 156c0 115 55 224 149 292c6 5 14 5 20 0c71 -84 133 -245 133 -358c0 -143 -86 -255 -180 -364c21 -68 39 -138 56 -207c4 0 9 1 13 1c155 0 256 -128 256 -261
c0 -76 -33 -154 -107 -210c-22 -17 -47 -28 -73 -36c3 -35 5 -70 5 -105c0 -19 -1 -39 -2 -58c-7 -119 -88 -225 -202 -228l1 43c93 2 153 92 159 191c1 18 2 37 2 55c0 31 -1 61 -4 92c-29 -5 -58 -8 -89 -8zM428 916c0 55 -4 79 -20 129c-99 -48 -162 -149 -162 -259
c0 -74 18 -133 36 -194c80 97 146 198 146 324z" fill="currentColor"/>
</g>
<g transform="translate(6.4906, 39.2754)">
<path transform="scale(0.0040, -0.0040)" d="M266 -635h-6c-108 0 -195 88 -195 197c0 58 53 103 112 103c54 0 95 -47 95 -103c0 -52 -43 -95 -95 -95c-11 0 -21 2 -31 6c26 -39 68 -65 117 -65h4zM461 -203c68 24 113 95 113 164c0 90 -66 179 -173 190c24 -116 46 -231 60 -354zM74 28c0 -135 129 -247 264 -247
c28 0 55 2 82 6c-14 127 -37 245 -63 364c-79 -8 -124 -61 -124 -119c0 -44 25 -91 81 -123c5 -5 7 -10 7 -15c0 -11 -10 -22 -22 -22c-3 0 -6 1 -9 2c-80 43 -117 115 -117 185c0 88 58 174 160 197c-14 58 -29 117 -46 175c-107 -121 -213 -243 -213 -403zM335 -262
c-188 0 -333 172 -333 374c0 177 131 306 248 441c-19 62 -37 125 -45 190c-6 52 -7 104 -7 156c0 115 55 224 149 292c6 5 14 5 20 0c71 -84 133 -245 133 -358c0 -143 -86 -255 -180 -364c21 -68 39 -138 56 -207c4 0 9 1 13 1c155 0 256 -128 256 -261
c0 -76 -33 -154 -107 -210c-22 -17 -47 -28 -73 -36c3 -35 5 -70 5 -105c0 -19 -1 -39 -2 -58c-7 -119 -88 -225 -202 -228l1 43c93 2 153 92 159 191c1 18 2 37 2 55c0 31 -1 61 -4 92c-29 -5 -58 -8 -89 -8zM428 916c0 55 -4 79 -20 129c-99 -48 -162 -149 -162 -259
c0 -74 18 -133 36 -194c80 97 146 198 146 324z" fill="currentColor"/>
</g>
<g transform="translate(4.5638, 35.2254)">
<text font-family="serif" font-size="1.7461" text-anchor="start" fill="currentColor">
<tspan>4</tspan>
</text>
</g>
<g transform="translate(5.6085, 42.7754)">
<rect x="0.0000" y="-6.5569" width="0.1821" height="13.1138" ry="0.0569" fill="currentColor"/>
</g>
<g transform="translate(5.3085, 42.7754)">
<path transform="scale(0.0040, -0.0040)" d="M-189 -1146c0 267 108 528 108 780c0 135 -33 261 -129 360c-3 3 -3 3 -3 6s0 3 3 6c96 99 129 225 129 360c0 252 -108 513 -108 780c0 189 45 366 177 501c15 15 39 -9 24 -24c-99 -99 -129 -225 -129 -360c0 -249 102 -504 102 -765c0 -186 -45 -363 -174 -498
c129 -135 174 -312 174 -498c0 -261 -102 -516 -102 -765c0 -135 30 -261 129 -360c15 -15 -9 -39 -24 -24c-132 135 -177 312 -177 501z" fill="currentColor"/>
</g>
<a style="color:inherit;" xlink:href="textedit:///home/paolo/programmi/SPONTINI/Spontini-master/tests/../examples/spanned-pedals-example.ly:40:1:2">
<g transform="translate(9.0556, 59.7902)">
<line stroke-linejoin="round" stroke-linecap="round" stroke-width="0.1138" stroke="currentColor" x1="38.4976" y1="-0.0000" x2="38.4976" y2="-1.0000"/>
</g>
<g transform="translate(9.0556, 59.7902)">
<line stroke-linejoin="round" stroke-linecap="round" stroke-width="0.1138" stroke="currentColor" x1="0.0000" y1="-0.0000" x2="0.0000" y2="-0.0000"/>
</g>
<g transform="translate(9.0556, 59.7902)">
<line stroke-linejoin="round" stroke-linecap="round" stroke-width="0.1138" stroke="currentColor" x1="0.0000" y1="-0.0000" x2="38.4976" y2="-0.0000"/>
</g>
</a>
<a style="color:inherit;" xlink:href="textedit:///home/paolo/programmi/SPONTINI/Spontini-master/tests/../examples/spanned-pedals-example.ly:40:1:2">
<g transform="translate(9.0556, 66.8560)">
<line stroke-linejoin="round" stroke-linecap="round" stroke-width="0.1138" stroke="currentColor" x1="74.5603" y1="-0.0000" x2="74.5603" y2="-1.0000"/>
</g>
<g transform="translate(9.0556, 66.8560)">
<line stroke-linejoin="round" stroke-linecap="round" stroke-width="0.1138" stroke="currentColor" x1="0.0000" y1="-0.0000" x2="0.0000" y2="-0.0000"/>
</g>
<g transform="translate(9.0556, 66.8560)">
<line stroke-linejoin="round" stroke-linecap="round" stroke-width="0.1138" stroke="currentColor" x1="0.0000" y1="-0.0000" x2="74.5603" y2="-0.0000"/>
</g>
</a>
<a style="color:inherit;" xlink:href="textedit:///home/paolo/programmi/SPONTINI/Spontini-master/tests/../examples/spanned-pedals-example.ly:70:4:5">
<g transform="translate(11.4906, 41.2754)">
<path transform="scale(0.0040, -0.0040)" d="M314 65c0 24 -21 41 -42 41c-4 0 -8 0 -12 -1c-31 -9 -78 -40 -115 -64s-84 -53 -104 -78c-7 -8 -10 -18 -10 -28c0 -24 21 -41 42 -41c4 0 8 0 12 1c31 9 77 40 114 64s84 53 104 78c7 8 11 18 11 28zM262 136c46 0 82 -21 82 -71c0 -19 -4 -39 -10 -57
c-12 -37 -32 -72 -64 -94c-53 -36 -113 -50 -187 -50c-46 0 -83 21 -83 71c0 19 5 39 11 57c12 37 31 72 63 94c53 36 114 50 188 50z" fill="currentColor"/>
</g>
</a>
<g transform="translate(48.8566, 38.2754)">
<rect x="-0.0740" y="-0.5000" width="0.1480" height="3.2410" ry="0.0400" fill="currentColor"/>
</g>
<a style="color:inherit;" xlink:href="textedit:///home/paolo/programmi/SPONTINI/Spontini-master/tests/../examples/spanned-pedals-example.ly:70:14:15">
<g transform="translate(47.5532, 41.2754)">
<path transform="scale(0.0040, -0.0040)" d="M314 65c0 24 -21 41 -42 41c-4 0 -8 0 -12 -1c-31 -9 -78 -40 -115 -64s-84 -53 -104 -78c-7 -8 -10 -18 -10 -28c0 -24 21 -41 42 -41c4 0 8 0 12 1c31 9 77 40 114 64s84 53 104 78c7 8 11 18 11 28zM262 136c46 0 82 -21 82 -71c0 -19 -4 -39 -10 -57
c-12 -37 -32 -72 -64 -94c-53 -36 -113 -50 -187 -50c-46 0 -83 21 -83 71c0 19 5 39 11 57c12 37 31 72 63 94c53 36 114 50 188 50z" fill="currentColor"/>
</g>
</a>
<g transform="translate(12.7939, 38.2754)">
<rect x="-0.0740" y="-0.5000" width="0.1480" height="3.2410" ry="0.0400" fill="currentColor"/>
</g>
<g transform="translate(28.9194, 165.1170)">
<a xlink:href="https://lilypond.org/">
<rect x="0.0000" y="-0.4780" width="61.6628" height="2.1510" fill="none" stroke="none" stroke-width="0.0"/>
</a>
</g>
<g transform="translate(28.9194, 165.1170)">
<text font-family="serif" font-size="2.2001" text-anchor="start" fill="currentColor">
<tspan>Music engraving by LilyPond 2.22.0—www.lilypond.org</tspan>
</text>
</g>
</svg>
